<?xml version="1.0" standalone="no"?>
<!DOCTYPE svg PUBLIC "-//W3C//DTD SVG 1.1//EN" "http://www.w3.org/Graphics/SVG/1.1/DTD/svg11.dtd" >
<svg xmlns="http://www.w3.org/2000/svg">
<metadata></metadata>
<defs>
<font id="myriad_pro_condregular" horiz-adv-x="656" >
<font-face units-per-em="2048" ascent="1536" descent="-512" />
<missing-glyph horiz-adv-x="343" />
<glyph unicode="ffj" horiz-adv-x="1405" d="M19 931v129h134v40q0 213 115 322q40 41 98.5 63.5t122.5 22.5q72 0 147 -34l-49 -129q-51 25 -96 25q-79 0 -121 -59q-48 -62 -48 -209v-42h329v71q0 59 11.5 114.5t40 109t71.5 92.5t110.5 63t152.5 24q62 0 118 -15t89 -36l-37 -131q-91 42 -174 42 q-63 0 -105.5 -20.5t-65.5 -60t-32.5 -87.5t-9.5 -113v-53h475v-993q0 -112 -11 -187t-34 -125.5t-62 -91.5q-45 -46 -111.5 -73t-120.5 -29l-23 134q31 8 52 15.5t48 25.5t43 43q30 42 40.5 113.5t10.5 224.5v814h-307v-931h-169v931h-329v-931h-169v931h-134z" />
<glyph unicode="fj" horiz-adv-x="908" d="M19 931v129h134v71q0 59 11.5 114.5t40 109t71.5 92.5t111 63t152 24q63 0 118.5 -15t89.5 -36l-37 -131q-91 42 -175 42q-62 0 -105 -20.5t-66 -60t-32.5 -87.5t-9.5 -113v-53h475v-993q0 -165 -24 -254.5t-83 -149.5q-44 -46 -111 -73t-121 -29l-21 134l24.5 7t25 8.5 t26 11.5t24 14t23 19t19.5 24q29 42 39.5 113.5t10.5 224.5v814h-307v-931h-169v931h-134z" />
<glyph unicode="ff" horiz-adv-x="987" d="M19 931v129h134v53q0 207 96 311q80 84 220 84q62 0 110 -20l-33 -133q-34 15 -79 15q-80 0 -112.5 -63.5t-32.5 -193.5v-53h320v65q0 212 94 319q42 47 99.5 68.5t111.5 21.5q78 0 134 -26l-29 -132q-41 18 -92 18q-149 0 -149 -267v-67h193v-129h-193v-931h-169v931 h-320v-931h-169v931h-134z" />
<glyph unicode="fi" horiz-adv-x="915" d="M19 931v129h134v71q0 59 11.5 114.5t40 109t71.5 92.5t111 63t152 24q63 0 118.5 -15t89.5 -36l-37 -131q-91 42 -175 42q-62 0 -105 -20.5t-66 -60t-32.5 -87.5t-9.5 -113v-53h475v-1060h-168v931h-307v-931h-169v931h-134z" />
<glyph unicode="fl" horiz-adv-x="915" d="M19 931v129h134v57q0 92 29.5 179.5t91.5 145.5q99 92 270 92q67 0 138 -15.5t118 -39.5v-1479h-169v1374q-54 22 -116 22q-43 0 -76.5 -14.5t-55 -39t-35.5 -59t-20 -72.5t-6 -82v-69h182v-129h-182v-931h-169v931h-134z" />
<glyph unicode="ffi" horiz-adv-x="1412" d="M19 931v129h134v40q0 213 115 322q40 41 98.5 63.5t122.5 22.5q72 0 147 -34l-49 -129q-51 25 -96 25q-79 0 -121 -59q-48 -62 -48 -209v-42h329v71q0 59 11.5 114.5t40 109t71.5 92.5t110.5 63t152.5 24q62 0 118 -15t89 -36l-37 -131q-91 42 -174 42 q-63 0 -105.5 -20.5t-65.5 -60t-32.5 -87.5t-9.5 -113v-53h475v-1060h-168v931h-307v-931h-169v931h-329v-931h-169v931h-134z" />
<glyph unicode="ffl" horiz-adv-x="1412" d="M19 931v129h134v40q0 213 115 322q40 41 98.5 63.5t122.5 22.5q72 0 147 -34l-49 -129q-51 25 -96 25q-79 0 -121 -59q-48 -62 -48 -209v-42h329v57q0 59 11 115.5t39.5 113t69.5 96.5q99 92 270 92q34 0 70.5 -4t69.5 -11.5t63 -18t53 -21.5v-1479h-168v1374 q-54 22 -117 22q-36 0 -65 -10t-50 -28t-36 -42.5t-24 -55t-13 -63t-4 -68.5v-69h182v-129h-182v-931h-169v931h-329v-931h-169v931h-134z" />
<glyph unicode=" "  horiz-adv-x="343" />
<glyph unicode="&#x09;" horiz-adv-x="343" />
<glyph unicode="&#xa0;" horiz-adv-x="343" />
<glyph unicode="!" horiz-adv-x="446" d="M117 101q0 53 30 86.5t77 33.5q48 0 77.5 -33t29.5 -87t-28.5 -86t-78.5 -32h-3q-29 0 -53 14.5t-37.5 41.5t-13.5 62zM132 1477h186l-25 -1065h-140z" />
<glyph unicode="&#x22;" horiz-adv-x="676" d="M109 1497h156l-31 -510h-94zM414 1497h155l-28 -510h-96z" />
<glyph unicode="#" horiz-adv-x="843" d="M48 437v113h159l40 335h-151v112h167l55 427h111l-55 -427h172l54 427h110l-55 -427h140v-112h-155l-42 -335h153v-109h-166l-56 -441h-115l57 441h-168l-56 -441h-113l56 437h-142zM318 550h169l42 335h-169z" />
<glyph unicode="$" horiz-adv-x="843" d="M111 109l40 132q109 -70 223 -70q95 0 149 62.5t54 159.5q0 62 -21.5 112.5t-62 91.5t-106.5 80q-46 28 -79.5 51t-71.5 57.5t-62 69.5t-39.5 83t-15.5 101q0 127 70.5 218t176.5 119v213h123v-200q43 0 85 -9t72 -22t53 -28l-44 -129q-90 55 -188 55q-86 0 -136.5 -57.5 t-50.5 -133.5q0 -33 5 -58.5t17.5 -48.5t26.5 -40.5t40.5 -38t51.5 -36.5t66 -41q86 -50 141.5 -109t81.5 -128.5t26 -152.5q0 -150 -72.5 -244t-188.5 -120v-232h-120v219q-70 2 -135 23.5t-109 50.5z" />
<glyph unicode="%" horiz-adv-x="1412" d="M65 1008q0 200 76.5 317t193.5 117h2q121 0 193 -117t72 -313q0 -108 -22 -193.5t-60.5 -136.5t-85.5 -77t-99 -26q-119 0 -194.5 116.5t-75.5 312.5zM195 1010q0 -61 6.5 -114.5t21.5 -103.5t43.5 -79t68.5 -29t68.5 29.5t42.5 79.5t20.5 102.5t6.5 112.5 q0 47 -3.5 89.5t-13 87.5t-24 77.5t-39.5 53t-58 20.5h-2q-38 0 -66.5 -29.5t-43.5 -79.5t-21.5 -104t-6.5 -113zM272 -31l758 1484h107l-758 -1484h-107zM811 414q0 199 76.5 317t193.5 118h2q120 0 192.5 -118.5t72.5 -314.5q0 -108 -22.5 -192.5t-60.5 -135.5t-85 -77 t-99 -26q-120 0 -195 116t-75 313zM941 416.5q0 -59.5 7 -115t23 -105t44 -79t66 -29.5q39 0 67.5 29.5t43 79.5t21 103t6.5 114q0 59 -6.5 112.5t-21 104.5t-43 81.5t-67.5 30.5h-2q-39 0 -67.5 -30t-43 -80t-21 -103.5t-6.5 -113z" />
<glyph unicode="&#x26;" horiz-adv-x="1075" d="M63 393q0 250 226 420v7q-107 170 -107 330q0 92 35 169.5t105.5 126.5t162.5 49q51 0 96.5 -19.5t82 -56.5t58 -96t21.5 -133q0 -112 -58 -205.5t-194 -191.5v-7q119 -200 280 -418q19 39 34.5 87t25 92t16 91.5t10 83.5t4.5 69h149q-13 -147 -52 -289t-107 -245 q22 -36 188 -257h-188l-39 52t-63 86q-58 -74 -142.5 -114.5t-175.5 -40.5q-72 0 -133 22.5t-103.5 62t-72.5 92t-44.5 111.5t-14.5 122zM226 410q0 -78 25.5 -143.5t79.5 -107.5t127 -42h2q131 0 217 128q-135 182 -320 465q-56 -54 -93.5 -131t-37.5 -169zM337 1161 q0 -75 20 -137t64 -132q87 66 131 137t44 154q0 49 -11.5 89t-41.5 69t-74 29h-2q-62 0 -96 -59t-34 -150z" />
<glyph unicode="'" horiz-adv-x="372" d="M109 1497h156l-31 -510h-94z" />
<glyph unicode="(" horiz-adv-x="554" d="M127 627q1 90 9 176t21 159.5t31 143t39 127t45 110.5t47.5 94.5t48.5 78.5h132q-103 -162 -165.5 -386t-62.5 -505q0 -277 62.5 -501t165.5 -387h-132q-46 68 -86 151t-76.5 193.5t-57.5 251t-21 294.5z" />
<glyph unicode=")" horiz-adv-x="554" d="M55 -263q102 161 164.5 387.5t62.5 504.5t-62.5 501.5t-164.5 385.5h131q47 -66 86.5 -148t76 -191.5t57.5 -250.5t21 -297q-2 -156 -23 -297t-57 -251t-75 -192.5t-86 -151.5h-131z" />
<glyph unicode="*" horiz-adv-x="816" d="M52 1067v131l287 -35l2 5l-181 254l114 66l132 -281h4l125 288l118 -67l-186 -262v-5l296 37v-131l-296 33v-4l190 -253l-122 -69l-129 289l-5 -3l-131 -293l-113 72l188 263v2z" />
<glyph unicode="+" horiz-adv-x="1305" d="M88 526v118h504v522h123v-522h504v-118h-504v-526h-123v526h-504z" />
<glyph unicode="," horiz-adv-x="424" d="M37 -276q36 99 74 249.5t54 260.5l190 23q-36 -132 -96.5 -288t-105.5 -230z" />
<glyph unicode="-" horiz-adv-x="610" d="M65 506v132h481v-132h-481z" />
<glyph unicode="." horiz-adv-x="424" d="M107 109q0 56 33 93t79 37q51 0 81.5 -36t30.5 -94t-29.5 -92t-82.5 -34h-2q-47 0 -78.5 35t-31.5 91z" />
<glyph unicode="/" horiz-adv-x="615" d="M17 -88l472 1583h126l-473 -1583h-125z" />
<glyph unicode="0" horiz-adv-x="843" d="M59 710q0 356 99.5 544t275.5 188q114 0 193 -87.5t118 -249.5t39 -390q0 -152 -18.5 -275t-52 -207.5t-80 -141t-101.5 -82.5t-118 -26q-167 0 -261 190.5t-94 536.5zM228 713q0 -132 11.5 -237.5t35 -184.5t62.5 -121.5t90 -42.5q49 0 85.5 43t59 122.5t33 184.5 t10.5 236q0 128 -10.5 232t-33 184t-60 124t-86.5 44q-50 0 -88 -43t-61.5 -121.5t-35.5 -184t-12 -235.5z" />
<glyph unicode="1" horiz-adv-x="843" d="M138 1249l301 175h140v-1424h-167v1253h-4l-237 -136z" />
<glyph unicode="2" horiz-adv-x="843" d="M71 0v109l119 165q7 9 20 27q48 66 72.5 101t68 100t67.5 107.5t55.5 104.5t47.5 111t28 107t12 111q0 120 -52.5 187t-151.5 67q-18 0 -36.5 -2.5t-33 -6t-30.5 -10t-27 -11.5t-24.5 -13t-20.5 -12.5t-19 -12.5l-15 -10l-42 126q47 39 119 68t159 29q86 0 152.5 -30.5 t107 -84.5t61 -123.5t20.5 -151.5q0 -78 -21 -161t-51 -154t-81 -157t-93.5 -147.5t-104.5 -147.5l-97 -132v-4h476v-149h-685z" />
<glyph unicode="3" horiz-adv-x="843" d="M61 48l37 134q97 -59 207 -59q111 0 178 76.5t67 208.5q0 137 -78 215t-209 78h-39v127h33q31 1 65 10.5t68.5 30t61.5 49t44 71.5t17 94q0 104 -51.5 161.5t-137.5 57.5q-82 0 -177 -68l-38 127q28 22 66 40t89 29.5t102 11.5q98 0 170.5 -44t109 -118t36.5 -167 q0 -108 -55.5 -196.5t-157.5 -136.5v-4q50 -14 93 -42.5t79 -72.5t57 -110.5t21 -147.5q0 -69 -17.5 -132.5t-52 -115.5t-82.5 -90.5t-114 -60t-142 -21.5q-69 0 -138.5 18t-111.5 47z" />
<glyph unicode="4" horiz-adv-x="843" d="M40 393v113l462 918h165v-893h155v-138h-155v-393h-154v393h-473zM199 531h314v402q0 77 13 281h-9q-70 -164 -120 -269l-198 -410v-4z" />
<glyph unicode="5" horiz-adv-x="843" d="M57 44l37 136q38 -23 91.5 -40t107.5 -17q55 0 103.5 21t85.5 61t59 103.5t22 143.5q0 82 -24.5 144.5t-68 100t-101.5 56t-128 18.5q-71 0 -112 -6l90 659h511v-149h-383l-60 -378q17 4 52 4q65 0 141.5 -28t130.5 -80q119 -119 119 -324q0 -140 -54.5 -251t-153 -173 t-223.5 -62q-66 0 -133 16.5t-109 44.5z" />
<glyph unicode="6" horiz-adv-x="843" d="M63 561q0 101 13 194.5t37.5 173.5t58 148t75.5 126t100 105.5t120 77t125 42.5q46 9 107 14v-143q-43 -3 -101 -15q-68 -16 -125 -54t-96 -87t-69 -113t-47 -126t-29 -133h7q91 136 241 136q91 0 160 -52.5t107.5 -152t38.5 -233.5q0 -137 -39 -245.5t-119.5 -174.5 t-190.5 -66q-91 0 -162.5 44t-117.5 122.5t-70 183t-24 228.5zM230 539q2 -209 59.5 -317.5t147.5 -108.5h2q77 0 128 84.5t51 258.5q0 158 -50.5 240t-140.5 82q-56 0 -105 -38.5t-79 -114.5q-13 -30 -13 -86z" />
<glyph unicode="7" horiz-adv-x="843" d="M81 1275v149h686v-100l-460 -1324h-165l452 1271v4h-513z" />
<glyph unicode="8" horiz-adv-x="843" d="M61 349q0 244 234 407l-2 5q-88 60 -137 147t-49 179q0 64 17.5 121t49 99.5t73 73t91.5 46t103 15.5q73 0 132.5 -29t96 -77t56 -107t19.5 -123q0 -38 -7.5 -74t-22 -71.5t-37 -68.5t-54 -63.5t-70.5 -57.5v-6q106 -70 167 -168t61 -220q0 -111 -45 -200.5t-129 -141.5 t-192 -52q-85 0 -154.5 32t-112 84.5t-65.5 117t-23 132.5zM228 377q0 -123 52 -196.5t143 -73.5q83 0 137.5 66t54.5 193q0 48 -11 90.5t-28.5 75t-45 63.5t-55 53.5t-63.5 45.5q-85 -53 -134.5 -138t-49.5 -179zM270 1098q0 -35 6.5 -66.5t19.5 -57t28 -46.5t36.5 -40.5 t40.5 -33.5t44 -30q66 47 104 116t38 147q0 105 -42 167.5t-118 62.5q-70 0 -113.5 -61t-43.5 -158z" />
<glyph unicode="9" horiz-adv-x="843" d="M65 960q0 97 26 185t71.5 154t114 104.5t148.5 38.5q88 0 157.5 -44.5t112.5 -123.5t65 -181.5t22 -222.5q0 -410 -188 -659q-62 -84 -147.5 -139.5t-181.5 -77.5q-57 -11 -118 -11v144q49 0 106 13q112 27 194 113q132 146 166 404h-6q-94 -120 -230 -120t-224 116 t-88 307zM232 975q0 -153 52 -232t141 -79q35 0 68.5 15t61.5 44t45 68q13 37 13 92q0 214 -54 321t-143 107h-2q-33 0 -64 -19t-58 -57.5t-43.5 -105.5t-16.5 -154z" />
<glyph unicode=":" horiz-adv-x="424" d="M109 105q0 54 32 90.5t78 36.5q50 0 79.5 -35t29.5 -92q0 -56 -28.5 -89t-80.5 -33h-2q-46 0 -77 34t-31 88zM109 909.5q0 53.5 32 89.5t78 36q51 0 80 -34.5t29 -90.5t-28.5 -90t-80.5 -34h-2q-46 0 -77 35t-31 88.5z" />
<glyph unicode=";" horiz-adv-x="424" d="M40 -276q35 99 73 249.5t54 260.5l186 23q-36 -132 -97 -288t-105 -230zM134 910q0 54 31.5 89.5t77.5 35.5q50 0 80 -34.5t30 -90.5t-29 -90t-81 -34h-2q-31 0 -55 15.5t-38 44t-14 64.5z" />
<glyph unicode="&#x3c;" horiz-adv-x="1305" d="M144 531v105l1017 530v-147l-850 -434v-4l850 -437v-144z" />
<glyph unicode="=" horiz-adv-x="1305" d="M88 322v121h1131v-121h-1131zM88 736v121h1131v-121h-1131z" />
<glyph unicode="&#x3e;" horiz-adv-x="1305" d="M144 0v144l877 437v4l-877 436v145l1017 -520v-127z" />
<glyph unicode="?" horiz-adv-x="676" d="M96 1447q31 21 92 38.5t126 17.5q79 0 139.5 -25t95.5 -68.5t52 -96t17 -112.5q0 -39 -8 -79t-17.5 -69t-30 -70.5t-32.5 -61.5t-39.5 -64.5t-36.5 -59.5q-53 -92 -70.5 -170.5t-6.5 -185.5l2 -38h-149l-4 34q-35 209 92 416q5 8 26 44t25.5 44t20 37t19.5 40.5t14 36.5 t13 41t6 38.5t3 44.5q0 90 -46 134t-123 44q-89 0 -144 -42zM186 103q0 55 31.5 90t77.5 35q51 0 81 -34.5t30 -90.5q0 -54 -29.5 -87t-81.5 -33h-2q-46 0 -76.5 33.5t-30.5 86.5z" />
<glyph unicode="@" horiz-adv-x="1292" d="M77 410q0 143 33.5 278.5t96.5 246t147.5 194t191.5 129.5t223 46q109 0 196 -39.5t144 -110t87.5 -167.5t30.5 -211q0 -302 -93.5 -468t-244.5 -166q-63 0 -97.5 45t-28.5 131h-7q-35 -65 -80.5 -106.5t-83.5 -55.5t-75 -14q-80 0 -129 62t-49 177q0 75 19 152t58 150 t93.5 130t132.5 91t167 34q85 0 153 -31l-88 -443q-22 -118 -9.5 -174t55.5 -56q39 0 77 37t67 101t47 159t18 203q0 231 -93 357t-282 126q-90 0 -176.5 -38t-159 -110t-127 -169.5t-85.5 -224.5t-31 -267q0 -265 119 -403.5t333 -138.5q132 0 270 71l25 -75 q-131 -83 -324 -83q-87 0 -164 24t-143 74.5t-113.5 124t-74 178t-26.5 230.5zM467 385q0 -70 23.5 -104t63.5 -34q43 0 87.5 39.5t76 99.5t45.5 124l63 320q-19 11 -61 11q-80 0 -150 -68.5t-109 -173.5t-39 -214z" />
<glyph unicode="A" horiz-adv-x="952" d="M48 0l337 1477h187l329 -1477h-167l-98 443h-327l-98 -443h-163zM333 579h280l-76 374q-30 150 -60 337h-8q-26 -169 -59 -337z" />
<glyph unicode="B" horiz-adv-x="910" d="M132 6v1449q114 28 247 28q218 0 326 -103q97 -90 97 -251q0 -113 -59.5 -199.5t-167.5 -129.5v-5q129 -35 201.5 -134t72.5 -243q0 -175 -106 -293q-119 -134 -390 -134q-141 0 -221 15zM301 134q38 -9 84 -9q134 0 212 76.5t78 216.5q0 74 -24.5 132.5t-67 95 t-95.5 55.5t-114 20h-73v-587zM301 851h76q106 0 181 73t75 187q0 42 -7.5 77.5t-26 66t-46 52t-69 33.5t-93.5 12q-55 0 -90 -11v-490z" />
<glyph unicode="C" horiz-adv-x="816" d="M71 721q0 122 16.5 226.5t45.5 181.5t69.5 139.5t86.5 103t98 68t102.5 39.5t102.5 12q123 0 184 -38l-38 -142q-13 6 -21.5 9t-23.5 7.5t-28.5 7t-33 4.5t-41.5 2q-50 0 -96.5 -19t-92 -64.5t-79 -113t-54.5 -172.5t-21 -236t19 -235t51 -171.5t77 -112t94.5 -63 t105.5 -18.5q87 0 155 33l27 -142q-74 -40 -211 -40q-110 0 -199.5 45t-156 133.5t-102.5 230t-36 325.5z" />
<glyph unicode="D" horiz-adv-x="974" d="M132 6v1449q94 28 228 28q221 0 345 -111q92 -80 146 -229t54 -369q0 -433 -177 -623q-141 -160 -408 -160q-118 0 -188 15zM301 138q24 -4 63 -4q59 0 109.5 17.5t99 62t82.5 114.5t54.5 183t20.5 258q0 283 -88 429.5t-263 146.5q-50 0 -78 -9v-1198z" />
<glyph unicode="E" horiz-adv-x="774" d="M132 0v1477h562v-147h-393v-487h370v-142h-370v-554h420v-147h-589z" />
<glyph unicode="F" horiz-adv-x="755" d="M132 0v1477h562v-147h-393v-517h368v-142h-368v-671h-169z" />
<glyph unicode="G" horiz-adv-x="954" d="M71 719q0 120 17.5 223.5t47.5 181t72.5 140t90.5 104.5t104 70t111 40.5t113 12.5q132 0 210 -42l-37 -145q-70 35 -171 35q-58 0 -111 -18.5t-103.5 -63t-87.5 -112t-59.5 -173t-22.5 -238t19.5 -237.5t52.5 -172.5t79 -112t95 -62.5t105 -18q68 0 103 17v482h-191v140 h351v-734q-50 -21 -122.5 -35.5t-140.5 -14.5q-219 0 -349 145q-83 88 -131 240q-45 145 -45 331v16z" />
<glyph unicode="H" horiz-adv-x="1014" d="M132 0v1477h169v-634h414v634h168v-1477h-168v690h-414v-690h-169z" />
<glyph unicode="I" horiz-adv-x="435" d="M132 0v1477h169v-1477h-169z" />
<glyph unicode="J" horiz-adv-x="579" d="M6 -2l15 142q29 -8 82 -8q38 0 66 6.5t52.5 25t39.5 50t23.5 81.5t8.5 119v1063h169v-1061q0 -121 -23.5 -206.5t-70 -134.5t-107.5 -70.5t-144 -21.5q-70 0 -111 15z" />
<glyph unicode="K" horiz-adv-x="884" d="M132 0v1477h169v-701h4q24 44 92 177l276 524h186l-361 -631l370 -846h-182l-303 713l-82 -144v-569h-169z" />
<glyph unicode="L" horiz-adv-x="753" d="M132 0v1477h169v-1335h416v-142h-585z" />
<glyph unicode="M" horiz-adv-x="1311" d="M96 0l88 1477h182l173 -675q84 -324 118 -509h7q34 198 110 509l167 675h188l85 -1477h-158l-31 636q-17 302 -17 478q0 56 2 100h-8q-56 -273 -119 -513l-182 -692h-107l-173 664q-84 328 -120 541h-8q0 -168 -17 -589l-29 -625h-151z" />
<glyph unicode="N" horiz-adv-x="1018" d="M132 0v1477h159l272 -693q141 -363 188 -514h5q-20 367 -20 679v528h151v-1477h-159l-281 710q-116 294 -175 502h-4q17 -262 17 -702v-510h-153z" />
<glyph unicode="O" horiz-adv-x="976" d="M71 740q0 360 117.5 557.5t315.5 197.5q190 0 296.5 -197t106.5 -549q0 -162 -21.5 -292t-60 -217.5t-93 -146t-117 -84.5t-135.5 -26q-188 0 -298.5 196t-110.5 561zM245 738q0 -95 7.5 -180t25.5 -164.5t45.5 -136.5t70.5 -91t97 -34q55 0 98 36t69.5 95t43.5 140.5 t23.5 164t6.5 175.5q0 88 -6.5 168.5t-24 161.5t-44 140t-69.5 95.5t-99 36.5q-53 0 -95.5 -34.5t-70 -92t-45.5 -137t-25.5 -164t-7.5 -179.5z" />
<glyph unicode="P" horiz-adv-x="874" d="M132 0v1455q109 28 245 28q217 0 326 -109q110 -107 110 -305q0 -183 -90 -302q-59 -79 -152.5 -122t-196.5 -43q-49 0 -73 3v-605h-169zM301 747q29 -7 65 -7q128 0 203 82.5t75 235.5q0 60 -13 109.5t-41 90.5t-78 64t-117 23q-59 0 -94 -11v-587z" />
<glyph unicode="Q" horiz-adv-x="976" d="M71 740q0 182 31 325.5t88.5 237.5t137.5 143t178 49q189 0 295 -197t106 -549q0 -294 -66 -467.5t-186 -231.5v-8q44 -19 92.5 -37t108.5 -38.5t85 -29.5l-63 -136q-202 84 -339 159q-47 23 -54 23q-74 0 -137 29t-114 89.5t-87.5 149.5t-56 213.5t-19.5 275.5zM245 740 v-25q0 -63 4 -121q5 -71 16 -140.5t30.5 -127t46 -101.5t65.5 -68.5t86 -24.5h2q46 0 82.5 24.5t62 69t44 101.5t28.5 127.5t15 140.5t5 148q0 90 -6.5 171t-23.5 162t-43 139t-68.5 94t-97.5 36t-99 -36t-71.5 -95t-45.5 -139t-25 -163q-7 -73 -7 -151v-21z" />
<glyph unicode="R" horiz-adv-x="895" d="M132 0v1455q105 28 242 28q226 0 334 -105q103 -106 103 -289q0 -271 -236 -379v-5q54 -16 92.5 -58t64 -108t42.5 -165q46 -286 83 -374h-171q-31 64 -79 366q-25 152 -79 215t-162 63h-65v-644h-169zM301 774h69q122 0 196 81t74 214q0 276 -253 279q-54 0 -86 -9v-565 z" />
<glyph unicode="S" horiz-adv-x="790" d="M61 50l37 145q39 -26 98.5 -42.5t114.5 -16.5q114 0 179.5 68t65.5 181q0 50 -13 92.5t-40.5 80t-60.5 68t-80 66.5q-279 194 -279 410q0 170 108 279.5t282 109.5q65 0 122 -17t87 -39l-42 -145q-71 51 -176 51q-52 0 -93.5 -18.5t-66.5 -49t-38 -67t-13 -75.5 q0 -36 5.5 -66t20 -56.5t29 -46.5t44 -45.5t52 -42.5t65.5 -48q132 -93 194 -196.5t62 -228t-54.5 -219.5t-148 -145t-211.5 -50q-72 0 -144.5 19.5t-105.5 43.5z" />
<glyph unicode="T" horiz-adv-x="774" d="M35 1326v151h708v-151h-270v-1326h-168v1326h-270z" />
<glyph unicode="U" horiz-adv-x="1000" d="M129 493v984h170v-990q0 -97 15 -167t43 -110.5t63 -59t80 -18.5q98 0 150.5 84t52.5 271v990h169v-964q0 -141 -27.5 -244.5t-79 -165t-118.5 -91t-152 -29.5t-150.5 28.5t-114.5 88.5t-75 159.5t-26 233.5z" />
<glyph unicode="V" horiz-adv-x="922" d="M35 1477h180l145 -693q74 -349 104 -567h7q21 186 98 572l141 688h179l-343 -1477h-174z" />
<glyph unicode="W" horiz-adv-x="1432" d="M44 1477h175l126 -712q49 -297 71 -533h9q6 66 17 143t18 117t27.5 145.5t25.5 129.5l135 710h145l136 -695l6 -33q21 -108 31.5 -168.5t25 -159t22.5 -189.5h7q29 253 79 542l123 703h164l-287 -1477h-165l-142 719q-53 283 -74 484h-4q-36 -276 -82 -490l-146 -713 h-159z" />
<glyph unicode="X" horiz-adv-x="858" d="M31 0l304 754l-293 723h175l132 -342q10 -23 21 -52.5t19.5 -52.5t23 -63t24.5 -66h4q70 217 78 241l121 335h173l-290 -718l305 -759h-177l-134 355q-36 94 -90 258h-6q-70 -207 -90 -262l-128 -351h-172z" />
<glyph unicode="Y" horiz-adv-x="862" d="M21 1477h178l132 -371q65 -178 110 -332h4q41 151 107 339l125 364h178l-340 -846v-631h-168v625z" />
<glyph unicode="Z" horiz-adv-x="784" d="M44 0v101l506 1225v6h-464v145h652v-114l-497 -1212v-7h495v-144h-692z" />
<glyph unicode="[" horiz-adv-x="554" d="M163 -245v1748h326v-116h-190v-1516h190v-116h-326z" />
<glyph unicode="\" horiz-adv-x="575" d="M2 1495h127l430 -1583h-128z" />
<glyph unicode="]" horiz-adv-x="554" d="M67 -129h190v1516h-190v116h326v-1748h-326v116z" />
<glyph unicode="^" horiz-adv-x="1305" d="M140 414l452 1010h123l451 -1010h-143l-368 851h-7l-368 -851h-140z" />
<glyph unicode="_" horiz-adv-x="1095" d="M0 -165h1096v-109h-1096v109z" />
<glyph unicode="`" d="M86 1495h173l168 -297h-111z" />
<glyph unicode="a" horiz-adv-x="797" d="M57 285q0 77 24 141t66 108.5t99.5 75.5t123 45.5t138.5 15.5v32q0 56 -7.5 98t-26 75.5t-52.5 51t-83 17.5q-90 0 -174 -56l-38 119q37 28 105.5 49.5t141.5 21.5q305 0 305 -380v-458q0 -174 11 -241h-153l-11 111h-7q-35 -61 -89 -94.5t-121 -33.5q-108 0 -180 83.5 t-72 218.5zM221 303q0 -95 39.5 -142.5t90.5 -47.5q58 0 100.5 42t56.5 119q5 19 5 59v215q-20 0 -38 -1.5t-44.5 -4.5t-49 -11t-47.5 -19.5t-44 -30.5t-35 -43t-25 -58.5t-9 -76.5z" />
<glyph unicode="b" horiz-adv-x="874" d="M107 0q1 20 3.5 73t4.5 101t2 81v1261h168v-581h4q75 144 224 144q127 0 208 -142.5t81 -395.5q0 -111 -17.5 -204.5t-48 -158t-71.5 -109t-87.5 -65.5t-97.5 -21q-78 0 -127 40t-83 115h-8l-9 -138h-146zM285 374q0 -48 6 -65q14 -56 34.5 -95t43 -57.5t42 -26 t38.5 -7.5q50 0 86.5 31.5t57.5 89t30.5 129.5t9.5 160q0 83 -10 153t-31.5 126.5t-58 88.5t-86.5 32q-56 0 -102 -58.5t-56 -129.5q-4 -25 -4 -74v-297z" />
<glyph unicode="c" horiz-adv-x="661" d="M73 523q0 115 28.5 215.5t80.5 175.5t132 118.5t177 43.5q41 0 82.5 -9.5t66.5 -23.5l-33 -138q-56 28 -120 28q-36 0 -67 -11.5t-56 -33t-45 -51t-34.5 -65t-24.5 -76.5t-14.5 -84.5t-4.5 -88.5q0 -185 67 -290.5t183 -105.5q58 0 122 28l23 -128q-70 -40 -176 -40 q-178 0 -282.5 139t-104.5 397z" />
<glyph unicode="d" horiz-adv-x="874" d="M73 526q0 110 17.5 202t47.5 156t71 108.5t87 65.5t97 21q61 0 111.5 -31.5t80.5 -96.5h5v565h166v-1261q0 -11 9 -255h-144l-12 134h-7q-29 -65 -86 -108t-135 -43q-138 0 -223 143.5t-85 399.5zM241 526q0 -115 18.5 -204t60 -144t101.5 -55q22 0 42.5 7.5t43.5 25.5 t43 56t33 93q7 29 7 69v283q0 46 -3 71q-8 84 -53 144.5t-105 60.5q-51 0 -88.5 -33t-58.5 -91t-31 -128.5t-10 -154.5z" />
<glyph unicode="e" horiz-adv-x="795" d="M73 519q0 257 97.5 408.5t258.5 151.5q63 0 114.5 -26t86 -70t58 -105t34 -128t10.5 -141q0 -68 -2 -94h-494q3 -394 253 -394q105 0 175 42l26 -126q-43 -24 -105 -37t-127 -13q-187 0 -286 142t-99 390zM239 640h330v18q1 136 -43 210q-46 78 -114 79 q-52 0 -91.5 -47.5t-59 -115.5t-22.5 -144z" />
<glyph unicode="f" horiz-adv-x="498" d="M19 931v129h134v65q0 212 94 319q42 47 99.5 68.5t113.5 21.5q76 0 132 -26l-29 -132q-41 18 -92 18q-149 0 -149 -267v-67h193v-129h-193v-931h-169v931h-134z" />
<glyph unicode="g" horiz-adv-x="874" d="M73 526q0 114 19.5 207.5t52.5 156.5t76.5 106.5t90 63t94.5 19.5q40 0 73 -12.5t56.5 -34t38.5 -43t28 -48.5h5l8 119h152q0 -20 -2 -59.5t-3 -73t-2 -87.5t-1 -110v-594q0 -137 -12.5 -226.5t-34.5 -141t-59 -92.5q-32 -37 -75 -62.5t-96 -39t-112 -13.5 q-65 0 -127.5 15t-104.5 39l40 130q89 -46 196 -46q106 0 162 76t56 250v107h-5q-18 -42 -49 -71t-70.5 -44t-84.5 -15q-93 0 -163.5 66t-108.5 185t-38 273zM241 535q0 -99 14.5 -176t41 -124t60 -71t72.5 -24q110 0 152 151q11 42 11 96v307q0 49 -9 77q-43 162 -154 162 q-90 0 -139 -108.5t-49 -289.5z" />
<glyph unicode="h" horiz-adv-x="887" d="M119 0v1516h168v-569h4q32 56 88 92q63 40 142 40q52 0 95.5 -22t78.5 -65.5t54.5 -117.5t19.5 -171v-703h-169v684q0 251 -142 251q-60 0 -102.5 -42.5t-62.5 -125.5q-6 -37 -6 -81v-686h-168z" />
<glyph unicode="i" horiz-adv-x="402" d="M101 1334.5q0 48.5 28 79t70 30.5q46 0 74 -30.5t28 -79.5q1 -48 -28 -78.5t-76 -30.5q-42 0 -69 30.5t-27 79zM119 0v1060h168v-1060h-168z" />
<glyph unicode="j" horiz-adv-x="411" d="M-61 -305q18 5 30.5 9t30 11t30.5 15t27 20.5t24 28.5q29 42 40 115t11 223v943h169v-993q0 -163 -25.5 -253t-82.5 -151q-45 -46 -111.5 -73t-121.5 -29zM117 1334v6q0 45 27 74q29 30 73 30t71.5 -30.5t27.5 -79.5t-28 -79t-75 -30q-42 0 -70 31q-26 28 -26 72v6z" />
<glyph unicode="k" horiz-adv-x="774" d="M117 0v1516h168v-949h4q38 84 58 119l209 374h182l-280 -447l305 -613h-188l-230 500l-60 -99v-401h-168z" />
<glyph unicode="l" horiz-adv-x="418" d="M119 0v1516h168v-1516h-168z" />
<glyph unicode="m" horiz-adv-x="1357" d="M109 1060h148l8 -131h5q36 68 97 109t141 41q77 0 135 -40.5t87 -122.5h4q44 80 105 121q60 42 148 42q55 0 99.5 -21.5t79.5 -65t54.5 -117.5t19.5 -172v-703h-166v664q0 46 -3 82t-12.5 73t-25.5 61t-43.5 39.5t-65.5 15.5q-53 0 -94.5 -42t-60.5 -115q-6 -43 -6 -96 v-682h-167v694q0 33 -2.5 60t-8 55.5t-16 50t-26.5 39.5t-39.5 27t-54.5 9q-53 0 -98.5 -45t-59.5 -125q-6 -43 -6 -92v-673h-166v786q0 73 -4.5 162.5t-5.5 111.5z" />
<glyph unicode="n" horiz-adv-x="887" d="M109 1060h148l8 -127h5q35 67 98.5 106.5t144.5 39.5q116 0 186 -91t70 -275v-713h-169v684q0 41 -3 74.5t-13 67.5t-25.5 57t-42.5 37.5t-62 14.5q-36 0 -68.5 -19t-57 -58.5t-35.5 -94.5q-6 -40 -6 -94v-669h-168v786q0 73 -4.5 162.5t-5.5 111.5z" />
<glyph unicode="o" horiz-adv-x="838" d="M73 529q0 112 19.5 205t52.5 156t78.5 106t96.5 63t107 20q72 0 133 -34.5t108.5 -100.5t74 -172t26.5 -241q0 -119 -21 -214.5t-56 -156.5t-81.5 -102t-95 -58t-99.5 -17q-72 0 -134 33.5t-109 99t-73.5 171.5t-26.5 242zM241 531q0 -41 2 -79t7.5 -80t14.5 -78 t23.5 -69.5t33 -57t45 -37t58.5 -13.5q41 0 73 27.5t50.5 70t30 100t15.5 109.5t4 107q0 37 -2 73.5t-7 78.5t-13.5 78.5t-22.5 70.5t-32 58t-44 38.5t-56 14.5q-44 0 -77 -28t-52 -70t-31 -99.5t-16 -109t-4 -105.5z" />
<glyph unicode="p" horiz-adv-x="874" d="M107 1060h152l9 -136h4q77 155 223 155q141 0 224 -144t83 -402q0 -114 -18 -207.5t-49 -156t-74 -105.5t-90 -62t-98 -19q-68 0 -113.5 35t-70.5 87h-4v-526h-168v1151q0 72 -2 135t-4.5 118.5t-3.5 76.5zM285 391q0 -64 6 -88q12 -54 31.5 -91.5t42.5 -55.5t42.5 -25.5 t39.5 -7.5q51 0 88 32.5t57.5 91t29.5 129t9 155.5t-10.5 155.5t-32 127t-58 88t-85.5 31.5q-37 0 -71.5 -28t-57 -72t-27.5 -93q-4 -26 -4 -81v-268z" />
<glyph unicode="q" horiz-adv-x="874" d="M73 517q0 109 17.5 201.5t48.5 158t73.5 111.5t91 68.5t102.5 22.5q57 0 109.5 -32.5t86.5 -108.5l5 -3l8 125h152q-8 -149 -8 -330v-1151h-169v530h-7q-27 -57 -80.5 -91.5t-123.5 -34.5q-134 0 -220 140.5t-86 393.5zM241 526q0 -115 19 -204t61.5 -144t105.5 -55 q111 0 154 178q9 26 9 90v273q0 51 -5 70q-9 84 -53.5 141.5t-100.5 57.5q-34 0 -62 -14.5t-48.5 -41.5t-36 -63.5t-25 -82.5t-14 -96.5t-4.5 -108.5z" />
<glyph unicode="r" horiz-adv-x="542" d="M107 1060h152l9 -165h4q27 77 89.5 130.5t133.5 53.5q7 0 19 -1.5t17 -1.5v-173q-11 2 -36 2q-52 0 -96 -29.5t-71.5 -80t-36.5 -111.5q-6 -44 -6 -97v-587h-168v786q0 53 -4.5 153t-5.5 121z" />
<glyph unicode="s" horiz-adv-x="632" d="M48 48l42 127q33 -21 79 -37.5t92 -16.5q72 0 113.5 41t41.5 112q0 42 -11.5 74.5t-41.5 65t-83 69.5q-108 70 -160.5 141t-52.5 160q0 128 84 211.5t209 83.5q99 0 190 -56l-46 -126q-68 46 -140 46q-65 0 -101.5 -39.5t-36.5 -94.5t26.5 -92.5t104.5 -91.5 q50 -32 87 -64t68.5 -71.5t48 -86.5t16.5 -100q0 -78 -25 -139t-69 -99t-101 -58t-123 -20q-60 0 -118.5 16.5t-92.5 44.5z" />
<glyph unicode="t" horiz-adv-x="558" d="M27 931v129h128v180l169 69v-249h205v-129h-205v-628q0 -176 113 -176q38 0 67 7l6 -130q-49 -17 -125 -17q-108 0 -166 63q-32 38 -48 100t-16 168v613h-128z" />
<glyph unicode="u" horiz-adv-x="872" d="M113 391v669h169v-646q0 -67 6.5 -116t21.5 -90t43.5 -62t71.5 -21q35 0 63.5 15t46 37.5t28 45t14.5 42.5q8 39 8 97v698h169v-771q0 -71 4.5 -179t4.5 -110h-148l-10 111h-5q-13 -21 -34 -42t-49 -41t-66 -32.5t-79 -12.5q-136 0 -197.5 102t-61.5 306z" />
<glyph unicode="v" horiz-adv-x="759" d="M29 1060h174l134 -596q31 -151 46 -257h8q7 58 43 257l131 596h167l-276 -1060h-151z" />
<glyph unicode="w" horiz-adv-x="1240" d="M29 1060h174l104 -519q6 -36 19.5 -107t22.5 -126.5t15 -104.5h8q20 143 67 334l122 523h129l117 -508q47 -211 67 -349h9q15 135 58 343l100 514h168l-266 -1060h-138l-123 515q-31 116 -59 317h-5q-21 -160 -62 -324l-127 -508h-142z" />
<glyph unicode="x" horiz-adv-x="744" d="M25 0l251 533l-245 527h182l98 -228q16 -34 38.5 -99t31.5 -87h4q15 40 41 108t30 78l96 228h173l-252 -523l250 -537h-184l-100 239q-14 31 -71 182h-4q-15 -44 -71 -182l-98 -239h-170z" />
<glyph unicode="y" horiz-adv-x="757" d="M29 1060h178l140 -608q5 -22 44 -220h4q10 56 46 217l124 611h167l-173 -681q-29 -115 -52.5 -200t-56 -179.5t-71.5 -170.5t-84 -134q-50 -63 -102 -104t-88 -58l-61 145q77 43 149 134q62 77 96 177q12 37 12 53q0 23 -6 39z" />
<glyph unicode="z" horiz-adv-x="685" d="M35 0v103l335 656q13 24 42.5 77.5t43.5 79.5v4h-379v140h565v-111l-331 -646q-12 -23 -42 -77.5t-43 -81.5v-4h416v-140h-607z" />
<glyph unicode="{" horiz-adv-x="554" d="M63 575v109q43 0 74 13.5t46.5 37t22.5 49t7 55.5q0 57 -14 189q-13 127 -13 195q0 72 21 126.5t59 87.5t87.5 49.5t108.5 16.5h27v-114h-33q-68 -8 -99 -48.5t-31 -115.5q0 -62 13 -171q1 -17 4.5 -51t5.5 -60t2 -51q1 -82 -18 -136.5t-51.5 -81t-82.5 -41.5v-4 q51 -15 82.5 -41.5t51 -81t18.5 -138.5q0 -24 -2 -51t-5.5 -62.5t-4.5 -51.5q-13 -109 -13 -168q0 -51 12.5 -85t42 -55t77.5 -27h31v-113h-29q-57 0 -104.5 15t-86.5 46.5t-61 87.5t-22 131q0 69 13 195q14 137 14 188q0 30 -7 55t-22.5 49.5t-46.5 38.5t-74 14z" />
<glyph unicode="|" horiz-adv-x="439" d="M151 -548v2192h138v-2192h-138z" />
<glyph unicode="}" horiz-adv-x="554" d="M65 -132h31q72 8 102 49t30 118q0 32 -11 168q-14 119 -14 165q-1 84 18.5 138.5t51 81t82.5 41.5v4q-50 15 -82 41.5t-51.5 81t-18.5 136.5q0 44 14 162q11 136 11 171q0 75 -31 115.5t-99 48.5h-33v114h27q60 0 109 -16.5t87 -49.5t59 -87.5t21 -126.5q0 -68 -13 -195 q-14 -132 -14 -189q0 -19 3 -37t9 -36t17.5 -32.5t27.5 -26t40 -17.5t53 -6v-109q-35 0 -62 -10t-43 -25t-26.5 -36t-14.5 -42t-4 -44q0 -51 14 -188q13 -126 13 -195q0 -75 -22 -131t-61 -87.5t-86.5 -46.5t-104.5 -15h-29v113z" />
<glyph unicode="~" horiz-adv-x="1305" d="M160 485q-4 139 63 216t178 77q106 0 283 -92q86 -46 143 -67t100 -21q55 0 80 47t23 124h118q8 -144 -53 -220t-173 -76q-62 0 -124.5 19t-157.5 69q-90 47 -148 70.5t-105 23.5q-112 0 -109 -170h-118z" />
<glyph unicode="&#xa1;" horiz-adv-x="446" d="M117 966q0 36 14 63.5t38 42.5t55 15h2q47 0 76 -33t29 -88q0 -53 -28.5 -85t-78.5 -32q-31 0 -55 14.5t-38 41.5t-14 61zM132 -414l21 1065h140l25 -1065h-186z" />
<glyph unicode="&#xa2;" horiz-adv-x="843" d="M136 719q0 95 20.5 180t59 151t95 110.5t126.5 60.5v205h119v-194q92 -4 147 -40l-30 -134q-71 40 -152 40q-47 0 -85 -24.5t-62 -63.5t-40 -91.5t-22.5 -105t-6.5 -108.5q0 -175 60 -276t168 -101q84 0 157 38l23 -127q-60 -38 -159 -44v-208h-120v212q-110 21 -189 112 q-109 133 -109 408z" />
<glyph unicode="&#xa3;" horiz-adv-x="843" d="M67 0v107q49 20 97 78.5t80 141.5t32 162q0 98 -13 180h-180v120h162q-30 137 -30 254q0 92 27 168.5t73.5 126.5t108 77t130.5 27q103 0 171 -44l-37 -135q-57 36 -134 36q-45 0 -79.5 -19.5t-55 -53t-30.5 -74t-10 -85.5q0 -55 5 -109.5t9 -79.5t15 -89h230v-120h-213 q18 -160 -9 -276q-36 -145 -138 -244v-5h496v-144h-707z" />
<glyph unicode="&#xa4;" horiz-adv-x="843" d="M-9 1137l90 92l136 -162q38 42 94 67t112 25h2q55 0 112 -24.5t94 -65.5l134 158l88 -87l-161 -161q53 -108 53 -258q0 -155 -53 -257l159 -163l-86 -88l-138 159q-26 -27 -61.5 -48.5t-73.5 -32.5t-74 -11t-73.5 11t-71.5 31.5t-58 47.5l-134 -157l-87 88l155 157 q-55 109 -55 259q0 148 59 262zM243 717q0 -90 22.5 -160t63 -108.5t92.5 -38.5q54 -2 94 36.5t60.5 109t20.5 163.5q0 137 -46 224t-127 87h-2q-84 0 -131 -83.5t-47 -229.5z" />
<glyph unicode="&#xa5;" horiz-adv-x="843" d="M33 1424h168l148 -418q55 -159 74 -224h4q32 118 73 226l153 416h160l-280 -650h238v-101h-280v-163h280v-100h-280v-410h-156v410h-274v100h274v163h-274v101h232z" />
<glyph unicode="&#xa6;" horiz-adv-x="439" d="M151 381h138v-766h-138v766zM151 710v767h138v-767h-138z" />
<glyph unicode="&#xa7;" horiz-adv-x="878" d="M67 756q0 141 152 258q-32 29 -53.5 75.5t-23.5 102.5q0 71 29.5 129t78.5 95.5t112.5 58t132.5 20.5q136 0 222 -58l-40 -113q-76 52 -190 52q-37 0 -70.5 -9t-63 -27t-47 -50t-17.5 -73q0 -18 2.5 -33.5t9.5 -29.5t12.5 -25.5t18.5 -23t21 -19.5t26.5 -18.5t28 -16 t32 -16t32 -14.5t34.5 -15q55 -23 94 -43.5t81 -51t68 -64.5t43 -82.5t17 -105.5q0 -82 -32 -144.5t-98 -119.5q17 -17 32 -41t27.5 -64t12.5 -81q0 -79 -28.5 -140.5t-77.5 -100t-112 -58t-136 -19.5q-83 0 -158 20t-118 54l42 118q42 -29 103.5 -51.5t134.5 -22.5 q56 0 101 17.5t75 57.5t30 98q0 73 -50.5 123t-179.5 111q-50 23 -85.5 42.5t-73.5 44t-63 50t-46 56t-31.5 68t-10.5 79.5zM201 774q0 -110 176 -191q157 -76 215 -123q41 26 64 73.5t23 99.5q0 122 -150 197q-7 3 -31.5 14.5t-34.5 16t-32.5 15t-35.5 17.5t-31.5 17 t-33.5 19.5t-29 19.5q-100 -68 -100 -173v-2z" />
<glyph unicode="&#xa8;" d="M61 1336q0 42 29 70.5t70 28.5q27 0 47.5 -12.5t33 -35t12.5 -51.5q0 -41 -26.5 -68.5t-66.5 -27.5h-3q-39 0 -67.5 28t-28.5 68zM403 1336q0 42 28.5 70.5t68.5 28.5q26 0 47.5 -12.5t34 -35t12.5 -51.5q0 -41 -27 -68.5t-67 -27.5h-2q-40 0 -67.5 28t-27.5 68z" />
<glyph unicode="&#xa9;" horiz-adv-x="1483" d="M73 745q0 110 33.5 212.5t95 186t143.5 146t185.5 96.5t214.5 34h2q137 0 260.5 -53.5t212 -144t140 -215.5t51.5 -262q0 -139 -52 -265t-140.5 -217t-212 -144.5t-261.5 -53.5q-139 0 -264 53.5t-214 144.5t-141.5 217t-52.5 265zM182 738q0 -120 43.5 -228t117.5 -186 t179 -123.5t223 -45.5q115 -1 218.5 44.5t178 124.5t117.5 188.5t43 232.5q0 120 -43.5 228.5t-117.5 186.5t-177.5 124t-218.5 46h-2q-94 0 -180.5 -29.5t-155 -83.5t-119.5 -126.5t-78.5 -163t-27.5 -189.5zM379 732q0 121 57.5 215t153.5 143.5t212 49.5q75 0 142 -18 t95 -37l-27 -88q-100 48 -212 48q-146 0 -226.5 -85t-80.5 -222q0 -135 81.5 -222t225.5 -87q122 0 219 51l26 -81q-107 -64 -267 -64q-91 0 -167 31t-126.5 85t-78 126.5t-27.5 154.5z" />
<glyph unicode="&#xaa;" horiz-adv-x="598" d="M59 767q0 65 27.5 115t76 80t110 45.5t133.5 15.5v25q0 24 -5 44.5t-15.5 38t-25.5 29.5t-37 19t-49 7q-77 0 -140 -46l-29 89q80 59 190 59q113 0 170.5 -68.5t57.5 -194.5v-287q0 -89 10 -161h-106l-11 76h-4q-55 -88 -167 -88q-77 0 -131.5 55.5t-54.5 146.5zM180 782 q0 -55 31 -85t71 -30q69 0 109 65q17 26 17 48v151q-20 0 -39 -1.5t-47 -6t-51.5 -15t-45 -26t-33.5 -41.5t-12 -59z" />
<glyph unicode="&#xab;" horiz-adv-x="774" d="M55 552l225 381h136l-228 -381l228 -381h-138zM366 552l228 381h136l-228 -381l228 -381h-138z" />
<glyph unicode="&#xac;" horiz-adv-x="1305" d="M88 751v121h1131v-609h-123v488h-1008z" />
<glyph unicode="&#xad;" horiz-adv-x="636" d="M65 506v132h481v-132h-481z" />
<glyph unicode="&#xae;" horiz-adv-x="814" d="M63 1155q0 70 27.5 133.5t73.5 109t109.5 72.5t134.5 27h2q94 0 172.5 -45.5t123.5 -124.5t45 -172.5t-45.5 -172.5t-124.5 -125t-173 -46t-173.5 46t-125.5 125t-46 173zM147 1154.5q0 -113.5 75 -192.5t186 -79q72 -1 132 35.5t93.5 99t33.5 137.5q0 114 -74.5 192.5 t-184.5 78.5h-2q-110 0 -184.5 -79t-74.5 -192.5zM280 977v342q73 11 123 11q74 0 114 -28q15 -10 25 -29.5t10 -43.5q0 -28 -20 -49t-52 -30v-4q26 -8 39.5 -28.5t21.5 -57.5q14 -63 24 -83h-76q-13 15 -27 83q-5 28 -21.5 40.5t-49.5 12.5h-38v-136h-73zM355 1171h38 q35 0 56.5 12.5t21.5 37.5q0 50 -72 50q-12 0 -26.5 -1t-17.5 -1v-98z" />
<glyph unicode="&#xaf;" d="M113 1273v109h433v-109h-433z" />
<glyph unicode="&#xb0;" horiz-adv-x="613" d="M61 1217q0 78 37 144t99 103t134 37h2q74 0 135 -38t95.5 -102t34.5 -140q0 -82 -38.5 -147.5t-100 -100.5t-131.5 -35q-113 0 -190 80.5t-77 198.5zM165 1217q0 -80 48 -136t118 -56q69 0 116.5 56t47.5 138q0 51 -20 95t-58.5 70.5t-85.5 26.5h-3q-45 0 -82.5 -26 t-59 -71t-21.5 -97z" />
<glyph unicode="&#xb1;" horiz-adv-x="1305" d="M88 0v121h1131v-121h-1131zM88 697v120h504v425h123v-425h504v-120h-504v-440h-123v440h-504z" />
<glyph unicode="&#xb2;" horiz-adv-x="536" d="M4 914v63l90 110q5 6 15 19q36 44 55 68.5t50.5 67t49 73t37 68.5t28 72.5t8.5 67.5q0 71 -35 106.5t-95 35.5q-73 0 -146 -59l-34 96q31 32 88 54.5t126 22.5q60 0 106.5 -18.5t74.5 -51.5t41.5 -74.5t13.5 -89.5q0 -56 -19.5 -115t-57.5 -118.5t-69.5 -101.5t-77.5 -97 l-67 -80v-5h307v-114h-489z" />
<glyph unicode="&#xb3;" horiz-adv-x="514" d="M2 949l29 103q74 -44 153 -44q68 0 111.5 40.5t43.5 112.5q0 81 -50.5 124t-141.5 43h-18v92h15q35 0 73.5 14t69.5 47.5t31 78.5q0 55 -31.5 85t-83.5 30q-72 0 -138 -46l-28 94q82 56 193 56q53 0 95.5 -15.5t69.5 -42.5t42 -63t15 -78q0 -64 -37.5 -115.5 t-103.5 -79.5v-5q67 -14 116.5 -71t49.5 -143q0 -114 -80.5 -188.5t-216.5 -74.5q-102 0 -178 46z" />
<glyph unicode="&#xb4;" d="M243 1198l169 297h173l-230 -297h-112z" />
<glyph unicode="&#xb5;" horiz-adv-x="874" d="M117 -101v1161h168v-698q0 -239 140 -239q36 0 65.5 14.5t47.5 38t28 46t15 43.5q9 36 9 97v698h166v-832q0 -61 15 -90.5t53 -28.5l-17 -120q-23 -6 -56 -6q-110 0 -136 126h-4q-22 -42 -73 -78.5t-111 -36.5q-50 0 -87 17t-62 62v-156q0 -222 21 -338h-155 q-27 86 -27 320z" />
<glyph unicode="&#xb6;" horiz-adv-x="878" d="M65 993q-4 76 12 146t54 132t95 107.5t141 72t187 26.5q97 0 195 -13v-1573h-109v1476h-130v-1476h-109v709h-14q-24 0 -51.5 7t-57.5 22.5t-58.5 38t-55 55t-47 71.5t-34.5 90.5t-18 108.5z" />
<glyph unicode="&#xb7;" horiz-adv-x="424" d="M101 567q0 27 9 50.5t24.5 39.5t36 25.5t42.5 9.5q32 0 57.5 -15t39.5 -43.5t14 -66.5t-13.5 -66t-39 -43t-58.5 -15h-2q-46 0 -78 34t-32 90z" />
<glyph unicode="&#xb8;" d="M155 -399l35 92q53 -32 111 -32q78 0 78 65q0 42 -41 65.5t-110 30.5l88 189h105l-61 -120q57 -9 99.5 -52.5t42.5 -103.5q0 -37 -11.5 -66.5t-31 -49t-45.5 -33t-53.5 -19.5t-57.5 -6q-75 0 -148 40z" />
<glyph unicode="&#xb9;" horiz-adv-x="464" d="M25 1663l207 106h113v-855h-132v730h-4l-161 -86z" />
<glyph unicode="&#xba;" horiz-adv-x="661" d="M75 927q0 71 13.5 130.5t38 101.5t57.5 71.5t71 43.5t80 14h2q118 0 183 -91.5t65 -267.5q0 -96 -22 -169t-59.5 -114t-81.5 -61t-94 -20q-112 0 -182.5 93t-70.5 269zM201 927q0 -38 4 -73.5t14 -70.5t24 -61t36 -42t49 -16q39 0 66.5 24.5t40 66t18 83t5.5 89.5 q0 47 -5.5 88.5t-18.5 83.5t-40 66.5t-66 24.5h-2q-33 0 -58.5 -26t-39.5 -67t-20.5 -84.5t-6.5 -85.5z" />
<glyph unicode="&#xbb;" horiz-adv-x="774" d="M46 171l228 381l-228 381h136l226 -381l-222 -381h-140zM360 171l227 381l-227 381h135l226 -381l-223 -381h-138z" />
<glyph unicode="&#xbc;" horiz-adv-x="1342" d="M67 1326l207 105h113v-854h-130v729h-4l-163 -85zM234 -17l745 1459h108l-746 -1459h-107zM730 232v79l315 550h132v-526h101v-103h-101v-232h-125v232h-322zM861 335h191v219q0 30 1.5 60t4 60.5t2.5 40.5h-4q-12 -23 -34.5 -72t-39.5 -80l-121 -224v-4z" />
<glyph unicode="&#xbd;" horiz-adv-x="1342" d="M33 1326l208 105h112v-854h-132v729h-4l-160 -85zM182 -17l745 1459h108l-746 -1459h-107zM778 0v63l90 110q5 7 15 19q43 54 65.5 83t59 80.5t55 88t33.5 81.5t15 84q0 48 -17.5 80.5t-46 47t-68.5 14.5q-71 0 -144 -59l-35 97q32 31 89 54t125 23q61 0 107.5 -19 t74 -52t41.5 -74t14 -90q0 -45 -14.5 -94.5t-35.5 -91t-53.5 -89.5t-59.5 -81.5t-63 -75.5l-65 -80v-6h307v-113h-489z" />
<glyph unicode="&#xbe;" horiz-adv-x="1342" d="M61 611l29 104q74 -44 153 -44q68 0 112 40.5t44 112.5q0 81 -50.5 124t-141.5 43h-19v92h15q26 1 54.5 9.5t56 24.5t45.5 44t18 62q0 55 -31 84t-83 29q-72 0 -138 -46l-29 95q84 57 193 57q104 0 162.5 -57t58.5 -143q0 -64 -37 -115t-103 -79v-5q31 -6 60.5 -23.5 t53.5 -44.5t38.5 -65t14.5 -82q0 -114 -80.5 -188.5t-215.5 -74.5q-105 0 -180 46zM272 -17l744 1459h109l-746 -1459h-107zM736 232v79l316 550h129v-526h103v-103h-103v-232h-123v232h-322zM866 335h192v219q0 86 9 161h-4q-10 -18 -34.5 -69t-41.5 -83l-121 -224v-4z" />
<glyph unicode="&#xbf;" horiz-adv-x="676" d="M59 -136q0 39 8 79t17.5 69t30.5 70t33 61.5t39.5 65t36.5 59.5q53 93 71 172t6 185l-2 36h150l5 -32q31 -210 -92 -416q-5 -8 -22 -36t-21 -35t-18 -31t-18 -32.5t-14 -29.5t-13 -32t-9.5 -29.5t-8.5 -33t-4 -32.5t-2 -35q0 -61 22.5 -101.5t59.5 -58.5t87 -18 q85 0 145 42l37 -132q-31 -22 -92 -40t-127 -18q-79 0 -139.5 25.5t-96 68.5t-52.5 96t-17 113zM274 964q0 56 30 89.5t79 33.5h2q48 0 78 -33.5t30 -89.5q0 -54 -29.5 -88.5t-78.5 -34.5q-50 0 -80.5 34.5t-30.5 88.5z" />
<glyph unicode="&#xc0;" horiz-adv-x="952" d="M48 0l337 1477h187l329 -1477h-167l-98 443h-327l-98 -443h-163zM188 1792h199l209 -236h-134zM333 579h280l-76 374q-30 150 -60 337h-8q-26 -169 -59 -337z" />
<glyph unicode="&#xc1;" horiz-adv-x="952" d="M48 0l337 1477h187l329 -1477h-167l-98 443h-327l-98 -443h-163zM333 579h280l-76 374q-30 150 -60 337h-8q-26 -169 -59 -337zM370 1556l207 236h199l-272 -236h-134z" />
<glyph unicode="&#xc2;" horiz-adv-x="952" d="M48 0l337 1477h187l329 -1477h-167l-98 443h-327l-98 -443h-163zM217 1556l189 215h146l191 -215h-149l-114 121h-5l-111 -121h-147zM333 579h280l-76 374q-30 150 -60 337h-8q-26 -169 -59 -337z" />
<glyph unicode="&#xc3;" horiz-adv-x="952" d="M48 0l337 1477h187l329 -1477h-167l-98 443h-327l-98 -443h-163zM249 1573q0 94 35 150t97 56q19 0 40 -6.5t32 -12.5t32 -18q8 -5 22.5 -14t22 -13.5t18.5 -8.5t21 -4q19 0 31 8t19 25t10 47h88q3 -197 -136 -197q-45 0 -108 37q-2 2 -10 7t-10.5 7t-9.5 6t-10 5.5 l-9 4.5t-10 4t-9 1.5t-10 0.5q-47 0 -54 -85h-92zM333 579h280l-76 374q-30 150 -60 337h-8q-26 -169 -59 -337z" />
<glyph unicode="&#xc4;" horiz-adv-x="952" d="M48 0l337 1477h187l329 -1477h-167l-98 443h-327l-98 -443h-163zM213 1675q0 28 12.5 52t34 37t47.5 13q42 0 68 -29t26 -73q0 -46 -25.5 -74t-68.5 -28h-2q-40 0 -66 28t-26 74zM333 579h280l-76 374q-30 150 -60 337h-8q-26 -169 -59 -337zM565 1675q0 29 12.5 52.5 t34.5 36.5t49 13q42 0 68.5 -29t26.5 -73q0 -46 -26 -74t-69 -28h-2q-26 0 -47.5 12.5t-34 36t-12.5 53.5z" />
<glyph unicode="&#xc5;" horiz-adv-x="952" d="M48 0l337 1477h187l329 -1477h-167l-98 443h-327l-98 -443h-163zM278 1714q0 80 57 137.5t150 57.5h2q92 0 146.5 -55.5t54.5 -137.5q0 -79 -56.5 -135t-146.5 -56q-94 0 -150.5 55t-56.5 134zM333 579h280l-76 374q-30 150 -60 337h-8q-26 -169 -59 -337zM383 1714 q0 -40 28 -74t72 -34q23 0 42 9.5t31.5 25t19.5 35.5t7 42q0 47 -27.5 79.5t-72.5 32.5h-3q-45 0 -71 -34.5t-26 -81.5z" />
<glyph unicode="&#xc6;" horiz-adv-x="1217" d="M17 0l445 1477h667v-147h-408l28 -495h376v-143h-362l30 -545h393l-3 -147h-541l-29 487h-293l-138 -487h-165zM355 623h245l-19 448q-2 54 -7.5 157t-6.5 131h-11q-4 -15 -36.5 -137t-48.5 -179z" />
<glyph unicode="&#xc7;" horiz-adv-x="867" d="M71 721q0 122 16.5 226.5t45.5 181.5t69.5 139.5t86.5 103t98 68t102.5 39.5t102.5 12q123 0 184 -38l-38 -142q-13 6 -21.5 9t-23.5 7.5t-28.5 7t-33 4.5t-41.5 2q-50 0 -96.5 -19t-92 -64.5t-79 -113t-54.5 -172.5t-21 -236t19 -235t51 -171.5t77 -112t94.5 -63 t105.5 -18.5q87 0 155 33l27 -142q-70 -38 -180 -38l-48 -96q57 -8 99.5 -52.5t42.5 -105.5q0 -45 -17 -79t-46.5 -53.5t-63.5 -29.5t-72 -10q-83 0 -146 40l34 90q55 -30 110 -30q34 0 56 15t22 50q0 42 -42 65.5t-109 31.5l79 169q-76 10 -140 43.5t-117 93t-90 142 t-57 196.5t-20 252z" />
<glyph unicode="&#xc8;" horiz-adv-x="774" d="M123 1792h199l209 -236h-134zM132 0v1477h562v-147h-393v-487h370v-142h-370v-554h420v-147h-589z" />
<glyph unicode="&#xc9;" horiz-adv-x="774" d="M132 0v1477h562v-147h-393v-487h370v-142h-370v-554h420v-147h-589zM333 1556l206 236h199l-271 -236h-134z" />
<glyph unicode="&#xca;" horiz-adv-x="774" d="M132 0v1477h562v-147h-393v-487h370v-142h-370v-554h420v-147h-589zM151 1556l188 215h148l190 -215h-148l-115 121h-4l-111 -121h-148z" />
<glyph unicode="&#xcb;" horiz-adv-x="774" d="M132 0v1477h562v-147h-393v-487h370v-142h-370v-554h420v-147h-589zM144 1690q0 43 27.5 72.5t67.5 29.5q42 0 68 -29t26 -73q0 -31 -12 -53.5t-33 -35t-49 -12.5h-3q-26 0 -46.5 12.5t-33 35.5t-12.5 53zM498 1690q0 44 27.5 73t68.5 29q42 0 68 -29t26 -73 q0 -46 -26 -73.5t-68 -27.5h-2q-40 0 -67 28t-27 73z" />
<glyph unicode="&#xcc;" horiz-adv-x="435" d="M-90 1792h199l209 -236h-134zM132 0v1477h169v-1477h-169z" />
<glyph unicode="&#xcd;" horiz-adv-x="435" d="M103 1556l206 236h199l-272 -236h-133zM132 0v1477h169v-1477h-169z" />
<glyph unicode="&#xce;" horiz-adv-x="435" d="M-44 1556l188 215h147l192 -215h-150l-114 121h-4l-112 -121h-147zM132 0v1477h169v-1477h-169z" />
<glyph unicode="&#xcf;" horiz-adv-x="435" d="M-52 1690q0 43 27 72.5t67 29.5q42 0 68 -29t26 -73q0 -46 -26 -73.5t-68 -27.5h-2q-27 0 -47.5 12.5t-32.5 35.5t-12 53zM132 0v1477h169v-1477h-169zM301 1690q0 28 12.5 52t34.5 37t49 13q42 0 68 -29t26 -73q0 -46 -25.5 -73.5t-68.5 -27.5h-2q-40 0 -67 28t-27 73z " />
<glyph unicode="&#xd0;" horiz-adv-x="991" d="M0 708v124h151v623q91 28 226 28q222 0 346 -111q61 -51 104 -130t69 -200t26 -273q0 -435 -177 -625q-139 -157 -406 -157q-121 0 -188 15v706h-151zM318 132q27 -5 65 -5q41 0 78.5 9t74.5 30.5t68.5 54t58.5 83.5t46 116.5t29.5 154t10.5 194.5q0 283 -87.5 429.5 t-264.5 146.5q-30 0 -79 -9v-504h223v-124h-223v-576z" />
<glyph unicode="&#xd1;" horiz-adv-x="1018" d="M132 0v1477h159l272 -693q141 -363 188 -514h5q-20 367 -20 679v528h151v-1477h-159l-281 710q-116 294 -175 502h-4q17 -262 17 -702v-510h-153zM282 1573q0 94 35 150t97 56q19 0 40 -6.5t31 -12t32 -18.5q7 -4 22 -13.5t22.5 -14t19 -8.5t21.5 -4q28 0 41 17.5 t18 62.5h88q3 -197 -136 -197q-44 0 -107 37q-2 1 -6 4q-48 32 -73 32q-24 0 -36.5 -21t-16.5 -64h-92z" />
<glyph unicode="&#xd2;" horiz-adv-x="976" d="M71 740q0 360 117.5 557.5t315.5 197.5q190 0 296.5 -197t106.5 -549q0 -162 -21.5 -292t-60 -217.5t-93 -146t-117 -84.5t-135.5 -26q-188 0 -298.5 196t-110.5 561zM188 1792h199l209 -236h-134zM245 738q0 -95 7.5 -180t25.5 -164.5t45.5 -136.5t70.5 -91t97 -34 q55 0 98 36t69.5 95t43.5 140.5t23.5 164t6.5 175.5q0 88 -6.5 168.5t-24 161.5t-44 140t-69.5 95.5t-99 36.5q-53 0 -95.5 -34.5t-70 -92t-45.5 -137t-25.5 -164t-7.5 -179.5z" />
<glyph unicode="&#xd3;" horiz-adv-x="976" d="M71 740q0 360 117.5 557.5t315.5 197.5q190 0 296.5 -197t106.5 -549q0 -162 -21.5 -292t-60 -217.5t-93 -146t-117 -84.5t-135.5 -26q-188 0 -298.5 196t-110.5 561zM245 738q0 -95 7.5 -180t25.5 -164.5t45.5 -136.5t70.5 -91t97 -34q55 0 98 36t69.5 95t43.5 140.5 t23.5 164t6.5 175.5q0 88 -6.5 168.5t-24 161.5t-44 140t-69.5 95.5t-99 36.5q-53 0 -95.5 -34.5t-70 -92t-45.5 -137t-25.5 -164t-7.5 -179.5zM383 1556l207 236h199l-272 -236h-134z" />
<glyph unicode="&#xd4;" horiz-adv-x="976" d="M71 740q0 360 117.5 557.5t315.5 197.5q190 0 296.5 -197t106.5 -549q0 -162 -21.5 -292t-60 -217.5t-93 -146t-117 -84.5t-135.5 -26q-188 0 -298.5 196t-110.5 561zM228 1556l188 215h147l191 -215h-149l-114 121h-4l-113 -121h-146zM245 738q0 -95 7.5 -180 t25.5 -164.5t45.5 -136.5t70.5 -91t97 -34q55 0 98 36t69.5 95t43.5 140.5t23.5 164t6.5 175.5q0 88 -6.5 168.5t-24 161.5t-44 140t-69.5 95.5t-99 36.5q-53 0 -95.5 -34.5t-70 -92t-45.5 -137t-25.5 -164t-7.5 -179.5z" />
<glyph unicode="&#xd5;" horiz-adv-x="976" d="M71 740q0 360 117.5 557.5t315.5 197.5q190 0 296.5 -197t106.5 -549q0 -162 -21.5 -292t-60 -217.5t-93 -146t-117 -84.5t-135.5 -26q-188 0 -298.5 196t-110.5 561zM245 738q0 -95 7.5 -180t25.5 -164.5t45.5 -136.5t70.5 -91t97 -34q55 0 98 36t69.5 95t43.5 140.5 t23.5 164t6.5 175.5q0 88 -6.5 168.5t-24 161.5t-44 140t-69.5 95.5t-99 36.5q-53 0 -95.5 -34.5t-70 -92t-45.5 -137t-25.5 -164t-7.5 -179.5zM255 1569q0 94 34.5 150t95.5 56q20 0 40.5 -6.5t31.5 -12.5t32 -18q8 -5 23 -14.5t22.5 -13.5t18.5 -8t22 -4q28 0 41 17.5 t17 61.5h88q4 -197 -136 -197q-46 0 -108 37l-13.5 9t-14 9.5t-12 7t-13.5 6.5t-11.5 3.5t-13.5 1.5q-24 0 -36.5 -21t-15.5 -64h-92z" />
<glyph unicode="&#xd6;" horiz-adv-x="976" d="M71 740q0 360 117.5 557.5t315.5 197.5q190 0 296.5 -197t106.5 -549q0 -162 -21.5 -292t-60 -217.5t-93 -146t-117 -84.5t-135.5 -26q-188 0 -298.5 196t-110.5 561zM217 1690q0 43 27.5 72.5t66.5 29.5q42 0 68.5 -29t26.5 -73q0 -46 -26 -73.5t-69 -27.5h-2 q-40 0 -66 27.5t-26 73.5zM245 738q0 -95 7.5 -180t25.5 -164.5t45.5 -136.5t70.5 -91t97 -34q55 0 98 36t69.5 95t43.5 140.5t23.5 164t6.5 175.5q0 88 -6.5 168.5t-24 161.5t-44 140t-69.5 95.5t-99 36.5q-53 0 -95.5 -34.5t-70 -92t-45.5 -137t-25.5 -164t-7.5 -179.5z M569 1690q0 43 28 72.5t70 29.5t68 -29t26 -73q0 -46 -26 -73.5t-68 -27.5h-3q-40 0 -67.5 28t-27.5 73z" />
<glyph unicode="&#xd7;" horiz-adv-x="1305" d="M88 90l479 487l-479 488l81 87l482 -493l486 493l82 -87l-483 -490l481 -485l-84 -90l-480 491l-482 -491z" />
<glyph unicode="&#xd8;" horiz-adv-x="976" d="M71 740q0 181 31 325t87 237.5t133 143t169 49.5q129 0 222 -90l65 153l100 -44l-87 -199q116 -197 116 -564q0 -161 -21.5 -291t-59.5 -218t-91.5 -147t-114.5 -85.5t-131 -26.5q-137 0 -226 98l-75 -162l-94 50l92 209q-115 194 -115 562zM236 740q0 -226 42 -363h4 l360 872q-29 44 -69 70t-84 26q-54 0 -97.5 -34.5t-72 -92t-47.5 -136.5t-27.5 -164t-8.5 -178zM326 241q59 -109 163 -109q46 0 84.5 24t65 67.5t46.5 100.5t31.5 127t16.5 141.5t5 150.5q0 225 -39 368h-5z" />
<glyph unicode="&#xd9;" horiz-adv-x="1000" d="M129 493v984h170v-990q0 -97 15 -167t43 -110.5t63 -59t80 -18.5q98 0 150.5 84t52.5 271v990h169v-964q0 -141 -27.5 -244.5t-79 -165t-118.5 -91t-152 -29.5t-150.5 28.5t-114.5 88.5t-75 159.5t-26 233.5zM188 1792h199l209 -236h-134z" />
<glyph unicode="&#xda;" horiz-adv-x="1000" d="M129 493v984h170v-990q0 -97 15 -167t43 -110.5t63 -59t80 -18.5q98 0 150.5 84t52.5 271v990h169v-964q0 -141 -27.5 -244.5t-79 -165t-118.5 -91t-152 -29.5t-150.5 28.5t-114.5 88.5t-75 159.5t-26 233.5zM401 1556l206 236h200l-272 -236h-134z" />
<glyph unicode="&#xdb;" horiz-adv-x="1000" d="M129 493v984h170v-990q0 -97 15 -167t43 -110.5t63 -59t80 -18.5q98 0 150.5 84t52.5 271v990h169v-964q0 -141 -27.5 -244.5t-79 -165t-118.5 -91t-152 -29.5t-150.5 28.5t-114.5 88.5t-75 159.5t-26 233.5zM241 1556l188 215h148l190 -215h-149l-114 121h-4l-113 -121 h-146z" />
<glyph unicode="&#xdc;" horiz-adv-x="1000" d="M129 493v984h170v-990q0 -97 15 -167t43 -110.5t63 -59t80 -18.5q98 0 150.5 84t52.5 271v990h169v-964q0 -141 -27.5 -244.5t-79 -165t-118.5 -91t-152 -29.5t-150.5 28.5t-114.5 88.5t-75 159.5t-26 233.5zM228 1690q0 43 27 72.5t67 29.5q42 0 68 -29t26 -73 q0 -46 -25.5 -73.5t-68.5 -27.5h-2q-26 0 -47 12.5t-33 35.5t-12 53zM581 1690q0 44 27.5 73t68.5 29q42 0 68 -29t26 -73q0 -46 -25.5 -73.5t-68.5 -27.5h-2q-40 0 -67 28t-27 73z" />
<glyph unicode="&#xdd;" horiz-adv-x="862" d="M21 1477h178l132 -371q65 -178 110 -332h4q41 151 107 339l125 364h178l-340 -846v-631h-168v625zM347 1556l205 236h199l-271 -236h-133z" />
<glyph unicode="&#xde;" horiz-adv-x="867" d="M132 0v1477h167v-291q43 6 111 6q185 0 293 -105q108 -108 108 -294q0 -88 -23 -161t-63 -124t-95 -86.5t-117.5 -52t-131.5 -16.5q-46 0 -82 7v-360h-167zM299 502q25 -9 75 -9q83 0 143 34t92.5 99t32.5 156q0 59 -13 106t-41 85.5t-79 59.5t-122 21q-56 0 -88 -9v-543 z" />
<glyph unicode="&#xdf;" horiz-adv-x="941" d="M119 0v987q0 112 16 198.5t46 147t76 104.5q104 97 256 97q50 0 96.5 -12.5t87.5 -40t71.5 -67.5t48.5 -97t18 -125q0 -48 -15.5 -98t-37.5 -82q-67 -27 -105.5 -73t-38.5 -104q0 -28 6.5 -52.5t22.5 -50.5t29 -43t40 -49q50 -56 80 -103t48.5 -104.5t18.5 -121.5 q0 -77 -28 -140.5t-75.5 -104t-108.5 -62t-130 -21.5q-107 0 -173 32l29 132q54 -28 142 -28q83 0 132.5 50t49.5 124q0 67 -28.5 119t-85.5 121q-33 39 -50 61t-39 58.5t-31.5 74.5t-9.5 82q0 87 48 156t128 106q20 45 20 106q0 50 -12 89.5t-30 63t-42.5 38.5t-47 20.5 t-46.5 5.5q-46 0 -82.5 -20.5t-65.5 -67.5t-44.5 -130.5t-15.5 -200.5v-975h-168z" />
<glyph unicode="&#xe0;" horiz-adv-x="797" d="M57 285q0 77 24 141t66 108.5t99.5 75.5t123 45.5t138.5 15.5v32q0 56 -7.5 98t-26 75.5t-52.5 51t-83 17.5q-90 0 -174 -56l-38 119q37 28 105.5 49.5t141.5 21.5q305 0 305 -380v-458q0 -174 11 -241h-153l-11 111h-7q-35 -61 -89 -94.5t-121 -33.5q-108 0 -180 83.5 t-72 218.5zM125 1495h174l168 -297h-112zM221 303q0 -95 39.5 -142.5t90.5 -47.5q58 0 100.5 42t56.5 119q5 19 5 59v215q-20 0 -38 -1.5t-44.5 -4.5t-49 -11t-47.5 -19.5t-44 -30.5t-35 -43t-25 -58.5t-9 -76.5z" />
<glyph unicode="&#xe1;" horiz-adv-x="797" d="M57 285q0 77 24 141t66 108.5t99.5 75.5t123 45.5t138.5 15.5v32q0 56 -7.5 98t-26 75.5t-52.5 51t-83 17.5q-90 0 -174 -56l-38 119q37 28 105.5 49.5t141.5 21.5q305 0 305 -380v-458q0 -174 11 -241h-153l-11 111h-7q-35 -61 -89 -94.5t-121 -33.5q-108 0 -180 83.5 t-72 218.5zM221 303q0 -95 39.5 -142.5t90.5 -47.5q58 0 100.5 42t56.5 119q5 19 5 59v215q-20 0 -38 -1.5t-44.5 -4.5t-49 -11t-47.5 -19.5t-44 -30.5t-35 -43t-25 -58.5t-9 -76.5zM309 1198l168 297h174l-230 -297h-112z" />
<glyph unicode="&#xe2;" horiz-adv-x="797" d="M57 285q0 77 24 141t66 108.5t99.5 75.5t123 45.5t138.5 15.5v32q0 56 -7.5 98t-26 75.5t-52.5 51t-83 17.5q-90 0 -174 -56l-38 119q37 28 105.5 49.5t141.5 21.5q305 0 305 -380v-458q0 -174 11 -241h-153l-11 111h-7q-35 -61 -89 -94.5t-121 -33.5q-108 0 -180 83.5 t-72 218.5zM163 1198l172 297h114l174 -297h-125l-103 189h-4l-102 -189h-126zM221 303q0 -95 39.5 -142.5t90.5 -47.5q58 0 100.5 42t56.5 119q5 19 5 59v215q-20 0 -38 -1.5t-44.5 -4.5t-49 -11t-47.5 -19.5t-44 -30.5t-35 -43t-25 -58.5t-9 -76.5z" />
<glyph unicode="&#xe3;" horiz-adv-x="797" d="M57 285q0 77 24 141t66 108.5t99.5 75.5t123 45.5t138.5 15.5v32q0 56 -7.5 98t-26 75.5t-52.5 51t-83 17.5q-90 0 -174 -56l-38 119q37 28 105.5 49.5t141.5 21.5q305 0 305 -380v-458q0 -174 11 -241h-153l-11 111h-7q-35 -61 -89 -94.5t-121 -33.5q-108 0 -180 83.5 t-72 218.5zM163 1229q-2 91 32.5 148.5t99.5 57.5q22 0 44 -7t31 -11.5t33 -18.5q6 -3 19 -10.5t18.5 -10.5t15.5 -8t18 -6.5t17 -1.5q18 0 28.5 6.5t17.5 24t9 48.5h90q0 -93 -35 -145.5t-103 -52.5q-40 0 -107 38q-8 4 -21.5 12.5t-21.5 13t-18.5 8t-20.5 3.5 q-48 0 -54 -88h-92zM221 303q0 -95 39.5 -142.5t90.5 -47.5q58 0 100.5 42t56.5 119q5 19 5 59v215q-20 0 -38 -1.5t-44.5 -4.5t-49 -11t-47.5 -19.5t-44 -30.5t-35 -43t-25 -58.5t-9 -76.5z" />
<glyph unicode="&#xe4;" horiz-adv-x="797" d="M57 285q0 77 24 141t66 108.5t99.5 75.5t123 45.5t138.5 15.5v32q0 56 -7.5 98t-26 75.5t-52.5 51t-83 17.5q-90 0 -174 -56l-38 119q37 28 105.5 49.5t141.5 21.5q305 0 305 -380v-458q0 -174 11 -241h-153l-11 111h-7q-35 -61 -89 -94.5t-121 -33.5q-108 0 -180 83.5 t-72 218.5zM132 1336q0 43 28.5 71t69.5 28q40 0 66 -27.5t26 -71.5q0 -26 -12 -48.5t-33 -35t-47 -12.5h-2q-40 0 -68 28t-28 68zM221 303q0 -95 39.5 -142.5t90.5 -47.5q58 0 100.5 42t56.5 119q5 19 5 59v215q-20 0 -38 -1.5t-44.5 -4.5t-49 -11t-47.5 -19.5t-44 -30.5 t-35 -43t-25 -58.5t-9 -76.5zM473 1336q0 28 13 51t35 35.5t48 12.5q40 0 67.5 -27.5t27.5 -71.5q0 -41 -27 -68.5t-68 -27.5h-2q-26 0 -47.5 12.5t-34 35t-12.5 48.5z" />
<glyph unicode="&#xe5;" horiz-adv-x="797" d="M57 285q0 77 24 141t66 108.5t99.5 75.5t123 45.5t138.5 15.5v32q0 56 -7.5 98t-26 75.5t-52.5 51t-83 17.5q-90 0 -174 -56l-38 119q37 28 105.5 49.5t141.5 21.5q305 0 305 -380v-458q0 -174 11 -241h-153l-11 111h-7q-35 -61 -89 -94.5t-121 -33.5q-108 0 -180 83.5 t-72 218.5zM193 1355q0 83 55.5 138.5t150.5 55.5q89 0 144 -55t55 -137q0 -81 -57 -135t-144 -54q-92 0 -148 54t-56 133zM221 303q0 -95 39.5 -142.5t90.5 -47.5q58 0 100.5 42t56.5 119q5 19 5 59v215q-20 0 -38 -1.5t-44.5 -4.5t-49 -11t-47.5 -19.5t-44 -30.5t-35 -43 t-25 -58.5t-9 -76.5zM293 1355q0 -27 12 -52t36 -42t54 -17q32 0 56.5 16.5t36.5 42t12 56.5q0 47 -28 80t-79 33q-45 0 -72.5 -35t-27.5 -82z" />
<glyph unicode="&#xe6;" horiz-adv-x="1228" d="M57 289q0 75 24 137t65.5 105t99 73t124 43.5t140.5 13.5v60q0 66 -17.5 115t-58.5 79t-101 30q-92 0 -170 -56l-38 117q45 30 110.5 51.5t132.5 21.5q88 0 154.5 -48.5t88.5 -143.5h4q36 90 105.5 141t153.5 51q60 0 109.5 -26.5t83 -71t56.5 -105t33 -127.5t10 -140 q0 -13 -1.5 -39.5t-1.5 -40.5h-490q0 -96 12.5 -168.5t34.5 -118t54 -74.5t67.5 -40t78.5 -11q101 0 180 46l29 -121q-92 -59 -244 -59q-99 0 -180 53.5t-111 149.5h-4q-36 -95 -106.5 -149t-165.5 -54q-114 0 -187.5 84t-73.5 222zM215 301q0 -48 12 -84.5t32 -57.5 t44 -31.5t50 -10.5q55 0 98 42t55 117q7 19 7 61v209q-24 0 -45.5 -1.5t-52.5 -8t-57.5 -16.5t-53.5 -28.5t-46 -43.5t-31 -63t-12 -84zM675 648h329q4 144 -41 222.5t-110 78.5q-41 0 -75 -26t-55.5 -69.5t-33.5 -96t-14 -109.5z" />
<glyph unicode="&#xe7;" horiz-adv-x="659" d="M73 523q0 115 28.5 215.5t80.5 175.5t132 118.5t177 43.5q41 0 82.5 -9.5t66.5 -23.5l-33 -138q-56 28 -120 28q-36 0 -67 -11.5t-56 -33t-45 -51t-34.5 -65t-24.5 -76.5t-14.5 -84.5t-4.5 -88.5q0 -185 67 -290.5t183 -105.5q71 0 122 30l27 -128q-71 -39 -169 -42 l-48 -96q57 -9 99.5 -52.5t42.5 -103.5q0 -45 -17.5 -79.5t-46.5 -54.5t-63 -30t-72 -10q-73 0 -147 40l36 92q53 -32 109 -32q79 0 79 67q0 79 -150 94l77 176q-140 32 -218.5 166t-78.5 359z" />
<glyph unicode="&#xe8;" horiz-adv-x="795" d="M73 519q0 257 97.5 408.5t258.5 151.5q63 0 114.5 -26t86 -70t58 -105t34 -128t10.5 -141q0 -68 -2 -94h-494q3 -394 253 -394q105 0 175 42l26 -126q-43 -24 -105 -37t-127 -13q-187 0 -286 142t-99 390zM163 1495h172l169 -297h-111zM239 640h330q3 150 -43.5 228.5 t-113.5 78.5q-52 0 -91.5 -47.5t-59 -115.5t-22.5 -144z" />
<glyph unicode="&#xe9;" horiz-adv-x="795" d="M73 519q0 257 97.5 408.5t258.5 151.5q63 0 114.5 -26t86 -70t58 -105t34 -128t10.5 -141q0 -68 -2 -94h-494q3 -394 253 -394q105 0 175 42l26 -126q-43 -24 -105 -37t-127 -13q-187 0 -286 142t-99 390zM239 640h330q3 150 -43.5 228.5t-113.5 78.5q-52 0 -91.5 -47.5 t-59 -115.5t-22.5 -144zM347 1198l168 297h173l-230 -297h-111z" />
<glyph unicode="&#xea;" horiz-adv-x="795" d="M73 519q0 257 97.5 408.5t258.5 151.5q63 0 114.5 -26t86 -70t58 -105t34 -128t10.5 -141q0 -68 -2 -94h-494q3 -394 253 -394q105 0 175 42l26 -126q-43 -24 -105 -37t-127 -13q-187 0 -286 142t-99 390zM195 1198l173 297h115l172 -297h-124l-104 189h-4l-101 -189 h-127zM239 640h330q3 150 -43.5 228.5t-113.5 78.5q-52 0 -91.5 -47.5t-59 -115.5t-22.5 -144z" />
<glyph unicode="&#xeb;" horiz-adv-x="795" d="M73 519q0 257 97.5 408.5t258.5 151.5q63 0 114.5 -26t86 -70t58 -105t34 -128t10.5 -141q0 -68 -2 -94h-494q3 -394 253 -394q105 0 175 42l26 -126q-43 -24 -105 -37t-127 -13q-187 0 -286 142t-99 390zM165 1336q0 43 28.5 71t69.5 28q40 0 66 -27.5t26 -71.5 q0 -20 -7 -37.5t-19 -30.5t-29 -20.5t-37 -7.5h-2q-40 0 -68 28t-28 68zM239 640h330q3 150 -43.5 228.5t-113.5 78.5q-52 0 -91.5 -47.5t-59 -115.5t-22.5 -144zM506 1336q0 42 28.5 70.5t68 28.5t67 -27.5t27.5 -71.5q0 -27 -12.5 -49t-34 -34.5t-48.5 -12.5h-2 q-26 0 -47.5 12.5t-34 35t-12.5 48.5z" />
<glyph unicode="&#xec;" horiz-adv-x="402" d="M-63 1495h172l169 -297h-111zM119 0v1060h168v-1060h-168z" />
<glyph unicode="&#xed;" horiz-adv-x="402" d="M119 0v1060h168v-1060h-168zM119 1198l168 297h173l-230 -297h-111z" />
<glyph unicode="&#xee;" horiz-adv-x="402" d="M-27 1198l174 297h114l173 -297h-125l-102 189h-6l-100 -189h-128zM119 0v1060h168v-1060h-168z" />
<glyph unicode="&#xef;" horiz-adv-x="402" d="M-63 1336q0 43 28.5 71t69.5 28q40 0 66 -27.5t26 -71.5q0 -26 -12 -48.5t-33 -35t-47 -12.5h-2q-40 0 -68 28t-28 68zM119 0v1060h168v-1060h-168zM278 1336q0 42 28.5 70.5t68.5 28.5t67 -27.5t27 -71.5q0 -27 -12 -49t-34 -34.5t-49 -12.5h-2q-39 0 -66.5 28t-27.5 68 z" />
<glyph unicode="&#xf0;" horiz-adv-x="834" d="M73 529q0 105 17.5 193t47.5 149t70.5 104t84.5 64.5t92 25.5q73 3 119 -32l4 6q-42 89 -129 188l-206 -114l-44 73l185 104q-20 24 -43 48t-63.5 64t-50.5 49l100 90q118 -106 184 -180l199 113l44 -76l-184 -103q106 -127 175 -276q88 -191 88 -475q1 -121 -20 -218.5 t-55.5 -160.5t-81 -105t-95 -59.5t-99.5 -17.5q-72 0 -133.5 34t-107.5 100t-72 171.5t-26 240.5zM241 533q0 -48 3 -92.5t10 -93t20.5 -88.5t32.5 -73t47.5 -51t63.5 -18h3q41 0 73 27t50.5 67.5t30 97t15.5 106.5t4 104q0 110 -6 185t-27 133q-9 31 -26 54t-46.5 38.5 t-67.5 15.5q-44 0 -77.5 -29.5t-52.5 -72.5t-31 -101.5t-15.5 -108t-3.5 -100.5z" />
<glyph unicode="&#xf1;" horiz-adv-x="887" d="M109 1060h148l8 -127h5q35 67 98.5 106.5t144.5 39.5q116 0 186 -91t70 -275v-713h-169v684q0 41 -3 74.5t-13 67.5t-25.5 57t-42.5 37.5t-62 14.5q-36 0 -68.5 -19t-57 -58.5t-35.5 -94.5q-6 -40 -6 -94v-669h-168v786q0 73 -4.5 162.5t-5.5 111.5zM211 1229 q-2 91 33 148.5t101 57.5q8 0 16.5 -1t14.5 -2t14.5 -4t12.5 -4.5t13.5 -6t11.5 -6t12 -7t12 -6.5q5 -3 18 -10.5t18.5 -10.5t15.5 -8t18 -6.5t17 -1.5q26 0 39 17t16 62h90q0 -93 -34.5 -145.5t-103.5 -52.5q-39 0 -107 38q-8 4 -21.5 12.5t-21.5 13t-18.5 8t-20.5 3.5 q-48 0 -54 -88h-92z" />
<glyph unicode="&#xf2;" horiz-adv-x="838" d="M73 529q0 112 19.5 205t52.5 156t78.5 106t96.5 63t107 20q72 0 133 -34.5t108.5 -100.5t74 -172t26.5 -241q0 -119 -21 -214.5t-56 -156.5t-81.5 -102t-95 -58t-99.5 -17q-72 0 -134 33.5t-109 99t-73.5 171.5t-26.5 242zM169 1495h172l169 -297h-111zM241 531 q0 -41 2 -79t7.5 -80t14.5 -78t23.5 -69.5t33 -57t45 -37t58.5 -13.5q41 0 73 27.5t50.5 70t30 100t15.5 109.5t4 107q0 37 -2 73.5t-7 78.5t-13.5 78.5t-22.5 70.5t-32 58t-44 38.5t-56 14.5q-44 0 -77 -28t-52 -70t-31 -99.5t-16 -109t-4 -105.5z" />
<glyph unicode="&#xf3;" horiz-adv-x="838" d="M73 529q0 112 19.5 205t52.5 156t78.5 106t96.5 63t107 20q72 0 133 -34.5t108.5 -100.5t74 -172t26.5 -241q0 -119 -21 -214.5t-56 -156.5t-81.5 -102t-95 -58t-99.5 -17q-72 0 -134 33.5t-109 99t-73.5 171.5t-26.5 242zM241 531q0 -41 2 -79t7.5 -80t14.5 -78 t23.5 -69.5t33 -57t45 -37t58.5 -13.5q41 0 73 27.5t50.5 70t30 100t15.5 109.5t4 107q0 37 -2 73.5t-7 78.5t-13.5 78.5t-22.5 70.5t-32 58t-44 38.5t-56 14.5q-44 0 -77 -28t-52 -70t-31 -99.5t-16 -109t-4 -105.5zM337 1198l169 297h173l-230 -297h-112z" />
<glyph unicode="&#xf4;" horiz-adv-x="838" d="M73 529q0 112 19.5 205t52.5 156t78.5 106t96.5 63t107 20q72 0 133 -34.5t108.5 -100.5t74 -172t26.5 -241q0 -119 -21 -214.5t-56 -156.5t-81.5 -102t-95 -58t-99.5 -17q-72 0 -134 33.5t-109 99t-73.5 171.5t-26.5 242zM190 1198l174 297h113l174 -297h-125l-103 189 h-5l-100 -189h-128zM241 531q0 -41 2 -79t7.5 -80t14.5 -78t23.5 -69.5t33 -57t45 -37t58.5 -13.5q41 0 73 27.5t50.5 70t30 100t15.5 109.5t4 107q0 37 -2 73.5t-7 78.5t-13.5 78.5t-22.5 70.5t-32 58t-44 38.5t-56 14.5q-44 0 -77 -28t-52 -70t-31 -99.5t-16 -109 t-4 -105.5z" />
<glyph unicode="&#xf5;" horiz-adv-x="838" d="M73 529q0 112 19.5 205t52.5 156t78.5 106t96.5 63t107 20q72 0 133 -34.5t108.5 -100.5t74 -172t26.5 -241q0 -119 -21 -214.5t-56 -156.5t-81.5 -102t-95 -58t-99.5 -17q-72 0 -134 33.5t-109 99t-73.5 171.5t-26.5 242zM184 1229q-1 60 13.5 105.5t45.5 73t75 27.5 q8 0 16.5 -1t14.5 -2t15 -4t13 -4.5t13 -6t11 -6t12.5 -7t11.5 -6.5q5 -3 18 -10.5t18.5 -10.5t15.5 -8t18.5 -6.5t17.5 -1.5q17 0 27.5 6.5t17.5 24t9 48.5h90q0 -93 -34.5 -145.5t-103.5 -52.5q-39 0 -107 38q-8 4 -21.5 12.5t-21.5 13t-18.5 8t-19.5 3.5q-48 0 -55 -88 h-92zM241 531q0 -41 2 -79t7.5 -80t14.5 -78t23.5 -69.5t33 -57t45 -37t58.5 -13.5q41 0 73 27.5t50.5 70t30 100t15.5 109.5t4 107q0 37 -2 73.5t-7 78.5t-13.5 78.5t-22.5 70.5t-32 58t-44 38.5t-56 14.5q-44 0 -77 -28t-52 -70t-31 -99.5t-16 -109t-4 -105.5z" />
<glyph unicode="&#xf6;" horiz-adv-x="838" d="M73 529q0 112 19.5 205t52.5 156t78.5 106t96.5 63t107 20q72 0 133 -34.5t108.5 -100.5t74 -172t26.5 -241q0 -119 -21 -214.5t-56 -156.5t-81.5 -102t-95 -58t-99.5 -17q-72 0 -134 33.5t-109 99t-73.5 171.5t-26.5 242zM153 1336q0 42 29 70.5t71 28.5 q39 0 65.5 -27.5t26.5 -71.5q0 -20 -7.5 -37.5t-19.5 -30.5t-29 -20.5t-36 -7.5h-4q-39 0 -67.5 28t-28.5 68zM241 531q0 -41 2 -79t7.5 -80t14.5 -78t23.5 -69.5t33 -57t45 -37t58.5 -13.5q41 0 73 27.5t50.5 70t30 100t15.5 109.5t4 107q0 37 -2 73.5t-7 78.5t-13.5 78.5 t-22.5 70.5t-32 58t-44 38.5t-56 14.5q-44 0 -77 -28t-52 -70t-31 -99.5t-16 -109t-4 -105.5zM495 1336q0 42 28.5 70.5t68.5 28.5t67 -27.5t27 -71.5q0 -27 -12 -49t-33.5 -34.5t-48.5 -12.5h-2q-40 0 -67.5 28t-27.5 68z" />
<glyph unicode="&#xf7;" horiz-adv-x="1305" d="M88 526v118h1131v-118h-1131zM556 197q0 45 26.5 74.5t70.5 29.5q45 0 71.5 -29.5t26.5 -74.5t-26 -73t-72 -28h-2q-43 0 -69 28t-26 73zM556 970q0 45 26.5 74.5t70.5 29.5q30 0 52.5 -13.5t34 -37t11.5 -53.5q0 -45 -26 -72.5t-72 -27.5h-2q-43 0 -69 28t-26 72z" />
<glyph unicode="&#xf8;" horiz-adv-x="838" d="M73 529q0 71 7.5 134.5t22 114.5t34 94.5t44 76.5t52.5 58t59 40.5t63 23.5t66 8h2q95 0 177 -67l55 117l92 -48l-74 -150q96 -142 96 -400q0 -119 -21.5 -214.5t-56 -156.5t-81 -102t-94 -58t-95.5 -17q-101 0 -178 61l-57 -117l-85 56l68 140q-96 144 -96 406zM234 531 q0 -139 29 -242l5 -2l265 585q-28 71 -112 71q-34 0 -62 -15.5t-47 -40t-33 -59.5t-22.5 -71.5t-13.5 -78.5t-7 -76.5t-2 -70.5zM314 184q31 -67 107 -67q44 0 78 26.5t54 67.5t32.5 97t17 106.5t4.5 104.5q0 134 -26 242l-4 2z" />
<glyph unicode="&#xf9;" horiz-adv-x="872" d="M113 391v669h169v-646q0 -67 6.5 -116t21.5 -90t43.5 -62t71.5 -21q35 0 63.5 15t46 37.5t28 45t14.5 42.5q8 39 8 97v698h169v-771q0 -71 4.5 -179t4.5 -110h-148l-10 111h-5q-13 -21 -34 -42t-49 -41t-66 -32.5t-79 -12.5q-136 0 -197.5 102t-61.5 306zM186 1495h174 l169 -297h-113z" />
<glyph unicode="&#xfa;" horiz-adv-x="872" d="M113 391v669h169v-646q0 -67 6.5 -116t21.5 -90t43.5 -62t71.5 -21q35 0 63.5 15t46 37.5t28 45t14.5 42.5q8 39 8 97v698h169v-771q0 -71 4.5 -179t4.5 -110h-148l-10 111h-5q-13 -21 -34 -42t-49 -41t-66 -32.5t-79 -12.5q-136 0 -197.5 102t-61.5 306zM368 1198 l169 297h173l-230 -297h-112z" />
<glyph unicode="&#xfb;" horiz-adv-x="872" d="M113 391v669h169v-646q0 -67 6.5 -116t21.5 -90t43.5 -62t71.5 -21q35 0 63.5 15t46 37.5t28 45t14.5 42.5q8 39 8 97v698h169v-771q0 -71 4.5 -179t4.5 -110h-148l-10 111h-5q-13 -21 -34 -42t-49 -41t-66 -32.5t-79 -12.5q-136 0 -197.5 102t-61.5 306zM207 1198 l172 297h114l174 -297h-126l-102 189h-5l-101 -189h-126z" />
<glyph unicode="&#xfc;" horiz-adv-x="872" d="M113 391v669h169v-646q0 -67 6.5 -116t21.5 -90t43.5 -62t71.5 -21q35 0 63.5 15t46 37.5t28 45t14.5 42.5q8 39 8 97v698h169v-771q0 -71 4.5 -179t4.5 -110h-148l-10 111h-5q-13 -21 -34 -42t-49 -41t-66 -32.5t-79 -12.5q-136 0 -197.5 102t-61.5 306zM175 1336 q0 43 29 71t70 28q40 0 66 -27.5t26 -71.5q0 -26 -12 -48.5t-33 -35t-47 -12.5h-2q-40 0 -68.5 28t-28.5 68zM517 1336q0 42 28 70.5t68 28.5t67.5 -27.5t27.5 -71.5q0 -41 -27 -68.5t-68 -27.5h-2q-26 0 -47.5 12.5t-34 35t-12.5 48.5z" />
<glyph unicode="&#xfd;" horiz-adv-x="757" d="M29 1060h178l140 -608q5 -22 44 -220h4q10 56 46 217l124 611h167l-173 -681q-29 -115 -52.5 -200t-56 -179.5t-71.5 -170.5t-84 -134q-50 -63 -102 -104t-88 -58l-61 145q77 43 149 134q62 77 96 177q12 37 12 53q0 23 -6 39zM305 1198l168 297h173l-230 -297h-111z" />
<glyph unicode="&#xfe;" horiz-adv-x="874" d="M117 -421v1878h165v-528h5q72 150 219 150q132 0 214 -145t82 -401q0 -113 -18.5 -206.5t-49.5 -156t-72.5 -106t-86 -62.5t-90.5 -19q-137 0 -196 124h-4v-528h-168zM285 387q0 -54 8 -86q12 -53 31.5 -90.5t42 -55t42 -25t38.5 -7.5q51 0 88 32.5t57.5 91t29.5 129 t9 155.5t-10.5 156t-32 127t-57.5 87.5t-84 31.5q-56 0 -102 -58.5t-54 -134.5q-6 -26 -6 -81v-272z" />
<glyph unicode="&#xff;" horiz-adv-x="757" d="M29 1060h178l140 -608q5 -22 44 -220h4q10 56 46 217l124 611h167l-173 -681q-29 -115 -52.5 -200t-56 -179.5t-71.5 -170.5t-84 -134q-50 -63 -102 -104t-88 -58l-61 145q77 43 149 134q62 77 96 177q12 37 12 53q0 23 -6 39zM121 1336q0 43 28.5 71t69.5 28 q40 0 66 -27.5t26 -71.5q0 -26 -12 -48.5t-33 -35t-47 -12.5h-2q-39 0 -67.5 28t-28.5 68zM462 1336q0 42 28.5 70.5t68.5 28.5t67 -27.5t27 -71.5q0 -27 -12 -49t-34 -34.5t-48 -12.5h-3q-39 0 -66.5 28t-27.5 68z" />
<glyph unicode="&#x100;" horiz-adv-x="952" d="M48 0l337 1477h187l329 -1477h-167l-98 443h-327l-98 -443h-163zM243 1610v117h467v-117h-467zM333 579h280l-76 374q-30 150 -60 337h-8q-26 -169 -59 -337z" />
<glyph unicode="&#x101;" horiz-adv-x="797" d="M57 285q0 77 24 141t66 108.5t99.5 75.5t123 45.5t138.5 15.5v32q0 56 -7.5 98t-26 75.5t-52.5 51t-83 17.5q-90 0 -174 -56l-38 119q37 28 105.5 49.5t141.5 21.5q305 0 305 -380v-458q0 -174 11 -241h-153l-11 111h-7q-35 -61 -89 -94.5t-121 -33.5q-108 0 -180 83.5 t-72 218.5zM184 1273v109h431v-109h-431zM221 303q0 -95 39.5 -142.5t90.5 -47.5q58 0 100.5 42t56.5 119q5 19 5 59v215q-20 0 -38 -1.5t-44.5 -4.5t-49 -11t-47.5 -19.5t-44 -30.5t-35 -43t-25 -58.5t-9 -76.5z" />
<glyph unicode="&#x102;" horiz-adv-x="952" d="M48 0l337 1477h187l329 -1477h-167l-98 443h-327l-98 -443h-163zM243 1769h98q8 -44 43.5 -69t90.5 -25q56 0 91.5 23.5t44.5 70.5h99q0 -95 -62.5 -153t-170.5 -58q-72 0 -124.5 25t-81 73t-28.5 113zM333 579h280l-76 374q-30 150 -60 337h-8q-26 -169 -59 -337z" />
<glyph unicode="&#x103;" horiz-adv-x="797" d="M57 285q0 77 24 141t66 108.5t99.5 75.5t123 45.5t138.5 15.5v32q0 56 -7.5 98t-26 75.5t-52.5 51t-83 17.5q-90 0 -174 -56l-38 119q37 28 105.5 49.5t141.5 21.5q305 0 305 -380v-458q0 -174 11 -241h-153l-11 111h-7q-35 -61 -89 -94.5t-121 -33.5q-108 0 -180 83.5 t-72 218.5zM167 1466h94q5 -61 42.5 -98.5t93.5 -37.5q63 0 101 37.5t39 98.5h94q2 -72 -25.5 -128t-82 -87.5t-126.5 -31.5q-109 0 -171 70t-59 177zM221 303q0 -95 39.5 -142.5t90.5 -47.5q58 0 100.5 42t56.5 119q5 19 5 59v215q-20 0 -38 -1.5t-44.5 -4.5t-49 -11 t-47.5 -19.5t-44 -30.5t-35 -43t-25 -58.5t-9 -76.5z" />
<glyph unicode="&#x104;" horiz-adv-x="952" d="M48 0l337 1477h187l329 -1477h-50q-37 -45 -68.5 -104.5t-31.5 -108.5q0 -47 28 -74t64 -27q50 0 92 21l25 -94q-61 -50 -158 -50q-55 0 -96.5 22t-64.5 63t-23 97q0 114 112 268l-94 430h-327l-98 -443h-163zM333 579h280l-76 374q-30 150 -60 337h-8q-26 -169 -59 -337 z" />
<glyph unicode="&#x105;" horiz-adv-x="797" d="M57 285q0 77 24 141t66 108.5t99.5 75.5t123 45.5t138.5 15.5v32q0 56 -7.5 98t-26 75.5t-52.5 51t-83 17.5q-90 0 -174 -56l-38 119q37 28 105.5 49.5t141.5 21.5q305 0 305 -380v-458q0 -174 18 -241h-40q-34 -44 -62 -106.5t-28 -119.5q0 -46 27 -73t63 -27 q56 0 94 19l25 -94q-65 -48 -158 -48q-84 0 -134 48.5t-50 132.5q0 39 10 78.5t29.5 78t31.5 59.5t32 52l-11 111h-7q-35 -61 -89 -94.5t-121 -33.5q-108 0 -180 83.5t-72 218.5zM221 303q0 -95 39.5 -142.5t90.5 -47.5q58 0 100.5 42t56.5 119q5 19 5 59v215 q-20 0 -38 -1.5t-44.5 -4.5t-49 -11t-47.5 -19.5t-44 -30.5t-35 -43t-25 -58.5t-9 -76.5z" />
<glyph unicode="&#x106;" horiz-adv-x="816" d="M71 721q0 122 16.5 226.5t45.5 181.5t69.5 139.5t86.5 103t98 68t102.5 39.5t102.5 12q123 0 184 -38l-38 -142q-13 6 -21.5 9t-23.5 7.5t-28.5 7t-33 4.5t-41.5 2q-50 0 -96.5 -19t-92 -64.5t-79 -113t-54.5 -172.5t-21 -236t19 -235t51 -171.5t77 -112t94.5 -63 t105.5 -18.5q87 0 155 33l27 -142q-74 -40 -211 -40q-110 0 -199.5 45t-156 133.5t-102.5 230t-36 325.5zM427 1556l206 236h199l-271 -236h-134z" />
<glyph unicode="&#x107;" horiz-adv-x="661" d="M73 523q0 115 28.5 215.5t80.5 175.5t132 118.5t177 43.5q41 0 82.5 -9.5t66.5 -23.5l-33 -138q-56 28 -120 28q-36 0 -67 -11.5t-56 -33t-45 -51t-34.5 -65t-24.5 -76.5t-14.5 -84.5t-4.5 -88.5q0 -185 67 -290.5t183 -105.5q58 0 122 28l23 -128q-70 -40 -176 -40 q-178 0 -282.5 139t-104.5 397zM347 1198l168 297h173l-230 -297h-111z" />
<glyph unicode="&#x108;" horiz-adv-x="816" d="M71 721q0 122 16.5 226.5t45.5 181.5t69.5 139.5t86.5 103t98 68t102.5 39.5t102.5 12q123 0 184 -38l-38 -142q-13 6 -21.5 9t-23.5 7.5t-28.5 7t-33 4.5t-41.5 2q-50 0 -96.5 -19t-92 -64.5t-79 -113t-54.5 -172.5t-21 -236t19 -235t51 -171.5t77 -112t94.5 -63 t105.5 -18.5q87 0 155 33l27 -142q-74 -40 -211 -40q-110 0 -199.5 45t-156 133.5t-102.5 230t-36 325.5zM255 1556l188 215h147l190 -215h-149l-114 121h-4l-112 -121h-146z" />
<glyph unicode="&#x109;" horiz-adv-x="661" d="M73 523q0 115 28.5 215.5t80.5 175.5t132 118.5t177 43.5q41 0 82.5 -9.5t66.5 -23.5l-33 -138q-56 28 -120 28q-36 0 -67 -11.5t-56 -33t-45 -51t-34.5 -65t-24.5 -76.5t-14.5 -84.5t-4.5 -88.5q0 -185 67 -290.5t183 -105.5q58 0 122 28l23 -128q-70 -40 -176 -40 q-178 0 -282.5 139t-104.5 397zM193 1198l173 297h114l173 -297h-124l-104 189h-4l-101 -189h-127z" />
<glyph unicode="&#x10a;" horiz-adv-x="816" d="M71 721q0 122 16.5 226.5t45.5 181.5t69.5 139.5t86.5 103t98 68t102.5 39.5t102.5 12q123 0 184 -38l-38 -142q-13 6 -21.5 9t-23.5 7.5t-28.5 7t-33 4.5t-41.5 2q-50 0 -96.5 -19t-92 -64.5t-79 -113t-54.5 -172.5t-21 -236t19 -235t51 -171.5t77 -112t94.5 -63 t105.5 -18.5q87 0 155 33l27 -142q-74 -40 -211 -40q-110 0 -199.5 45t-156 133.5t-102.5 230t-36 325.5zM431 1676.5q0 40.5 29 68.5t71 28q41 0 68.5 -27.5t27.5 -68.5q0 -20 -7.5 -38.5t-20 -31.5t-30.5 -21t-38 -8h-2q-40 0 -69 29t-29 69.5z" />
<glyph unicode="&#x10b;" horiz-adv-x="661" d="M73 523q0 115 28.5 215.5t80.5 175.5t132 118.5t177 43.5q41 0 82.5 -9.5t66.5 -23.5l-33 -138q-56 28 -120 28q-36 0 -67 -11.5t-56 -33t-45 -51t-34.5 -65t-24.5 -76.5t-14.5 -84.5t-4.5 -88.5q0 -185 67 -290.5t183 -105.5q58 0 122 28l23 -128q-70 -40 -176 -40 q-178 0 -282.5 139t-104.5 397zM322 1336q0 42 28.5 70.5t68 28.5t67 -27.5t27.5 -71.5q0 -27 -12.5 -49t-34 -34.5t-48.5 -12.5h-2q-39 0 -66.5 28t-27.5 68z" />
<glyph unicode="&#x10c;" horiz-adv-x="816" d="M71 721q0 122 16.5 226.5t45.5 181.5t69.5 139.5t86.5 103t98 68t102.5 39.5t102.5 12q123 0 184 -38l-38 -142q-13 6 -21.5 9t-23.5 7.5t-28.5 7t-33 4.5t-41.5 2q-50 0 -96.5 -19t-92 -64.5t-79 -113t-54.5 -172.5t-21 -236t19 -235t51 -171.5t77 -112t94.5 -63 t105.5 -18.5q87 0 155 33l27 -142q-74 -40 -211 -40q-110 0 -199.5 45t-156 133.5t-102.5 230t-36 325.5zM270 1771h146l115 -127h4l113 127h145l-188 -215h-145z" />
<glyph unicode="&#x10d;" horiz-adv-x="661" d="M73 523q0 115 28.5 215.5t80.5 175.5t132 118.5t177 43.5q41 0 82.5 -9.5t66.5 -23.5l-33 -138q-56 28 -120 28q-36 0 -67 -11.5t-56 -33t-45 -51t-34.5 -65t-24.5 -76.5t-14.5 -84.5t-4.5 -88.5q0 -185 67 -290.5t183 -105.5q58 0 122 28l23 -128q-70 -40 -176 -40 q-178 0 -282.5 139t-104.5 397zM186 1495h128l100 -191h4l103 191h127l-173 -297h-115z" />
<glyph unicode="&#x10e;" horiz-adv-x="974" d="M132 6v1449q94 28 228 28q221 0 345 -111q92 -80 146 -229t54 -369q0 -433 -177 -623q-141 -160 -408 -160q-118 0 -188 15zM165 1771h146l114 -127h4l115 127h144l-188 -215h-145zM301 138q24 -4 63 -4q59 0 109.5 17.5t99 62t82.5 114.5t54.5 183t20.5 258 q0 283 -88 429.5t-263 146.5q-50 0 -78 -9v-1198z" />
<glyph unicode="&#x10f;" horiz-adv-x="895" d="M73 526q0 110 17.5 202t47.5 156t71 108.5t87 65.5t97 21q61 0 111.5 -31.5t80.5 -96.5h5v565h166v-1261q0 -11 9 -255h-144l-12 134h-7q-29 -65 -86 -108t-135 -43q-138 0 -223 143.5t-85 399.5zM241 526q0 -115 18.5 -204t60 -144t101.5 -55q22 0 42.5 7.5t43.5 25.5 t43 56t33 93q7 29 7 69v283q0 46 -3 71q-8 84 -53 144.5t-105 60.5q-51 0 -88.5 -33t-58.5 -91t-31 -128.5t-10 -154.5zM843 1501l125 26q31 -22 52 -63.5t21 -93.5q0 -38 -10 -75.5t-20 -61.5t-31.5 -55t-28.5 -39.5t-27 -32.5l-73 49q63 95 63 197q0 24 -6 46.5t-16 41.5 t-22 34t-27 27z" />
<glyph unicode="&#x110;" horiz-adv-x="991" d="M0 708v124h151v623q91 28 226 28q222 0 346 -111q61 -51 104 -130t69 -200t26 -273q0 -435 -177 -625q-139 -157 -406 -157q-121 0 -188 15v706h-151zM318 132q27 -5 65 -5q41 0 78.5 9t74.5 30.5t68.5 54t58.5 83.5t46 116.5t29.5 154t10.5 194.5q0 283 -87.5 429.5 t-264.5 146.5q-30 0 -79 -9v-504h223v-124h-223v-576z" />
<glyph unicode="&#x111;" horiz-adv-x="874" d="M73 526q0 110 17.5 202t47.5 156t71 108.5t87 65.5t97 21q61 0 111.5 -31.5t80.5 -96.5h5v239h-287v119h287v207h166v-207h127v-119h-127v-935q0 -11 9 -255h-144l-12 134h-7q-29 -65 -86 -108t-135 -43q-138 0 -223 143.5t-85 399.5zM241 526q0 -115 18.5 -204t60 -144 t101.5 -55q22 0 42.5 7.5t43.5 25.5t43 56t33 93q7 29 7 69v283q0 46 -3 71q-8 84 -53 144.5t-105 60.5q-51 0 -88.5 -33t-58.5 -91t-31 -128.5t-10 -154.5z" />
<glyph unicode="&#x112;" horiz-adv-x="774" d="M132 0v1477h562v-147h-393v-487h370v-142h-370v-554h420v-147h-589zM188 1610v117h467v-117h-467z" />
<glyph unicode="&#x113;" horiz-adv-x="795" d="M73 519q0 257 97.5 408.5t258.5 151.5q63 0 114.5 -26t86 -70t58 -105t34 -128t10.5 -141q0 -68 -2 -94h-494q3 -394 253 -394q105 0 175 42l26 -126q-43 -24 -105 -37t-127 -13q-187 0 -286 142t-99 390zM195 1273v109h432v-109h-432zM239 640h330q3 150 -43.5 228.5 t-113.5 78.5q-52 0 -91.5 -47.5t-59 -115.5t-22.5 -144z" />
<glyph unicode="&#x114;" horiz-adv-x="774" d="M132 0v1477h562v-147h-393v-487h370v-142h-370v-554h420v-147h-589zM184 1773h98q9 -44 44.5 -69t89.5 -25q56 0 91.5 23.5t44.5 70.5h99q0 -62 -28 -110t-81 -74.5t-124 -26.5q-108 0 -171 56.5t-63 154.5z" />
<glyph unicode="&#x115;" horiz-adv-x="795" d="M73 519q0 257 97.5 408.5t258.5 151.5q63 0 114.5 -26t86 -70t58 -105t34 -128t10.5 -141q0 -68 -2 -94h-494q3 -394 253 -394q105 0 175 42l26 -126q-43 -24 -105 -37t-127 -13q-187 0 -286 142t-99 390zM182 1466h94q3 -40 21 -71t48 -48t67 -17q63 0 100.5 37.5 t39.5 98.5h94q2 -72 -25.5 -128t-82 -87.5t-126.5 -31.5q-109 0 -171 70t-59 177zM239 640h330q3 150 -43.5 228.5t-113.5 78.5q-52 0 -91.5 -47.5t-59 -115.5t-22.5 -144z" />
<glyph unicode="&#x116;" horiz-adv-x="774" d="M132 0v1477h562v-147h-393v-487h370v-142h-370v-554h420v-147h-589zM326 1692q0 20 8 38t21 30.5t31.5 20t38.5 7.5q41 0 68.5 -27.5t27.5 -68.5t-27.5 -70t-68.5 -29h-2q-40 0 -68.5 29t-28.5 70z" />
<glyph unicode="&#x117;" horiz-adv-x="795" d="M73 519q0 257 97.5 408.5t258.5 151.5q63 0 114.5 -26t86 -70t58 -105t34 -128t10.5 -141q0 -68 -2 -94h-494q3 -394 253 -394q105 0 175 42l26 -126q-43 -24 -105 -37t-127 -13q-187 0 -286 142t-99 390zM239 640h330q3 150 -43.5 228.5t-113.5 78.5q-52 0 -91.5 -47.5 t-59 -115.5t-22.5 -144zM320 1336q0 42 28 70.5t68 28.5q26 0 47.5 -12.5t34 -35t12.5 -51.5q0 -27 -12 -49t-33.5 -34.5t-48.5 -12.5h-2q-39 0 -66.5 28t-27.5 68z" />
<glyph unicode="&#x118;" horiz-adv-x="774" d="M132 0v1477h562v-147h-393v-487h370v-142h-370v-554h420v-147q-2 -1 -6.5 -2t-9 -2.5t-6.5 -1.5q-78 -51 -125.5 -109.5t-47.5 -114.5q0 -43 26 -65.5t61 -22.5q58 0 97 19l24 -94q-66 -48 -167 -48q-80 0 -127 45.5t-47 123.5t53 151t126 121h-440z" />
<glyph unicode="&#x119;" horiz-adv-x="795" d="M73 519q0 257 97.5 408.5t258.5 151.5q63 0 114.5 -26t86 -70t58 -105t34 -128t10.5 -141q0 -73 -2 -94h-494q3 -394 253 -394q105 0 175 42l26 -126q-51 -22 -57 -24q-83 -42 -145.5 -111.5t-62.5 -133.5q0 -22 7 -39t19 -27t26 -15t29 -5q48 0 101 29l29 -92 q-23 -19 -53 -32t-57.5 -18.5t-52.5 -5.5q-55 0 -96.5 21t-63.5 58t-22 86q0 73 51 144.5t116 112.5v2h-9q-182 3 -279 144.5t-97 387.5zM239 640h330q3 150 -43.5 228.5t-113.5 78.5q-52 0 -91.5 -47.5t-59 -115.5t-22.5 -144z" />
<glyph unicode="&#x11a;" horiz-adv-x="774" d="M132 0v1477h562v-147h-393v-487h370v-142h-370v-554h420v-147h-589zM153 1771h148l113 -127h4l115 127h144l-188 -215h-144z" />
<glyph unicode="&#x11b;" horiz-adv-x="795" d="M73 519q0 257 97.5 408.5t258.5 151.5q63 0 114.5 -26t86 -70t58 -105t34 -128t10.5 -141q0 -68 -2 -94h-494q3 -394 253 -394q105 0 175 42l26 -126q-43 -24 -105 -37t-127 -13q-187 0 -286 142t-99 390zM180 1495h127l101 -191h4l103 191h127l-173 -297h-116zM239 640 h330q3 150 -43.5 228.5t-113.5 78.5q-52 0 -91.5 -47.5t-59 -115.5t-22.5 -144z" />
<glyph unicode="&#x11c;" horiz-adv-x="954" d="M71 719q0 120 17.5 223.5t47.5 181t72.5 140t90.5 104.5t104 70t111 40.5t113 12.5q132 0 210 -42l-37 -145q-70 35 -171 35q-58 0 -111 -18.5t-103.5 -63t-87.5 -112t-59.5 -173t-22.5 -238t19.5 -237.5t52.5 -172.5t79 -112t95 -62.5t105 -18q68 0 103 17v482h-191v140 h351v-734q-50 -21 -122.5 -35.5t-140.5 -14.5q-219 0 -349 145q-83 88 -130.5 239.5t-45.5 347.5zM295 1556l190 215h146l191 -215h-149l-114 121h-5l-111 -121h-148z" />
<glyph unicode="&#x11d;" horiz-adv-x="874" d="M73 526q0 114 19.5 207.5t52.5 156.5t76.5 106.5t90 63t94.5 19.5q40 0 73 -12.5t56.5 -34t38.5 -43t28 -48.5h5l8 119h152q0 -20 -2 -59.5t-3 -73t-2 -87.5t-1 -110v-594q0 -137 -12.5 -226.5t-34.5 -141t-59 -92.5q-32 -37 -75 -62.5t-96 -39t-112 -13.5 q-65 0 -127.5 15t-104.5 39l40 130q89 -46 196 -46q106 0 162 76t56 250v107h-5q-18 -42 -49 -71t-70.5 -44t-84.5 -15q-93 0 -163.5 66t-108.5 185t-38 273zM201 1198l173 297h115l172 -297h-124l-103 189h-5l-101 -189h-127zM241 535q0 -99 14.5 -176t41 -124t60 -71 t72.5 -24q110 0 152 151q11 42 11 96v307q0 49 -9 77q-43 162 -154 162q-90 0 -139 -108.5t-49 -289.5z" />
<glyph unicode="&#x11e;" horiz-adv-x="954" d="M71 719q0 120 17.5 223.5t47.5 181t72.5 140t90.5 104.5t104 70t111 40.5t113 12.5q132 0 210 -42l-37 -145q-70 35 -171 35q-58 0 -111 -18.5t-103.5 -63t-87.5 -112t-59.5 -173t-22.5 -238t19.5 -237.5t52.5 -172.5t79 -112t95 -62.5t105 -18q68 0 103 17v482h-191v140 h351v-734q-50 -21 -122.5 -35.5t-140.5 -14.5q-219 0 -349 145q-83 88 -130.5 239.5t-45.5 347.5zM320 1769h98q8 -44 44 -69t90 -25q56 0 91.5 23.5t44.5 70.5h98q0 -95 -62.5 -153t-169.5 -58q-72 0 -124.5 25t-81 73t-28.5 113z" />
<glyph unicode="&#x11f;" horiz-adv-x="874" d="M73 526q0 114 19.5 207.5t52.5 156.5t76.5 106.5t90 63t94.5 19.5q40 0 73 -12.5t56.5 -34t38.5 -43t28 -48.5h5l8 119h152q0 -20 -2 -59.5t-3 -73t-2 -87.5t-1 -110v-594q0 -137 -12.5 -226.5t-34.5 -141t-59 -92.5q-32 -37 -75 -62.5t-96 -39t-112 -13.5 q-65 0 -127.5 15t-104.5 39l40 130q89 -46 196 -46q106 0 162 76t56 250v107h-5q-18 -42 -49 -71t-70.5 -44t-84.5 -15q-93 0 -163.5 66t-108.5 185t-38 273zM203 1466h96q3 -40 21 -71t47.5 -48t66.5 -17q64 0 101.5 37.5t39.5 98.5h94q2 -72 -26 -128t-82 -87.5 t-127 -31.5q-108 0 -171 70t-60 177zM241 535q0 -99 14.5 -176t41 -124t60 -71t72.5 -24q110 0 152 151q11 42 11 96v307q0 49 -9 77q-43 162 -154 162q-90 0 -139 -108.5t-49 -289.5z" />
<glyph unicode="&#x120;" horiz-adv-x="954" d="M71 719q0 120 17.5 223.5t47.5 181t72.5 140t90.5 104.5t104 70t111 40.5t113 12.5q132 0 210 -42l-37 -145q-70 35 -171 35q-58 0 -111 -18.5t-103.5 -63t-87.5 -112t-59.5 -173t-22.5 -238t19.5 -237.5t52.5 -172.5t79 -112t95 -62.5t105 -18q68 0 103 17v482h-191v140 h351v-734q-50 -21 -122.5 -35.5t-140.5 -14.5q-219 0 -349 145q-83 88 -130.5 239.5t-45.5 347.5zM462 1676.5q0 40.5 29 68.5t70 28q20 0 38 -7.5t30.5 -20t20 -30.5t7.5 -38q0 -41 -28 -70t-68 -29h-2q-40 0 -68.5 29t-28.5 69.5z" />
<glyph unicode="&#x121;" horiz-adv-x="874" d="M73 526q0 114 19.5 207.5t52.5 156.5t76.5 106.5t90 63t94.5 19.5q40 0 73 -12.5t56.5 -34t38.5 -43t28 -48.5h5l8 119h152q0 -20 -2 -59.5t-3 -73t-2 -87.5t-1 -110v-594q0 -137 -12.5 -226.5t-34.5 -141t-59 -92.5q-32 -37 -75 -62.5t-96 -39t-112 -13.5 q-65 0 -127.5 15t-104.5 39l40 130q89 -46 196 -46q106 0 162 76t56 250v107h-5q-18 -42 -49 -71t-70.5 -44t-84.5 -15q-93 0 -163.5 66t-108.5 185t-38 273zM241 535q0 -99 14.5 -176t41 -124t60 -71t72.5 -24q110 0 152 151q11 42 11 96v307q0 49 -9 77q-43 162 -154 162 q-90 0 -139 -108.5t-49 -289.5zM345 1336q0 42 28 70.5t68 28.5t67 -27.5t27 -71.5q0 -27 -12 -49t-33.5 -34.5t-48.5 -12.5h-2q-26 0 -47.5 12.5t-34 35t-12.5 48.5z" />
<glyph unicode="&#x122;" horiz-adv-x="954" d="M71 719q0 120 17.5 223.5t47.5 181t72.5 140t90.5 104.5t104 70t111 40.5t113 12.5q132 0 210 -42l-37 -145q-70 35 -171 35q-58 0 -111 -18.5t-103.5 -63t-87.5 -112t-59.5 -173t-22.5 -238t19.5 -237.5t52.5 -172.5t79 -112t95 -62.5t105 -18q68 0 103 17v482h-191v140 h351v-734q-50 -21 -122.5 -35.5t-140.5 -14.5q-219 0 -349 145q-83 88 -130.5 239.5t-45.5 347.5zM414 -387q59 17 99.5 51t40.5 87q0 73 -71 132l135 25q31 -20 52.5 -61t21.5 -92q0 -50 -20 -90t-54.5 -66.5t-76 -43t-89.5 -24.5z" />
<glyph unicode="&#x123;" horiz-adv-x="874" d="M73 526q0 114 19.5 207.5t52.5 156.5t76.5 106.5t90 63t94.5 19.5q40 0 73 -12.5t56.5 -34t38.5 -43t28 -48.5h5l8 119h152q0 -20 -2 -59.5t-3 -73t-2 -87.5t-1 -110v-594q0 -137 -12.5 -226.5t-34.5 -141t-59 -92.5q-32 -37 -75 -62.5t-96 -39t-112 -13.5 q-65 0 -127.5 15t-104.5 39l40 130q89 -46 196 -46q106 0 162 76t56 250v107h-5q-18 -42 -49 -71t-70.5 -44t-84.5 -15q-93 0 -163.5 66t-108.5 185t-38 273zM241 535q0 -99 14.5 -176t41 -124t60 -71t72.5 -24q110 0 152 151q11 42 11 96v307q0 49 -9 77q-43 162 -154 162 q-90 0 -139 -108.5t-49 -289.5zM326 1313q0 41 13.5 75t36 58.5t54 43t65.5 29.5t72 18l35 -75q-30 -8 -54.5 -19.5t-46 -28.5t-33.5 -41t-12 -54q0 -73 77 -133l-132 -27q-31 24 -53 65.5t-22 88.5z" />
<glyph unicode="&#x124;" horiz-adv-x="1014" d="M132 0v1477h169v-634h414v634h168v-1477h-168v690h-414v-690h-169zM249 1556l190 215h146l191 -215h-149l-114 121h-5l-111 -121h-148z" />
<glyph unicode="&#x125;" horiz-adv-x="887" d="M-57 1578l189 214h146l191 -214h-149l-113 120h-6l-111 -120h-147zM119 0v1516h168v-569h4q32 56 88 92q63 40 142 40q52 0 95.5 -22t78.5 -65.5t54.5 -117.5t19.5 -171v-703h-169v684q0 251 -142 251q-60 0 -102.5 -42.5t-62.5 -125.5q-6 -37 -6 -81v-686h-168z" />
<glyph unicode="&#x126;" horiz-adv-x="1014" d="M29 1058v121h103v298h169v-298h414v298h168v-298h104v-121h-104v-1058h-168v669h-414v-669h-169v1058h-103zM301 822h414v236h-414v-236z" />
<glyph unicode="&#x127;" horiz-adv-x="887" d="M-13 1190v119h132v207h168v-207h292v-119h-292v-243h4q32 56 88 92q63 40 142 40q52 0 95.5 -22t78.5 -65.5t54.5 -117.5t19.5 -171v-703h-169v684q0 251 -142 251q-60 0 -102.5 -42.5t-62.5 -125.5q-6 -37 -6 -81v-686h-168v1190h-132z" />
<glyph unicode="&#x128;" horiz-adv-x="435" d="M-15 1573q0 94 35 150t97 56q19 0 40 -6.5t31 -12t31 -18.5q8 -4 23 -13.5t22.5 -14t19 -8.5t21.5 -4q28 0 41 17.5t18 62.5h88q3 -197 -136 -197q-44 0 -107 37q-2 1 -6 4q-49 32 -74 32q-24 0 -36.5 -21t-15.5 -64h-92zM132 0v1477h169v-1477h-169z" />
<glyph unicode="&#x129;" horiz-adv-x="402" d="M-33 1229q-2 91 33 148.5t101 57.5q21 0 43 -7t31 -11.5t34 -18.5q6 -3 18 -10.5t18 -11t15.5 -7.5t17.5 -6t17 -2q18 0 29 6.5t18 24t9 48.5h90q0 -93 -34.5 -145.5t-103.5 -52.5q-40 0 -108 38q-8 4 -21.5 12.5t-21.5 13t-18.5 8t-20.5 3.5q-48 0 -54 -88h-92zM119 0 v1060h168v-1060h-168z" />
<glyph unicode="&#x12a;" horiz-adv-x="435" d="M-13 1610v117h467v-117h-467zM132 0v1477h169v-1477h-169z" />
<glyph unicode="&#x12b;" horiz-adv-x="402" d="M-11 1273v109h432v-109h-432zM119 0v1060h168v-1060h-168z" />
<glyph unicode="&#x12c;" horiz-adv-x="435" d="M-17 1773h98q8 -44 43.5 -69t90.5 -25q56 0 91 23.5t45 70.5h98q0 -95 -62.5 -153t-169.5 -58q-108 0 -171 56.5t-63 154.5zM132 0v1477h169v-1477h-169z" />
<glyph unicode="&#x12d;" horiz-adv-x="402" d="M-29 1466h94q3 -40 21.5 -71t48 -48t66.5 -17q63 0 101 37.5t39 98.5h96q3 -109 -62 -178t-174 -69t-171 70t-59 177zM119 0v1060h168v-1060h-168z" />
<glyph unicode="&#x12e;" horiz-adv-x="435" d="M29 -270q0 39 10 79.5t29 79t31.5 59.5t32.5 52v1477h169v-1477h-48q-35 -47 -62.5 -108t-27.5 -116q0 -49 26.5 -75.5t63.5 -26.5q55 0 94 19l23 -94q-64 -48 -157 -48q-84 0 -134 48t-50 131z" />
<glyph unicode="&#x12f;" horiz-adv-x="402" d="M13 -268q0 39 10 78t31.5 80t31.5 57.5t33 52.5v1060h168v-1060h-51q-34 -47 -61.5 -108.5t-27.5 -117.5q0 -46 28 -73t64 -27q57 0 92 19l24 -94q-62 -48 -158 -48q-84 0 -134 48.5t-50 132.5zM101 1334.5q0 48.5 28 79t70 30.5q46 0 74 -30.5t28 -79.5 q1 -48 -27.5 -78.5t-74.5 -30.5h-2q-42 0 -69 30.5t-27 79z" />
<glyph unicode="&#x130;" horiz-adv-x="435" d="M121 1692q0 26 13 48.5t35.5 35t49.5 12.5q41 0 69 -27.5t28 -68.5t-28 -70t-69 -29h-2q-39 0 -67.5 29t-28.5 70zM132 0v1477h169v-1477h-169z" />
<glyph unicode="&#x131;" horiz-adv-x="402" d="M119 0v1060h168v-1060h-168z" />
<glyph unicode="&#x132;" horiz-adv-x="1016" d="M132 0v1477h169v-1477h-169zM443 -2l15 142q28 -8 81 -8q49 0 81.5 11.5t58.5 41.5t38.5 86.5t12.5 142.5v1063h169v-1061q0 -121 -24 -206.5t-70.5 -134.5t-108 -70.5t-144.5 -21.5q-69 0 -109 15z" />
<glyph unicode="&#x133;" horiz-adv-x="816" d="M101 1334.5q0 48.5 28 79t70 30.5q46 0 74 -30.5t28 -79.5q1 -48 -28 -78.5t-76 -30.5q-42 0 -69 30.5t-27 79zM119 0v1060h168v-1060h-168zM341 -305q32 8 52.5 15.5t47.5 25.5t44 43q28 42 39 115t11 223v943h168v-993q0 -164 -24.5 -253.5t-82.5 -150.5 q-44 -46 -111 -73t-121 -29zM519 1334q-2 49 27.5 79.5t74.5 30.5q44 0 71 -30.5t27 -79.5t-28.5 -79t-75.5 -30q-27 0 -49.5 13.5t-35 38.5t-11.5 57z" />
<glyph unicode="&#x134;" horiz-adv-x="579" d="M6 -2l15 142q29 -8 82 -8q38 0 66 6.5t52.5 25t39.5 50t23.5 81.5t8.5 119v1063h169v-1061q0 -121 -23.5 -206.5t-70 -134.5t-107.5 -70.5t-144 -21.5q-70 0 -111 15zM107 1556l188 215h148l190 -215h-148l-115 121h-4l-111 -121h-148z" />
<glyph unicode="&#x135;" horiz-adv-x="411" d="M-61 -305q18 5 30.5 9t30 11t30.5 15t27 20.5t24 28.5q29 42 40 115t11 223v943h169v-993q0 -163 -25.5 -253t-82.5 -151q-45 -46 -111.5 -73t-121.5 -29zM-21 1183l172 296h114l174 -296h-125l-103 189h-4l-102 -189h-126z" />
<glyph unicode="&#x136;" horiz-adv-x="884" d="M132 0v1477h169v-701h4q24 44 92 177l276 524h186l-361 -631l370 -846h-182l-303 713l-82 -144v-569h-169zM311 -372q59 17 100 51t41 87q0 73 -73 133l136 24q31 -20 53 -61t22 -92q0 -50 -20 -90t-55 -66.5t-76.5 -43t-89.5 -24.5z" />
<glyph unicode="&#x137;" horiz-adv-x="774" d="M117 0v1516h168v-949h4q38 84 58 119l209 374h182l-280 -447l305 -613h-188l-230 500l-60 -99v-401h-168zM247 -387q21 6 40 14t37.5 20.5t32 27t22 34t8.5 42.5q0 73 -71 132l136 25q31 -20 52.5 -61t21.5 -92q0 -50 -20 -90t-55 -66.5t-76.5 -43t-89.5 -24.5z" />
<glyph unicode="&#x138;" horiz-adv-x="774" d="M117 0v1060h168v-493h4q38 84 58 119l209 374h182l-280 -447l305 -613h-188l-230 500l-60 -99v-401h-168z" />
<glyph unicode="&#x139;" horiz-adv-x="753" d="M132 0v1477h169v-1335h416v-142h-585zM144 1556l207 236h199l-272 -236h-134z" />
<glyph unicode="&#x13a;" horiz-adv-x="418" d="M109 1578l207 237h199l-272 -237h-134zM119 0v1516h168v-1516h-168z" />
<glyph unicode="&#x13b;" horiz-adv-x="753" d="M132 0v1477h169v-1335h416v-142h-585zM236 -387q59 17 100 51t41 87q0 73 -72 132l136 25q31 -20 52.5 -61t21.5 -92q0 -50 -20 -90t-55 -66.5t-76.5 -43t-89.5 -24.5z" />
<glyph unicode="&#x13c;" horiz-adv-x="418" d="M59 -387q58 17 99 51t41 87q0 73 -72 132l136 25q31 -20 52.5 -61t21.5 -92q0 -50 -20 -90t-54.5 -66.5t-76 -43t-90.5 -24.5zM119 0v1516h168v-1516h-168z" />
<glyph unicode="&#x13d;" horiz-adv-x="753" d="M132 0v1477h169v-1335h416v-142h-585zM401 1183q21 7 40 15t37.5 20.5t32.5 27t22 34t8 41.5q0 74 -72 134l136 24q31 -21 52.5 -61.5t21.5 -91.5q0 -34 -9 -63.5t-25.5 -52t-39 -41t-50 -31.5t-56.5 -22t-60 -14z" />
<glyph unicode="&#x13e;" horiz-adv-x="424" d="M119 0v1516h168v-1516h-168zM374 1501l126 26q19 -14 35 -35.5t26.5 -54t10.5 -67.5q0 -38 -9.5 -75.5t-20 -61.5t-31.5 -55t-28.5 -39.5t-26.5 -32.5l-75 49q64 97 64 197q0 32 -10 61t-25.5 50.5t-35.5 37.5z" />
<glyph unicode="&#x13f;" horiz-adv-x="753" d="M132 0v1477h169v-1335h416v-142h-585zM429 793q0 40 29 68t71 28q41 0 68.5 -27.5t27.5 -68.5t-28 -70t-68 -29h-3q-19 0 -37 8t-31 21t-21 31.5t-8 38.5z" />
<glyph unicode="&#x140;" horiz-adv-x="514" d="M119 0v1516h168v-1516h-168zM372 863q0 27 12.5 49.5t34 35t45.5 12.5t44 -12.5t32 -35t12 -49.5q0 -41 -25 -69.5t-63 -28.5h-2q-37 0 -63.5 28.5t-26.5 69.5z" />
<glyph unicode="&#x141;" horiz-adv-x="768" d="M-2 418v154l149 143v762h169v-626l232 223v-156l-232 -221v-555h416v-142h-585v561z" />
<glyph unicode="&#x142;" horiz-adv-x="433" d="M-2 510v149l136 141v716h169v-585l138 145v-154l-138 -144v-778h-169v648z" />
<glyph unicode="&#x143;" horiz-adv-x="1018" d="M132 0v1477h159l272 -693q141 -363 188 -514h5q-20 367 -20 679v528h151v-1477h-159l-281 710q-116 294 -175 502h-4q17 -262 17 -702v-510h-153zM429 1556l207 236h199l-272 -236h-134z" />
<glyph unicode="&#x144;" horiz-adv-x="887" d="M109 1060h148l8 -127h5q35 67 98.5 106.5t144.5 39.5q116 0 186 -91t70 -275v-713h-169v684q0 41 -3 74.5t-13 67.5t-25.5 57t-42.5 37.5t-62 14.5q-36 0 -68.5 -19t-57 -58.5t-35.5 -94.5q-6 -40 -6 -94v-669h-168v786q0 73 -4.5 162.5t-5.5 111.5zM372 1198l169 297 h174l-230 -297h-113z" />
<glyph unicode="&#x145;" horiz-adv-x="1018" d="M132 0v1477h159l272 -693q141 -363 188 -514h5q-20 367 -20 679v528h151v-1477h-159l-281 710q-116 294 -175 502h-4q17 -262 17 -702v-510h-153zM349 -381q58 17 99 51.5t41 86.5q0 74 -73 134l136 23q31 -20 53 -61t22 -92q0 -33 -9.5 -62.5t-26 -52t-39 -41t-50 -32 t-56.5 -22t-61 -13.5z" />
<glyph unicode="&#x146;" horiz-adv-x="887" d="M109 1060h148l8 -127h5q35 67 98.5 106.5t144.5 39.5q116 0 186 -91t70 -275v-713h-169v684q0 41 -3 74.5t-13 67.5t-25.5 57t-42.5 37.5t-62 14.5q-36 0 -68.5 -19t-57 -58.5t-35.5 -94.5q-6 -40 -6 -94v-669h-168v786q0 73 -4.5 162.5t-5.5 111.5zM309 -374 q59 17 99.5 51t40.5 87q0 73 -72 133l136 24q31 -21 52.5 -61.5t21.5 -91.5q0 -50 -19.5 -90.5t-54.5 -66.5t-76.5 -42.5t-89.5 -24.5z" />
<glyph unicode="&#x147;" horiz-adv-x="1018" d="M132 0v1477h159l272 -693q141 -363 188 -514h5q-20 367 -20 679v528h151v-1477h-159l-281 710q-116 294 -175 502h-4q17 -262 17 -702v-510h-153zM245 1771h148l113 -127h4l115 127h144l-188 -215h-144z" />
<glyph unicode="&#x148;" horiz-adv-x="887" d="M109 1060h148l8 -127h5q35 67 98.5 106.5t144.5 39.5q116 0 186 -91t70 -275v-713h-169v684q0 41 -3 74.5t-13 67.5t-25.5 57t-42.5 37.5t-62 14.5q-36 0 -68.5 -19t-57 -58.5t-35.5 -94.5q-6 -40 -6 -94v-669h-168v786q0 73 -4.5 162.5t-5.5 111.5zM213 1495h126 l102 -191h4l103 191h127l-173 -297h-117z" />
<glyph unicode="&#x149;" horiz-adv-x="887" d="M29 1510l131 24q31 -20 51.5 -57.5t20.5 -85.5q0 -41 -11.5 -79t-34 -71t-35.5 -48t-34 -38l-82 43q63 87 63 178q0 43 -19 77.5t-50 56.5zM109 1060h148l8 -127h5q35 67 98.5 106.5t144.5 39.5q116 0 186 -91t70 -275v-713h-169v684q0 41 -3 74.5t-13 67.5t-25.5 57 t-42.5 37.5t-62 14.5q-36 0 -68.5 -19t-57 -58.5t-35.5 -94.5q-6 -40 -6 -94v-669h-168v786q0 73 -4.5 162.5t-5.5 111.5z" />
<glyph unicode="&#x14a;" horiz-adv-x="1018" d="M132 0v1477h159l272 -693q141 -363 188 -514h5q-20 367 -20 679v528h151v-1431q0 -189 -72 -303t-236 -151l-40 130q98 29 146.5 92.5t48.5 172.5l-287 723q-116 294 -175 502h-4q17 -262 17 -702v-510h-153z" />
<glyph unicode="&#x14b;" horiz-adv-x="887" d="M109 1060h148l8 -127h5q35 67 98.5 106.5t144.5 39.5q116 0 186 -91t70 -275v-646q0 -388 -307 -446l-35 136q56 14 93 45t58.5 95t21.5 162v625q0 41 -3 74.5t-13 67.5t-25.5 57t-42.5 37.5t-62 14.5q-36 0 -68.5 -19t-57 -58.5t-35.5 -94.5q-6 -40 -6 -94v-669h-168 v786q0 73 -4.5 162.5t-5.5 111.5z" />
<glyph unicode="&#x14c;" horiz-adv-x="976" d="M71 740q0 360 117.5 557.5t315.5 197.5q190 0 296.5 -197t106.5 -549q0 -162 -21.5 -292t-60 -217.5t-93 -146t-117 -84.5t-135.5 -26q-188 0 -298.5 196t-110.5 561zM245 738q0 -95 7.5 -180t25.5 -164.5t45.5 -136.5t70.5 -91t97 -34q55 0 98 36t69.5 95t43.5 140.5 t23.5 164t6.5 175.5q0 88 -6.5 168.5t-24 161.5t-44 140t-69.5 95.5t-99 36.5q-53 0 -95.5 -34.5t-70 -92t-45.5 -137t-25.5 -164t-7.5 -179.5zM259 1610v117h466v-117h-466z" />
<glyph unicode="&#x14d;" horiz-adv-x="838" d="M73 529q0 112 19.5 205t52.5 156t78.5 106t96.5 63t107 20q72 0 133 -34.5t108.5 -100.5t74 -172t26.5 -241q0 -119 -21 -214.5t-56 -156.5t-81.5 -102t-95 -58t-99.5 -17q-72 0 -134 33.5t-109 99t-73.5 171.5t-26.5 242zM207 1273v109h431v-109h-431zM241 531 q0 -41 2 -79t7.5 -80t14.5 -78t23.5 -69.5t33 -57t45 -37t58.5 -13.5q41 0 73 27.5t50.5 70t30 100t15.5 109.5t4 107q0 37 -2 73.5t-7 78.5t-13.5 78.5t-22.5 70.5t-32 58t-44 38.5t-56 14.5q-44 0 -77 -28t-52 -70t-31 -99.5t-16 -109t-4 -105.5z" />
<glyph unicode="&#x14e;" horiz-adv-x="976" d="M71 740q0 360 117.5 557.5t315.5 197.5q190 0 296.5 -197t106.5 -549q0 -162 -21.5 -292t-60 -217.5t-93 -146t-117 -84.5t-135.5 -26q-188 0 -298.5 196t-110.5 561zM245 738q0 -95 7.5 -180t25.5 -164.5t45.5 -136.5t70.5 -91t97 -34q55 0 98 36t69.5 95t43.5 140.5 t23.5 164t6.5 175.5q0 88 -6.5 168.5t-24 161.5t-44 140t-69.5 95.5t-99 36.5q-53 0 -95.5 -34.5t-70 -92t-45.5 -137t-25.5 -164t-7.5 -179.5zM249 1773h100q8 -44 43.5 -69t90.5 -25t90.5 23.5t44.5 70.5h99q0 -95 -62.5 -153t-169.5 -58q-72 0 -125 25t-82 73t-29 113z " />
<glyph unicode="&#x14f;" horiz-adv-x="838" d="M73 529q0 112 19.5 205t52.5 156t78.5 106t96.5 63t107 20q72 0 133 -34.5t108.5 -100.5t74 -172t26.5 -241q0 -119 -21 -214.5t-56 -156.5t-81.5 -102t-95 -58t-99.5 -17q-72 0 -134 33.5t-109 99t-73.5 171.5t-26.5 242zM184 1466h94q5 -61 42.5 -98.5t93.5 -37.5 q63 0 101 37.5t39 98.5h94q3 -72 -25 -128t-82.5 -87.5t-126.5 -31.5q-109 0 -171 70t-59 177zM241 531q0 -41 2 -79t7.5 -80t14.5 -78t23.5 -69.5t33 -57t45 -37t58.5 -13.5q41 0 73 27.5t50.5 70t30 100t15.5 109.5t4 107q0 37 -2 73.5t-7 78.5t-13.5 78.5t-22.5 70.5 t-32 58t-44 38.5t-56 14.5q-44 0 -77 -28t-52 -70t-31 -99.5t-16 -109t-4 -105.5z" />
<glyph unicode="&#x150;" horiz-adv-x="976" d="M71 740q0 360 117.5 557.5t315.5 197.5q190 0 296.5 -197t106.5 -549q0 -162 -21.5 -292t-60 -217.5t-93 -146t-117 -84.5t-135.5 -26q-188 0 -298.5 196t-110.5 561zM245 738q0 -95 7.5 -180t25.5 -164.5t45.5 -136.5t70.5 -91t97 -34q55 0 98 36t69.5 95t43.5 140.5 t23.5 164t6.5 175.5q0 88 -6.5 168.5t-24 161.5t-44 140t-69.5 95.5t-99 36.5q-53 0 -95.5 -34.5t-70 -92t-45.5 -137t-25.5 -164t-7.5 -179.5zM287 1576l158 216h178l-220 -216h-116zM565 1576l158 216h178l-219 -216h-117z" />
<glyph unicode="&#x151;" horiz-adv-x="838" d="M73 529q0 112 19.5 205t52.5 156t78.5 106t96.5 63t107 20q72 0 133 -34.5t108.5 -100.5t74 -172t26.5 -241q0 -119 -21 -214.5t-56 -156.5t-81.5 -102t-95 -58t-99.5 -17q-72 0 -134 33.5t-109 99t-73.5 171.5t-26.5 242zM221 1198l172 297h153l-228 -297h-97zM241 531 q0 -41 2 -79t7.5 -80t14.5 -78t23.5 -69.5t33 -57t45 -37t58.5 -13.5q41 0 73 27.5t50.5 70t30 100t15.5 109.5t4 107q0 37 -2 73.5t-7 78.5t-13.5 78.5t-22.5 70.5t-32 58t-44 38.5t-56 14.5q-44 0 -77 -28t-52 -70t-31 -99.5t-16 -109t-4 -105.5zM493 1198l171 297h153 l-227 -297h-97z" />
<glyph unicode="&#x152;" horiz-adv-x="1336" d="M71 730q0 152 26.5 278t73.5 215.5t113 151t144.5 91t167.5 29.5q47 0 83 -7q10 -1 26.5 -4t29.5 -4.5t24 -2.5h497v-147h-395v-487h371v-142h-371v-554h421v-147h-539q-31 -2 -84 -11q-43 -6 -80 -6q-81 0 -149.5 21t-120 58.5t-92.5 91.5t-68 117.5t-45 139.5 t-25.5 154.5t-7.5 164.5zM245 740q-1 -135 18 -241.5t50.5 -174.5t76.5 -112t93 -62t102 -18q74 0 107 17v1172q-42 24 -117 24q-47 0 -91.5 -18.5t-88.5 -64t-77 -112.5t-53.5 -173t-19.5 -237z" />
<glyph unicode="&#x153;" horiz-adv-x="1334" d="M73 529q0 110 19.5 202t53 155.5t79 107.5t97 64.5t107.5 20.5q91 0 165.5 -55.5t104.5 -162.5h4q40 102 112 160t164 58q60 0 109.5 -26.5t83.5 -71.5t57 -105.5t33.5 -127.5t10.5 -139q0 -21 -1 -51t-1 -39h-493q1 -94 14.5 -165t35 -116t53 -72.5t65.5 -38t77 -10.5 q34 0 70 7.5t56.5 14.5t57.5 21l31 -120q-92 -57 -247 -57q-98 0 -179 57.5t-115 166.5h-5q-32 -112 -107.5 -168t-166.5 -56q-73 0 -135 34t-109.5 100t-74 171.5t-26.5 240.5zM241 531q0 -48 3 -91.5t10.5 -92.5t22 -88.5t35 -72.5t52 -51t70.5 -18q38 0 68.5 17.5 t50 50.5t33.5 72t21.5 88.5t10.5 94t3 93.5q0 40 -2 77t-8 79t-14.5 77.5t-23.5 68.5t-34 56.5t-46.5 37.5t-61.5 14h-2q-39 0 -70 -19.5t-51 -53.5t-34 -74.5t-21 -89.5t-9.5 -90.5t-2.5 -84.5zM780 640h331q3 147 -42.5 226t-108.5 79q-53 0 -94 -45.5t-62 -113.5 t-24 -146z" />
<glyph unicode="&#x154;" horiz-adv-x="895" d="M132 0v1455q105 28 242 28q226 0 334 -105q103 -106 103 -289q0 -271 -236 -379v-5q54 -16 92.5 -58t64 -108t42.5 -165q46 -286 83 -374h-171q-31 64 -79 366q-25 152 -79 215t-162 63h-65v-644h-169zM301 774h69q122 0 196 81t74 214q0 276 -253 279q-54 0 -86 -9v-565 zM328 1556l207 236h199l-272 -236h-134z" />
<glyph unicode="&#x155;" horiz-adv-x="542" d="M107 1060h152l9 -165h4q27 77 89.5 130.5t133.5 53.5q7 0 19 -1.5t17 -1.5v-173q-11 2 -36 2q-52 0 -96 -29.5t-71.5 -80t-36.5 -111.5q-6 -44 -6 -97v-587h-168v786q0 53 -4.5 153t-5.5 121zM226 1198l169 297h172l-230 -297h-111z" />
<glyph unicode="&#x156;" horiz-adv-x="895" d="M132 0v1455q105 28 242 28q226 0 334 -105q103 -106 103 -289q0 -271 -236 -379v-5q54 -16 92.5 -58t64 -108t42.5 -165q46 -286 83 -374h-171q-31 64 -79 366q-25 152 -79 215t-162 63h-65v-644h-169zM301 774h69q122 0 196 81t74 214q0 276 -253 279q-54 0 -86 -9v-565 zM307 -372q59 17 99.5 51t40.5 87q0 73 -73 133l136 24q31 -20 53 -61t22 -92q0 -50 -20 -90t-54.5 -66.5t-76 -43t-89.5 -24.5z" />
<glyph unicode="&#x157;" horiz-adv-x="542" d="M83 -387q59 17 100 51t41 87q0 72 -73 132l136 25q31 -20 53 -61t22 -92q0 -50 -20 -90t-55 -66.5t-76.5 -43t-89.5 -24.5zM107 1060h152l9 -165h4q27 77 89.5 130.5t133.5 53.5q7 0 19 -1.5t17 -1.5v-173q-11 2 -36 2q-52 0 -96 -29.5t-71.5 -80t-36.5 -111.5 q-6 -44 -6 -97v-587h-168v786q0 53 -4.5 153t-5.5 121z" />
<glyph unicode="&#x158;" horiz-adv-x="895" d="M132 0v1455q105 28 242 28q226 0 334 -105q103 -106 103 -289q0 -271 -236 -379v-5q54 -16 92.5 -58t64 -108t42.5 -165q46 -286 83 -374h-171q-31 64 -79 366q-25 152 -79 215t-162 63h-65v-644h-169zM167 1771h147l113 -127h4l115 127h144l-188 -215h-145zM301 774h69 q122 0 196 81t74 214q0 276 -253 279q-54 0 -86 -9v-565z" />
<glyph unicode="&#x159;" horiz-adv-x="542" d="M65 1495h128l100 -191h6l102 191h128l-174 -297h-116zM107 1060h152l9 -165h4q27 77 89.5 130.5t133.5 53.5q7 0 19 -1.5t17 -1.5v-173q-11 2 -36 2q-52 0 -96 -29.5t-71.5 -80t-36.5 -111.5q-6 -44 -6 -97v-587h-168v786q0 53 -4.5 153t-5.5 121z" />
<glyph unicode="&#x15a;" horiz-adv-x="790" d="M61 50l37 145q39 -26 98.5 -42.5t114.5 -16.5q114 0 179.5 68t65.5 181q0 50 -13 92.5t-40.5 80t-60.5 68t-80 66.5q-279 194 -279 410q0 170 108 279.5t282 109.5q65 0 122 -17t87 -39l-42 -145q-71 51 -176 51q-52 0 -93.5 -18.5t-66.5 -49t-38 -67t-13 -75.5 q0 -36 5.5 -66t20 -56.5t29 -46.5t44 -45.5t52 -42.5t65.5 -48q132 -93 194 -196.5t62 -228t-54.5 -219.5t-148 -145t-211.5 -50q-72 0 -144.5 19.5t-105.5 43.5zM295 1556l207 236h199l-272 -236h-134z" />
<glyph unicode="&#x15b;" horiz-adv-x="632" d="M48 48l42 127q33 -21 79 -37.5t92 -16.5q72 0 113.5 41t41.5 112q0 42 -11.5 74.5t-41.5 65t-83 69.5q-108 70 -160.5 141t-52.5 160q0 128 84 211.5t209 83.5q99 0 190 -56l-46 -126q-68 46 -140 46q-65 0 -101.5 -39.5t-36.5 -94.5t26.5 -92.5t104.5 -91.5 q50 -32 87 -64t68.5 -71.5t48 -86.5t16.5 -100q0 -78 -25 -139t-69 -99t-101 -58t-123 -20q-60 0 -118.5 16.5t-92.5 44.5zM247 1198l169 297h174l-230 -297h-113z" />
<glyph unicode="&#x15c;" horiz-adv-x="790" d="M61 50l37 145q39 -26 98.5 -42.5t114.5 -16.5q114 0 179.5 68t65.5 181q0 50 -13 92.5t-40.5 80t-60.5 68t-80 66.5q-279 194 -279 410q0 170 108 279.5t282 109.5q65 0 122 -17t87 -39l-42 -145q-71 51 -176 51q-52 0 -93.5 -18.5t-66.5 -49t-38 -67t-13 -75.5 q0 -36 5.5 -66t20 -56.5t29 -46.5t44 -45.5t52 -42.5t65.5 -48q132 -93 194 -196.5t62 -228t-54.5 -219.5t-148 -145t-211.5 -50q-72 0 -144.5 19.5t-105.5 43.5zM151 1556l188 215h148l190 -215h-148l-115 121h-4l-111 -121h-148z" />
<glyph unicode="&#x15d;" horiz-adv-x="632" d="M48 48l42 127q33 -21 79 -37.5t92 -16.5q72 0 113.5 41t41.5 112q0 42 -11.5 74.5t-41.5 65t-83 69.5q-108 70 -160.5 141t-52.5 160q0 128 84 211.5t209 83.5q99 0 190 -56l-46 -126q-68 46 -140 46q-65 0 -101.5 -39.5t-36.5 -94.5t26.5 -92.5t104.5 -91.5 q50 -32 87 -64t68.5 -71.5t48 -86.5t16.5 -100q0 -78 -25 -139t-69 -99t-101 -58t-123 -20q-60 0 -118.5 16.5t-92.5 44.5zM88 1198l173 297h113l174 -297h-125l-103 189h-4l-101 -189h-127z" />
<glyph unicode="&#x15e;" horiz-adv-x="790" d="M61 50l37 145q39 -26 98.5 -42.5t114.5 -16.5q114 0 179.5 68t65.5 181q0 50 -13 92.5t-40.5 80t-60.5 68t-80 66.5q-279 194 -279 410q0 170 108 279.5t282 109.5q65 0 122 -17t87 -39l-42 -145q-71 51 -176 51q-52 0 -93.5 -18.5t-66.5 -49t-38 -67t-13 -75.5 q0 -36 5.5 -66t20 -56.5t29 -46.5t44 -45.5t52 -42.5t65.5 -48q132 -93 194 -196.5t62 -228.5q0 -151 -77 -255.5t-207 -141.5l-60 -113q58 -8 100 -52t42 -104q0 -45 -17 -79.5t-46.5 -54.5t-63.5 -30t-72 -10q-75 0 -144 40l33 92q53 -32 109 -32q35 0 58 15.5t23 51.5 q0 41 -42 64t-108 30l73 165h-15q-72 0 -144.5 19.5t-105.5 43.5z" />
<glyph unicode="&#x15f;" horiz-adv-x="632" d="M48 48l42 127q33 -21 79 -37.5t92 -16.5q72 0 113.5 41t41.5 112q0 42 -11.5 74.5t-41.5 65t-83 69.5q-108 70 -160.5 141t-52.5 160q0 128 84 211.5t209 83.5q99 0 190 -56l-46 -126q-68 46 -140 46q-65 0 -101.5 -39.5t-36.5 -94.5t26.5 -92.5t104.5 -91.5 q50 -32 87 -64t68.5 -71.5t48 -86.5t16.5 -100q0 -120 -57 -196.5t-152 -104.5l-57 -111q59 -8 101 -52t42 -104q0 -45 -17.5 -79.5t-46.5 -54.5t-63.5 -30t-71.5 -10q-77 0 -146 40l33 92q53 -32 111 -32q78 0 78 65q0 42 -41 65.5t-108 30.5l75 165h-10q-49 0 -104.5 16 t-94.5 45z" />
<glyph unicode="&#x160;" horiz-adv-x="790" d="M61 50l37 145q39 -26 98.5 -42.5t114.5 -16.5q114 0 179.5 68t65.5 181q0 50 -13 92.5t-40.5 80t-60.5 68t-80 66.5q-279 194 -279 410q0 170 108 279.5t282 109.5q65 0 122 -17t87 -39l-42 -145q-71 51 -176 51q-52 0 -93.5 -18.5t-66.5 -49t-38 -67t-13 -75.5 q0 -36 5.5 -66t20 -56.5t29 -46.5t44 -45.5t52 -42.5t65.5 -48q132 -93 194 -196.5t62 -228t-54.5 -219.5t-148 -145t-211.5 -50q-72 0 -144.5 19.5t-105.5 43.5zM167 1771h147l113 -127h4l115 127h144l-188 -215h-145z" />
<glyph unicode="&#x161;" horiz-adv-x="632" d="M48 48l42 127q33 -21 79 -37.5t92 -16.5q72 0 113.5 41t41.5 112q0 42 -11.5 74.5t-41.5 65t-83 69.5q-108 70 -160.5 141t-52.5 160q0 128 84 211.5t209 83.5q99 0 190 -56l-46 -126q-68 46 -140 46q-65 0 -101.5 -39.5t-36.5 -94.5t26.5 -92.5t104.5 -91.5 q50 -32 87 -64t68.5 -71.5t48 -86.5t16.5 -100q0 -78 -25 -139t-69 -99t-101 -58t-123 -20q-60 0 -118.5 16.5t-92.5 44.5zM92 1495h127l101 -191h4l103 191h127l-173 -297h-116z" />
<glyph unicode="&#x162;" horiz-adv-x="774" d="M35 1326v151h708v-151h-270v-1326h-168v1326h-270zM232 -387q27 8 50 19t44.5 27.5t33.5 40t12 51.5q0 73 -71 132l136 25q30 -20 51.5 -61t21.5 -92q0 -50 -19.5 -90t-54.5 -66.5t-76.5 -43t-89.5 -24.5z" />
<glyph unicode="&#x163;" horiz-adv-x="558" d="M27 931v129h128v180l169 69v-249h205v-129h-205v-628q0 -176 113 -176q38 0 67 7l6 -130q-49 -17 -125 -17q-108 0 -166 63q-32 38 -48 100t-16 168v613h-128zM151 -387q27 8 50 19t44 27.5t33.5 40t12.5 51.5q0 73 -72 132l136 25q31 -20 52.5 -61t21.5 -92 q0 -50 -20 -90t-54.5 -66.5t-76 -43t-90.5 -24.5z" />
<glyph unicode="&#x164;" horiz-adv-x="774" d="M35 1326v151h708v-151h-270v-1326h-168v1326h-270zM123 1771h147l113 -127h4l115 127h144l-188 -215h-144z" />
<glyph unicode="&#x165;" horiz-adv-x="579" d="M27 931v129h128v180l169 69v-249h205v-129h-205v-628q0 -176 113 -176q38 0 67 7l6 -130q-49 -17 -125 -17q-108 0 -166 63q-32 38 -48 100t-16 168v613h-128zM493 1534l130 24q32 -21 53 -57.5t21 -87.5q0 -28 -6 -55.5t-17.5 -51t-22.5 -42t-27 -38t-25 -28.5t-22 -23 l-82 44q27 33 45.5 81t18.5 98q0 44 -18.5 79.5t-47.5 56.5z" />
<glyph unicode="&#x166;" horiz-adv-x="774" d="M35 1326v151h708v-151h-270v-494h182v-124h-182v-708h-168v708h-184v124h184v494h-270z" />
<glyph unicode="&#x167;" horiz-adv-x="558" d="M27 931v129h128v180l169 69v-249h205v-129h-205v-254h161v-116h-161v-258q0 -176 113 -176q38 0 67 7l6 -130q-49 -17 -125 -17q-108 0 -166 63q-32 38 -48 100t-16 168v243h-118v116h118v254h-128z" />
<glyph unicode="&#x168;" horiz-adv-x="1000" d="M129 493v984h170v-990q0 -97 15 -167t43 -110.5t63 -59t80 -18.5q98 0 150.5 84t52.5 271v990h169v-964q0 -141 -27.5 -244.5t-79 -165t-118.5 -91t-152 -29.5t-150.5 28.5t-114.5 88.5t-75 159.5t-26 233.5zM265 1573q0 94 35 150t97 56q15 0 28.5 -2.5t29 -10t22 -11 t23.5 -13.5q7 -4 22 -13.5t22.5 -14t19 -8.5t21.5 -4q28 0 41 17.5t18 62.5h88q3 -197 -136 -197q-44 0 -107 37q-2 1 -6 4q-48 32 -73 32q-17 0 -28 -9.5t-16.5 -28t-8.5 -47.5h-92z" />
<glyph unicode="&#x169;" horiz-adv-x="872" d="M113 391v669h169v-646q0 -67 6.5 -116t21.5 -90t43.5 -62t71.5 -21q35 0 63.5 15t46 37.5t28 45t14.5 42.5q8 39 8 97v698h169v-771q0 -71 4.5 -179t4.5 -110h-148l-10 111h-5q-13 -21 -34 -42t-49 -41t-66 -32.5t-79 -12.5q-136 0 -197.5 102t-61.5 306zM199 1229 q-2 91 33 148.5t101 57.5q21 0 43.5 -7t31 -11.5t33.5 -18.5q5 -3 18 -10.5t18.5 -10.5t15.5 -8t18.5 -6.5t17.5 -1.5q26 0 38.5 17t15.5 62h90q0 -93 -34.5 -145.5t-103.5 -52.5q-40 0 -108 38q-8 4 -21.5 12.5t-21 13t-18 8t-19.5 3.5q-49 0 -56 -88h-92z" />
<glyph unicode="&#x16a;" horiz-adv-x="1000" d="M129 493v984h170v-990q0 -97 15 -167t43 -110.5t63 -59t80 -18.5q98 0 150.5 84t52.5 271v990h169v-964q0 -141 -27.5 -244.5t-79 -165t-118.5 -91t-152 -29.5t-150.5 28.5t-114.5 88.5t-75 159.5t-26 233.5zM265 1610v117h467v-117h-467z" />
<glyph unicode="&#x16b;" horiz-adv-x="872" d="M113 391v669h169v-646q0 -67 6.5 -116t21.5 -90t43.5 -62t71.5 -21q35 0 63.5 15t46 37.5t28 45t14.5 42.5q8 39 8 97v698h169v-771q0 -71 4.5 -179t4.5 -110h-148l-10 111h-5q-13 -21 -34 -42t-49 -41t-66 -32.5t-79 -12.5q-136 0 -197.5 102t-61.5 306zM217 1273v109 h431v-109h-431z" />
<glyph unicode="&#x16c;" horiz-adv-x="1000" d="M129 493v984h170v-990q0 -97 15 -167t43 -110.5t63 -59t80 -18.5q98 0 150.5 84t52.5 271v990h169v-964q0 -141 -27.5 -244.5t-79 -165t-118.5 -91t-152 -29.5t-150.5 28.5t-114.5 88.5t-75 159.5t-26 233.5zM265 1767h99q8 -45 43.5 -70t90.5 -25t90.5 24t44.5 71h99 q0 -95 -62.5 -153t-169.5 -58q-72 0 -125 25t-81.5 72.5t-28.5 113.5z" />
<glyph unicode="&#x16d;" horiz-adv-x="872" d="M113 391v669h169v-646q0 -67 6.5 -116t21.5 -90t43.5 -62t71.5 -21q35 0 63.5 15t46 37.5t28 45t14.5 42.5q8 39 8 97v698h169v-771q0 -71 4.5 -179t4.5 -110h-148l-10 111h-5q-13 -21 -34 -42t-49 -41t-66 -32.5t-79 -12.5q-136 0 -197.5 102t-61.5 306zM203 1466h96 q3 -40 21 -71t47.5 -48t66.5 -17q64 0 101.5 37.5t39.5 98.5h94q2 -72 -26 -128t-82 -87.5t-127 -31.5q-108 0 -171 70t-60 177z" />
<glyph unicode="&#x16e;" horiz-adv-x="1000" d="M129 493v984h170v-990q0 -97 15 -167t43 -110.5t63 -59t80 -18.5q98 0 150.5 84t52.5 271v990h169v-964q0 -141 -27.5 -244.5t-79 -165t-118.5 -91t-152 -29.5t-150.5 28.5t-114.5 88.5t-75 159.5t-26 233.5zM293 1694q0 80 57 137.5t150 57.5h2q92 0 146.5 -55.5 t54.5 -137.5q0 -79 -56.5 -135t-146.5 -56q-94 0 -150.5 55t-56.5 134zM399 1694q0 -41 27.5 -74t71.5 -33q45 0 72.5 32.5t27.5 78.5q0 30 -11.5 55.5t-35 41t-53.5 15.5h-3q-45 0 -70.5 -34.5t-25.5 -81.5z" />
<glyph unicode="&#x16f;" horiz-adv-x="872" d="M113 391v669h169v-646q0 -67 6.5 -116t21.5 -90t43.5 -62t71.5 -21q35 0 63.5 15t46 37.5t28 45t14.5 42.5q8 39 8 97v698h169v-771q0 -71 4.5 -179t4.5 -110h-148l-10 111h-5q-13 -21 -34 -42t-49 -41t-66 -32.5t-79 -12.5q-136 0 -197.5 102t-61.5 306zM234 1355 q0 83 55.5 138.5t151.5 55.5q89 0 144 -55t55 -137q0 -81 -57 -135t-144 -54q-92 0 -148.5 54t-56.5 133zM335 1355q0 -43 28.5 -77t73.5 -34q32 0 56.5 16.5t36 42t11.5 56.5q0 47 -27.5 80t-79.5 33q-45 0 -72 -35t-27 -82z" />
<glyph unicode="&#x170;" horiz-adv-x="1000" d="M129 493v984h170v-990q0 -97 15 -167t43 -110.5t63 -59t80 -18.5q98 0 150.5 84t52.5 271v990h169v-964q0 -141 -27.5 -244.5t-79 -165t-118.5 -91t-152 -29.5t-150.5 28.5t-114.5 88.5t-75 159.5t-26 233.5zM278 1576l159 216h176l-218 -216h-117zM556 1576l159 216h177 l-219 -216h-117z" />
<glyph unicode="&#x171;" horiz-adv-x="872" d="M113 391v669h169v-646q0 -67 6.5 -116t21.5 -90t43.5 -62t71.5 -21q35 0 63.5 15t46 37.5t28 45t14.5 42.5q8 39 8 97v698h169v-771q0 -71 4.5 -179t4.5 -110h-148l-10 111h-5q-13 -21 -34 -42t-49 -41t-66 -32.5t-79 -12.5q-136 0 -197.5 102t-61.5 306zM241 1198 l171 297h153l-228 -297h-96zM513 1198l171 297h153l-228 -297h-96z" />
<glyph unicode="&#x172;" horiz-adv-x="1000" d="M129 493v984h170v-990q0 -97 15 -167t43 -110.5t63 -59t80 -18.5q98 0 150.5 84t52.5 271v990h169v-964q0 -195 -52.5 -317.5t-150.5 -168.5q-62 -48 -104 -114t-42 -124q0 -23 7.5 -40.5t20 -28t28 -16t32.5 -5.5q50 0 97 25l24 -94q-21 -16 -49 -27t-55 -16t-53 -5 q-84 0 -134 45t-50 120q0 60 32 123.5t77 114.5h-27q-78 3 -139.5 33t-108 89.5t-71.5 157t-25 228.5z" />
<glyph unicode="&#x173;" horiz-adv-x="872" d="M113 391v669h169v-646q0 -67 6.5 -116t21.5 -90t43.5 -62t71.5 -21q35 0 63.5 15t46 37.5t28 45t14.5 42.5q8 39 8 97v698h169v-771q0 -165 15 -289h-35q-34 -47 -62 -108.5t-28 -117.5q0 -46 27.5 -73t64.5 -27q58 0 92 19l25 -94q-65 -48 -159 -48q-84 0 -134 48.5 t-50 132.5q0 39 10 78t31 79t32 58.5t32 52.5l-10 111h-5q-13 -21 -34 -42t-49 -41t-66 -32.5t-79 -12.5q-136 0 -197.5 102t-61.5 306z" />
<glyph unicode="&#x174;" horiz-adv-x="1432" d="M44 1477h175l126 -712q49 -297 71 -533h9q6 66 17 143t18 117t27.5 145.5t25.5 129.5l135 710h145l136 -695l6 -33q21 -108 31.5 -168.5t25 -159t22.5 -189.5h7q29 253 79 542l123 703h164l-287 -1477h-165l-142 719q-53 283 -74 484h-4q-36 -276 -82 -490l-146 -713 h-159zM460 1556l188 215h147l192 -215h-150l-114 121h-4l-112 -121h-147z" />
<glyph unicode="&#x175;" horiz-adv-x="1240" d="M29 1060h174l104 -519q6 -36 19.5 -107t22.5 -126.5t15 -104.5h8q20 143 67 334l122 523h129l117 -508q47 -211 67 -349h9q15 135 58 343l100 514h168l-266 -1060h-138l-123 515q-31 116 -59 317h-5q-21 -160 -62 -324l-127 -508h-142zM391 1198l172 297h114l174 -297 h-126l-102 189h-5l-101 -189h-126z" />
<glyph unicode="&#x176;" horiz-adv-x="862" d="M21 1477h178l132 -371q65 -178 110 -332h4q41 151 107 339l125 364h178l-340 -846v-631h-168v625zM178 1556l188 215h147l190 -215h-149l-113 121h-4l-113 -121h-146z" />
<glyph unicode="&#x177;" horiz-adv-x="757" d="M29 1060h178l140 -608q5 -22 44 -220h4q10 56 46 217l124 611h167l-173 -681q-29 -115 -52.5 -200t-56 -179.5t-71.5 -170.5t-84 -134q-50 -63 -102 -104t-88 -58l-61 145q77 43 149 134q62 77 96 177q12 37 12 53q0 23 -6 39zM151 1198l173 297h115l172 -297h-124 l-104 189h-4l-101 -189h-127z" />
<glyph unicode="&#x178;" horiz-adv-x="862" d="M21 1477h178l132 -371q65 -178 110 -332h4q41 151 107 339l125 364h178l-340 -846v-631h-168v625zM175 1675q0 43 27.5 72.5t67.5 29.5q42 0 68 -29t26 -73q0 -46 -26 -74t-68 -28h-2q-40 0 -66.5 28t-26.5 74zM529 1675q0 44 27.5 73t68.5 29q42 0 68 -29t26 -73 q0 -23 -7 -42t-19 -32t-29.5 -20.5t-38.5 -7.5h-2q-40 0 -67 28.5t-27 73.5z" />
<glyph unicode="&#x179;" horiz-adv-x="784" d="M44 0v101l506 1225v6h-464v145h652v-114l-497 -1212v-7h495v-144h-692zM309 1556l206 236h200l-272 -236h-134z" />
<glyph unicode="&#x17a;" horiz-adv-x="685" d="M35 0v103l335 656q13 24 42.5 77.5t43.5 79.5v4h-379v140h565v-111l-331 -646q-12 -23 -42 -77.5t-43 -81.5v-4h416v-140h-607zM285 1198l169 297h173l-230 -297h-112z" />
<glyph unicode="&#x17b;" horiz-adv-x="784" d="M44 0v101l506 1225v6h-464v145h652v-114l-497 -1212v-7h495v-144h-692zM324 1679q0 11 2.5 22t7.5 20.5t11.5 18t15.5 15t18.5 11t20.5 7t23 2.5q41 0 68.5 -27.5t27.5 -68.5t-28 -70t-68 -29h-2q-40 0 -68.5 29t-28.5 70z" />
<glyph unicode="&#x17c;" horiz-adv-x="685" d="M35 0v103l335 656q13 24 42.5 77.5t43.5 79.5v4h-379v140h565v-111l-331 -646q-12 -23 -42 -77.5t-43 -81.5v-4h416v-140h-607zM257 1336q0 42 28 70.5t68 28.5t67 -27.5t27 -71.5q0 -27 -12 -49t-33.5 -34.5t-48.5 -12.5h-2q-40 0 -67 28t-27 68z" />
<glyph unicode="&#x17d;" horiz-adv-x="784" d="M44 0v101l506 1225v6h-464v145h652v-114l-497 -1212v-7h495v-144h-692zM151 1771h148l113 -127h4l115 127h144l-188 -215h-146z" />
<glyph unicode="&#x17e;" horiz-adv-x="685" d="M35 0v103l335 656q13 24 42.5 77.5t43.5 79.5v4h-379v140h565v-111l-331 -646q-12 -23 -42 -77.5t-43 -81.5v-4h416v-140h-607zM132 1495h127l101 -191h4l103 191h127l-173 -297h-116z" />
<glyph unicode="&#x192;" horiz-adv-x="843" d="M-27 -138l33 123q52 -25 99 -25q72 0 113.5 75t63.5 256l55 468h-166v130h178l15 119q53 434 344 434q68 0 120 -26l-26 -126q-46 16 -94 16q-43 0 -75.5 -21.5t-52.5 -62t-32.5 -87.5t-18.5 -107l-21 -139h200v-130h-210l-61 -504q-8 -58 -17.5 -105t-23.5 -92.5 t-32 -80t-42.5 -64t-55 -48.5t-69.5 -29.5t-86 -10.5q-88 3 -138 37z" />
<glyph unicode="&#x1a0;" horiz-adv-x="976" d="M71 740q0 360 117.5 557.5t315.5 197.5q81 0 155 -40q14 -8 35 -20.5t30 -17.5t21 -9.5t22 -4.5q31 0 44 17t13 52q0 48 -33 121l129 24q36 -69 36 -147q0 -48 -17 -87t-53.5 -63t-88.5 -23q110 -194 110 -548q0 -162 -21.5 -292t-60 -217.5t-93 -146t-117 -84.5 t-135.5 -26q-188 0 -298.5 196t-110.5 561zM245 740q-1 -90 6 -173t24.5 -164t45 -140t71 -95t99.5 -36q55 0 98 36t69.5 95t43.5 140.5t23.5 164t6.5 175.5q0 88 -6.5 168.5t-24 161.5t-44 140t-69.5 95.5t-99 36.5q-55 0 -98.5 -36.5t-70.5 -95.5t-44.5 -139t-24.5 -162.5 t-6 -171.5z" />
<glyph unicode="&#x1a1;" horiz-adv-x="838" d="M73 529q0 112 19.5 205t52.5 156t78.5 106t96.5 63t107 20q53 0 121 -29q5 -2 29.5 -14.5t43 -18t38.5 -5.5q28 0 46 18t18 53q0 55 -33 115l127 23q38 -69 38 -145q0 -77 -44.5 -122t-122.5 -47q38 -63 59.5 -160t21.5 -216t-21 -214.5t-56 -156.5t-81.5 -102t-95 -58 t-99.5 -17q-72 0 -134 33.5t-109 99t-73.5 171.5t-26.5 242zM241 531q0 -41 2 -79t7.5 -80t14.5 -78t23.5 -69.5t33 -57t45 -37t58.5 -13.5q41 0 73 27.5t50.5 70t30 100t15.5 109.5t4 107q0 37 -2 73.5t-7 78.5t-13.5 78.5t-22.5 70.5t-32 58t-44 38.5t-56 14.5 q-44 0 -77 -28t-52 -70t-31 -99.5t-16 -109t-4 -105.5z" />
<glyph unicode="&#x1af;" horiz-adv-x="1037" d="M129 493v984h170v-990q0 -97 15 -167t43 -110.5t63 -59t80 -18.5q98 0 150.5 84t52.5 271v990h136q44 0 61.5 14t17.5 50q0 58 -29 117l130 21q33 -68 33 -142t-38 -118t-119 -47l-23 -2v-857q0 -141 -27.5 -244.5t-79 -165t-118.5 -91t-152 -29.5t-150.5 28.5 t-114.5 88.5t-75 159.5t-26 233.5z" />
<glyph unicode="&#x1b0;" horiz-adv-x="872" d="M113 391v669h169v-646q0 -67 6.5 -116t21.5 -90t43.5 -62t71.5 -21q35 0 63.5 15t46 37.5t28 45t14.5 42.5q8 39 8 97v698h128q42 0 59 17t17 54q0 58 -30 116l128 20q35 -65 35 -140q0 -70 -38.5 -115t-116.5 -48l-13 -2v-673q0 -71 4.5 -179t4.5 -110h-148l-10 111h-5 q-13 -21 -34 -42t-49 -41t-66 -32.5t-79 -12.5q-136 0 -197.5 102t-61.5 306z" />
<glyph unicode="&#x1fa;" horiz-adv-x="952" d="M48 0l337 1477h187l329 -1477h-167l-98 443h-327l-98 -443h-163zM301 1665q0 68 50.5 116.5t137.5 48.5q44 0 79 -13t57.5 -35.5t34 -51.5t11.5 -62q0 -66 -49.5 -113t-134.5 -47q-90 0 -138 45t-48 112zM333 579h280l-76 374q-30 150 -60 337h-8q-26 -169 -59 -337z M397 1668q0 -35 23.5 -60t64.5 -25t65.5 24.5t24.5 62.5q0 36 -23.5 61.5t-66.5 25.5t-65.5 -26.5t-22.5 -62.5zM397 1869l226 180h214l-298 -180h-142z" />
<glyph unicode="&#x1fb;" horiz-adv-x="797" d="M57 285q0 77 24 141t66 108.5t99.5 75.5t123 45.5t138.5 15.5v32q0 56 -7.5 98t-26 75.5t-52.5 51t-83 17.5q-90 0 -174 -56l-38 119q37 28 105.5 49.5t141.5 21.5q305 0 305 -380v-458q0 -174 11 -241h-153l-11 111h-7q-35 -61 -89 -94.5t-121 -33.5q-108 0 -180 83.5 t-72 218.5zM199 1317q0 84 55.5 139.5t151.5 55.5q88 0 143.5 -55.5t55.5 -137.5q0 -80 -57.5 -134t-144.5 -54q-91 0 -147.5 53.5t-56.5 132.5zM221 303q0 -95 39.5 -142.5t90.5 -47.5q58 0 100.5 42t56.5 119q5 19 5 59v215q-20 0 -38 -1.5t-44.5 -4.5t-49 -11 t-47.5 -19.5t-44 -30.5t-35 -43t-25 -58.5t-9 -76.5zM301 1317q0 -42 27.5 -76t72.5 -34q33 0 57 16t36 41.5t12 56.5q0 48 -27.5 81t-79.5 33q-45 0 -71.5 -35.5t-26.5 -82.5zM320 1558l193 209h177l-256 -209h-114z" />
<glyph unicode="&#x1fc;" horiz-adv-x="1217" d="M17 0l445 1477h667v-147h-408l28 -495h376v-143h-362l30 -545h393l-3 -147h-541l-29 487h-293l-138 -487h-165zM355 623h245l-19 448q-2 54 -7.5 157t-6.5 131h-11q-4 -15 -36.5 -137t-48.5 -179zM636 1556l205 236h200l-272 -236h-133z" />
<glyph unicode="&#x1fd;" horiz-adv-x="1228" d="M57 289q0 75 24 137t65.5 105t99 73t124 43.5t140.5 13.5v60q0 66 -17.5 115t-58.5 79t-101 30q-92 0 -170 -56l-38 117q45 30 110.5 51.5t132.5 21.5q88 0 154.5 -48.5t88.5 -143.5h4q36 90 105.5 141t153.5 51q60 0 109.5 -26.5t83 -71t56.5 -105t33 -127.5t10 -140 q0 -13 -1.5 -39.5t-1.5 -40.5h-490q0 -96 12.5 -168.5t34.5 -118t54 -74.5t67.5 -40t78.5 -11q101 0 180 46l29 -121q-92 -59 -244 -59q-99 0 -180 53.5t-111 149.5h-4q-36 -95 -106.5 -149t-165.5 -54q-114 0 -187.5 84t-73.5 222zM215 301q0 -48 12 -84.5t32 -57.5 t44 -31.5t50 -10.5q55 0 98 42t55 117q7 19 7 61v209q-24 0 -45.5 -1.5t-52.5 -8t-57.5 -16.5t-53.5 -28.5t-46 -43.5t-31 -63t-12 -84zM556 1198l169 297h174l-230 -297h-113zM675 648h329q4 144 -41 222.5t-110 78.5q-41 0 -75 -26t-55.5 -69.5t-33.5 -96t-14 -109.5z" />
<glyph unicode="&#x1fe;" horiz-adv-x="976" d="M71 740q0 181 31 325t87 237.5t133 143t169 49.5q129 0 222 -90l65 153l100 -44l-87 -199q116 -197 116 -564q0 -161 -21.5 -291t-59.5 -218t-91.5 -147t-114.5 -85.5t-131 -26.5q-137 0 -226 98l-75 -162l-94 50l92 209q-115 194 -115 562zM236 740q0 -226 42 -363h4 l360 872q-29 44 -69 70t-84 26q-54 0 -97.5 -34.5t-72 -92t-47.5 -136.5t-27.5 -164t-8.5 -178zM326 241q59 -109 163 -109q46 0 84.5 24t65 67.5t46.5 100.5t31.5 127t16.5 141.5t5 150.5q0 225 -39 368h-5zM397 1556l205 236h200l-271 -236h-134z" />
<glyph unicode="&#x1ff;" horiz-adv-x="838" d="M73 529q0 71 7.5 134.5t22 114.5t34 94.5t44 76.5t52.5 58t59 40.5t63 23.5t66 8h2q95 0 177 -67l55 117l92 -48l-74 -150q96 -142 96 -400q0 -119 -21.5 -214.5t-56 -156.5t-81 -102t-94 -58t-95.5 -17q-101 0 -178 61l-57 -117l-85 56l68 140q-96 144 -96 406zM234 531 q0 -139 29 -242l5 -2l265 585q-28 71 -112 71q-34 0 -62 -15.5t-47 -40t-33 -59.5t-22.5 -71.5t-13.5 -78.5t-7 -76.5t-2 -70.5zM314 184q31 -67 107 -67q44 0 78 26.5t54 67.5t32.5 97t17 106.5t4.5 104.5q0 134 -26 242l-4 2zM335 1198l169 297h173l-230 -297h-112z" />
<glyph unicode="&#x218;" horiz-adv-x="790" d="M61 50l37 145q39 -26 98.5 -42.5t114.5 -16.5q114 0 179.5 68t65.5 181q0 50 -13 92.5t-40.5 80t-60.5 68t-80 66.5q-279 194 -279 410q0 170 108 279.5t282 109.5q65 0 122 -17t87 -39l-42 -145q-71 51 -176 51q-52 0 -93.5 -18.5t-66.5 -49t-38 -67t-13 -75.5 q0 -36 5.5 -66t20 -56.5t29 -46.5t44 -45.5t52 -42.5t65.5 -48q132 -93 194 -196.5t62 -228t-54.5 -219.5t-148 -145t-211.5 -50q-72 0 -144.5 19.5t-105.5 43.5zM224 -387q58 17 99 51t41 87q0 72 -73 132l136 25q31 -20 53 -61t22 -92q0 -50 -20 -90t-55 -66.5t-76 -43 t-90 -24.5z" />
<glyph unicode="&#x219;" horiz-adv-x="632" d="M48 48l42 127q33 -21 79 -37.5t92 -16.5q72 0 113.5 41t41.5 112q0 42 -11.5 74.5t-41.5 65t-83 69.5q-108 70 -160.5 141t-52.5 160q0 128 84 211.5t209 83.5q99 0 190 -56l-46 -126q-68 46 -140 46q-65 0 -101.5 -39.5t-36.5 -94.5t26.5 -92.5t104.5 -91.5 q50 -32 87 -64t68.5 -71.5t48 -86.5t16.5 -100q0 -78 -25 -139t-69 -99t-101 -58t-123 -20q-60 0 -118.5 16.5t-92.5 44.5zM160 -387q27 8 50 19t44.5 27.5t34 40t12.5 51.5q0 72 -73 132l136 25q31 -20 53 -61t22 -92q0 -50 -20 -90t-55 -66.5t-77 -43t-90 -24.5z" />
<glyph unicode="&#x21a;" horiz-adv-x="774" d="M35 1326v151h708v-151h-270v-1326h-168v1326h-270zM232 -387q27 8 50 19t44.5 27.5t33.5 40t12 51.5q0 73 -71 132l136 25q30 -20 51.5 -61t21.5 -92q0 -50 -19.5 -90t-54.5 -66.5t-76.5 -43t-89.5 -24.5z" />
<glyph unicode="&#x21b;" horiz-adv-x="558" d="M27 931v129h128v180l169 69v-249h205v-129h-205v-628q0 -176 113 -176q38 0 67 7l6 -130q-49 -17 -125 -17q-108 0 -166 63q-32 38 -48 100t-16 168v613h-128zM151 -387q27 8 50 19t44 27.5t33.5 40t12.5 51.5q0 73 -72 132l136 25q31 -20 52.5 -61t21.5 -92 q0 -50 -20 -90t-54.5 -66.5t-76 -43t-90.5 -24.5z" />
<glyph unicode="&#x21c;" horiz-adv-x="744" d="M50 -96q89 15 170 54.5t146 99.5t103.5 147t38.5 188q0 123 -63 202.5t-169 79.5q-54 0 -136 -27l-27 128q58 12 114 46t102 82.5t74 115.5t28 139q0 85 -48.5 140.5t-129.5 55.5q-71 0 -167 -44l-34 120q41 26 107 45t132 19q92 0 162 -44.5t105.5 -114.5t35.5 -153 q0 -127 -57 -229.5t-144 -156.5v-6q59 -12 110 -43t91 -79.5t62.5 -118t22.5 -151.5q0 -107 -36.5 -205t-98 -170.5t-140.5 -129t-164.5 -88t-168.5 -38.5z" />
<glyph unicode="&#x21d;" horiz-adv-x="680" d="M29 -301q52 5 103.5 19.5t101 37.5t91.5 57t74.5 75.5t51 95.5t18.5 114q0 46 -14 86.5t-41 73t-71.5 51.5t-101.5 19q-54 0 -124 -17l-23 128q49 11 91.5 28t82 43t67.5 58t45 75t17 93q0 93 -47 146t-124 53q-33 0 -67 -9t-48 -15t-46 -22l-34 123q42 28 104 47.5 t126 19.5q90 0 158.5 -42.5t102.5 -110.5t34 -150q0 -115 -52.5 -198.5t-139.5 -130.5v-4q119 -23 196.5 -110t77.5 -224q0 -95 -35.5 -180.5t-94.5 -149t-136 -111.5t-161.5 -74.5t-168.5 -32.5z" />
<glyph unicode="&#x232;" horiz-adv-x="862" d="M21 1477h178l132 -371q65 -178 110 -332h4q41 151 107 339l125 364h178l-340 -846v-631h-168v625zM197 1610v117h467v-117h-467z" />
<glyph unicode="&#x233;" horiz-adv-x="757" d="M29 1060h178l140 -608q5 -22 44 -220h4q10 56 46 217l124 611h167l-173 -681q-29 -115 -52.5 -200t-56 -179.5t-71.5 -170.5t-84 -134q-50 -63 -102 -104t-88 -58l-61 145q77 43 149 134q62 77 96 177q12 37 12 53q0 23 -6 39zM165 1273v109h431v-109h-431z" />
<glyph unicode="&#x2c6;" d="M98 1198l174 297h113l174 -297h-125l-103 189h-5l-100 -189h-128z" />
<glyph unicode="&#x2c7;" d="M98 1495h128l100 -191h5l103 191h127l-174 -297h-115z" />
<glyph unicode="&#x2c9;" d="M113 1273v109h433v-109h-433z" />
<glyph unicode="&#x2d8;" d="M96 1466h94q5 -61 42.5 -98.5t93.5 -37.5q63 0 101 37.5t40 98.5h94q3 -109 -61.5 -178t-173.5 -69q-108 0 -170.5 70t-59.5 177z" />
<glyph unicode="&#x2d9;" d="M234 1336q0 42 28.5 70.5t68.5 28.5t67 -27.5t27 -71.5q0 -27 -12 -49t-34 -34.5t-48 -12.5h-3q-39 0 -66.5 28t-27.5 68z" />
<glyph unicode="&#x2da;" d="M52 1355q0 83 55.5 138.5t151.5 55.5q89 0 144 -55t55 -137q0 -81 -57 -135t-144 -54q-92 0 -148.5 54t-56.5 133zM153 1355q0 -27 12 -52t36 -42t54 -17q48 0 76.5 33.5t28.5 81.5q0 47 -28 80t-79 33q-46 0 -73 -35t-27 -82z" />
<glyph unicode="&#x2db;" d="M157 -259q0 127 113 270h117q-96 -143 -96 -224q0 -47 27 -74t63 -27q52 0 94 21l25 -94q-64 -50 -159 -50q-55 0 -96.5 21.5t-64.5 62t-23 94.5z" />
<glyph unicode="&#x2dc;" d="M92 1229q-2 91 33 148.5t101 57.5q8 0 16.5 -1t14.5 -2t15 -4t13 -4.5t13 -6t11 -6t12.5 -7t11.5 -6.5q6 -3 15.5 -9t15 -9t14 -7.5t14.5 -6.5t13.5 -3.5t15.5 -1.5q26 0 38.5 17t15.5 62h90q0 -93 -34.5 -145.5t-103.5 -52.5q-39 0 -107 38q-8 4 -21.5 12.5t-21.5 13 t-18.5 8t-19.5 3.5q-48 0 -55 -88h-92z" />
<glyph unicode="&#x2dd;" d="M75 1198l170 297h154l-228 -297h-96zM347 1198l170 297h154l-228 -297h-96z" />
<glyph unicode="&#x37e;" horiz-adv-x="437" d="M65 -276q33 111 63.5 259t36.5 251l188 11q-29 -124 -82 -277.5t-91 -228.5zM129 851q0 58 33 95.5t83 37.5q51 0 83 -36.5t32 -96.5q0 -59 -31 -94.5t-86 -35.5h-2q-48 0 -80 36t-32 94z" />
<glyph unicode="&#x384;" horiz-adv-x="667" d="M165 1201l71 296h149l-122 -296h-98z" />
<glyph unicode="&#x385;" horiz-adv-x="766" d="M65 1334q0 39 28.5 63.5t66.5 24.5q34 0 58.5 -24.5t24.5 -63.5q0 -19 -6.5 -36t-17.5 -28.5t-26 -18.5t-33 -7h-3q-38 0 -65 26t-27 64zM309 1194l26 322h142l-78 -322h-90zM510 1334q0 26 13 46t33.5 31t43.5 11q15 0 28.5 -4t24.5 -12t19.5 -18.5t13 -24t4.5 -29.5 q0 -39 -26 -64.5t-64 -25.5h-2q-35 0 -61.5 26t-26.5 64z" />
<glyph unicode="&#x386;" horiz-adv-x="972" d="M67 0l339 1477h186l328 -1477h-166l-99 443h-327l-98 -443h-163zM88 1152l8 325h145l-63 -325h-90zM353 579h280l-77 374q-25 127 -58 337h-9q-22 -144 -60 -337z" />
<glyph unicode="&#x387;" horiz-adv-x="437" d="M98 701q0 39 17 70.5t44.5 49.5t59.5 18q55 0 87.5 -37.5t32.5 -100.5t-32 -100.5t-88 -37.5h-2q-50 0 -84.5 38.5t-34.5 99.5z" />
<glyph unicode="&#x388;" horiz-adv-x="889" d="M0 1152l9 325h144l-63 -325h-90zM245 0v1477h564v-147h-395v-487h370v-142h-370v-554h421v-147h-590z" />
<glyph unicode="&#x389;" horiz-adv-x="1127" d="M0 1152l9 325h144l-63 -325h-90zM245 0v1477h169v-634h414v634h169v-1477h-169v690h-414v-690h-169z" />
<glyph unicode="&#x38a;" horiz-adv-x="544" d="M0 1152l9 325h144l-63 -325h-90zM245 0v1477h169v-1477h-169z" />
<glyph unicode="&#x38c;" horiz-adv-x="1056" d="M0 1152l9 325h144l-63 -325h-90zM149 740q0 181 31.5 324t89 237.5t137.5 144t176 49.5q190 0 297 -197t107 -549q0 -162 -22 -292t-60 -217.5t-92.5 -146t-117 -84.5t-134.5 -26h-2q-189 0 -299.5 196t-110.5 561zM324 740q0 -90 6.5 -173.5t24.5 -164t45 -139.5 t70.5 -95t98.5 -36h3q35 0 65 14t53 40.5t41.5 62t31.5 80.5t22.5 93t15 103t8 108t2.5 110q0 88 -6.5 168.5t-24 161.5t-44 140t-69.5 95.5t-98 36.5t-98.5 -36.5t-70 -95t-44.5 -139.5t-25 -162.5t-7 -171.5z" />
<glyph unicode="&#x38e;" horiz-adv-x="1125" d="M0 1152l9 325h144l-63 -325h-90zM211 1348l32 143q26 -3 78.5 -28t94.5 -65q94 -85 160.5 -248t84.5 -374h8q21 193 88 343.5t150 241.5q48 52 102 87t78 43l38 -148q-57 -30 -111.5 -89t-103.5 -144t-88.5 -204t-60.5 -255q-23 -171 -23 -258v-393h-166v393 q0 109 -16 253q-25 199 -76 346t-118 233.5t-151 122.5z" />
<glyph unicode="&#x38f;" horiz-adv-x="1104" d="M0 1152l9 325h144l-63 -325h-90zM140 0v144h217v7q-88 121 -144 296.5t-56 369.5q0 158 33.5 286t92 213.5t140 132t177.5 46.5q127 0 221 -82.5t143.5 -233t49.5 -351.5q0 -138 -28 -270.5t-71.5 -232.5t-99.5 -174v-7h218v-144h-389v113q92 102 144.5 287.5t50.5 385.5 q-1 56 -4.5 110t-12.5 110t-22 105t-33.5 92.5t-45.5 74.5t-59 49t-75 18q-55 0 -99 -34t-72.5 -89t-47.5 -128.5t-27 -148t-8 -152.5q0 -187 56.5 -387t139.5 -293v-113h-389z" />
<glyph unicode="&#x390;" horiz-adv-x="411" d="M-81 1319q0 39 26.5 63.5t65.5 24.5q34 0 58.5 -24t24.5 -64q0 -37 -24 -62t-59 -25h-2q-37 0 -63.5 25t-26.5 62zM119 211v849h168v-839q0 -42 7.5 -65t25 -33t48.5 -10l-15 -124q-29 -6 -64 -6q-28 0 -50 5t-45.5 19.5t-39 39t-25.5 66t-10 98.5zM155 1179l29 318h138 l-77 -318h-90zM355 1319q0 39 26 63.5t62 24.5q14 0 27.5 -4t25 -11.5t19.5 -18t13 -24.5t5 -30q0 -24 -12 -44.5t-32.5 -31.5t-45.5 -11h-2q-34 0 -60 25t-26 62z" />
<glyph unicode="&#x391;" horiz-adv-x="952" d="M48 0l337 1477h187l329 -1477h-167l-98 443h-327l-98 -443h-163zM333 579h280l-76 374q-30 150 -60 337h-8q-26 -169 -59 -337z" />
<glyph unicode="&#x392;" horiz-adv-x="910" d="M132 6v1449q114 28 247 28q218 0 326 -103q97 -90 97 -251q0 -113 -59.5 -199.5t-167.5 -129.5v-5q129 -35 201.5 -134t72.5 -243q0 -175 -106 -293q-119 -134 -390 -134q-141 0 -221 15zM301 134q38 -9 84 -9q134 0 212 76.5t78 216.5q0 74 -24.5 132.5t-67 95 t-95.5 55.5t-114 20h-73v-587zM301 851h76q106 0 181 73t75 187q0 42 -7.5 77.5t-26 66t-46 52t-69 33.5t-93.5 12q-55 0 -90 -11v-490z" />
<glyph unicode="&#x393;" horiz-adv-x="724" d="M132 0v1477h565v-143h-396v-1334h-169z" />
<glyph unicode="&#x394;" horiz-adv-x="954" d="M52 0v96l335 1381h188l330 -1379v-98h-853zM221 149h513l-182 765q-41 184 -72 376h-7q-26 -170 -72 -372z" />
<glyph unicode="&#x395;" horiz-adv-x="774" d="M132 0v1477h562v-147h-393v-487h370v-142h-370v-554h420v-147h-589z" />
<glyph unicode="&#x396;" horiz-adv-x="784" d="M44 0v101l506 1225v6h-464v145h652v-114l-497 -1212v-7h495v-144h-692z" />
<glyph unicode="&#x397;" horiz-adv-x="1014" d="M132 0v1477h169v-634h414v634h168v-1477h-168v690h-414v-690h-169z" />
<glyph unicode="&#x398;" horiz-adv-x="983" d="M71 740q0 360 118.5 557.5t316.5 197.5q192 0 300 -197t108 -549q0 -162 -22 -292t-60.5 -217.5t-93 -146t-117.5 -84.5t-136 -26h-2q-189 0 -300.5 196.5t-111.5 560.5zM243 740q0 -91 7.5 -174.5t25.5 -164.5t45.5 -140t72 -95.5t99.5 -36.5h2q41 0 74.5 19t58.5 52 t44.5 79.5t32 99.5t21 115t11.5 122.5t3 126.5q0 89 -6.5 170t-24 162.5t-44.5 140.5t-71.5 95.5t-100.5 36.5q-55 0 -99.5 -36.5t-72 -95.5t-45.5 -140t-25.5 -163.5t-7.5 -172.5zM328 684v153h327v-153h-327z" />
<glyph unicode="&#x399;" horiz-adv-x="435" d="M132 0v1477h169v-1477h-169z" />
<glyph unicode="&#x39a;" horiz-adv-x="884" d="M132 0v1477h169v-701h4q24 44 92 177l276 524h186l-361 -631l370 -846h-182l-303 713l-82 -144v-569h-169z" />
<glyph unicode="&#x39b;" horiz-adv-x="950" d="M46 0l339 1477h178l340 -1477h-173l-191 887q-43 224 -66 384h-9q-26 -212 -61 -386l-186 -885h-171z" />
<glyph unicode="&#x39c;" horiz-adv-x="1311" d="M96 0l88 1477h182l173 -675q84 -324 118 -509h7q34 198 110 509l167 675h188l85 -1477h-158l-31 636q-22 398 -15 578h-8q-56 -273 -119 -513l-182 -692h-107l-173 664q-84 328 -120 541h-8q0 -168 -17 -589l-29 -625h-151z" />
<glyph unicode="&#x39d;" horiz-adv-x="1018" d="M132 0v1477h159l272 -693q141 -363 188 -514h5q-20 367 -20 679v528h151v-1477h-159l-281 710q-116 294 -175 502h-4q17 -262 17 -702v-510h-153z" />
<glyph unicode="&#x39e;" horiz-adv-x="792" d="M63 0v147h667v-147h-667zM77 1330v147h638v-147h-638zM117 694v145h556v-145h-556z" />
<glyph unicode="&#x39f;" horiz-adv-x="976" d="M71 740q0 360 117.5 557.5t315.5 197.5q190 0 296.5 -197t106.5 -549q0 -162 -21.5 -292t-60 -217.5t-92.5 -146t-116 -84.5t-134 -26h-3q-188 0 -298.5 196t-110.5 561zM245 740q-1 -90 6 -173.5t24.5 -164t44.5 -139.5t70.5 -95t98.5 -36h2q55 0 98 36t69.5 95 t43.5 140.5t23.5 164t6.5 175.5q0 88 -6.5 168.5t-24 161.5t-44 140t-69.5 95.5t-99 36.5q-55 0 -98.5 -36.5t-70.5 -95.5t-44.5 -139t-24.5 -162.5t-6 -171.5z" />
<glyph unicode="&#x3a0;" horiz-adv-x="987" d="M132 0v1477h725v-1477h-169v1324h-387v-1324h-169z" />
<glyph unicode="&#x3a1;" horiz-adv-x="874" d="M132 0v1455q109 28 245 28q217 0 326 -109q110 -107 110 -305q0 -183 -90 -302q-59 -79 -152.5 -122t-196.5 -43q-49 0 -73 3v-605h-169zM301 747q29 -7 65 -7q128 0 203 82.5t75 235.5q0 60 -13 109.5t-41 90.5t-78 64t-117 23q-59 0 -94 -11v-587z" />
<glyph unicode="&#x3a3;" horiz-adv-x="891" d="M35 0v111l379 625l-357 629v112h723v-145h-517v-8l327 -579l-358 -590v-8h596v-147h-793z" />
<glyph unicode="&#x3a4;" horiz-adv-x="774" d="M35 1326v151h708v-151h-270v-1326h-168v1326h-270z" />
<glyph unicode="&#x3a5;" horiz-adv-x="930" d="M13 1348l35 143q25 -3 78 -28t95 -65q94 -86 161 -249.5t82 -372.5h9q14 131 53.5 250.5t86 198t100.5 136.5q33 36 73.5 66.5t66.5 44.5t39 19l35 -148q-119 -62 -219.5 -243.5t-142.5 -448.5q-21 -136 -21 -258v-393h-170v393q0 138 -12 253q-38 295 -129.5 471 t-219.5 231z" />
<glyph unicode="&#x3a6;" horiz-adv-x="1104" d="M65 740q0 125 24 231.5t64 181t93 129t110.5 84t118.5 37.5v102h156v-102q86 -10 159.5 -59t129 -130.5t87.5 -201t32 -263.5q0 -109 -16 -203.5t-45 -164.5t-67.5 -125t-85 -91t-95.5 -56.5t-101 -27.5v-110h-156v110q-60 10 -115.5 36.5t-110 79t-94 124.5t-64 180 t-24.5 239zM236 734q0 -218 68 -356t171 -169v1066q-47 -8 -89 -46.5t-76 -104t-54 -166.5t-20 -224zM629 209q110 22 174.5 162t64.5 378q0 120 -22 220t-57 163t-76 100t-84 43v-1066z" />
<glyph unicode="&#x3a7;" horiz-adv-x="858" d="M31 0l304 754l-293 723h175l132 -342q10 -23 21 -52.5t19.5 -52.5t23 -63t24.5 -66h4q70 217 78 241l123 335h171l-290 -718l305 -759h-177l-134 355q-36 94 -90 258h-6q-70 -207 -90 -262l-128 -351h-172z" />
<glyph unicode="&#x3a8;" horiz-adv-x="1127" d="M94 1030v447h159v-438q0 -140 25 -232.5t77 -143t134 -61.5v875h151v-875q121 15 178.5 130.5t57.5 341.5v403h159v-410q0 -541 -393 -598v-469h-155v469q-196 28 -294.5 164.5t-98.5 396.5z" />
<glyph unicode="&#x3a9;" horiz-adv-x="1033" d="M71 0v144h216v7q-87 122 -143 297t-56 369q0 158 33.5 286t92.5 213.5t141 132t178 46.5q126 0 219.5 -82.5t143 -233t49.5 -351.5q0 -203 -57 -382.5t-143 -294.5v-7h217v-144h-387v113q93 101 144.5 286.5t49.5 386.5q0 66 -5.5 129t-17 127t-31.5 117.5t-47 95.5 t-66 66t-85 24q-40 0 -74 -17.5t-59.5 -48.5t-46 -73.5t-34.5 -91.5t-23 -104t-13 -108.5t-4 -108.5q0 -187 56.5 -387t138.5 -293v-113h-387z" />
<glyph unicode="&#x3aa;" horiz-adv-x="435" d="M-46 1652q0 42 27.5 69t68.5 27q39 0 65.5 -27t26.5 -69q0 -41 -26 -68.5t-66 -27.5h-2q-39 0 -66.5 27.5t-27.5 68.5zM132 0v1477h169v-1477h-169zM291 1652q0 42 28 69t68 27t66.5 -27t26.5 -69q0 -41 -26.5 -68.5t-66.5 -27.5h-2q-25 0 -46.5 12.5t-34.5 34.5t-13 49z " />
<glyph unicode="&#x3ab;" horiz-adv-x="930" d="M13 1348l35 143q25 -3 78 -28t95 -65q94 -86 161 -249.5t82 -372.5h9q14 131 53.5 250.5t86 198t100.5 136.5q33 36 73.5 66.5t66.5 44.5t39 19l35 -148q-119 -62 -219.5 -243.5t-142.5 -448.5q-21 -136 -21 -258v-393h-170v393q0 138 -12 253q-38 295 -129.5 471 t-219.5 231zM213 1624q0 42 28 69.5t68 27.5t66 -27.5t26 -69.5q0 -27 -12 -49t-33 -35t-47 -13h-2q-39 0 -66.5 28t-27.5 69zM552 1624q0 42 27.5 69.5t68.5 27.5q39 0 65.5 -27.5t26.5 -69.5q0 -41 -26 -69t-66 -28h-2q-39 0 -66.5 28t-27.5 69z" />
<glyph unicode="&#x3ac;" horiz-adv-x="869" d="M73 504q0 91 14 173t38.5 144t57 111.5t70 81t77.5 48.5t80 17q139 0 197 -159h8q8 69 23 140h129q-9 -52 -17.5 -303.5t-6.5 -528.5q0 -57 16 -87t54 -30l-18 -124q-15 -4 -41 -4q-130 0 -141 172h-8q-12 -31 -30.5 -59.5t-46 -55t-66.5 -42t-83 -15.5 q-138 0 -222 139.5t-84 381.5zM241 508q0 -101 20 -188t59.5 -142t91.5 -55q56 0 101.5 65.5t61.5 168.5q8 82 8 178q0 107 -4 159q-5 101 -48 171t-102 70q-57 0 -101 -59.5t-65.5 -155t-21.5 -210.5v-2zM383 1183l73 296h146l-119 -296h-100z" />
<glyph unicode="&#x3ad;" horiz-adv-x="709" d="M71 295q0 106 66 180.5t154 91.5v12q-79 22 -124.5 80t-45.5 143q0 54 22.5 103.5t63.5 88t104.5 62t140.5 23.5q61 0 112.5 -13.5t79.5 -37.5l-33 -121q-68 36 -153 36q-81 0 -127 -45t-46 -107q0 -43 20 -75t55 -50t75.5 -26.5t87.5 -8.5h33v-125h-41 q-57 -1 -104.5 -12.5t-86 -34t-60 -61t-21.5 -89.5q0 -59 28.5 -103t75.5 -65.5t105 -21.5q40 0 83 7.5t70.5 16.5t42.5 17l23 -125q-43 -25 -110.5 -38.5t-139.5 -13.5q-71 0 -132.5 18t-111 54.5t-78 98t-28.5 141.5zM337 1183l73 296h149l-122 -296h-100z" />
<glyph unicode="&#x3ae;" horiz-adv-x="887" d="M90 1060h146q22 -53 29 -127h5q35 67 98.5 106.5t144.5 39.5q116 0 186 -91t70 -275v-796q0 -240 17 -338h-155q-31 85 -31 308v797q0 41 -3 74.5t-13 67.5t-25.5 57t-42.5 37.5t-62 14.5q-36 0 -68.5 -19t-57 -58.5t-35.5 -94.5q-6 -40 -6 -94v-669h-168v786 q0 179 -29 274zM381 1183l73 296h148l-122 -296h-99z" />
<glyph unicode="&#x3af;" horiz-adv-x="411" d="M119 211v849h168v-839q0 -42 7.5 -65t24.5 -33t47 -10l-13 -124q-32 -6 -64 -6q-28 0 -50 5t-45.5 19.5t-39 39t-25.5 66t-10 98.5zM140 1186l73 295h155l-123 -295h-105z" />
<glyph unicode="&#x3b0;" horiz-adv-x="826" d="M90 1060h163q21 -38 21 -214v-520q0 -66 18.5 -112.5t48 -67.5t67.5 -21q48 0 82 33.5t53.5 98t28.5 148.5t9 195q0 146 -17.5 271t-44.5 189h160q14 -32 26 -77t21.5 -99t15 -118t5.5 -128q0 -655 -352 -655q-87 0 -151.5 37t-100.5 110.5t-36 176.5v401q0 278 -17 352z M92 1317.5q0 38.5 27.5 63t66.5 24.5q34 0 59 -25t25 -63t-25 -64t-59 -26h-2q-37 0 -64.5 26t-27.5 64.5zM333 1177l29 318h138l-77 -318h-90zM535 1317q0 26 12.5 46t32.5 31t43 11q37 0 63.5 -24.5t26.5 -63.5t-26 -64.5t-64 -25.5h-2q-34 0 -60 26t-26 64z" />
<glyph unicode="&#x3b1;" horiz-adv-x="869" d="M73 504q0 91 14 173t38.5 144t57 111.5t70 81t77.5 48.5t80 17q139 0 197 -159h8q8 69 23 140h129q-9 -52 -17.5 -303.5t-6.5 -528.5q0 -57 16 -87t54 -30l-18 -124q-15 -4 -41 -4q-130 0 -141 172h-8q-12 -31 -30.5 -59.5t-46 -55t-66.5 -42t-83 -15.5 q-138 0 -222 139.5t-84 381.5zM241 508q0 -101 20 -188t59.5 -142t91.5 -55q56 0 101.5 65.5t61.5 168.5q8 82 8 178q0 107 -4 159q-5 101 -48 171t-102 70q-57 0 -101 -59.5t-65.5 -155t-21.5 -210.5v-2z" />
<glyph unicode="&#x3b2;" horiz-adv-x="884" d="M117 -117v1136q0 159 25.5 257t85.5 164q85 94 217 94q59 0 108 -20.5t82.5 -56t57 -83t34.5 -100t11 -108.5q0 -67 -15 -124.5t-41.5 -98t-55.5 -68.5t-63 -47v-8q29 -10 57 -25t57 -38t53 -56t43 -73.5t29.5 -95.5t10.5 -118q0 -100 -26.5 -182.5t-71.5 -136.5 t-105.5 -83t-129.5 -29q-40 0 -78 10t-67 27.5t-50 40.5h-5v-144q0 -222 21 -338h-154q-30 82 -30 304zM280 230q64 -107 174 -107q36 0 67 15.5t54 42.5t39 64t24 80.5t8 90.5q0 94 -29 164.5t-80.5 110.5t-120.5 47q-13 2 -33 2v132q10 0 31 4q73 20 118 89.5t45 191.5 q0 37 -8 76t-23.5 76.5t-43.5 61t-63 23.5q-81 0 -120 -91t-39 -249v-824z" />
<glyph unicode="&#x3b3;" horiz-adv-x="742" d="M-11 1060h178q55 -143 115 -367.5t92 -447.5h7q63 180 108.5 378.5t45.5 349.5v87h153q4 -30 4 -73q0 -176 -67 -414.5t-182 -489.5q-12 -26 -12 -50q8 -262 6 -454h-163q7 252 -3 406.5t-50 319.5q-52 227 -113.5 425.5t-118.5 329.5z" />
<glyph unicode="&#x3b4;" horiz-adv-x="853" d="M73 487q0 96 25 183.5t67.5 153t90 114t101.5 85.5v10l-29 34q-115 153 -115 246q0 39 16 77t47.5 71t85.5 53t123 20q81 0 146.5 -25.5t108.5 -66.5l-50 -112q-104 71 -201 71q-52 0 -81 -25.5t-29 -62.5q0 -23 13 -52.5t31 -55.5t54 -74l130 -165q173 -225 173 -460 q0 -122 -28 -221.5t-76.5 -165t-113 -101t-139.5 -35.5q-74 0 -137.5 34t-111 97.5t-74.5 159.5t-27 213zM241 485q0 -89 16.5 -161.5t44 -116.5t60 -67t67.5 -23q58 0 99.5 47.5t62 129.5t20.5 189q0 121 -30 210t-88 164l-52 70q-200 -149 -200 -442z" />
<glyph unicode="&#x3b5;" horiz-adv-x="709" d="M71 295q0 54 19 102.5t50 83t70.5 57.5t80.5 31v10q-77 22 -123.5 81t-46.5 142q0 54 22.5 103.5t63.5 88t104.5 62t140.5 23.5q61 0 112.5 -13.5t79.5 -37.5l-33 -121q-68 36 -153 36q-81 0 -127 -45t-46 -107q0 -43 20 -75t55 -50t75.5 -26.5t87.5 -8.5h33v-125h-41 q-57 -1 -104.5 -12.5t-86 -34t-60 -61t-21.5 -89.5q0 -59 28.5 -103t75.5 -65.5t105 -21.5t114 14.5t82 29.5l23 -128q-43 -25 -110.5 -38.5t-139.5 -13.5q-71 0 -132.5 18t-111 54.5t-78 98t-28.5 141.5z" />
<glyph unicode="&#x3b6;" horiz-adv-x="688" d="M73 475q0 233 116.5 478t295.5 412v9h-102q-144 0 -197 17l21 121q24 -2 59 -3t84.5 -2t74.5 -2h242l30 -116q-83 -57 -164.5 -154.5t-146 -213.5t-104 -250t-39.5 -254q0 -84 14.5 -147t42.5 -105t62.5 -69t82.5 -47q71 -32 212 -61q18 -4 18 -27q0 -87 -39 -187 t-88 -159l-119 36q35 59 55.5 120.5t23.5 101.5q-97 22 -188 67q-52 23 -94 57.5t-77.5 86t-55.5 126t-20 165.5z" />
<glyph unicode="&#x3b7;" horiz-adv-x="887" d="M90 1060h146q22 -53 29 -127h5q35 67 98.5 106.5t144.5 39.5q116 0 186 -91t70 -275v-796q0 -240 17 -338h-155q-31 85 -31 308v797q0 41 -3 74.5t-13 67.5t-25.5 57t-42.5 37.5t-62 14.5q-36 0 -68.5 -19t-57 -58.5t-35.5 -94.5q-6 -40 -6 -94v-669h-168v786 q0 179 -29 274z" />
<glyph unicode="&#x3b8;" horiz-adv-x="836" d="M73 774q0 119 10.5 221.5t29.5 179.5t45.5 138.5t57 102t66 68t70.5 39t73 11.5q57 0 106 -24t93 -80.5t74.5 -142.5t48.5 -217t18 -296q0 -138 -10.5 -251.5t-28 -194t-44 -142.5t-56 -100t-65.5 -61.5t-70.5 -32.5t-74.5 -9h-2q-341 0 -341 791zM234 713 q2 -292 50.5 -446t136.5 -154q181 0 181 600h-368zM234 849h368q0 166 -21.5 290.5t-63.5 194t-101 69.5q-51 0 -92.5 -68.5t-65.5 -196t-24 -289.5z" />
<glyph unicode="&#x3b9;" horiz-adv-x="411" d="M119 211v849h168v-839q0 -42 7.5 -65t24.5 -33t47 -10l-13 -124q-32 -6 -64 -6q-28 0 -50 5t-45.5 19.5t-39 39t-25.5 66t-10 98.5z" />
<glyph unicode="&#x3ba;" horiz-adv-x="809" d="M98 1060h161q28 -43 28 -182v-295h6q65 96 174.5 271t130.5 206h182v-6q-152 -216 -339 -479v-8q22 -9 43.5 -25.5t42 -44t36.5 -51t36 -62.5t31 -61.5t30 -63.5l9 -18l117 -241h-186l-111 243q-23 51 -43.5 90.5t-44 76t-48.5 56t-48 19.5h-18v-485h-166v807 q0 177 -23 253z" />
<glyph unicode="&#x3bb;" horiz-adv-x="738" d="M15 0l265 991q5 17 5 48q0 30 -9 59q-26 104 -59.5 168t-67 89t-74.5 25q-14 0 -25 -2l15 140q26 5 54 5q39 0 73.5 -12t62 -32t51.5 -52.5t42.5 -67.5t37 -84.5t32 -96t29.5 -107.5l270 -1071h-169l-127 567q-28 130 -51 250h-6q-22 -126 -48 -245l-134 -572h-167z" />
<glyph unicode="&#x3bc;" horiz-adv-x="874" d="M117 -101v1161h168v-698q0 -239 140 -239q36 0 65.5 14.5t47.5 38t28 46t15 43.5q9 36 9 97v698h166v-832q0 -61 15 -90.5t53 -28.5l-17 -120q-23 -6 -56 -6q-110 0 -136 126h-4q-22 -42 -73 -78.5t-111 -36.5q-50 0 -87 17t-62 62v-156q0 -222 21 -338h-155 q-27 86 -27 320z" />
<glyph unicode="&#x3bd;" horiz-adv-x="728" d="M13 1060h171l123 -596q14 -76 46 -267h7q59 187 111 416.5t52 375.5v71h154q5 -34 5 -67q0 -310 -272 -993h-151z" />
<glyph unicode="&#x3be;" horiz-adv-x="717" d="M73 439q0 148 76 255.5t204 156.5v10q-93 43 -145.5 125.5t-52.5 184.5q0 159 99.5 261t262.5 102q105 0 175 -41l-31 -126q-1 1 -9 4.5t-11.5 4.5t-12 4t-14 4.5t-14.5 4.5t-17 4t-18 2.5t-20.5 2t-21.5 0.5q-43 0 -78 -14.5t-57 -37.5t-37.5 -53.5t-22 -61t-6.5 -60.5 q0 -115 72 -183t181 -78q5 0 16.5 -1.5t17.5 -1.5v-131h-37q-145 -7 -237 -91.5t-92 -224.5q0 -229 234 -316q104 -36 207 -56q21 -3 21 -27q0 -56 -19.5 -124.5t-47 -125t-57.5 -93.5l-121 33q34 57 53.5 118t25.5 104q-80 19 -144 42.5t-126 62t-103.5 86.5t-67 118.5 t-25.5 156.5z" />
<glyph unicode="&#x3bf;" horiz-adv-x="838" d="M73 529q0 112 19.5 205t52.5 156t78.5 106t96.5 63t107 20q72 0 133 -34.5t108.5 -100.5t74 -172t26.5 -241q0 -119 -21 -214.5t-55.5 -156.5t-81 -102t-94.5 -58t-99 -17h-2q-72 0 -134 33.5t-109 99t-73.5 171.5t-26.5 242zM241 531q0 -58 4 -111t16.5 -110t32 -98.5 t52.5 -68t77 -26.5h2q41 0 73 27.5t50.5 70t30 100t15.5 109.5t4 107q0 37 -2 73.5t-7 78.5t-13.5 78.5t-22.5 70.5t-32 58t-44 38.5t-56 14.5q-44 0 -77 -28t-52 -70t-31 -99.5t-16 -109t-4 -105.5z" />
<glyph unicode="&#x3c0;" horiz-adv-x="876" d="M27 1012q48 48 253 48h569l-17 -140h-102v-663q0 -177 21 -257h-157q-14 26 -22.5 94.5t-8.5 160.5v665h-216q-2 -229 -32.5 -500t-78.5 -420h-155q48 160 75.5 424t27.5 496q-72 0 -134 -10z" />
<glyph unicode="&#x3c1;" horiz-adv-x="864" d="M109 -119v654q0 172 31 272.5t86 160.5q28 37 66.5 62t77.5 37t77 12q165 0 256.5 -142.5t91.5 -403.5q0 -113 -18.5 -205.5t-50 -155.5t-74.5 -106.5t-91 -63t-101 -19.5q-61 0 -107 29.5t-71 73.5h-4v-169q0 -228 13 -338h-155q-27 82 -27 302zM278 368q0 -59 9 -83 q11 -48 29 -81.5t39.5 -50t39.5 -23.5t36 -7q52 0 91 34.5t60.5 95t32 131.5t10.5 153t-10 151t-30.5 124.5t-56 87t-83.5 31.5q-71 0 -119 -85.5t-48 -266.5v-211z" />
<glyph unicode="&#x3c2;" horiz-adv-x="669" d="M73 510q0 116 31.5 219.5t88 181t140.5 123t184 45.5q75 0 127 -29l-33 -134q-46 17 -96 17q-67 0 -120.5 -35.5t-86 -95t-49 -130t-16.5 -146.5q0 -67 9.5 -121t31.5 -103t61.5 -87.5t95.5 -65.5q52 -24 184 -63q15 -6 15 -21q0 -90 -39 -190t-88 -160l-118 36 q37 57 56.5 117.5t23.5 102.5q-79 25 -155 60q-112 58 -179.5 180t-67.5 299z" />
<glyph unicode="&#x3c3;" horiz-adv-x="838" d="M73 529q0 112 19.5 205t53 156t79.5 106t97.5 63t108.5 20h84h81h217l-8 -132q-70 -4 -178 9l-2 -7q68 -67 101 -182t33 -236q0 -118 -21.5 -213.5t-56 -156.5t-80.5 -102t-92.5 -58.5t-94.5 -17.5q-72 0 -133 33.5t-108 99t-73.5 171.5t-26.5 242zM241 531q0 -47 3 -92 t10.5 -93.5t21 -88t32.5 -72t47.5 -50.5t62.5 -18h3q33 0 60.5 18.5t45.5 52t30.5 74t19.5 89t10 92t3 88.5q0 53 -5 105.5t-17 109t-31 99t-50 70.5t-71 28q-42 0 -74 -28t-51 -70t-30.5 -99.5t-15.5 -109t-4 -105.5z" />
<glyph unicode="&#x3c4;" horiz-adv-x="665" d="M0 1008q15 19 66.5 35.5t126.5 16.5h464l-19 -140h-226v-644q0 -86 24.5 -122.5t58.5 -36.5q27 0 38 2l-7 -125q-32 -11 -81 -11q-48 0 -84 16t-58.5 42.5t-36 66.5t-18.5 81.5t-5 92.5v638h-92q-75 0 -124 -21z" />
<glyph unicode="&#x3c5;" horiz-adv-x="826" d="M90 1060h163q21 -38 21 -214v-520q0 -66 18.5 -112.5t48 -67.5t67.5 -21q48 0 82 33.5t53.5 98t28.5 148.5t9 195q0 146 -17.5 271t-44.5 189h160q14 -32 26 -77t21.5 -99t15 -118t5.5 -128q0 -655 -352 -655q-87 0 -151.5 37t-100.5 110.5t-36 176.5v401q0 278 -17 352z " />
<glyph unicode="&#x3c6;" horiz-adv-x="1075" d="M73 531q0 83 16.5 160t41.5 134t58.5 106.5t63.5 80.5t61 55l89 -80q-73 -79 -118.5 -193.5t-45.5 -256.5q0 -160 58 -273.5t163 -140.5v663q0 61 11.5 108.5t31 79t46.5 52.5t56.5 30t63.5 9q62 0 121.5 -35t107.5 -98t77 -162t29 -218q0 -105 -22.5 -194.5 t-59.5 -151.5t-87.5 -108t-104.5 -70.5t-112 -31.5v-417h-158v417q-50 6 -100 25t-103 60t-93 99t-65.5 149t-25.5 202zM615 121q56 9 99.5 47.5t70 97t39.5 129t13 149.5q0 87 -16 163t-40 124t-51 75t-51 27q-64 0 -64 -120v-692z" />
<glyph unicode="&#x3c7;" horiz-adv-x="742" d="M11 -410l267 759l-253 711h170l182 -565h8q29 118 62 220l114 345h162l-267 -715l263 -751l-156 -39l-208 633h-4q-26 -116 -73 -265l-118 -368z" />
<glyph unicode="&#x3c8;" horiz-adv-x="1066" d="M90 1060h149q18 -52 18 -214v-331q0 -109 14.5 -186.5t43 -123t64 -68t83.5 -30.5v1175h156v-1175q56 6 98 51t66.5 119.5t36 166t11.5 200.5q0 141 -15 255t-33 161h145q16 -36 29.5 -94.5t23 -138.5t9.5 -160q0 -648 -368 -684v-404h-161v404q-39 5 -71.5 13t-70.5 25 t-68 40.5t-59 61.5t-48 87t-30.5 118t-11.5 152v325q0 194 -11 255z" />
<glyph unicode="&#x3c9;" horiz-adv-x="1141" d="M73 508q0 186 50 336.5t111 215.5h151v-6q-64 -84 -105 -220.5t-41 -314.5q0 -196 39.5 -295t102.5 -99q37 0 63.5 32t37.5 73t11 84l-2 416h157l-2 -419q0 -28 7 -59t20 -60t35.5 -48t50.5 -19q63 0 102.5 104t39.5 300q0 163 -42 301t-105 224v6h153 q65 -62 113.5 -209.5t48.5 -321.5q0 -257 -84 -401.5t-220 -144.5q-130 0 -190 153h-8q-25 -69 -78 -111t-129 -42q-46 0 -87 18.5t-78 60t-64 101.5t-42.5 148.5t-15.5 196.5z" />
<glyph unicode="&#x3ca;" horiz-adv-x="411" d="M-63 1321q0 43 28.5 71t69.5 28q40 0 67 -27.5t27 -71.5q0 -42 -27 -70t-67 -28h-2q-41 0 -68.5 28t-27.5 70zM119 211v849h168v-839q0 -42 7.5 -65t25 -33t48.5 -10l-15 -124q-29 -6 -64 -6q-28 0 -50 5t-45.5 19.5t-39 39t-25.5 66t-10 98.5zM276 1321q0 43 27.5 71 t69 28t68 -27.5t26.5 -71.5q0 -42 -27 -70t-68 -28h-2q-26 0 -47.5 12.5t-34 35.5t-12.5 50z" />
<glyph unicode="&#x3cb;" horiz-adv-x="826" d="M90 1060h163q21 -38 21 -214v-520q0 -66 18.5 -112.5t48 -67.5t67.5 -21q48 0 82 33.5t53.5 98t28.5 148.5t9 195q0 146 -17.5 271t-44.5 189h160q14 -32 26 -77t21.5 -99t15 -118t5.5 -128q0 -655 -352 -655q-87 0 -151.5 37t-100.5 110.5t-36 176.5v401q0 278 -17 352z M129 1321q0 43 29 71t70 28q40 0 66 -27.5t26 -71.5q0 -42 -26.5 -70t-65.5 -28h-2q-41 0 -69 28t-28 70zM467 1321.5q0 42.5 28.5 70.5t69.5 28t67.5 -27.5t26.5 -71.5q0 -42 -26.5 -70t-67.5 -28h-2q-40 0 -68 28t-28 70.5z" />
<glyph unicode="&#x3cc;" horiz-adv-x="838" d="M73 529q0 112 19.5 205t52.5 156t78.5 106t96.5 63t107 20q72 0 133 -34.5t108.5 -100.5t74 -172t26.5 -241q0 -119 -21 -214.5t-55.5 -156.5t-81 -102t-94.5 -58t-99 -17h-2q-72 0 -134 33.5t-109 99t-73.5 171.5t-26.5 242zM241 531q0 -58 4 -111t16.5 -110t32 -98.5 t52.5 -68t77 -26.5h2q41 0 73 27.5t50.5 70t30 100t15.5 109.5t4 107q0 37 -2 73.5t-7 78.5t-13.5 78.5t-22.5 70.5t-32 58t-44 38.5t-56 14.5q-44 0 -77 -28t-52 -70t-31 -99.5t-16 -109t-4 -105.5zM355 1183l70 296h150l-121 -296h-99z" />
<glyph unicode="&#x3cd;" horiz-adv-x="826" d="M90 1060h163q21 -38 21 -214v-520q0 -66 18.5 -112.5t48 -67.5t67.5 -21q48 0 82 33.5t53.5 98t28.5 148.5t9 195q0 146 -17.5 271t-44.5 189h160q14 -32 26 -77t21.5 -99t15 -118t5.5 -128q0 -655 -352 -655q-87 0 -151.5 37t-100.5 110.5t-36 176.5v401q0 278 -17 352z M339 1186l73 295h153l-120 -295h-106z" />
<glyph unicode="&#x3ce;" horiz-adv-x="1141" d="M73 508q0 186 50 336.5t111 215.5h151v-6q-64 -84 -105 -220.5t-41 -314.5q0 -195 40 -294.5t102 -99.5q37 0 63.5 32t37.5 73t11 84l-2 416h157l-2 -419q0 -28 7 -59t20 -60t35.5 -48t50.5 -19q63 0 103.5 104.5t40.5 299.5q0 163 -41.5 301t-105.5 224v6h154 q40 -40 75.5 -115.5t59.5 -187t24 -228.5q0 -256 -83.5 -401t-218.5 -145q-132 0 -192 153h-8q-25 -68 -77.5 -110.5t-127.5 -42.5q-45 0 -86.5 18.5t-78.5 60t-64.5 101.5t-43.5 149t-16 196zM519 1183l71 296h148l-120 -296h-99z" />
<glyph unicode="&#x401;" horiz-adv-x="774" d="M132 0v1477h562v-147h-393v-487h370v-142h-370v-554h420v-147h-589zM144 1690q0 43 27.5 72.5t67.5 29.5q42 0 68 -29t26 -73q0 -31 -12 -53.5t-33 -35t-49 -12.5h-3q-26 0 -46.5 12.5t-33 35.5t-12.5 53zM498 1690q0 44 27.5 73t68.5 29q42 0 68 -29t26 -73 q0 -46 -26 -73.5t-68 -27.5h-2q-40 0 -67 28t-27 73z" />
<glyph unicode="&#x402;" horiz-adv-x="1064" d="M35 1324v153h780v-153h-346v-421h4q82 50 178 50q88 0 162.5 -51.5t119.5 -147.5q43 -91 58 -184.5t15 -205.5q0 -134 -32 -255t-96 -207q-54 -76 -118 -121t-124 -63l-42 140q101 43 165 151q71 116 71 363q0 69 -4.5 122t-17 101.5t-32.5 90.5q-27 56 -74.5 88.5 t-103.5 32.5q-68 0 -129 -42v-765h-168v1324h-266z" />
<glyph unicode="&#x403;" horiz-adv-x="742" d="M132 0v1477h578v-147h-409v-1330h-169zM287 1556l206 236h199l-271 -236h-134z" />
<glyph unicode="&#x404;" horiz-adv-x="841" d="M71 743q0 64 6 127.5t19.5 129.5t35.5 126.5t51.5 116t71 100.5t91 79t113.5 52.5t137 18.5q42 0 78.5 -7.5t55.5 -15t48 -21.5l-38 -143q-25 15 -63.5 25t-74.5 10q-66 0 -121 -24t-93 -65.5t-67 -93t-45.5 -111t-25 -114t-9.5 -107.5h447v-147h-445q1 -42 6 -84.5 t14 -89.5t23.5 -90.5t34 -85.5t47.5 -76t61 -60t76.5 -40.5t92.5 -14.5q95 0 176 33l28 -138q-109 -48 -215 -48q-105 0 -191.5 39.5t-146.5 108.5t-100.5 165t-59 207.5t-18.5 237.5z" />
<glyph unicode="&#x405;" horiz-adv-x="790" d="M61 50l37 145q39 -26 98.5 -42.5t114.5 -16.5q114 0 179.5 68t65.5 181q0 50 -13 92.5t-40.5 80t-60.5 68t-80 66.5q-279 194 -279 410q0 170 108 279.5t282 109.5q65 0 122 -17t87 -39l-42 -145q-71 51 -176 51q-52 0 -93.5 -18.5t-66.5 -49t-38 -67t-13 -75.5 q0 -36 5.5 -66t20 -56.5t29 -46.5t44 -45.5t52 -42.5t65.5 -48q132 -93 194 -196.5t62 -228t-54.5 -219.5t-148 -145t-211.5 -50q-72 0 -144.5 19.5t-105.5 43.5z" />
<glyph unicode="&#x406;" horiz-adv-x="435" d="M132 0v1477h169v-1477h-169z" />
<glyph unicode="&#x407;" horiz-adv-x="435" d="M-52 1690q0 43 27 72.5t67 29.5q42 0 68 -29t26 -73q0 -46 -26 -73.5t-68 -27.5h-2q-27 0 -47.5 12.5t-32.5 35.5t-12 53zM132 0v1477h169v-1477h-169zM301 1690q0 28 12.5 52t34.5 37t49 13q42 0 68 -29t26 -73q0 -46 -25.5 -73.5t-68.5 -27.5h-2q-40 0 -67 28t-27 73z " />
<glyph unicode="&#x408;" horiz-adv-x="579" d="M6 -2l15 142q29 -8 82 -8q38 0 66 6.5t52.5 25t39.5 50t23.5 81.5t8.5 119v1063h169v-1061q0 -121 -23.5 -206.5t-70 -134.5t-107.5 -70.5t-144 -21.5q-70 0 -111 15z" />
<glyph unicode="&#x409;" horiz-adv-x="1391" d="M-15 123q54 17 80 44q61 56 85.5 204.5t24.5 433.5v672h601v-588q58 8 111 8q201 0 321 -120t120 -319q0 -193 -105 -316q-134 -151 -395 -151q-142 0 -219 15v1324h-276v-506q0 -107 -2 -184.5t-8.5 -164t-19 -149.5t-32 -123t-50 -103.5t-70.5 -72.5q-28 -20 -64 -32 t-68 -12zM776 136q29 -7 85 -7q139 0 216.5 90t77.5 233q0 135 -81 219.5t-215 84.5q-29 0 -83 -7v-613z" />
<glyph unicode="&#x40a;" horiz-adv-x="1465" d="M132 0v1477h169v-614h381v614h167v-596q52 6 111 6q132 0 231.5 -51.5t154.5 -149t55 -228.5q0 -191 -106 -316q-134 -151 -394 -151q-143 0 -219 15v709h-381v-715h-169zM849 136q28 -7 84 -7q139 0 216.5 89.5t77.5 230.5q0 69 -21 124.5t-59.5 93.5t-93.5 59t-122 21 q-36 0 -82 -7v-604z" />
<glyph unicode="&#x40b;" horiz-adv-x="1097" d="M35 1324v153h758v-153h-329v-452h5q110 81 228 81q135 0 206 -92q79 -102 79 -282v-579h-167v561q0 69 -10 114.5t-36 78.5q-40 57 -127 57q-88 0 -178 -66v-745h-169v1324h-260z" />
<glyph unicode="&#x40c;" horiz-adv-x="856" d="M132 0v1477h167v-670h29l316 670h182l-362 -693q53 -11 95.5 -37t70.5 -59t50.5 -80.5t36 -93t26.5 -104.5q8 -35 26.5 -129t34.5 -159t37 -122h-170q-16 43 -29.5 99t-32.5 151t-24 118q-11 59 -23.5 101.5t-33 85t-47 68.5t-66.5 42.5t-91 16.5h-25v-682h-167z M335 1545l206 237h199l-271 -237h-134z" />
<glyph unicode="&#x40e;" horiz-adv-x="807" d="M11 1477h182l175 -603q35 -115 69 -259h6q8 33 16.5 75.5t20 98.5t18.5 87l131 601h171l-175 -662q-3 -11 -36 -131t-50 -176.5t-52.5 -152.5t-70.5 -165q-50 -99 -123 -157t-155 -58q-40 0 -79 12l8 136q22 -4 44 -4q43 0 82.5 27.5t68.5 72t49.5 89t33.5 89.5 q11 37 -4 83zM163 1733h122q9 -56 37 -89.5t88 -33.5q57 0 86.5 34.5t36.5 88.5h124q-14 -108 -76 -160.5t-173 -52.5q-108 0 -172 53.5t-73 159.5z" />
<glyph unicode="&#x40f;" horiz-adv-x="1002" d="M132 0v1477h169v-1330h404v1330h167v-1477h-289l-11 -314h-141l-10 314h-289z" />
<glyph unicode="&#x410;" horiz-adv-x="952" d="M48 0l337 1477h187l329 -1477h-167l-98 443h-327l-98 -443h-163zM333 579h280l-76 374q-30 150 -60 337h-8q-26 -169 -59 -337z" />
<glyph unicode="&#x411;" horiz-adv-x="915" d="M132 6v1471h627v-147h-458v-443q56 10 111 10q196 0 316 -117q125 -118 125 -322q0 -197 -106 -318q-129 -149 -394 -149q-141 0 -221 15zM301 136q29 -7 84 -7q149 0 226 101q68 89 68 219q0 132 -79 218q-83 89 -217 89q-32 0 -82 -7v-613z" />
<glyph unicode="&#x412;" horiz-adv-x="910" d="M132 6v1449q114 28 247 28q218 0 326 -103q97 -90 97 -251q0 -113 -59.5 -199.5t-167.5 -129.5v-5q129 -35 201.5 -134t72.5 -243q0 -175 -106 -293q-119 -134 -390 -134q-141 0 -221 15zM301 134q38 -9 84 -9q134 0 212 76.5t78 216.5q0 74 -24.5 132.5t-67 95 t-95.5 55.5t-114 20h-73v-587zM301 851h76q106 0 181 73t75 187q0 42 -7.5 77.5t-26 66t-46 52t-69 33.5t-93.5 12q-55 0 -90 -11v-490z" />
<glyph unicode="&#x413;" horiz-adv-x="742" d="M132 0v1477h578v-147h-409v-1330h-169z" />
<glyph unicode="&#x414;" horiz-adv-x="1037" d="M21 142l100 2q81 198 118 400q46 248 46 600v333h593v-1333l99 -2l-9 -449h-131l-11 307h-653l-8 -307h-134zM293 147h420v1183h-274v-221q0 -356 -40 -588q-33 -178 -106 -374z" />
<glyph unicode="&#x415;" horiz-adv-x="774" d="M132 0v1477h562v-147h-393v-487h370v-142h-370v-554h420v-147h-589z" />
<glyph unicode="&#x416;" horiz-adv-x="1290" d="M17 0q16 45 31 100t23.5 93.5t22 105.5t19.5 98q11 48 22.5 89t29 84.5t40.5 77.5t52.5 63.5t68 49.5t84.5 28l-381 688h186l320 -672h30v672h158v-672h33l318 672h186l-379 -688q55 -10 100 -37t75 -63t54 -86.5t38 -98t27 -107.5q4 -19 20 -95.5t23.5 -110t23 -90 t31.5 -101.5h-167q-16 38 -31.5 101t-32 147.5t-21.5 106.5q-12 58 -24 99t-34 87t-49.5 74.5t-70 47.5t-96.5 19h-24v-682h-158v682h-21q-40 0 -74 -10t-58.5 -25.5t-45.5 -41t-35.5 -51t-27 -62t-20.5 -66.5t-18 -71q-5 -22 -21.5 -106.5t-31.5 -147.5t-32 -101h-163z" />
<glyph unicode="&#x417;" horiz-adv-x="834" d="M40 55l41 140q106 -68 235 -68q133 0 207.5 77t74.5 202q0 95 -45 163.5t-119.5 101t-170.5 32.5h-46v136h32q57 0 112.5 21t98 57.5t68.5 88.5t26 109q0 106 -62 169.5t-170 63.5q-100 0 -217 -77l-44 130q54 41 132 67.5t171 26.5q113 0 196 -47t124 -126.5t41 -181.5 q0 -120 -72.5 -218.5t-185.5 -132.5v-5q140 -25 222 -127t82 -251q0 -130 -56.5 -226.5t-157 -146.5t-231.5 -50q-78 0 -155.5 19t-130.5 53z" />
<glyph unicode="&#x418;" horiz-adv-x="1016" d="M132 0v1477h153v-528q0 -329 -20 -677h5q22 72 51.5 153t79 208t59.5 153l265 691h158v-1477h-151v510q0 434 17 697h-4q-11 -38 -23.5 -77t-25.5 -76t-25.5 -71.5t-26.5 -71.5t-26 -67t-26.5 -67.5t-24.5 -63.5l-276 -713h-159z" />
<glyph unicode="&#x419;" horiz-adv-x="1016" d="M132 0v1477h153v-528q0 -329 -20 -677h5q22 72 51.5 153t79 208t59.5 153l265 691h158v-1477h-151v510q0 434 17 697h-4q-11 -38 -23.5 -77t-25.5 -76t-25.5 -71.5t-26.5 -71.5t-26 -67t-26.5 -67.5t-24.5 -63.5l-276 -713h-159zM261 1744h122q10 -56 37.5 -89t87.5 -33 q57 0 86.5 34t36.5 88h125q-14 -108 -76 -160t-174 -52q-108 0 -172 53t-73 159z" />
<glyph unicode="&#x41a;" horiz-adv-x="856" d="M132 0v1477h167v-670h29l316 670h182l-362 -693q53 -11 95.5 -37t70.5 -59t50.5 -80.5t36 -93t26.5 -104.5q8 -35 26.5 -129t34.5 -159t37 -122h-170q-16 43 -29.5 99t-32.5 151t-24 118q-11 59 -23.5 101.5t-33 85t-47 68.5t-66.5 42.5t-91 16.5h-25v-682h-167z" />
<glyph unicode="&#x41b;" horiz-adv-x="945" d="M-15 125q44 7 78 38q65 57 90 205.5t25 433.5v675h635v-1477h-169v1330h-311v-504q0 -72 -1 -125t-3 -116t-6 -110.5t-10.5 -100t-16 -92t-23 -80t-30.5 -70.5t-40 -57t-50 -46q-60 -46 -136 -46z" />
<glyph unicode="&#x41c;" horiz-adv-x="1311" d="M96 0l88 1477h182l173 -675q84 -324 118 -509h7q34 198 110 509l167 675h188l85 -1477h-158l-31 636q-22 398 -15 578h-8q-56 -273 -119 -513l-182 -692h-107l-173 664q-84 328 -120 541h-8q0 -168 -17 -589l-29 -625h-151z" />
<glyph unicode="&#x41d;" horiz-adv-x="1014" d="M132 0v1477h169v-634h414v634h168v-1477h-168v690h-414v-690h-169z" />
<glyph unicode="&#x41e;" horiz-adv-x="976" d="M71 740q0 360 117.5 557.5t315.5 197.5q190 0 296.5 -197t106.5 -549q0 -162 -21.5 -292t-60 -217.5t-93 -146t-117 -84.5t-135.5 -26q-188 0 -298.5 196t-110.5 561zM245 738q0 -95 7.5 -180t25.5 -164.5t45.5 -136.5t70.5 -91t97 -34q55 0 98 36t69.5 95t43.5 140.5 t23.5 164t6.5 175.5q0 88 -6.5 168.5t-24 161.5t-44 140t-69.5 95.5t-99 36.5q-53 0 -95.5 -34.5t-70 -92t-45.5 -137t-25.5 -164t-7.5 -179.5z" />
<glyph unicode="&#x41f;" horiz-adv-x="1002" d="M132 0v1477h740v-1477h-169v1330h-402v-1330h-169z" />
<glyph unicode="&#x420;" horiz-adv-x="874" d="M132 0v1455q109 28 245 28q217 0 326 -109q110 -107 110 -305q0 -183 -90 -302q-59 -79 -152.5 -122t-196.5 -43q-49 0 -73 3v-605h-169zM301 747q29 -7 65 -7q128 0 203 82.5t75 235.5q0 60 -13 109.5t-41 90.5t-78 64t-117 23q-59 0 -94 -11v-587z" />
<glyph unicode="&#x421;" horiz-adv-x="816" d="M71 721q0 122 16.5 226.5t45.5 181.5t69.5 139.5t86.5 103t98 68t102.5 39.5t102.5 12q123 0 184 -38l-38 -142q-13 6 -21.5 9t-23.5 7.5t-28.5 7t-33 4.5t-41.5 2q-50 0 -96.5 -19t-92 -64.5t-79 -113t-54.5 -172.5t-21 -236t19 -235t51 -171.5t77 -112t94.5 -63 t105.5 -18.5q87 0 155 33l27 -142q-74 -40 -211 -40q-110 0 -199.5 45t-156 133.5t-102.5 230t-36 325.5z" />
<glyph unicode="&#x422;" horiz-adv-x="774" d="M35 1326v151h708v-151h-270v-1326h-168v1326h-270z" />
<glyph unicode="&#x423;" horiz-adv-x="807" d="M11 1477h182l175 -603q35 -115 69 -259h6q8 33 16.5 75.5t20 98.5t18.5 87l131 601h171l-175 -662q-3 -11 -36 -131t-50 -176.5t-52.5 -152.5t-70.5 -165q-50 -99 -123 -157t-155 -58q-40 0 -79 12l8 136q22 -4 44 -4q43 0 82.5 27.5t68.5 72t49.5 89t33.5 89.5 q11 37 -4 83z" />
<glyph unicode="&#x424;" horiz-adv-x="1110" d="M71 740q0 136 24 246t63 183.5t93 125t111 76.5t118 32v115h156v-115q69 -7 129 -34.5t111.5 -80.5t88.5 -127.5t57.5 -180t20.5 -233.5q0 -105 -12 -193t-33.5 -154t-52.5 -118t-66 -87t-77 -59.5t-83.5 -37t-87.5 -17.5v-123h-154v123q-67 9 -122 31t-109.5 69.5 t-91.5 118.5t-60 183t-23 257zM241 734q0 -128 19 -227t52.5 -160t75.5 -95.5t92 -44.5v1071q-38 -6 -72 -26t-65 -62t-53.5 -102t-35.5 -150.5t-13 -203.5zM633 207q44 7 80 29t66 64t50 103t31.5 148.5t11.5 197.5t-14.5 199.5t-38 148t-55 99t-64 59.5t-67.5 23v-1071z " />
<glyph unicode="&#x425;" horiz-adv-x="858" d="M31 0l304 754l-293 723h175l132 -342q10 -23 21 -52.5t19.5 -52.5t23 -63t24.5 -66h4q70 217 78 241l121 335h173l-290 -718l305 -759h-177l-134 355q-36 94 -90 258h-6q-70 -207 -90 -262l-128 -351h-172z" />
<glyph unicode="&#x426;" horiz-adv-x="1029" d="M132 0v1477h169v-1330h402v1330h167v-1333l98 -2l-8 -449h-134l-9 307h-685z" />
<glyph unicode="&#x427;" horiz-adv-x="954" d="M119 943v534h166v-502q0 -254 200 -254q97 0 170 46v710h167v-1492h-165v646h-9q-111 -52 -219 -52q-58 0 -106 14t-86 43t-64.5 72t-40 102t-13.5 133z" />
<glyph unicode="&#x428;" horiz-adv-x="1384" d="M132 0v1477h167v-1330h312v1330h165v-1330h313v1330h164v-1477h-1121z" />
<glyph unicode="&#x429;" horiz-adv-x="1410" d="M132 0v1477h167v-1330h312v1330h165v-1330h313v1330h164v-1333l97 -2l-7 -449h-134l-11 307h-1066z" />
<glyph unicode="&#x42a;" horiz-adv-x="1121" d="M33 1332v145h475v-588q62 8 113 8q133 0 233.5 -54.5t154.5 -153.5t54 -231q0 -201 -107 -318q-127 -149 -395 -149q-139 0 -220 15v1326h-308zM510 136q41 -7 86 -7q92 0 158.5 42.5t99.5 114t33 163.5q0 138 -79.5 222.5t-213.5 84.5q-33 0 -84 -7v-613z" />
<glyph unicode="&#x42b;" horiz-adv-x="1284" d="M132 6v1471h169v-590q53 10 107 10q198 0 318 -119t120 -318q0 -187 -106 -316q-133 -153 -395 -153q-133 0 -213 15zM301 136q29 -7 78 -7q136 0 214 89.5t78 230.5q0 138 -79.5 222.5t-210.5 84.5q-37 0 -80 -7v-613zM982 0v1479h168v-1479h-168z" />
<glyph unicode="&#x42c;" horiz-adv-x="913" d="M132 6v1471h169v-588q54 8 111 8q202 0 321.5 -118.5t119.5 -320.5q0 -189 -106 -314q-133 -153 -396 -153q-139 0 -219 15zM301 136q29 -7 80 -7q138 0 218 89.5t80 230.5q0 137 -80.5 222t-215.5 85q-39 0 -82 -7v-613z" />
<glyph unicode="&#x42d;" horiz-adv-x="847" d="M37 35l40 138q81 -37 168 -37q58 0 108 19t85.5 51.5t64 77.5t47 93.5t31 103t18 103.5t6.5 98h-445v150h447q0 54 -7 108.5t-21.5 113t-41 109t-61.5 91t-86.5 64t-113.5 23.5q-86 0 -159 -35l-44 138q102 49 209 49q86 0 157.5 -25t122 -66.5t89.5 -101t63 -124 t39.5 -141t21 -146t5.5 -144.5q0 -96 -13.5 -187t-40 -176.5t-70 -157t-100 -125.5t-134 -84t-167.5 -30q-124 0 -218 50z" />
<glyph unicode="&#x42e;" horiz-adv-x="1322" d="M132 0v1477h167v-631h161q18 314 128.5 481.5t281.5 167.5q180 0 283 -197.5t103 -548.5q0 -162 -21 -292t-58 -217.5t-88.5 -146t-111.5 -84.5t-128 -26q-84 0 -153 44t-120.5 130.5t-82 223.5t-33.5 313h-161v-694h-167zM627 740q0 -91 6.5 -173.5t23.5 -163.5 t42.5 -140t66 -95t91.5 -36h2q43 0 78 24.5t59 69.5t42 102.5t28 127.5t14.5 140.5t4.5 146.5q0 61 -3 120t-11 119.5t-19.5 113t-30 99t-41.5 79.5t-54.5 52t-68.5 19q-51 0 -91.5 -36.5t-66 -95t-42.5 -139.5t-23.5 -163t-6.5 -171z" />
<glyph unicode="&#x42f;" horiz-adv-x="889" d="M25 0q29 62 50 153q9 37 19 96t19 106.5t22 100t33.5 98.5t48.5 79q45 55 111 72v5q-113 35 -181 125.5t-68 233.5q0 107 38.5 191t106.5 136q114 87 293 87q145 0 242 -26v-1457h-169v644h-61q-113 0 -169 -67q-35 -42 -56.5 -117.5t-39.5 -186.5t-25 -144 q-15 -75 -40 -129h-174zM249 1065q0 -133 79 -212t203 -79q37 0 59 2v563q-49 9 -88 9q-125 0 -189 -78t-64 -205z" />
<glyph unicode="&#x430;" horiz-adv-x="797" d="M57 285q0 77 24 141t66 108.5t99.5 75.5t123 45.5t138.5 15.5v32q0 56 -7.5 98t-26 75.5t-52.5 51t-83 17.5q-90 0 -174 -56l-38 119q37 28 105.5 49.5t141.5 21.5q305 0 305 -380v-458q0 -174 11 -241h-153l-11 111h-7q-35 -61 -89 -94.5t-121 -33.5q-108 0 -180 83.5 t-72 218.5zM221 303q0 -95 39.5 -142.5t90.5 -47.5q58 0 100.5 42t56.5 119q5 19 5 59v215q-20 0 -38 -1.5t-44.5 -4.5t-49 -11t-47.5 -19.5t-44 -30.5t-35 -43t-25 -58.5t-9 -76.5z" />
<glyph unicode="&#x431;" horiz-adv-x="849" d="M81 627q0 410 101 607q49 98 121 157t174 86q18 4 110.5 24.5t122.5 32.5l-9 -147q-20 -8 -50.5 -16t-73.5 -18t-69 -17q-84 -19 -135 -61.5t-84 -113.5q-49 -106 -65 -276h4q28 74 94 124.5t147 50.5q67 0 121.5 -29.5t97.5 -90.5t66.5 -163t23.5 -238 q0 -273 -90.5 -415.5t-250.5 -142.5q-61 0 -112 21.5t-87 58t-64 88t-45 108t-28 122t-15.5 125.5t-4.5 123zM245 579q0 -30 1.5 -64t7 -80t13.5 -88t23 -85t34 -73.5t47.5 -50t62.5 -19.5q32 0 57.5 15t43.5 39.5t31.5 59t21.5 70t13 76.5t6.5 74.5t1.5 67.5v2q0 52 -4 101 t-16 105t-31 97.5t-52.5 68.5t-76.5 27q-54 0 -91.5 -32t-57.5 -85q-35 -89 -35 -226z" />
<glyph unicode="&#x432;" horiz-adv-x="862" d="M119 -4v1060q118 23 238 23q57 0 109 -7t105.5 -25t92 -46.5t63 -76t24.5 -109.5q0 -93 -58 -160.5t-152 -91.5v-4q118 -21 186 -90t68 -176q0 -71 -29 -126.5t-74 -89t-107.5 -55t-123 -29.5t-126.5 -8q-147 0 -216 11zM280 111q58 -6 88 -6q51 0 95.5 9.5t82 30.5 t59.5 59t22 89t-23.5 90.5t-63.5 62.5t-87.5 34t-99.5 11h-73v-380zM282 611h78q52 0 104 21t89 63.5t37 95.5q0 44 -17.5 77t-48.5 51.5t-69 27.5t-85 9q-30 0 -88 -9v-336z" />
<glyph unicode="&#x433;" horiz-adv-x="639" d="M119 0v1060h492v-144h-326v-916h-166z" />
<glyph unicode="&#x434;" horiz-adv-x="913" d="M15 129l71 3q66 106 98 225q48 176 48 392v311h539v-928l90 -3l-10 -411h-128l-10 282h-548l-12 -282h-128zM253 134h352v790h-224v-155q0 -259 -44 -420q-30 -120 -84 -215z" />
<glyph unicode="&#x435;" horiz-adv-x="795" d="M73 519q0 257 97.5 408.5t258.5 151.5q63 0 114.5 -26t86 -70t58 -105t34 -128t10.5 -141q0 -68 -2 -94h-494q3 -394 253 -394q105 0 175 42l26 -126q-43 -24 -105 -37t-127 -13q-187 0 -286 142t-99 390zM239 640h330q3 150 -43.5 228.5t-113.5 78.5q-52 0 -91.5 -47.5 t-59 -115.5t-22.5 -144z" />
<glyph unicode="&#x436;" horiz-adv-x="1173" d="M17 0q10 21 19.5 45.5t20.5 60t16 53t17.5 64t14.5 53.5q71 265 240 299l-316 485h184l258 -466h35v466h163v-466h36l257 466h186l-318 -485q179 -36 241 -290q51 -211 86 -285h-164q-34 59 -73 234q-35 134 -92 190t-142 56h-17v-480h-163v480h-17q-44 0 -77 -10 t-56 -28t-42.5 -52t-33 -70.5t-31.5 -95.5q-13 -59 -20.5 -89t-20 -68.5t-26.5 -66.5h-165z" />
<glyph unicode="&#x437;" horiz-adv-x="738" d="M29 42l38 121q101 -54 198 -54q104 0 168.5 54t64.5 130q0 52 -22 91.5t-59 61.5t-79.5 32.5t-90.5 10.5h-63v122h59q39 0 77 12.5t69.5 34.5t51 57.5t19.5 77.5q0 38 -13 68.5t-36 50t-54 29.5t-68 10q-94 0 -186 -54l-36 107q53 35 122.5 55t141.5 20q132 0 215 -71.5 t83 -194.5q0 -93 -60 -158.5t-157 -91.5v-2q114 -17 185.5 -87.5t71.5 -180.5q0 -62 -22 -113.5t-59.5 -87.5t-87.5 -61t-106 -36.5t-116 -11.5q-138 0 -249 59z" />
<glyph unicode="&#x438;" horiz-adv-x="889" d="M119 0v1060h153v-363q0 -308 -13 -509h4q22 63 48 133t61 159.5t46 119.5l178 460h178v-1060h-156v349q0 289 15 517h-4q-55 -182 -127 -366q-136 -339 -211 -500h-172z" />
<glyph unicode="&#x439;" horiz-adv-x="889" d="M119 0v1060h153v-363q0 -308 -13 -509h4q22 63 48 133t61 159.5t46 119.5l178 460h178v-1060h-156v349q0 289 15 517h-4q-55 -182 -127 -366q-136 -339 -211 -500h-172zM197 1462h119q13 -147 129 -147q118 0 132 147h117q-14 -127 -77.5 -185t-173.5 -58 q-107 0 -169.5 58t-76.5 185z" />
<glyph unicode="&#x43a;" horiz-adv-x="803" d="M119 0v1060h163v-460h25l278 460h189l-331 -477q183 -31 256 -301q1 -5 14 -52.5t18 -64.5t15.5 -53.5t20 -62.5t19.5 -49h-171q-28 63 -76 247q-33 117 -86.5 173.5t-151.5 56.5h-19v-477h-163z" />
<glyph unicode="&#x43b;" horiz-adv-x="838" d="M0 119q49 7 90 48q42 44 56 142.5t14 265.5v485h563v-1060h-169v920h-232v-335q0 -81 -2.5 -142t-9 -123t-19.5 -107.5t-32.5 -86.5t-48.5 -69.5t-68 -47.5q-52 -24 -111 -24z" />
<glyph unicode="&#x43c;" horiz-adv-x="1178" d="M83 0l74 1060h200l138 -466q63 -207 97 -337h4q49 199 90 337l134 466h203l73 -1060h-161l-19 456q-10 224 -15 445h-6q-37 -163 -106 -408l-143 -487h-123l-138 471q-55 186 -109 426h-4q-3 -250 -15 -456l-18 -447h-156z" />
<glyph unicode="&#x43d;" horiz-adv-x="887" d="M119 0v1060h168v-449h313v449h169v-1060h-169v467h-313v-467h-168z" />
<glyph unicode="&#x43e;" horiz-adv-x="838" d="M73 529q0 112 19.5 205t52.5 156t78.5 106t96.5 63t107 20q72 0 133 -34.5t108.5 -100.5t74 -172t26.5 -241q0 -119 -21 -214.5t-56 -156.5t-81.5 -102t-95 -58t-99.5 -17q-72 0 -134 33.5t-109 99t-73.5 171.5t-26.5 242zM241 531q0 -41 2 -79t7.5 -80t14.5 -78 t23.5 -69.5t33 -57t45 -37t58.5 -13.5q41 0 73 27.5t50.5 70t30 100t15.5 109.5t4 107q0 37 -2 73.5t-7 78.5t-13.5 78.5t-22.5 70.5t-32 58t-44 38.5t-56 14.5q-44 0 -77 -28t-52 -70t-31 -99.5t-16 -109t-4 -105.5z" />
<glyph unicode="&#x43f;" horiz-adv-x="876" d="M119 0v1060h640v-1060h-167v918h-305v-918h-168z" />
<glyph unicode="&#x440;" horiz-adv-x="874" d="M107 1060h152l9 -136h4q77 155 223 155q141 0 224 -144t83 -402q0 -114 -18 -207.5t-49 -156t-74 -105.5t-90 -62t-98 -19q-68 0 -113.5 35t-70.5 87h-4v-526h-168v1151q0 72 -2 135t-4.5 118.5t-3.5 76.5zM285 391q0 -64 6 -88q12 -54 31.5 -91.5t42.5 -55.5t42.5 -25.5 t39.5 -7.5q51 0 88 32.5t57.5 91t29.5 129t9 155.5t-10.5 155.5t-32 127t-58 88t-85.5 31.5q-37 0 -71.5 -28t-57 -72t-27.5 -93q-4 -26 -4 -81v-268z" />
<glyph unicode="&#x441;" horiz-adv-x="661" d="M73 523q0 115 28.5 215.5t80.5 175.5t132 118.5t177 43.5q41 0 82.5 -9.5t66.5 -23.5l-33 -138q-56 28 -120 28q-36 0 -67 -11.5t-56 -33t-45 -51t-34.5 -65t-24.5 -76.5t-14.5 -84.5t-4.5 -88.5q0 -185 67 -290.5t183 -105.5q58 0 122 28l23 -128q-70 -40 -176 -40 q-178 0 -282.5 139t-104.5 397z" />
<glyph unicode="&#x442;" horiz-adv-x="694" d="M21 918v142h652v-142h-242v-918h-168v918h-242z" />
<glyph unicode="&#x443;" horiz-adv-x="757" d="M29 1060h178l140 -608q5 -22 44 -220h4q10 56 46 217l124 611h167l-173 -681q-29 -115 -52.5 -200t-56 -179.5t-71.5 -170.5t-84 -134q-50 -63 -102 -104t-88 -58l-61 145q77 43 149 134q62 77 96 177q12 37 12 53q0 23 -6 39z" />
<glyph unicode="&#x444;" horiz-adv-x="1044" d="M73 529q0 247 99 384.5t275 162.5v423h153l-2 -420q175 -23 276 -161t101 -389q0 -250 -99 -387t-278 -159l2 -404h-153v404q-176 19 -275 156t-99 390zM230 531q0 -57 6 -109.5t21.5 -107t39 -97t62.5 -74.5t88 -45v864q-49 -13 -88 -45.5t-62.5 -74.5t-39 -96.5 t-21.5 -106.5t-6 -108zM598 98q62 15 106 58.5t67.5 106t33.5 128t10 140.5q0 56 -5.5 108t-21 106t-39 96t-62.5 74t-89 45v-862z" />
<glyph unicode="&#x445;" horiz-adv-x="744" d="M25 0l251 533l-245 527h182l98 -228q16 -34 38.5 -99t31.5 -87h4q15 40 41 108t30 78l96 228h173l-252 -523l250 -537h-184l-100 239q-14 31 -71 182h-4q-15 -44 -71 -182l-98 -239h-170z" />
<glyph unicode="&#x446;" horiz-adv-x="899" d="M119 0v1060h168v-920h303v920h169v-928l90 -3l-12 -411h-127l-11 282h-580z" />
<glyph unicode="&#x447;" horiz-adv-x="860" d="M103 629v431h169v-405q0 -43 6.5 -75t22 -59t45 -40.5t72.5 -13.5q81 0 157 48v545h168v-1064h-166v397h-8q-37 -26 -91.5 -41t-109.5 -15q-125 0 -195 74.5t-70 217.5z" />
<glyph unicode="&#x448;" horiz-adv-x="1292" d="M119 0v1060h166v-920h278v920h167v-920h280v920h167v-1060h-1058z" />
<glyph unicode="&#x449;" horiz-adv-x="1318" d="M119 0v1060h166v-920h278v920h167v-920h280v920h167v-928l88 -3l-9 -411h-129l-12 282h-996z" />
<glyph unicode="&#x44a;" horiz-adv-x="1016" d="M29 920v140h423v-374q15 1 50 3.5t52 2.5q82 0 153.5 -20.5t128 -60.5t89.5 -105.5t33 -150.5q0 -169 -117 -263q-127 -103 -339 -103q-110 0 -217 17v914h-256zM452 127q40 -6 79 -6q70 0 126 23.5t91.5 75t35.5 125.5q0 56 -21 98.5t-58 67.5t-83.5 37.5t-100.5 12.5 q-27 0 -69 -5v-429z" />
<glyph unicode="&#x44b;" horiz-adv-x="1156" d="M119 6v1054h166v-374q51 6 100 6q78 0 146 -21.5t121 -62.5t84 -106t31 -147q0 -170 -119 -263q-62 -51 -146.5 -77t-166.5 -26q-108 0 -216 17zM285 127q40 -6 75 -6q97 0 165.5 61t68.5 163q0 103 -68.5 159.5t-170.5 56.5q-49 0 -70 -5v-429zM876 0v1060h163v-1060 h-163z" />
<glyph unicode="&#x44c;" horiz-adv-x="849" d="M119 6v1054h166v-374q16 1 50 3.5t50 2.5q84 0 155.5 -20.5t128.5 -61t89.5 -107t32.5 -152.5q0 -83 -30.5 -149t-85.5 -110q-127 -103 -340 -103q-108 0 -216 17zM285 125q53 -4 75 -4q72 0 129 23.5t93 75t36 125.5q0 45 -14 81.5t-38 61t-57.5 41.5t-72 24.5 t-81.5 7.5q-28 0 -70 -5v-431z" />
<glyph unicode="&#x44d;" horiz-adv-x="709" d="M27 31l30 122q69 -30 152 -30q110 0 182 100.5t76 256.5h-360v122h360q-2 51 -10.5 97.5t-28 91.5t-47.5 78t-70.5 53.5t-95.5 20.5q-63 0 -142 -29l-27 116q32 21 87.5 35t111.5 14q89 0 164.5 -41t125.5 -111q105 -148 105 -390q0 -85 -16.5 -165t-51 -150.5 t-83.5 -123t-119.5 -83t-154.5 -30.5q-48 0 -101 12t-87 34z" />
<glyph unicode="&#x44e;" horiz-adv-x="1148" d="M119 0v1060h163v-445h132q10 119 41 210t77 145t100 81.5t115 27.5q55 0 104 -21.5t90.5 -65.5t71.5 -108t46.5 -154.5t16.5 -198.5q0 -119 -20.5 -214.5t-54 -156.5t-78 -102t-90 -58t-93.5 -17q-65 0 -121.5 30.5t-101 90t-72 156t-31.5 220.5h-132v-480h-163zM572 531 q0 -58 4.5 -111.5t16.5 -110t30 -98t49 -68t71 -26.5h2q39 0 69 27.5t47.5 70t29 100t15.5 109.5t4 107q0 54 -4 105.5t-15.5 109t-29.5 99.5t-49 70t-72 28q-39 0 -70 -28t-48.5 -70t-29 -99.5t-16 -109t-4.5 -105.5z" />
<glyph unicode="&#x44f;" horiz-adv-x="830" d="M19 0q34 59 48 109q6 22 20.5 81.5t24.5 94t31 80t47 74.5q54 57 130 69v5q-48 10 -89 30.5t-74 52t-52 77t-19 101.5q0 140 109 221q45 37 125 58t167 21q132 0 226 -20v-1054h-163v454h-50q-106 0 -153 -51q-26 -22 -45 -61t-28.5 -73.5t-24 -95t-23.5 -94.5 q-8 -36 -29 -79h-178zM255 769q0 -62 34 -109t85.5 -70t110.5 -23h65v382q-33 9 -73 9q-46 0 -85 -11t-70.5 -33t-49 -59t-17.5 -86z" />
<glyph unicode="&#x451;" horiz-adv-x="795" d="M73 519q0 257 97.5 408.5t258.5 151.5q63 0 114.5 -26t86 -70t58 -105t34 -128t10.5 -141q0 -68 -2 -94h-494q3 -394 253 -394q105 0 175 42l26 -126q-43 -24 -105 -37t-127 -13q-187 0 -286 142t-99 390zM165 1336q0 43 28.5 71t69.5 28q40 0 66 -27.5t26 -71.5 q0 -20 -7 -37.5t-19 -30.5t-29 -20.5t-37 -7.5h-2q-40 0 -68 28t-28 68zM239 640h330q3 150 -43.5 228.5t-113.5 78.5q-52 0 -91.5 -47.5t-59 -115.5t-22.5 -144zM506 1336q0 42 28.5 70.5t68 28.5t67 -27.5t27.5 -71.5q0 -27 -12.5 -49t-34 -34.5t-48.5 -12.5h-2 q-26 0 -47.5 12.5t-34 35t-12.5 48.5z" />
<glyph unicode="&#x452;" horiz-adv-x="906" d="M27 1227v118h113v171h169v-171h383v-118h-383v-284h5q23 38 56 66.5t75.5 45t87.5 16.5q156 0 230 -166q65 -140 65 -420q0 -215 -36.5 -365t-118.5 -252q-41 -53 -102.5 -91t-110.5 -45l-42 136q34 8 72.5 33t65.5 66q50 74 76.5 206t26.5 300q0 224 -46 342 q-45 114 -133 114q-73 0 -120 -74q-51 -73 -51 -178v-677h-169v1227h-113z" />
<glyph unicode="&#x453;" horiz-adv-x="639" d="M119 0v1060h492v-144h-326v-916h-166zM272 1198l169 297h172l-230 -297h-111z" />
<glyph unicode="&#x454;" horiz-adv-x="724" d="M73 531q0 84 16 162.5t51 149t85.5 122.5t125 83t164.5 31q51 0 102 -14t80 -35l-40 -123q-63 38 -140 38q-55 0 -101 -21t-76.5 -55.5t-52 -79.5t-31.5 -92t-11 -95h373v-122h-375q5 -161 79 -261t195 -100q37 0 77 9.5t67 24.5l33 -122q-83 -46 -201 -46 q-84 0 -154.5 30.5t-119 82t-82 122t-49 148.5t-15.5 163z" />
<glyph unicode="&#x455;" horiz-adv-x="632" d="M48 48l42 127q33 -21 79 -37.5t92 -16.5q72 0 113.5 41t41.5 112q0 42 -11.5 74.5t-41.5 65t-83 69.5q-108 70 -160.5 141t-52.5 160q0 128 84 211.5t209 83.5q99 0 190 -56l-46 -126q-68 46 -140 46q-65 0 -101.5 -39.5t-36.5 -94.5t26.5 -92.5t104.5 -91.5 q50 -32 87 -64t68.5 -71.5t48 -86.5t16.5 -100q0 -78 -25 -139t-69 -99t-101 -58t-123 -20q-60 0 -118.5 16.5t-92.5 44.5z" />
<glyph unicode="&#x456;" horiz-adv-x="402" d="M101 1334.5q0 48.5 28 79t70 30.5q46 0 74 -30.5t28 -79.5q1 -48 -28 -78.5t-76 -30.5q-42 0 -69 30.5t-27 79zM119 0v1060h168v-1060h-168z" />
<glyph unicode="&#x457;" horiz-adv-x="402" d="M-63 1336q0 43 28.5 71t69.5 28q40 0 66 -27.5t26 -71.5q0 -26 -12 -48.5t-33 -35t-47 -12.5h-2q-40 0 -68 28t-28 68zM119 0v1060h168v-1060h-168zM278 1336q0 42 28.5 70.5t68.5 28.5t67 -27.5t27 -71.5q0 -27 -12 -49t-34 -34.5t-49 -12.5h-2q-39 0 -66.5 28t-27.5 68 z" />
<glyph unicode="&#x458;" horiz-adv-x="411" d="M-61 -305q18 5 30.5 9t30 11t30.5 15t27 20.5t24 28.5q29 42 40 115t11 223v943h169v-993q0 -163 -25.5 -253t-82.5 -151q-45 -46 -111.5 -73t-121.5 -29zM117 1334q-2 49 27 79.5t73 30.5t71.5 -30.5t27.5 -79.5t-28 -79t-75 -30q-42 0 -70 30.5t-26 78.5z" />
<glyph unicode="&#x459;" horiz-adv-x="1292" d="M0 119q49 7 90 48q42 42 56 138t14 270v485h568v-374q17 1 49.5 3.5t48.5 2.5q84 0 156 -20.5t129 -61t90 -107t33 -152.5q0 -163 -117 -257q-126 -105 -346 -105q-106 0 -210 17v914h-239v-335q0 -83 -2.5 -144t-9 -123t-19.5 -107t-32.5 -85.5t-48.5 -69t-68 -47.5 q-48 -24 -111 -24zM728 127q40 -6 74 -6q54 0 100 13.5t82 40.5t56 70.5t20 99.5t-21 98.5t-58.5 67.5t-84 37.5t-101.5 12.5q-25 0 -67 -5v-429z" />
<glyph unicode="&#x45a;" horiz-adv-x="1316" d="M119 0v1060h168v-412h298v412h166v-385q15 1 50.5 4t53.5 3q82 0 154 -21t128 -62t88.5 -107t32.5 -151q0 -154 -116 -251q-65 -51 -155.5 -76t-191.5 -25q-92 0 -210 15v506h-298v-510h-168zM751 127q40 -6 84 -6q68 0 123 23t91 73.5t36 121.5q0 55 -21.5 96.5t-59 66 t-84 36.5t-100.5 12q-26 0 -69 -4v-419z" />
<glyph unicode="&#x45b;" horiz-adv-x="908" d="M27 1227v118h113v171h169v-171h383v-118h-383v-284h5q32 56 87 92q59 36 143 36q51 0 94.5 -21.5t78.5 -64.5t54.5 -116t19.5 -168v-701h-168v679q0 250 -143 250q-66 0 -107.5 -47t-56.5 -121q-7 -32 -7 -90v-671h-169v1227h-113z" />
<glyph unicode="&#x45c;" horiz-adv-x="803" d="M119 0v1060h163v-460h25l278 460h189l-331 -477q183 -31 256 -301q1 -5 14 -52.5t18 -64.5t15.5 -53.5t20 -62.5t19.5 -49h-171q-28 63 -76 247q-33 117 -86.5 173.5t-151.5 56.5h-19v-477h-163zM316 1198l169 297h172l-230 -297h-111z" />
<glyph unicode="&#x45e;" horiz-adv-x="757" d="M29 1060h178l140 -608q5 -22 44 -220h4q10 56 46 217l124 611h167l-173 -681q-29 -115 -52.5 -200t-56 -179.5t-71.5 -170.5t-84 -134q-50 -63 -102 -104t-88 -58l-61 145q77 43 149 134q62 77 96 177q12 37 12 53q0 23 -6 39zM132 1462h117q14 -147 130 -147 q117 0 131 147h119q-14 -127 -78 -185t-174 -58q-107 0 -169 58t-76 185z" />
<glyph unicode="&#x45f;" horiz-adv-x="876" d="M119 0v1060h168v-920h303v920h169v-1060h-244l-11 -291h-130l-12 291h-243z" />
<glyph unicode="&#x490;" horiz-adv-x="731" d="M132 0v1477h440l28 246h121l-22 -393h-398v-1330h-169z" />
<glyph unicode="&#x491;" horiz-adv-x="632" d="M119 0v1060h354l25 209h123l-16 -351h-320v-918h-166z" />
<glyph unicode="&#x4d9;" horiz-adv-x="717" d="M61 454q0 28 6 92h489q0 79 -9.5 142.5t-27 106t-40 72.5t-51.5 46t-57.5 23t-61.5 7q-96 0 -177 -42l-29 118q104 60 236 60q124 0 211.5 -66.5t130 -186t42.5 -282.5q0 -255 -98 -406t-259 -151q-63 0 -114.5 26t-86 70t-58.5 103.5t-35 126.5t-11 141zM224 421 q-2 -147 45 -224.5t114 -77.5q40 0 72.5 26.5t53 71t32.5 96.5t15 108h-332z" />
<glyph unicode="&#x1e80;" horiz-adv-x="1432" d="M44 1477h175l126 -712q49 -297 71 -533h9q6 66 17 143t18 117t27.5 145.5t25.5 129.5l135 710h145l136 -695l6 -33q21 -108 31.5 -168.5t25 -159t22.5 -189.5h7q29 253 79 542l123 703h164l-287 -1477h-165l-142 719q-53 283 -74 484h-4q-36 -276 -82 -490l-146 -713 h-159zM414 1792h199l209 -236h-134z" />
<glyph unicode="&#x1e81;" horiz-adv-x="1240" d="M29 1060h174l104 -519q6 -36 19.5 -107t22.5 -126.5t15 -104.5h8q20 143 67 334l122 523h129l117 -508q47 -211 67 -349h9q15 135 58 343l100 514h168l-266 -1060h-138l-123 515q-31 116 -59 317h-5q-21 -160 -62 -324l-127 -508h-142zM366 1495h173l169 -297h-112z" />
<glyph unicode="&#x1e82;" horiz-adv-x="1432" d="M44 1477h175l126 -712q49 -297 71 -533h9q6 66 17 143t18 117t27.5 145.5t25.5 129.5l135 710h145l136 -695l6 -33q21 -108 31.5 -168.5t25 -159t22.5 -189.5h7q29 253 79 542l123 703h164l-287 -1477h-165l-142 719q-53 283 -74 484h-4q-36 -276 -82 -490l-146 -713 h-159zM625 1556l205 236h200l-271 -236h-134z" />
<glyph unicode="&#x1e83;" horiz-adv-x="1240" d="M29 1060h174l104 -519q6 -36 19.5 -107t22.5 -126.5t15 -104.5h8q20 143 67 334l122 523h129l117 -508q47 -211 67 -349h9q15 135 58 343l100 514h168l-266 -1060h-138l-123 515q-31 116 -59 317h-5q-21 -160 -62 -324l-127 -508h-142zM550 1198l169 297h173l-231 -297 h-111z" />
<glyph unicode="&#x1e84;" horiz-adv-x="1432" d="M44 1477h175l126 -712q49 -297 71 -533h9q6 66 17 143t18 117t27.5 145.5t25.5 129.5l135 710h145l136 -695l6 -33q21 -108 31.5 -168.5t25 -159t22.5 -189.5h7q29 253 79 542l123 703h164l-287 -1477h-165l-142 719q-53 283 -74 484h-4q-36 -276 -82 -490l-146 -713 h-159zM452 1690q0 43 27 72.5t67 29.5q42 0 68 -29t26 -73q0 -31 -11.5 -53.5t-33 -35t-49.5 -12.5h-2q-27 0 -47.5 12.5t-32.5 35.5t-12 53zM805 1690q0 44 27.5 73t68.5 29q42 0 68 -29t26 -73q0 -31 -11.5 -53.5t-33 -35t-49.5 -12.5h-2q-40 0 -67 28t-27 73z" />
<glyph unicode="&#x1e85;" horiz-adv-x="1240" d="M29 1060h174l104 -519q6 -36 19.5 -107t22.5 -126.5t15 -104.5h8q20 143 67 334l122 523h129l117 -508q47 -211 67 -349h9q15 135 58 343l100 514h168l-266 -1060h-138l-123 515q-31 116 -59 317h-5q-21 -160 -62 -324l-127 -508h-142zM353 1336q0 43 28.5 71t70.5 28 q39 0 65.5 -27.5t26.5 -71.5q0 -41 -26.5 -68.5t-65.5 -27.5h-3q-39 0 -67.5 28t-28.5 68zM694 1336q0 42 28.5 70.5t68.5 28.5q26 0 47.5 -12.5t34 -35t12.5 -51.5q0 -41 -27 -68.5t-67 -27.5h-2q-26 0 -48 12.5t-34.5 35t-12.5 48.5z" />
<glyph unicode="&#x1ea0;" horiz-adv-x="952" d="M48 0l337 1477h187l329 -1477h-167l-98 443h-327l-98 -443h-163zM333 579h280l-76 374q-30 150 -60 337h-8q-26 -169 -59 -337zM372 -274q0 42 28.5 70.5t70.5 28.5q39 0 65.5 -28t26.5 -71q0 -41 -27 -68.5t-67 -27.5t-68.5 28t-28.5 68z" />
<glyph unicode="&#x1ea1;" horiz-adv-x="797" d="M57 285q0 77 24 141t66 108.5t99.5 75.5t123 45.5t138.5 15.5v32q0 56 -7.5 98t-26 75.5t-52.5 51t-83 17.5q-90 0 -174 -56l-38 119q37 28 105.5 49.5t141.5 21.5q305 0 305 -380v-458q0 -174 11 -241h-153l-11 111h-7q-35 -61 -89 -94.5t-121 -33.5q-108 0 -180 83.5 t-72 218.5zM221 303q0 -95 39.5 -142.5t90.5 -47.5q58 0 100.5 42t56.5 119q5 19 5 59v215q-20 0 -38 -1.5t-44.5 -4.5t-49 -11t-47.5 -19.5t-44 -30.5t-35 -43t-25 -58.5t-9 -76.5zM293 -274q0 42 29 70.5t71 28.5q39 0 65.5 -28t26.5 -71q0 -41 -27 -68.5t-67 -27.5 q-26 0 -48.5 12.5t-36 34.5t-13.5 49z" />
<glyph unicode="&#x1ea2;" horiz-adv-x="952" d="M48 0l337 1477h187l329 -1477h-167l-98 443h-327l-98 -443h-163zM305 1777q64 128 186 128q66 0 110.5 -40.5t44.5 -100.5q0 -32 -14.5 -61.5t-33.5 -49t-44.5 -49t-40.5 -57.5l-90 19q8 26 26 50t33 39t27 37t12 46q0 28 -17 45.5t-46 17.5q-15 0 -28 -5.5t-25 -17 t-20 -21t-19 -26.5zM333 579h280l-76 374q-30 150 -60 337h-8q-26 -169 -59 -337z" />
<glyph unicode="&#x1ea3;" horiz-adv-x="797" d="M57 285q0 77 24 141t66 108.5t99.5 75.5t123 45.5t138.5 15.5v32q0 56 -7.5 98t-26 75.5t-52.5 51t-83 17.5q-90 0 -174 -56l-38 119q37 28 105.5 49.5t141.5 21.5q305 0 305 -380v-458q0 -174 11 -241h-153l-11 111h-7q-35 -61 -89 -94.5t-121 -33.5q-108 0 -180 83.5 t-72 218.5zM221 303q0 -95 39.5 -142.5t90.5 -47.5q58 0 100.5 42t56.5 119q5 19 5 59v215q-20 0 -38 -1.5t-44.5 -4.5t-49 -11t-47.5 -19.5t-44 -30.5t-35 -43t-25 -58.5t-9 -76.5zM228 1435q16 39 40.5 67.5t60.5 46t79 17.5q46 0 83 -19.5t57.5 -54.5t20.5 -79 q0 -31 -9.5 -58.5t-26 -50t-33.5 -43t-37 -47t-32 -53.5l-92 20q8 30 27 59.5t36.5 48.5t31 45.5t13.5 52.5q0 31 -19.5 51.5t-50.5 20.5q-29 0 -49.5 -18t-38.5 -52z" />
<glyph unicode="&#x1ea4;" horiz-adv-x="952" d="M48 0l337 1477h187l329 -1477h-167l-98 443h-327l-98 -443h-163zM253 1556l165 215h134l169 -215h-138l-96 125h-4l-96 -125h-134zM333 579h280l-76 374q-30 150 -60 337h-8q-26 -169 -59 -337zM638 1711l144 221h176l-220 -221h-100z" />
<glyph unicode="&#x1ea5;" horiz-adv-x="797" d="M57 285q0 77 24 141t66 108.5t99.5 75.5t123 45.5t138.5 15.5v32q0 56 -7.5 98t-26 75.5t-52.5 51t-83 17.5q-90 0 -174 -56l-38 119q37 28 105.5 49.5t141.5 21.5q305 0 305 -380v-458q0 -174 11 -241h-153l-11 111h-7q-35 -61 -89 -94.5t-121 -33.5q-108 0 -180 83.5 t-72 218.5zM188 1198l138 297h119l138 -297h-123l-69 182h-10l-70 -182h-123zM221 303q0 -95 39.5 -142.5t90.5 -47.5q58 0 100.5 42t56.5 119q5 19 5 59v215q-20 0 -38 -1.5t-44.5 -4.5t-49 -11t-47.5 -19.5t-44 -30.5t-35 -43t-25 -58.5t-9 -76.5zM544 1370l111 256h147 l-169 -256h-89z" />
<glyph unicode="&#x1ea6;" horiz-adv-x="952" d="M48 0l337 1477h187l329 -1477h-167l-98 443h-327l-98 -443h-163zM245 1556l167 215h134l169 -215h-138l-97 125h-5l-94 -125h-136zM333 579h280l-76 374q-30 150 -60 337h-8q-26 -169 -59 -337zM517 1900h175l145 -219h-101z" />
<glyph unicode="&#x1ea7;" horiz-adv-x="797" d="M57 285q0 77 24 141t66 108.5t99.5 75.5t123 45.5t138.5 15.5v32q0 56 -7.5 98t-26 75.5t-52.5 51t-83 17.5q-90 0 -174 -56l-38 119q37 28 105.5 49.5t141.5 21.5q305 0 305 -380v-458q0 -174 11 -241h-153l-11 111h-7q-35 -61 -89 -94.5t-121 -33.5q-108 0 -180 83.5 t-72 218.5zM193 1198l138 297h118l138 -297h-123l-69 182h-10l-69 -182h-123zM221 303q0 -95 39.5 -142.5t90.5 -47.5q58 0 100.5 42t56.5 119q5 19 5 59v215q-20 0 -38 -1.5t-44.5 -4.5t-49 -11t-47.5 -19.5t-44 -30.5t-35 -43t-25 -58.5t-9 -76.5zM449 1626h149l99 -254 h-90z" />
<glyph unicode="&#x1ea8;" horiz-adv-x="952" d="M48 0l337 1477h187l329 -1477h-167l-98 443h-327l-98 -443h-163zM249 1556l167 215h132l169 -215h-138l-94 125h-5l-97 -125h-134zM333 579h280l-76 374q-30 150 -60 337h-8q-26 -169 -59 -337zM556 1871q28 56 73 89.5t107 33.5q63 0 105 -38.5t42 -94.5 q0 -33 -14.5 -62t-33 -48t-44.5 -48t-42 -55l-78 20q7 20 20 39.5t26 33t25 28t19.5 31t7.5 34.5q0 28 -17 46t-44 18q-29 0 -50 -18t-45 -52z" />
<glyph unicode="&#x1ea9;" horiz-adv-x="797" d="M57 285q0 77 24 141t66 108.5t99.5 75.5t123 45.5t138.5 15.5v32q0 56 -7.5 98t-26 75.5t-52.5 51t-83 17.5q-90 0 -174 -56l-38 119q37 28 105.5 49.5t141.5 21.5q305 0 305 -380v-458q0 -174 11 -241h-153l-11 111h-7q-35 -61 -89 -94.5t-121 -33.5q-108 0 -180 83.5 t-72 218.5zM186 1198l138 297h119l138 -297h-123l-71 182h-8l-70 -182h-123zM221 303q0 -95 39.5 -142.5t90.5 -47.5q58 0 100.5 42t56.5 119q5 19 5 59v215q-20 0 -38 -1.5t-44.5 -4.5t-49 -11t-47.5 -19.5t-44 -30.5t-35 -43t-25 -58.5t-9 -76.5zM441 1589q60 122 174 122 q44 0 79 -18t55 -49.5t20 -70.5q0 -32 -14 -60t-33 -46t-44 -45.5t-40 -54.5l-84 18q8 25 25.5 48.5t32.5 38.5t27 36t12 44q0 28 -17.5 45.5t-46.5 17.5q-47 0 -89 -70z" />
<glyph unicode="&#x1eaa;" horiz-adv-x="952" d="M48 0l337 1477h187l329 -1477h-167l-98 443h-327l-98 -443h-163zM219 1556l189 215h144l193 -215h-149l-113 121h-6l-113 -121h-145zM249 1797q-1 49 14 90t46.5 67.5t73.5 26.5q7 0 14 -0.5t14 -2.5t11.5 -3t12.5 -4t11 -4t12 -6t10 -5.5t11 -6l10 -5.5q3 -1 15 -8 t15.5 -9t13.5 -6.5t16 -6.5t14 -3.5t16 -1.5q25 0 38 17t16 59h88q0 -87 -33.5 -136.5t-102.5 -49.5q-6 0 -12 0.5t-11 1.5t-12 3t-11 3.5t-11.5 5t-10 4.5t-10.5 5l-10 5t-10.5 6t-9.5 5q-9 5 -26.5 15.5t-30 15.5t-25.5 5q-47 0 -54 -77h-92zM333 579h280l-76 374 q-30 150 -60 337h-8q-26 -169 -59 -337z" />
<glyph unicode="&#x1eab;" horiz-adv-x="797" d="M57 285q0 77 24 141t66 108.5t99.5 75.5t123 45.5t138.5 15.5v32q0 56 -7.5 98t-26 75.5t-52.5 51t-83 17.5q-90 0 -174 -56l-38 119q37 28 105.5 49.5t141.5 21.5q305 0 305 -380v-458q0 -174 11 -241h-153l-11 111h-7q-35 -61 -89 -94.5t-121 -33.5q-108 0 -180 83.5 t-72 218.5zM169 1449q-3 76 32.5 131t99.5 55q11 0 22 -2t18 -3.5t19.5 -7t15.5 -7t17 -9.5t15 -8q5 -3 14.5 -9t15 -8.5t14 -7t14.5 -6.5t14 -3.5t15 -1.5q27 0 40 16.5t15 58.5h90q0 -85 -35 -135.5t-103 -50.5q-18 0 -39.5 7.5t-32.5 13.5t-33 19q-7 3 -22.5 11.5 t-22.5 12t-18 7t-20 3.5q-45 0 -55 -76h-90zM175 1198l166 226h117l167 -226h-134l-90 132h-4l-88 -132h-134zM221 303q0 -95 39.5 -142.5t90.5 -47.5q58 0 100.5 42t56.5 119q5 19 5 59v215q-20 0 -38 -1.5t-44.5 -4.5t-49 -11t-47.5 -19.5t-44 -30.5t-35 -43t-25 -58.5 t-9 -76.5z" />
<glyph unicode="&#x1eac;" horiz-adv-x="952" d="M48 0l337 1477h187l329 -1477h-167l-98 443h-327l-98 -443h-163zM217 1556l189 215h146l191 -215h-149l-114 121h-5l-111 -121h-147zM333 579h280l-76 374q-30 150 -60 337h-8q-26 -169 -59 -337zM379 -274q0 42 28.5 70.5t69.5 28.5t69.5 -28.5t28.5 -70.5 q0 -40 -28.5 -68t-69.5 -28h-2q-39 0 -67.5 28.5t-28.5 67.5z" />
<glyph unicode="&#x1ead;" horiz-adv-x="797" d="M57 285q0 77 24 141t66 108.5t99.5 75.5t123 45.5t138.5 15.5v32q0 56 -7.5 98t-26 75.5t-52.5 51t-83 17.5q-90 0 -174 -56l-38 119q37 28 105.5 49.5t141.5 21.5q305 0 305 -380v-458q0 -174 11 -241h-153l-11 111h-7q-35 -61 -89 -94.5t-121 -33.5q-108 0 -180 83.5 t-72 218.5zM169 1198l172 297h115l173 -297h-125l-103 189h-4l-102 -189h-126zM221 303q0 -95 39.5 -142.5t90.5 -47.5q58 0 100.5 42t56.5 119q5 19 5 59v215q-20 0 -38 -1.5t-44.5 -4.5t-49 -11t-47.5 -19.5t-44 -30.5t-35 -43t-25 -58.5t-9 -76.5zM293 -274q0 42 29 70.5 t71 28.5q39 0 65.5 -28t26.5 -71q0 -41 -27 -68.5t-67 -27.5q-26 0 -48.5 12.5t-36 34.5t-13.5 49z" />
<glyph unicode="&#x1eae;" horiz-adv-x="952" d="M48 0l337 1477h187l329 -1477h-167l-98 443h-327l-98 -443h-163zM247 1721h88q11 -46 48.5 -70.5t93.5 -24.5q126 0 150 95h88q-13 -91 -77 -144.5t-158 -53.5q-63 0 -113 23.5t-81 68.5t-39 106zM333 579h280l-76 374q-30 150 -60 337h-8q-26 -169 -59 -337zM414 1698 l147 222h175l-219 -222h-103z" />
<glyph unicode="&#x1eaf;" horiz-adv-x="797" d="M57 285q0 77 24 141t66 108.5t99.5 75.5t123 45.5t138.5 15.5v32q0 56 -7.5 98t-26 75.5t-52.5 51t-83 17.5q-90 0 -174 -56l-38 119q37 28 105.5 49.5t141.5 21.5q305 0 305 -380v-458q0 -174 11 -241h-153l-11 111h-7q-35 -61 -89 -94.5t-121 -33.5q-108 0 -180 83.5 t-72 218.5zM157 1411h92q3 -39 22.5 -69.5t51.5 -47t72 -16.5q44 0 77 17t51.5 47t22.5 69h90q3 -108 -64 -175.5t-177 -67.5t-175.5 69t-62.5 174zM221 303q0 -95 39.5 -142.5t90.5 -47.5q58 0 100.5 42t56.5 119q5 19 5 59v215q-20 0 -38 -1.5t-44.5 -4.5t-49 -11 t-47.5 -19.5t-44 -30.5t-35 -43t-25 -58.5t-9 -76.5zM326 1365l143 250h162l-202 -250h-103z" />
<glyph unicode="&#x1eb0;" horiz-adv-x="952" d="M48 0l337 1477h187l329 -1477h-167l-98 443h-327l-98 -443h-163zM232 1920h176l146 -222h-102zM243 1721h88q12 -46 49 -70.5t95 -24.5q124 0 148 95h87q-12 -91 -76.5 -144.5t-158.5 -53.5q-96 0 -158.5 53t-73.5 145zM333 579h280l-76 374q-30 150 -60 337h-8 q-26 -169 -59 -337z" />
<glyph unicode="&#x1eb1;" horiz-adv-x="797" d="M57 285q0 77 24 141t66 108.5t99.5 75.5t123 45.5t138.5 15.5v32q0 56 -7.5 98t-26 75.5t-52.5 51t-83 17.5q-90 0 -174 -56l-38 119q37 28 105.5 49.5t141.5 21.5q305 0 305 -380v-458q0 -174 11 -241h-153l-11 111h-7q-35 -61 -89 -94.5t-121 -33.5q-108 0 -180 83.5 t-72 218.5zM160 1411h93q4 -59 43.5 -96t100.5 -37q44 0 77.5 17t52 47t21.5 69h90q3 -108 -64 -175.5t-177 -67.5q-73 0 -128 32t-83 87t-26 124zM160 1615h162l140 -250h-102zM221 303q0 -95 39.5 -142.5t90.5 -47.5q58 0 100.5 42t56.5 119q5 19 5 59v215q-20 0 -38 -1.5 t-44.5 -4.5t-49 -11t-47.5 -19.5t-44 -30.5t-35 -43t-25 -58.5t-9 -76.5z" />
<glyph unicode="&#x1eb2;" horiz-adv-x="952" d="M48 0l337 1477h187l329 -1477h-167l-98 443h-327l-98 -443h-163zM243 1721h90q11 -46 48 -70.5t94 -24.5q126 0 150 95h88q-13 -91 -78.5 -144.5t-159.5 -53.5q-63 0 -112.5 23.5t-80.5 68t-39 106.5zM307 1898q60 122 180 122q31 0 58 -10.5t46.5 -28t30.5 -42.5t11 -53 q0 -32 -14 -61t-33 -48t-45 -48t-41 -54l-79 19q8 24 26 48t33 39t27 36.5t12 43.5q0 28 -17.5 45.5t-45.5 17.5q-50 0 -92 -70zM333 579h280l-76 374q-30 150 -60 337h-8q-26 -169 -59 -337z" />
<glyph unicode="&#x1eb3;" horiz-adv-x="797" d="M57 285q0 77 24 141t66 108.5t99.5 75.5t123 45.5t138.5 15.5v32q0 56 -7.5 98t-26 75.5t-52.5 51t-83 17.5q-90 0 -174 -56l-38 119q37 28 105.5 49.5t141.5 21.5q305 0 305 -380v-458q0 -174 11 -241h-153l-11 111h-7q-35 -61 -89 -94.5t-121 -33.5q-108 0 -180 83.5 t-72 218.5zM160 1411h93q4 -59 43.5 -96t100.5 -37q44 0 77.5 17t52 47t21.5 69h90q3 -108 -64 -175.5t-177 -67.5q-73 0 -128 32t-83 87t-26 124zM221 303q0 -95 39.5 -142.5t90.5 -47.5q58 0 100.5 42t56.5 119q5 19 5 59v215q-20 0 -38 -1.5t-44.5 -4.5t-49 -11 t-47.5 -19.5t-44 -30.5t-35 -43t-25 -58.5t-9 -76.5zM226 1569q64 123 177 123q67 0 111.5 -38.5t44.5 -97.5q0 -33 -15 -61t-34 -46.5t-44.5 -46.5t-40.5 -54l-84 17q8 26 25.5 49.5t33 38t27.5 35.5t12 44q0 26 -19 43.5t-48 17.5q-46 0 -87 -68z" />
<glyph unicode="&#x1eb4;" horiz-adv-x="952" d="M48 0l337 1477h187l329 -1477h-167l-98 443h-327l-98 -443h-163zM239 1721h87q13 -46 50 -70.5t95 -24.5q124 0 147 95h87q-8 -60 -40 -105t-82 -69t-112 -24q-96 0 -158.5 53t-73.5 145zM243 1794q2 43 16 78t44.5 60t73.5 25q9 0 17.5 -1t17.5 -3.5t14.5 -4.5t15.5 -7 t13.5 -6.5t14.5 -7.5t13 -7q3 -2 17 -10t19 -10.5t15.5 -7.5t18.5 -6.5t16 -1.5q18 0 29.5 7t18.5 24.5t8 45.5h90q0 -57 -14.5 -97.5t-45.5 -64.5t-78 -24q-39 0 -106 40q-6 3 -18 10t-18 10l-15 7.5t-17 6t-16 1.5q-38 0 -50 -56h-94zM333 579h280l-76 374 q-30 150 -60 337h-8q-26 -169 -59 -337z" />
<glyph unicode="&#x1eb5;" horiz-adv-x="797" d="M57 285q0 77 24 141t66 108.5t99.5 75.5t123 45.5t138.5 15.5v32q0 56 -7.5 98t-26 75.5t-52.5 51t-83 17.5q-90 0 -174 -56l-38 119q37 28 105.5 49.5t141.5 21.5q305 0 305 -380v-458q0 -174 11 -241h-153l-11 111h-7q-35 -61 -89 -94.5t-121 -33.5q-108 0 -180 83.5 t-72 218.5zM160 1413h93q2 -40 20.5 -72t51 -50t72.5 -18q44 0 78 18.5t52.5 50.5t20.5 71h90q1 -108 -65.5 -176.5t-176 -68.5t-173.5 69t-63 176zM165 1488q3 68 37.5 116t96.5 48q10 0 21 -2t18 -3.5t18.5 -7t15 -7.5t17 -9t14.5 -8q2 -2 10 -6t10.5 -5.5t9.5 -5t10.5 -5 t9.5 -4.5t10 -4t9.5 -2.5t10.5 -2t10 -0.5q25 0 38 17t15 59h90q0 -86 -34 -136t-102 -50q-8 0 -15.5 1.5t-13.5 2.5t-14.5 4.5t-13 5t-14 6.5t-12 6.5t-13 7t-11.5 6.5q-8 4 -21.5 11t-21.5 11t-19.5 7.5t-21.5 3.5q-39 0 -50 -55h-94zM221 303q0 -95 39.5 -142.5 t90.5 -47.5q58 0 100.5 42t56.5 119q5 19 5 59v215q-20 0 -38 -1.5t-44.5 -4.5t-49 -11t-47.5 -19.5t-44 -30.5t-35 -43t-25 -58.5t-9 -76.5z" />
<glyph unicode="&#x1eb6;" horiz-adv-x="952" d="M48 0l337 1477h187l329 -1477h-167l-98 443h-327l-98 -443h-163zM247 1777h100q8 -44 43.5 -69t89.5 -25q56 0 91 24t44 70h100q0 -95 -62.5 -153t-169.5 -58q-109 0 -172.5 56.5t-63.5 154.5zM333 579h280l-76 374q-30 150 -60 337h-8q-26 -169 -59 -337zM379 -274 q0 42 28.5 70.5t69.5 28.5t69.5 -28.5t28.5 -70.5q0 -40 -28.5 -68t-69.5 -28h-2q-39 0 -67.5 28.5t-28.5 67.5z" />
<glyph unicode="&#x1eb7;" horiz-adv-x="797" d="M57 285q0 77 24 141t66 108.5t99.5 75.5t123 45.5t138.5 15.5v32q0 56 -7.5 98t-26 75.5t-52.5 51t-83 17.5q-90 0 -174 -56l-38 119q37 28 105.5 49.5t141.5 21.5q305 0 305 -380v-458q0 -174 11 -241h-153l-11 111h-7q-35 -61 -89 -94.5t-121 -33.5q-108 0 -180 83.5 t-72 218.5zM167 1466h94q5 -61 42.5 -98.5t93.5 -37.5q63 0 101 37.5t39 98.5h94q2 -72 -25.5 -128t-82 -87.5t-126.5 -31.5q-109 0 -171 70t-59 177zM221 303q0 -95 39.5 -142.5t90.5 -47.5q58 0 100.5 42t56.5 119q5 19 5 59v215q-20 0 -38 -1.5t-44.5 -4.5t-49 -11 t-47.5 -19.5t-44 -30.5t-35 -43t-25 -58.5t-9 -76.5zM293 -274q0 42 29 70.5t71 28.5q39 0 65.5 -28t26.5 -71q0 -41 -27 -68.5t-67 -27.5q-26 0 -48.5 12.5t-36 34.5t-13.5 49z" />
<glyph unicode="&#x1eb8;" horiz-adv-x="774" d="M132 0v1477h562v-147h-393v-487h370v-142h-370v-554h420v-147h-589zM289 -274q0 17 5 32t14 27t21 21t27 14t31 5q42 0 70 -28.5t28 -70.5q0 -40 -28.5 -68t-69.5 -28h-2q-39 0 -67.5 28.5t-28.5 67.5z" />
<glyph unicode="&#x1eb9;" horiz-adv-x="795" d="M73 519q0 257 97.5 408.5t258.5 151.5q63 0 114.5 -26t86 -70t58 -105t34 -128t10.5 -141q0 -68 -2 -94h-494q3 -394 253 -394q105 0 175 42l26 -126q-43 -24 -105 -37t-127 -13q-187 0 -286 142t-99 390zM239 640h330q3 150 -43.5 228.5t-113.5 78.5q-52 0 -91.5 -47.5 t-59 -115.5t-22.5 -144zM293 -274q0 42 29 70.5t71 28.5q39 0 65.5 -28t26.5 -71q0 -41 -27 -68.5t-67 -27.5q-26 0 -48.5 12.5t-36 34.5t-13.5 49z" />
<glyph unicode="&#x1eba;" horiz-adv-x="774" d="M132 0v1477h562v-147h-393v-487h370v-142h-370v-554h420v-147h-589zM241 1777q63 128 186 128q43 0 79 -18.5t56.5 -51t20.5 -71.5q0 -32 -14.5 -61.5t-33.5 -49t-45 -49t-41 -57.5l-89 19q8 26 26 50t33 39t27 37t12 46q0 28 -17 45.5t-46 17.5q-28 0 -48 -18t-44 -52z " />
<glyph unicode="&#x1ebb;" horiz-adv-x="795" d="M73 519q0 257 97.5 408.5t258.5 151.5q63 0 114.5 -26t86 -70t58 -105t34 -128t10.5 -141q0 -68 -2 -94h-494q3 -394 253 -394q105 0 175 42l26 -126q-43 -24 -105 -37t-127 -13q-187 0 -286 142t-99 390zM226 1435q24 59 70.5 95t109.5 36q70 0 115.5 -43t45.5 -110 q0 -38 -15.5 -72.5t-35.5 -57t-46 -56.5t-41 -66l-92 20q8 30 27 59.5t36.5 48.5t31 45.5t13.5 52.5q0 31 -19.5 51.5t-51.5 20.5q-28 0 -48.5 -18t-38.5 -52zM239 640h330q3 150 -43.5 228.5t-113.5 78.5q-52 0 -91.5 -47.5t-59 -115.5t-22.5 -144z" />
<glyph unicode="&#x1ebc;" horiz-adv-x="774" d="M132 0v1477h562v-147h-393v-487h370v-142h-370v-554h420v-147h-589zM182 1573q0 94 35 150t97 56q19 0 40 -6.5t30.5 -12t31.5 -18.5q8 -4 23 -13.5t22.5 -14t19 -8.5t21.5 -4q28 0 41 17.5t18 62.5h87q4 -197 -135 -197q-44 0 -107 37q-2 1 -6 4q-49 32 -74 32 q-24 0 -36.5 -21t-15.5 -64h-92z" />
<glyph unicode="&#x1ebd;" horiz-adv-x="795" d="M73 519q0 257 97.5 408.5t258.5 151.5q63 0 114.5 -26t86 -70t58 -105t34 -128t10.5 -141q0 -68 -2 -94h-494q3 -394 253 -394q105 0 175 42l26 -126q-43 -24 -105 -37t-127 -13q-187 0 -286 142t-99 390zM163 1229q-2 91 32.5 148.5t99.5 57.5q22 0 44 -7t31 -11.5 t33 -18.5q6 -3 19 -10.5t18.5 -10.5t15.5 -8t18 -6.5t17 -1.5q18 0 28.5 6.5t17.5 24t9 48.5h90q0 -93 -35 -145.5t-103 -52.5q-40 0 -107 38q-8 4 -21.5 12.5t-21.5 13t-18.5 8t-20.5 3.5q-48 0 -54 -88h-92zM239 640h330q3 150 -43.5 228.5t-113.5 78.5q-52 0 -91.5 -47.5 t-59 -115.5t-22.5 -144z" />
<glyph unicode="&#x1ebe;" horiz-adv-x="774" d="M132 0v1477h562v-147h-393v-487h370v-142h-370v-554h420v-147h-589zM188 1556l167 215h134l168 -215h-138l-96 125h-5l-94 -125h-136zM575 1711l144 221h176l-220 -221h-100z" />
<glyph unicode="&#x1ebf;" horiz-adv-x="795" d="M73 519q0 257 97.5 408.5t258.5 151.5q63 0 114.5 -26t86 -70t58 -105t34 -128t10.5 -141q0 -68 -2 -94h-494q3 -394 253 -394q105 0 175 42l26 -126q-43 -24 -105 -37t-127 -13q-187 0 -286 142t-99 390zM232 1198l138 297h119l138 -297h-123l-70 182h-9l-70 -182h-123z M239 640h330q3 150 -43.5 228.5t-113.5 78.5q-52 0 -91.5 -47.5t-59 -115.5t-22.5 -144zM587 1370l112 256h147l-169 -256h-90z" />
<glyph unicode="&#x1ec0;" horiz-adv-x="774" d="M132 0v1477h562v-147h-393v-487h370v-142h-370v-554h420v-147h-589zM175 1556l166 215h134l169 -215h-138l-96 125h-4l-95 -125h-136zM447 1900h176l144 -219h-100z" />
<glyph unicode="&#x1ec1;" horiz-adv-x="795" d="M73 519q0 257 97.5 408.5t258.5 151.5q63 0 114.5 -26t86 -70t58 -105t34 -128t10.5 -141q0 -68 -2 -94h-494q3 -394 253 -394q105 0 175 42l26 -126q-43 -24 -105 -37t-127 -13q-187 0 -286 142t-99 390zM232 1198l138 297h119l138 -297h-123l-70 182h-9l-70 -182h-123z M239 640h330q3 150 -43.5 228.5t-113.5 78.5q-52 0 -91.5 -47.5t-59 -115.5t-22.5 -144zM489 1626h149l98 -254h-90z" />
<glyph unicode="&#x1ec2;" horiz-adv-x="774" d="M132 0v1477h562v-147h-393v-487h370v-142h-370v-554h420v-147h-589zM184 1556l167 215h132l168 -215h-138l-95 125h-4l-96 -125h-134zM491 1871q27 56 72.5 89.5t107.5 33.5q31 0 58 -10t46.5 -28t30.5 -43t11 -52q0 -33 -14 -62t-33 -48t-45 -48t-41 -55l-79 20 q7 20 20 39.5t26 33t25 28t19.5 31t7.5 34.5t-8 33t-22 23t-31 8q-20 0 -39 -11.5t-29 -24t-26 -34.5z" />
<glyph unicode="&#x1ec3;" horiz-adv-x="795" d="M73 519q0 257 97.5 408.5t258.5 151.5q63 0 114.5 -26t86 -70t58 -105t34 -128t10.5 -141q0 -68 -2 -94h-494q3 -394 253 -394q105 0 175 42l26 -126q-43 -24 -105 -37t-127 -13q-187 0 -286 142t-99 390zM217 1198l138 297h118l138 -297h-122l-71 182h-8l-71 -182h-122z M239 640h330q3 150 -43.5 228.5t-113.5 78.5q-52 0 -91.5 -47.5t-59 -115.5t-22.5 -144zM471 1589q17 36 40.5 62t58.5 43t76 17q66 0 110 -39.5t44 -98.5q0 -32 -14 -60t-33 -46t-44 -45.5t-40 -54.5l-84 18q8 25 25.5 48.5t32.5 38.5t27 36t12 44q0 28 -17.5 45.5 t-46.5 17.5q-47 0 -89 -70z" />
<glyph unicode="&#x1ec4;" horiz-adv-x="774" d="M132 0v1477h562v-147h-393v-487h370v-142h-370v-554h420v-147h-589zM160 1556l189 215h144l193 -215h-149l-114 121h-5l-113 -121h-145zM190 1797q0 36 8.5 69t25 58.5t42.5 41t58 15.5q8 0 16 -1t14.5 -2.5t14.5 -4.5l12 -4.5t13 -5.5t11.5 -5.5t12 -7t11.5 -6.5 q3 -1 15 -8t16 -9t14 -6.5t15.5 -6.5t13.5 -3.5t16 -1.5q12 0 21 3.5t16.5 12t12 23.5t6.5 37h86q0 -87 -33 -136.5t-102 -49.5q-5 0 -11.5 0.5t-11.5 1.5t-12 3t-11 3.5t-11 5t-10 4.5t-11 5l-10 5t-10.5 6t-9.5 5q-8 4 -26.5 15t-31 16t-25.5 5q-46 0 -53 -77h-92z" />
<glyph unicode="&#x1ec5;" horiz-adv-x="795" d="M73 519q0 257 97.5 408.5t258.5 151.5q63 0 114.5 -26t86 -70t58 -105t34 -128t10.5 -141q0 -68 -2 -94h-494q3 -394 253 -394q105 0 175 42l26 -126q-43 -24 -105 -37t-127 -13q-187 0 -286 142t-99 390zM195 1449q-4 76 32 131t99 55q10 0 19 -1t18 -4t15 -4.5t16 -6.5 l13 -6.5t14.5 -8t12.5 -6.5q6 -4 15.5 -9t14.5 -8t13.5 -7t14.5 -6.5t14 -4t15 -1.5q27 0 40.5 16.5t15.5 58.5h90q0 -85 -35 -135.5t-103 -50.5q-40 0 -106 40q-7 3 -22.5 11.5t-22.5 12t-18 7t-21 3.5q-45 0 -54 -76h-90zM201 1198l167 226h117l166 -226h-134l-90 132h-4 l-88 -132h-134zM239 640h330q3 150 -43.5 228.5t-113.5 78.5q-52 0 -91.5 -47.5t-59 -115.5t-22.5 -144z" />
<glyph unicode="&#x1ec6;" horiz-adv-x="774" d="M132 0v1477h562v-147h-393v-487h370v-142h-370v-554h420v-147h-589zM151 1556l188 215h148l190 -215h-148l-115 121h-4l-111 -121h-148zM318 -274q0 28 13 50.5t35.5 35.5t49.5 13q41 0 69 -28.5t28 -70.5q0 -40 -28 -68t-69 -28h-2q-39 0 -67.5 28.5t-28.5 67.5z" />
<glyph unicode="&#x1ec7;" horiz-adv-x="795" d="M73 519q0 257 97.5 408.5t258.5 151.5q63 0 114.5 -26t86 -70t58 -105t34 -128t10.5 -141q0 -68 -2 -94h-494q3 -394 253 -394q105 0 175 42l26 -126q-43 -24 -105 -37t-127 -13q-187 0 -286 142t-99 390zM167 1198l172 297h115l173 -297h-125l-103 189h-4l-102 -189 h-126zM239 640h330q3 150 -43.5 228.5t-113.5 78.5q-52 0 -91.5 -47.5t-59 -115.5t-22.5 -144zM293 -274q0 42 29 70.5t71 28.5q39 0 65.5 -28t26.5 -71q0 -41 -27 -68.5t-67 -27.5q-26 0 -48.5 12.5t-36 34.5t-13.5 49z" />
<glyph unicode="&#x1ec8;" horiz-adv-x="435" d="M46 1777q64 128 186 128q66 0 110.5 -40.5t44.5 -100.5q0 -32 -14.5 -61.5t-33 -49t-44 -49t-40.5 -57.5l-90 19q8 26 26 50t33.5 39t27 37t11.5 46q0 28 -17.5 45.5t-46.5 17.5q-15 0 -28 -5.5t-25 -17t-20 -21t-19 -26.5zM132 0v1477h169v-1477h-169z" />
<glyph unicode="&#x1ec9;" horiz-adv-x="402" d="M31 1435q25 59 71 95t109 36q70 0 115.5 -43t45.5 -110q0 -38 -15.5 -72.5t-35.5 -57t-46 -56.5t-41 -66l-92 20q8 30 27 59.5t36 48.5t30.5 45.5t13.5 52.5q0 20 -8.5 37t-24.5 26t-36 9q-29 0 -49.5 -18t-38.5 -52zM119 0v1060h168v-1060h-168z" />
<glyph unicode="&#x1eca;" horiz-adv-x="435" d="M121 -274q0 42 28.5 70.5t69.5 28.5t69 -28.5t28 -70.5q0 -40 -28 -68t-69 -28h-2q-39 0 -67.5 28.5t-28.5 67.5zM132 0v1477h169v-1477h-169z" />
<glyph unicode="&#x1ecb;" horiz-adv-x="402" d="M98 -274q0 21 8 39.5t21 31.5t31.5 20.5t38.5 7.5q39 0 65.5 -28t26.5 -71q0 -41 -27 -68.5t-67 -27.5t-68.5 28t-28.5 68zM101 1334.5q0 48.5 28 79t70 30.5q46 0 74 -30.5t28 -79.5q1 -48 -28 -78.5t-76 -30.5q-42 0 -69 30.5t-27 79zM119 0v1060h168v-1060h-168z" />
<glyph unicode="&#x1ecc;" horiz-adv-x="976" d="M71 740q0 360 117.5 557.5t315.5 197.5q190 0 296.5 -197t106.5 -549q0 -162 -21.5 -292t-60 -217.5t-93 -146t-117 -84.5t-135.5 -26q-188 0 -298.5 196t-110.5 561zM245 738q0 -95 7.5 -180t25.5 -164.5t45.5 -136.5t70.5 -91t97 -34q55 0 98 36t69.5 95t43.5 140.5 t23.5 164t6.5 175.5q0 88 -6.5 168.5t-24 161.5t-44 140t-69.5 95.5t-99 36.5q-53 0 -95.5 -34.5t-70 -92t-45.5 -137t-25.5 -164t-7.5 -179.5zM391 -274q0 28 13 50.5t35.5 35.5t49.5 13q41 0 68.5 -28.5t27.5 -70.5q0 -40 -27.5 -68t-68.5 -28h-2q-39 0 -67.5 28.5 t-28.5 67.5z" />
<glyph unicode="&#x1ecd;" horiz-adv-x="838" d="M73 529q0 112 19.5 205t52.5 156t78.5 106t96.5 63t107 20q72 0 133 -34.5t108.5 -100.5t74 -172t26.5 -241q0 -119 -21 -214.5t-56 -156.5t-81.5 -102t-95 -58t-99.5 -17q-72 0 -134 33.5t-109 99t-73.5 171.5t-26.5 242zM241 531q0 -41 2 -79t7.5 -80t14.5 -78 t23.5 -69.5t33 -57t45 -37t58.5 -13.5q41 0 73 27.5t50.5 70t30 100t15.5 109.5t4 107q0 37 -2 73.5t-7 78.5t-13.5 78.5t-22.5 70.5t-32 58t-44 38.5t-56 14.5q-44 0 -77 -28t-52 -70t-31 -99.5t-16 -109t-4 -105.5zM316 -274q0 21 7.5 39.5t21 31.5t31.5 20.5t38 7.5 q40 0 66 -28t26 -71q0 -41 -26.5 -68.5t-67.5 -27.5q-19 0 -37 7.5t-31 20t-20.5 30.5t-7.5 38z" />
<glyph unicode="&#x1ece;" horiz-adv-x="976" d="M71 740q0 360 117.5 557.5t315.5 197.5q190 0 296.5 -197t106.5 -549q0 -162 -21.5 -292t-60 -217.5t-93 -146t-117 -84.5t-135.5 -26q-188 0 -298.5 196t-110.5 561zM245 738q0 -95 7.5 -180t25.5 -164.5t45.5 -136.5t70.5 -91t97 -34q55 0 98 36t69.5 95t43.5 140.5 t23.5 164t6.5 175.5q0 88 -6.5 168.5t-24 161.5t-44 140t-69.5 95.5t-99 36.5q-53 0 -95.5 -34.5t-70 -92t-45.5 -137t-25.5 -164t-7.5 -179.5zM316 1777q63 128 186 128q66 0 110.5 -40.5t44.5 -100.5q0 -32 -14.5 -61.5t-33.5 -49t-45 -49t-41 -57.5l-89 19q9 26 27 50 t33 39t27 37t12 46q0 18 -8 32.5t-22.5 22.5t-33.5 8q-28 0 -48.5 -18t-43.5 -52z" />
<glyph unicode="&#x1ecf;" horiz-adv-x="838" d="M73 529q0 112 19.5 205t52.5 156t78.5 106t96.5 63t107 20q72 0 133 -34.5t108.5 -100.5t74 -172t26.5 -241q0 -119 -21 -214.5t-56 -156.5t-81.5 -102t-95 -58t-99.5 -17q-72 0 -134 33.5t-109 99t-73.5 171.5t-26.5 242zM241 531q0 -41 2 -79t7.5 -80t14.5 -78 t23.5 -69.5t33 -57t45 -37t58.5 -13.5q41 0 73 27.5t50.5 70t30 100t15.5 109.5t4 107q0 37 -2 73.5t-7 78.5t-13.5 78.5t-22.5 70.5t-32 58t-44 38.5t-56 14.5q-44 0 -77 -28t-52 -70t-31 -99.5t-16 -109t-4 -105.5zM247 1435q25 59 71 95t109 36q70 0 116.5 -43.5 t46.5 -109.5q0 -38 -16 -72.5t-36 -57t-46 -56.5t-40 -66l-92 20q8 30 26.5 59.5t36 48.5t31 45.5t13.5 52.5q0 31 -19.5 51.5t-50.5 20.5q-29 0 -49 -18t-39 -52z" />
<glyph unicode="&#x1ed0;" horiz-adv-x="976" d="M71 740q0 360 117.5 557.5t315.5 197.5q190 0 296.5 -197t106.5 -549q0 -162 -21.5 -292t-60 -217.5t-93 -146t-117 -84.5t-135.5 -26q-188 0 -298.5 196t-110.5 561zM245 738q0 -95 7.5 -180t25.5 -164.5t45.5 -136.5t70.5 -91t97 -34q55 0 98 36t69.5 95t43.5 140.5 t23.5 164t6.5 175.5q0 88 -6.5 168.5t-24 161.5t-44 140t-69.5 95.5t-99 36.5q-53 0 -95.5 -34.5t-70 -92t-45.5 -137t-25.5 -164t-7.5 -179.5zM272 1556l167 215h133l168 -215h-138l-96 125h-4l-94 -125h-136zM657 1711l145 221h175l-218 -221h-102z" />
<glyph unicode="&#x1ed1;" horiz-adv-x="838" d="M73 529q0 112 19.5 205t52.5 156t78.5 106t96.5 63t107 20q72 0 133 -34.5t108.5 -100.5t74 -172t26.5 -241q0 -119 -21 -214.5t-56 -156.5t-81.5 -102t-95 -58t-99.5 -17q-72 0 -134 33.5t-109 99t-73.5 171.5t-26.5 242zM230 1198l138 297h119l138 -297h-123l-71 182 h-8l-70 -182h-123zM241 531q0 -41 2 -79t7.5 -80t14.5 -78t23.5 -69.5t33 -57t45 -37t58.5 -13.5q41 0 73 27.5t50.5 70t30 100t15.5 109.5t4 107q0 37 -2 73.5t-7 78.5t-13.5 78.5t-22.5 70.5t-32 58t-44 38.5t-56 14.5q-44 0 -77 -28t-52 -70t-31 -99.5t-16 -109 t-4 -105.5zM585 1370l112 256h146l-168 -256h-90z" />
<glyph unicode="&#x1ed2;" horiz-adv-x="976" d="M71 740q0 360 117.5 557.5t315.5 197.5q190 0 296.5 -197t106.5 -549q0 -162 -21.5 -292t-60 -217.5t-93 -146t-117 -84.5t-135.5 -26q-188 0 -298.5 196t-110.5 561zM245 738q0 -95 7.5 -180t25.5 -164.5t45.5 -136.5t70.5 -91t97 -34q55 0 98 36t69.5 95t43.5 140.5 t23.5 164t6.5 175.5q0 88 -6.5 168.5t-24 161.5t-44 140t-69.5 95.5t-99 36.5q-53 0 -95.5 -34.5t-70 -92t-45.5 -137t-25.5 -164t-7.5 -179.5zM263 1556l166 215h134l169 -215h-138l-96 125h-5l-94 -125h-136zM535 1900h175l145 -219h-101z" />
<glyph unicode="&#x1ed3;" horiz-adv-x="838" d="M73 529q0 112 19.5 205t52.5 156t78.5 106t96.5 63t107 20q72 0 133 -34.5t108.5 -100.5t74 -172t26.5 -241q0 -119 -21 -214.5t-56 -156.5t-81.5 -102t-95 -58t-99.5 -17q-72 0 -134 33.5t-109 99t-73.5 171.5t-26.5 242zM232 1198l138 297h119l138 -297h-123l-70 182 h-9l-70 -182h-123zM241 531q0 -41 2 -79t7.5 -80t14.5 -78t23.5 -69.5t33 -57t45 -37t58.5 -13.5q41 0 73 27.5t50.5 70t30 100t15.5 109.5t4 107q0 37 -2 73.5t-7 78.5t-13.5 78.5t-22.5 70.5t-32 58t-44 38.5t-56 14.5q-44 0 -77 -28t-52 -70t-31 -99.5t-16 -109 t-4 -105.5zM489 1626h149l98 -254h-90z" />
<glyph unicode="&#x1ed4;" horiz-adv-x="976" d="M71 740q0 360 117.5 557.5t315.5 197.5q190 0 296.5 -197t106.5 -549q0 -162 -21.5 -292t-60 -217.5t-93 -146t-117 -84.5t-135.5 -26q-188 0 -298.5 196t-110.5 561zM245 738q0 -95 7.5 -180t25.5 -164.5t45.5 -136.5t70.5 -91t97 -34q55 0 98 36t69.5 95t43.5 140.5 t23.5 164t6.5 175.5q0 88 -6.5 168.5t-24 161.5t-44 140t-69.5 95.5t-99 36.5q-53 0 -95.5 -34.5t-70 -92t-45.5 -137t-25.5 -164t-7.5 -179.5zM263 1556l166 215h132l169 -215h-138l-94 125h-5l-96 -125h-134zM569 1871q27 56 72.5 89.5t107.5 33.5q41 0 75 -17.5t53.5 -48 t19.5 -67.5q0 -33 -14.5 -62t-33 -48t-45 -48t-41.5 -55l-79 20q8 25 26 48.5t33 38.5t27 36t12 43q0 28 -17 46t-44 18q-20 0 -38.5 -11.5t-29 -24t-26.5 -34.5z" />
<glyph unicode="&#x1ed5;" horiz-adv-x="838" d="M73 529q0 112 19.5 205t52.5 156t78.5 106t96.5 63t107 20q72 0 133 -34.5t108.5 -100.5t74 -172t26.5 -241q0 -119 -21 -214.5t-56 -156.5t-81.5 -102t-95 -58t-99.5 -17q-72 0 -134 33.5t-109 99t-73.5 171.5t-26.5 242zM228 1198l138 297h119l138 -297h-123l-71 182 h-8l-70 -182h-123zM241 531q0 -41 2 -79t7.5 -80t14.5 -78t23.5 -69.5t33 -57t45 -37t58.5 -13.5q41 0 73 27.5t50.5 70t30 100t15.5 109.5t4 107q0 37 -2 73.5t-7 78.5t-13.5 78.5t-22.5 70.5t-32 58t-44 38.5t-56 14.5q-44 0 -77 -28t-52 -70t-31 -99.5t-16 -109 t-4 -105.5zM483 1589q60 122 174 122q66 0 110 -39.5t44 -98.5q0 -32 -14.5 -60t-33 -46t-44 -45.5t-40.5 -54.5l-83 18q8 25 25 48.5t32.5 38.5t27 36t11.5 44q0 28 -17.5 45.5t-45.5 17.5q-48 0 -90 -70z" />
<glyph unicode="&#x1ed6;" horiz-adv-x="976" d="M71 740q0 360 117.5 557.5t315.5 197.5q190 0 296.5 -197t106.5 -549q0 -162 -21.5 -292t-60 -217.5t-93 -146t-117 -84.5t-135.5 -26q-188 0 -298.5 196t-110.5 561zM230 1556l188 215h145l193 -215h-149l-114 121h-4l-115 -121h-144zM245 738q0 -95 7.5 -180 t25.5 -164.5t45.5 -136.5t70.5 -91t97 -34q55 0 98 36t69.5 95t43.5 140.5t23.5 164t6.5 175.5q0 88 -6.5 168.5t-24 161.5t-44 140t-69.5 95.5t-99 36.5q-53 0 -95.5 -34.5t-70 -92t-45.5 -137t-25.5 -164t-7.5 -179.5zM261 1797q-2 76 34.5 130t99.5 54q8 0 16 -1t14 -2.5 t14.5 -4.5t12.5 -4.5t12.5 -5.5t11.5 -5.5t12.5 -7t11.5 -6.5t14.5 -8t16 -9t13.5 -6.5t16 -6.5t14 -3.5t16 -1.5q24 0 37.5 17t16.5 59h88q0 -87 -34 -136.5t-102 -49.5q-7 0 -15 1t-14 2.5t-14.5 4.5t-13 5t-14 6.5t-12 6t-13 7.5t-11.5 6q-9 4 -27 15t-30.5 16t-25.5 5 q-46 0 -53 -77h-92z" />
<glyph unicode="&#x1ed7;" horiz-adv-x="838" d="M73 529q0 112 19.5 205t52.5 156t78.5 106t96.5 63t107 20q72 0 133 -34.5t108.5 -100.5t74 -172t26.5 -241q0 -119 -21 -214.5t-56 -156.5t-81.5 -102t-95 -58t-99.5 -17q-72 0 -134 33.5t-109 99t-73.5 171.5t-26.5 242zM190 1449q-3 76 33 131t99 55q11 0 22.5 -2 t18.5 -3.5t19 -7t15 -7t17 -9.5t15 -8q4 -3 17.5 -10.5t19 -10t15.5 -7t18.5 -6.5t17.5 -2q26 0 40 16.5t15 58.5h89q0 -85 -34.5 -135.5t-103.5 -50.5q-18 0 -39.5 7.5t-32.5 13.5t-33 19q-7 3 -22.5 11.5t-22.5 12t-18 7t-20 3.5q-45 0 -55 -76h-90zM197 1198l167 226h116 l166 -226h-133l-90 132h-5l-87 -132h-134zM241 531q0 -41 2 -79t7.5 -80t14.5 -78t23.5 -69.5t33 -57t45 -37t58.5 -13.5q41 0 73 27.5t50.5 70t30 100t15.5 109.5t4 107q0 37 -2 73.5t-7 78.5t-13.5 78.5t-22.5 70.5t-32 58t-44 38.5t-56 14.5q-44 0 -77 -28t-52 -70 t-31 -99.5t-16 -109t-4 -105.5z" />
</font>
</defs>
</svg>
