<?xml version="1.0" standalone="no"?>
<!DOCTYPE svg PUBLIC "-//W3C//DTD SVG 1.1//EN" "http://www.w3.org/Graphics/SVG/1.1/DTD/svg11.dtd" >
<svg xmlns="http://www.w3.org/2000/svg">
<metadata></metadata>
<defs>
<font id="myriad_proregular" horiz-adv-x="656" >
<font-face units-per-em="2048" ascent="1536" descent="-512" />
<missing-glyph horiz-adv-x="464" />
<glyph unicode="ffj" horiz-adv-x="1771" d="M31 914v146h149v38q0 229 127 353q103 103 272 103q34 0 71.5 -8t65 -18.5t49.5 -22.5l-52 -142q-65 38 -134 38q-86 0 -138 -56q-71 -76 -71 -247v-38h447v57q0 214 122 338.5t343 124.5q72 0 146 -19t117 -49l-57 -145q-38 25 -95 41t-120 16q-59 0 -105 -16.5t-76 -44 t-49 -68t-27 -85t-8 -97.5v-53h618v-966q0 -159 -29 -262t-98 -173q-60 -60 -151.5 -90.5t-176.5 -30.5l-21 151q146 10 211 81q40 45 56 128.5t16 270.5v745h-423v-914h-193v914h-447v-914h-190v914h-149z" />
<glyph unicode="fj" horiz-adv-x="1143" d="M31 914v146h149v57q0 214 120.5 338.5t341.5 124.5q74 0 151.5 -20t118.5 -50l-55 -147q-37 27 -96.5 44t-127.5 17q-263 0 -263 -311v-53h617v-966q0 -159 -29.5 -262t-98.5 -173q-58 -60 -150 -90.5t-178 -30.5l-21 151q146 10 211 81q41 46 57.5 130t16.5 269v745 h-425v-914h-190v914h-149z" />
<glyph unicode="ff" horiz-adv-x="1276" d="M31 914v146h149v31q0 243 119 362q97 101 266 101q79 0 152 -38l-40 -144q-55 29 -114 29q-55 0 -93.5 -22.5t-59.5 -64t-30.5 -92.5t-9.5 -118v-44h445v51q0 251 126 370q35 34 79 57t87.5 32.5t88.5 9.5q87 0 165 -31l-25 -148q-56 23 -124 23q-206 0 -206 -307v-57 h257v-146h-255v-914h-193v914h-445v-914h-190v914h-149z" />
<glyph unicode="fi" horiz-adv-x="1145" d="M31 914v146h149v57q0 214 120.5 338.5t341.5 124.5q74 0 151.5 -20t118.5 -50l-55 -147q-37 27 -96.5 44t-127.5 17q-263 0 -263 -311v-53h617v-1060h-192v914h-425v-914h-190v914h-149z" />
<glyph unicode="fl" horiz-adv-x="1145" d="M31 914v146h149v46q0 112 38 206.5t110 159.5q128 108 341 108q61 0 119 -8.5t108.5 -24t90.5 -37.5v-1510h-192v1403q-54 28 -157 28q-73 0 -126.5 -25.5t-83.5 -70.5t-44 -100t-14 -122v-53h248v-146h-248v-914h-190v914h-149z" />
<glyph unicode="ffi" horiz-adv-x="1785" d="M31 914v146h149v38q0 229 127 353q103 103 272 103q34 0 71.5 -8t65 -18.5t49.5 -22.5l-52 -142q-65 38 -134 38q-86 0 -138 -56q-71 -76 -71 -247v-38h447v57q0 214 122 338.5t343 124.5q72 0 146 -19t117 -49l-57 -145q-38 25 -95 41t-120 16q-59 0 -105 -16.5t-76 -44 t-49 -68t-27 -85t-8 -97.5v-53h618v-1060h-193v914h-423v-914h-193v914h-447v-914h-190v914h-149z" />
<glyph unicode="ffl" horiz-adv-x="1785" d="M31 914v146h149v25q0 241 123 362q107 107 287 107q48 0 96.5 -13t78.5 -29l-50 -145q-62 34 -132 34q-91 0 -142 -58q-71 -74 -71 -243v-40h447v46q0 74 17.5 141t51.5 124.5t82 100.5q125 108 341 108q186 0 317 -70v-1510h-191v1403q-58 28 -160 28q-48 0 -88.5 -11.5 t-69 -33t-50 -50.5t-34.5 -65t-19 -75t-6 -83v-53h250v-146h-248v-914h-193v914h-447v-914h-190v914h-149z" />
<glyph unicode=" "  horiz-adv-x="464" />
<glyph unicode="&#x09;" horiz-adv-x="464" />
<glyph unicode="&#xa0;" horiz-adv-x="464" />
<glyph unicode="!" horiz-adv-x="503" d="M123 111q0 60 36.5 98t93.5 38q58 0 93 -38t35 -98q0 -38 -15.5 -69t-45 -49t-67.5 -18h-4q-36 0 -65 18t-45 49t-16 69zM147 1477h210l-31 -1052h-148z" />
<glyph unicode="&#x22;" horiz-adv-x="738" d="M111 1516h192l-38 -525h-118zM439 1516h190l-37 -525h-117z" />
<glyph unicode="#" horiz-adv-x="1088" d="M81 429v130h199l42 317h-188v130h207l58 418h127l-55 -418h228l57 418h129l-55 -418h180v-130h-199l-40 -317h189v-130h-209l-57 -429h-131l58 429h-228l-58 -429h-132l58 429h-180zM412 559h228l42 317h-228z" />
<glyph unicode="$" horiz-adv-x="1123" d="M142 129l53 147q63 -42 145.5 -68t169.5 -26q116 0 188.5 60.5t72.5 154.5q0 88 -60.5 148.5t-187.5 111.5q-88 35 -151 70t-112 80.5t-73 102.5t-24 127q0 136 89.5 231.5t240.5 120.5v221h136v-212q164 -5 285 -77l-55 -144q-127 74 -276 74q-60 0 -107 -17t-73 -45 t-39 -60t-13 -66q0 -43 15 -76t50 -62.5t83 -54.5t124 -57q174 -71 256.5 -165t82.5 -236q0 -88 -39 -165t-118.5 -133t-189.5 -74v-228h-138v221q-94 2 -185 28.5t-150 67.5z" />
<glyph unicode="%" horiz-adv-x="1735" d="M65 1004q0 104 27.5 189t74.5 140.5t109.5 85.5t133.5 30h2q150 0 239 -112.5t89 -313.5q0 -110 -27 -196.5t-74.5 -141t-108.5 -82.5t-131 -28q-67 0 -126.5 27.5t-106 79.5t-73.5 135t-28 187zM219 1010q-3 -139 46.5 -229.5t137.5 -90.5q92 0 138 88t46 236 q0 68 -10 123.5t-31 100t-57.5 69.5t-85.5 25h-2q-57 0 -99 -43.5t-62.5 -115.5t-20.5 -163zM385 -27l838 1478h122l-839 -1478h-121zM995 412q0 84 17.5 156.5t49 125t74.5 90.5t94.5 56.5t108.5 18.5h2q150 0 238.5 -112t88.5 -313q0 -109 -27.5 -196t-74.5 -141.5 t-108 -83t-130 -28.5q-54 0 -103 17t-90.5 52t-72.5 84.5t-48.5 120t-18.5 153.5zM1146 421q-1 -69 11.5 -127.5t36 -101.5t59.5 -67t79 -24q92 0 138 88t46 236q0 67 -10 123t-31.5 100.5t-57.5 69.5t-85 25h-2q-58 0 -100 -43.5t-63 -115.5t-21 -163z" />
<glyph unicode="&#x26;" horiz-adv-x="1325" d="M67 391q0 273 290 431v6q-123 154 -123 309q0 55 15.5 107.5t46.5 99t75 81.5t105.5 55.5t132.5 20.5q140 0 233 -86.5t93 -226.5q0 -119 -76 -214t-248 -181v-7q288 -332 359 -412q99 151 143 433h175q-63 -369 -212 -546q35 -37 75 -79.5t88 -95t80 -86.5h-228 q-53 53 -138 144q-181 -169 -432 -169q-104 0 -191 34t-143.5 91t-88 132t-31.5 159zM253 418q0 -127 84.5 -212t216.5 -85h2q91 0 169 36.5t134 97.5q-249 274 -416 464q-190 -121 -190 -301zM410 1155q0 -73 28.5 -135.5t82.5 -130.5q61 35 102 64.5t76 65t51.5 75 t16.5 85.5q0 35 -10 68t-30 61t-54 45t-77 17h-2q-87 0 -135.5 -62.5t-48.5 -152.5z" />
<glyph unicode="'" horiz-adv-x="411" d="M111 1516h192l-38 -525h-118z" />
<glyph unicode="(" horiz-adv-x="621" d="M140 625q3 517 287 895h152q-276 -369 -276 -895q0 -142 20.5 -271.5t59.5 -239.5t86.5 -201t109.5 -178h-152q-287 378 -287 890z" />
<glyph unicode=")" horiz-adv-x="621" d="M44 -265q276 386 276 896q0 277 -73.5 494t-202.5 395h149q287 -369 287 -891q0 -512 -287 -894h-149z" />
<glyph unicode="*" horiz-adv-x="908" d="M65 1043v149l322 -42v5l-205 267l134 77l136 -305h4l134 307l131 -75l-208 -274v-4l330 44v-149l-330 40v-4l210 -264l-138 -79l-131 307h-5l-142 -309l-125 79l209 268v4z" />
<glyph unicode="+" horiz-adv-x="1305" d="M88 519v132h495v515h140v-515h496v-132h-496v-519h-140v519h-495z" />
<glyph unicode="," horiz-adv-x="452" d="M37 -270q36 99 74 252.5t56 272.5l214 21q-37 -138 -99 -296.5t-109 -236.5z" />
<glyph unicode="-" horiz-adv-x="671" d="M65 521v143h542v-143h-542z" />
<glyph unicode="." horiz-adv-x="452" d="M113 113q0 61 37 100.5t95 39.5t93.5 -39t35.5 -101q0 -60 -35.5 -99t-95.5 -39h-2q-56 0 -92 39.5t-36 98.5z" />
<glyph unicode="/" horiz-adv-x="751" d="M-2 -88l611 1589h150l-615 -1589h-146z" />
<glyph unicode="0" horiz-adv-x="1123" d="M79 708q0 176 37 317t103 233t156.5 141.5t199.5 49.5q224 0 347 -190t123 -531q0 -363 -129 -558t-366 -195q-212 0 -340 193t-131 540zM272 705q0 -274 77.5 -427t211.5 -153q72 0 128 41.5t92 119.5t54 187t18 246q0 179 -30.5 307t-96.5 200.5t-163 72.5 q-131 0 -211 -155.5t-80 -438.5z" />
<glyph unicode="1" horiz-adv-x="1123" d="M228 1258l311 166h164v-1424h-186v1244h-4l-248 -133z" />
<glyph unicode="2" horiz-adv-x="1123" d="M98 0v119l151 146q100 95 167 162t131.5 137t103.5 123.5t70.5 110t44.5 107.5t14 105q0 57 -14.5 105t-46 88t-88.5 62.5t-133 22.5q-88 0 -166 -35t-137 -85l-61 136q78 67 181.5 106t221.5 39q75 0 139 -16.5t111 -46t83 -68.5t58 -85.5t33.5 -96t11.5 -101.5 q0 -65 -15 -127.5t-46.5 -125t-70.5 -120t-98.5 -125.5t-118 -128t-141.5 -139l-115 -105v-5h640v-160h-910z" />
<glyph unicode="3" horiz-adv-x="1123" d="M92 73l52 148q52 -33 139 -61t177 -28q71 0 128 17.5t93 45t59.5 64.5t33 74t8.5 75q0 48 -14.5 89.5t-40.5 72.5t-60 54.5t-75.5 38.5t-86 22t-91.5 7h-107v145h107q55 0 109.5 14.5t102 42.5t77 76t29.5 109q0 43 -14.5 81t-43.5 68t-78 47.5t-113 17.5 q-79 0 -156 -28.5t-130 -66.5l-50 141q61 45 162.5 77.5t209.5 32.5q101 0 181 -28.5t128.5 -77t73.5 -108.5t25 -126q0 -113 -67 -201t-196 -134v-5q67 -13 124.5 -44t101 -77t68 -109t24.5 -136q0 -57 -15 -110.5t-43.5 -101.5t-73.5 -87.5t-101.5 -68t-129.5 -44.5 t-157 -16q-111 0 -210.5 29t-159.5 69z" />
<glyph unicode="4" horiz-adv-x="1123" d="M33 387v128l636 909h207v-885h200v-152h-200v-387h-182v387h-661zM228 539h466v475q0 112 7 224h-7q-61 -118 -117 -210l-349 -484v-5z" />
<glyph unicode="5" horiz-adv-x="1123" d="M92 63l48 148q52 -31 134 -55t171 -24q92 0 168 36.5t122.5 108t46.5 164.5q-2 145 -103.5 230t-306.5 85q-65 0 -197 -16l93 684h681v-161h-543l-55 -366q66 8 116 8q178 0 307 -77q90 -51 146.5 -144.5t56.5 -221.5q0 -103 -39.5 -193t-109 -154.5t-168.5 -102 t-213 -37.5q-109 0 -204 26t-151 62z" />
<glyph unicode="6" horiz-adv-x="1123" d="M75 583q0 202 65 367t176 275q180 177 455 210q78 12 141 12v-159q-67 4 -145 -8q-88 -15 -164 -50t-131.5 -83t-97.5 -108.5t-67 -127t-35 -137.5h6q55 72 144 118t201 46q190 0 309.5 -126.5t119.5 -334.5q0 -78 -20.5 -152t-61.5 -137.5t-97 -111t-132 -74.5t-162 -27 q-151 0 -265.5 74.5t-176.5 212.5t-62 321zM265 533q3 -119 38.5 -210t106.5 -144.5t169 -53.5h2q61 0 112.5 25t87.5 69.5t56 108t20 139.5q0 151 -80 238.5t-214 87.5q-87 0 -161.5 -48t-114.5 -127q-22 -35 -22 -85z" />
<glyph unicode="7" horiz-adv-x="1123" d="M125 1265v159h898v-127l-620 -1297h-200l619 1260v5h-697z" />
<glyph unicode="8" horiz-adv-x="1123" d="M81 362q0 131 73.5 227t209.5 154l-2 6q-77 36 -128.5 88.5t-74.5 110.5t-23 121q0 111 58 198t158.5 134.5t224.5 47.5q67 0 126 -13.5t104 -38t80 -57.5t57.5 -72.5t34.5 -82t12 -87.5q0 -64 -21 -121.5t-75 -114.5t-139 -97v-6q137 -55 212 -148t75 -220 q0 -121 -64.5 -216.5t-174.5 -147.5t-245 -52q-109 0 -200 31t-151.5 84t-93.5 123t-33 149zM278 387q-3 -72 30 -133.5t100 -99t155 -37.5q128 0 207 71.5t79 181.5q0 124 -79.5 196t-234.5 116q-82 -24 -140 -67.5t-87.5 -101.5t-29.5 -126zM318 1083q0 -102 70 -165 t202 -98q97 33 157 99.5t60 159.5q0 35 -8.5 67.5t-27 62.5t-46 52.5t-69 36t-91.5 13.5q-116 0 -181.5 -65.5t-65.5 -162.5z" />
<glyph unicode="9" horiz-adv-x="1123" d="M90 943q0 100 35.5 192.5t98 161.5t154.5 110.5t199 41.5q144 0 250.5 -74t163.5 -210t57 -316q0 -224 -66.5 -392t-179.5 -277q-53 -53 -121 -93t-142.5 -64.5t-151.5 -33.5q-95 -14 -176 -10v157q44 -5 155 6q178 24 298 138q150 137 189 379h-7q-125 -153 -336 -153 q-125 0 -221.5 58.5t-147.5 157.5t-51 221zM280 956q0 -135 75 -219t199 -84q94 0 167.5 41t113.5 108q18 30 18 70q0 93 -18 170t-52.5 136t-91.5 91.5t-130 32.5h-2q-122 0 -200.5 -97.5t-78.5 -248.5z" />
<glyph unicode=":" horiz-adv-x="452" d="M113 111q0 40 17 71.5t47 49t68 17.5q57 0 92.5 -38t36.5 -100q0 -38 -15.5 -69t-45.5 -49t-70 -18h-2q-37 0 -66 18t-45.5 49t-16.5 69zM113 885q0 61 37 100.5t95 39.5q57 0 92.5 -39t36.5 -101q0 -59 -35.5 -97.5t-95.5 -38.5h-2q-56 0 -92 39t-36 97z" />
<glyph unicode=";" horiz-adv-x="452" d="M37 -270q37 98 75.5 251t56.5 274l212 21q-39 -139 -101.5 -297.5t-108.5 -235.5zM132 885q0 61 36.5 100.5t92.5 39.5q59 0 94.5 -39t35.5 -101q0 -59 -36 -97.5t-94 -38.5h-2q-56 0 -91.5 39t-35.5 97z" />
<glyph unicode="&#x3c;" horiz-adv-x="1305" d="M144 523v119l1017 524v-152l-856 -429v-4l856 -430v-151z" />
<glyph unicode="=" horiz-adv-x="1305" d="M88 309v132h1131v-132h-1131zM88 738v132h1131v-132h-1131z" />
<glyph unicode="&#x3e;" horiz-adv-x="1305" d="M144 0v151l864 430v4l-864 429v152l1017 -522v-123z" />
<glyph unicode="?" horiz-adv-x="889" d="M111 1416q57 39 142 63t172 24q91 0 163 -26.5t115 -72t65.5 -102t22.5 -121.5q0 -53 -13.5 -103t-42.5 -99t-57.5 -86.5t-75.5 -92.5q-71 -83 -100.5 -161.5t-24.5 -163.5l3 -54h-171l-4 56q-21 192 136 378q80 97 116.5 164.5t36.5 137.5q0 85 -54 135.5t-155 52.5 q-60 0 -120 -18t-100 -49zM261 111q0 40 17 71.5t47 49t68 17.5q57 0 92.5 -38t35.5 -100q0 -59 -35.5 -97.5t-94.5 -38.5h-4q-55 0 -90.5 39t-35.5 97z" />
<glyph unicode="@" horiz-adv-x="1614" d="M94 456q0 135 36 261t106 231t166 184t223 123t270 44q140 0 259.5 -48t202 -132t129 -201.5t46.5 -253.5q0 -119 -32 -219t-86 -165.5t-124.5 -101.5t-147.5 -36q-72 0 -119.5 49.5t-43.5 143.5h-9q-114 -193 -309 -193q-99 0 -167.5 75.5t-68.5 200.5q0 102 39 196.5 t106 166t165 114.5t210 43q137 0 234 -46l-75 -397q-48 -242 67 -246q33 0 67 16.5t64 51t53.5 82t37.5 113t14 139.5q0 119 -35.5 219.5t-102 173.5t-167.5 113.5t-226 40.5q-133 0 -253 -52t-209.5 -145t-142 -231t-52.5 -301q0 -108 27.5 -202t78 -165.5t119.5 -122.5 t155 -77.5t183 -26.5q193 0 331 77l35 -94q-168 -88 -389 -88q-108 0 -207.5 30.5t-182.5 89.5t-144.5 141t-96 191.5t-34.5 233.5zM569 427q0 -75 38 -120.5t108 -45.5q60 0 119 46.5t97.5 114t50.5 137.5l46 248q-50 15 -110 15q-94 0 -175 -54t-127.5 -145t-46.5 -196z " />
<glyph unicode="A" horiz-adv-x="1340" d="M55 0l501 1477h230l504 -1477h-203l-158 464h-523l-153 -464h-198zM445 613h444l-144 426q-31 91 -76 270h-5q-34 -143 -74 -268z" />
<glyph unicode="B" horiz-adv-x="1187" d="M167 4v1453q151 31 348 31q142 0 239 -25.5t166 -82.5q123 -90 123 -260q0 -107 -67 -195t-183 -130v-4q44 -11 85.5 -31t82 -52t70.5 -72.5t48.5 -96t18.5 -118.5q0 -174 -125 -296q-151 -138 -511 -138q-169 0 -295 17zM357 144q50 -8 160 -8q51 0 96.5 6.5t89 20 t78 36.5t61 54t41 74t14.5 96q0 73 -30 129t-83.5 89.5t-121 50t-147.5 16.5h-158v-564zM357 853h174q148 0 234 69t86 178q0 125 -86 183t-239 58q-107 0 -169 -13v-475z" />
<glyph unicode="C" horiz-adv-x="1270" d="M79 725q0 172 56.5 316.5t157.5 245.5t244.5 157.5t313.5 56.5q85 0 160.5 -11.5t117.5 -25t72 -29.5l-46 -155q-126 61 -298 61q-130 0 -236.5 -41t-182 -118t-117 -192t-41.5 -258q0 -181 66.5 -314.5t195.5 -206.5t307 -73q86 0 169 16.5t141 44.5l39 -151 q-60 -30 -162 -51.5t-227 -21.5q-157 0 -290 50t-231 143t-153.5 236.5t-55.5 320.5z" />
<glyph unicode="D" horiz-adv-x="1458" d="M167 4v1453q211 31 405 31q402 0 599 -184q207 -190 207 -530q0 -181 -54 -327t-158 -248q-103 -103 -270.5 -157.5t-382.5 -54.5q-192 0 -346 17zM357 151q61 -11 193 -11q152 0 270 42t197.5 122t120.5 197t41 266v7q0 128 -36 230q-37 104 -110.5 178.5t-188 114 t-263.5 39.5q-133 0 -224 -19v-1166z" />
<glyph unicode="E" horiz-adv-x="1077" d="M167 0v1477h797v-160h-607v-466h574v-159h-574v-532h640v-160h-830z" />
<glyph unicode="F" horiz-adv-x="1066" d="M167 0v1477h795v-160h-605v-491h559v-157h-559v-669h-190z" />
<glyph unicode="G" horiz-adv-x="1415" d="M79 730q1 165 57 305t157.5 241.5t252 159t332.5 57.5q81 0 157.5 -11t126.5 -26t85 -32l-46 -155q-142 63 -327 63q-134 0 -244 -41t-187.5 -116.5t-120 -187.5t-42.5 -249q0 -138 41 -250.5t115.5 -188t180 -116.5t234.5 -41q172 0 253 40v441h-299v153h485v-711 q-221 -80 -453 -80q-349 0 -552 195q-97 93 -151.5 236t-54.5 314z" />
<glyph unicode="H" horiz-adv-x="1428" d="M167 0v1477h190v-618h714v618h194v-1477h-194v692h-714v-692h-190z" />
<glyph unicode="I" horiz-adv-x="523" d="M167 0v1477h190v-1477h-190z" />
<glyph unicode="J" horiz-adv-x="809" d="M9 11l28 156q77 -29 160 -29q67 0 115 17t84.5 57.5t54.5 113t18 178.5v973h190v-988q0 -115 -22 -204t-61 -147t-96 -95t-122.5 -52.5t-144.5 -15.5q-52 0 -109.5 10.5t-94.5 25.5z" />
<glyph unicode="K" horiz-adv-x="1187" d="M167 0v1477h190v-712h7q50 72 116 157l451 555h237l-535 -626l576 -851h-225l-486 725l-141 -162v-563h-190z" />
<glyph unicode="L" horiz-adv-x="1033" d="M167 0v1477h190v-1317h632v-160h-822z" />
<glyph unicode="M" horiz-adv-x="1761" d="M127 0l103 1477h243l252 -714q100 -298 149 -498h7q46 185 156 498l262 714h244l92 -1477h-186l-38 648q-22 435 -22 611v27h-7q-79 -275 -186 -561l-261 -716h-144l-239 704q-117 345 -171 573h-4q-7 -288 -28 -653l-40 -633h-182z" />
<glyph unicode="N" horiz-adv-x="1441" d="M167 0v1477h207l475 -747q153 -244 264 -481l4 4q-21 246 -21 606v618h179v-1477h-192l-470 749q-182 293 -276 493l-6 -2q16 -279 16 -609v-631h-180z" />
<glyph unicode="O" horiz-adv-x="1509" d="M79 725q0 173 52 319t143 246t217.5 155.5t273.5 55.5q149 0 273.5 -55t210 -153.5t132.5 -236.5t47 -302q0 -149 -35 -275.5t-97.5 -218.5t-148.5 -156.5t-188.5 -96.5t-215.5 -32q-145 0 -268.5 55t-210.5 152.5t-136 237.5t-49 305zM282 730q0 -95 20 -183.5t60 -164 t96 -131.5t132 -87.5t164 -31.5q75 0 140.5 22t117 62t92.5 96.5t68 124.5t41 146t14 162q0 63 -9 125t-28.5 121.5t-47.5 112.5t-67 97t-86 76t-106.5 50t-126.5 18q-92 0 -170 -33t-133 -90.5t-94 -135.5t-58 -168t-19 -188z" />
<glyph unicode="P" horiz-adv-x="1165" d="M167 0v1459q177 29 366 29q278 0 414 -123q41 -35 69.5 -81.5t44 -104.5t15.5 -123q0 -198 -114 -316q-50 -52 -120.5 -88.5t-154 -54.5t-177.5 -18q-100 0 -153 13v-592h-190zM357 747q59 -15 158 -15q174 0 272 82t98 234q0 95 -43.5 160.5t-120.5 96.5t-184 31 q-122 0 -180 -15v-574z" />
<glyph unicode="Q" horiz-adv-x="1509" d="M79 723q0 175 51.5 321t142.5 246t218.5 155.5t275.5 55.5t272 -55.5t209.5 -154t132.5 -236.5t47 -301q0 -139 -31 -257.5t-87 -206.5t-132.5 -150t-169.5 -94v-9q240 -61 432 -94l-55 -160q-287 75 -565 171q-62 21 -90 21q-106 4 -202.5 37t-178.5 96t-142 150 t-94 206.5t-34 258.5zM282 728q0 -95 19.5 -183t59.5 -163t95.5 -131t131.5 -87.5t163 -31.5h3q75 0 140.5 22t117 62t92.5 96t68 124t41 146t14 163q0 90 -18 175.5t-56 163t-92 135.5t-131.5 92t-168.5 34q-94 0 -173.5 -33.5t-135.5 -91.5t-95 -136.5t-57 -168.5 t-18 -187z" />
<glyph unicode="R" horiz-adv-x="1178" d="M167 0v1457q155 31 366 31q152 0 255 -29t172 -92q56 -48 86 -121.5t30 -158.5q0 -71 -21.5 -133t-60 -109t-88 -80.5t-109.5 -54.5v-7q162 -56 217 -297q42 -178 67.5 -272.5t47.5 -133.5h-198q-31 55 -99 353q-33 153 -99 217.5t-196 69.5h-180v-640h-190zM357 784h195 q101 0 176.5 35t116 98.5t40.5 147.5q0 137 -91 205.5t-248 70.5q-127 0 -189 -17v-540z" />
<glyph unicode="S" horiz-adv-x="1079" d="M92 73l48 159q69 -42 159 -69t184 -27q143 0 225.5 69t82.5 182q0 103 -64 169.5t-214 125.5q-191 67 -290.5 167.5t-99.5 250.5q0 86 34.5 160t96 127t151.5 83.5t195 30.5q200 0 327 -73l-53 -155q-125 70 -280 70q-72 0 -128 -20t-87.5 -53t-47 -70.5t-15.5 -77.5 q0 -99 67 -161t226 -124q194 -75 286 -175.5t92 -258.5q0 -69 -20.5 -132t-62.5 -117t-102 -93.5t-145.5 -62.5t-187.5 -23q-104 0 -209.5 28.5t-167.5 69.5z" />
<glyph unicode="T" horiz-adv-x="1088" d="M-2 1315v162h1093v-162h-451v-1315h-193v1315h-449z" />
<glyph unicode="U" horiz-adv-x="1417" d="M165 607v870h192v-875q0 -97 17 -175.5t47.5 -133t73.5 -91t94.5 -53.5t111.5 -17q170 0 264.5 116.5t94.5 353.5v875h193v-862q0 -133 -27.5 -240t-77 -181t-119.5 -123.5t-153.5 -72.5t-181.5 -23q-93 0 -171.5 21.5t-145.5 69.5t-113.5 120.5t-72.5 179t-26 241.5z " />
<glyph unicode="V" horiz-adv-x="1221" d="M9 1477h206l230 -728q112 -351 157 -552h5q44 182 169 550l249 730h204l-528 -1477h-210z" />
<glyph unicode="W" horiz-adv-x="1853" d="M33 1477h201l176 -747q62 -262 109 -511h4q25 150 121 513l197 745h200l180 -749q78 -330 103 -507h4q28 150 119 511l194 745h195l-418 -1477h-199l-186 769q-75 305 -98 482h-4q-43 -236 -114 -482l-210 -769h-199z" />
<glyph unicode="X" horiz-adv-x="1250" d="M55 0l451 747l-433 730h220l196 -346q91 -161 136 -250h6q52 109 134 250l201 346h220l-450 -718l460 -759h-221l-189 326q-112 183 -171 292h-4q-71 -145 -159 -294l-178 -324h-219z" />
<glyph unicode="Y" horiz-adv-x="1184" d="M29 1477h216l209 -408q86 -170 146 -304h5q14 34 34.5 76t32.5 66.5t43 84.5t39 77l212 408h217l-495 -848v-629h-193v627z" />
<glyph unicode="Z" horiz-adv-x="1211" d="M65 0v111l820 1200v6h-749v160h997v-116l-815 -1194v-7h826v-160h-1079z" />
<glyph unicode="[" horiz-adv-x="621" d="M180 -245v1748h401v-121h-253v-1507h253v-120h-401z" />
<glyph unicode="\" horiz-adv-x="746" d="M4 1501h149l596 -1589h-149z" />
<glyph unicode="]" horiz-adv-x="621" d="M42 -125h251v1507h-251v121h401v-1748h-401v120z" />
<glyph unicode="^" horiz-adv-x="1305" d="M132 414l453 1010h136l454 -1010h-154l-366 851h-4l-366 -851h-153z" />
<glyph unicode="_" horiz-adv-x="1095" d="M0 -165h1096v-109h-1096v109z" />
<glyph unicode="`" d="M48 1518h213l191 -313h-136z" />
<glyph unicode="a" horiz-adv-x="1056" d="M77 280q0 193 165 295q162 100 461 100h12v22q0 31 -4 59.5t-19 64t-40 61t-71 43.5t-108 18q-73 0 -146 -21.5t-130 -58.5l-44 128q67 43 159 68.5t190 25.5q94 0 166 -25t116 -66t72 -99t38.5 -117t10.5 -127v-396q0 -158 17 -255h-175l-15 134h-7 q-48 -68 -132.5 -113.5t-191.5 -45.5q-78 0 -141 26t-102 69.5t-60 97.5t-21 112zM270 303q0 -90 51.5 -137t130.5 -47q97 0 164 51t92 125q11 32 11 62v184h-34q-415 0 -415 -238z" />
<glyph unicode="b" horiz-adv-x="1246" d="M151 0q9 164 9 274v1282h191v-667h4q52 92 144.5 144t217.5 52q130 0 232 -67q103 -68 159 -192q56 -122 55 -277v-5q0 -80 -14 -151t-39 -128t-59.5 -104t-76 -81t-88.5 -58t-97 -35.5t-101 -11.5q-242 0 -355 200h-7l-8 -175h-167zM351 425q0 -27 9 -70 q18 -66 59.5 -117t100.5 -80t128 -29q150 0 236 112t86 296q0 81 -20.5 151.5t-59 125t-99.5 86t-136 31.5q-101 0 -182.5 -64.5t-110.5 -172.5q-11 -53 -11 -79v-190z" />
<glyph unicode="c" horiz-adv-x="981" d="M83 519q0 121 41 225.5t114 179t180 117t235 42.5q79 0 151 -16t116 -39l-44 -150q-86 51 -223 51q-89 0 -161 -31.5t-118 -86t-71 -127t-25 -155.5q0 -181 103.5 -289t264.5 -108q120 0 237 52l33 -144q-29 -16 -69.5 -29.5t-105 -24.5t-130.5 -11q-158 0 -278 68 t-185 191.5t-65 284.5z" />
<glyph unicode="d" horiz-adv-x="1235" d="M83 515q0 129 37.5 237.5t102.5 180.5t151.5 112t184.5 40q114 0 197 -46.5t122 -116.5h5v634h193v-1282q0 -177 9 -274h-173l-9 184h-4q-46 -93 -141 -151t-221 -58q-95 0 -179 39.5t-144.5 109.5t-95.5 171t-35 220zM278 523q0 -110 34 -197t106.5 -140.5t173.5 -53.5 q99 0 177.5 62t104.5 168q9 35 9 83v184q0 49 -9 81q-22 96 -97.5 159.5t-180.5 63.5q-97 0 -170 -53.5t-110.5 -146t-37.5 -210.5z" />
<glyph unicode="e" horiz-adv-x="1097" d="M83 513q0 119 35 223.5t98 182t157.5 122t207.5 44.5q72 0 133.5 -17.5t105.5 -47.5t79 -71t57 -85.5t36.5 -94.5t20.5 -95t6 -89q0 -32 -7 -90h-744q1 -94 30.5 -166.5t80.5 -115.5t114.5 -64.5t137.5 -21.5q166 0 293 55l34 -138q-149 -69 -353 -69q-161 0 -279.5 68 t-180.5 189t-62 281zM270 633h562v11q0 35 -6 70q-6 40 -24.5 83t-47.5 75.5t-78 53.5t-111 21q-47 0 -88.5 -14t-71.5 -38t-54.5 -54.5t-41 -66.5t-26 -71t-13.5 -70z" />
<glyph unicode="f" horiz-adv-x="639" d="M31 914v146h149v51q0 253 123 370q102 99 258 99q87 0 164 -31l-26 -148q-53 23 -122 23q-207 0 -207 -307v-57h257v-146h-257v-914h-190v914h-149z" />
<glyph unicode="g" horiz-adv-x="1224" d="M83 521q0 105 26.5 196.5t72 158t106 114.5t130 71.5t143.5 23.5q66 0 122 -16t96 -43.5t67.5 -58.5t45.5 -66h5l8 159h169q-9 -173 -9 -291v-616q0 -181 -37 -297.5t-114 -186.5q-136 -127 -385 -127q-99 0 -195 23t-159 65l49 146q134 -83 311 -83q76 0 137 20.5 t107.5 63.5t71.5 115.5t25 170.5v119h-4q-31 -51 -76.5 -90t-113.5 -63.5t-147 -24.5q-129 0 -233 68t-161.5 186t-57.5 263zM278 533q0 -63 12.5 -120t38 -105t62.5 -83t88.5 -54.5t112.5 -19.5q59 0 112 23.5t94 68.5t61 106q15 46 15 103v190q0 54 -11 88 q-28 88 -98.5 145.5t-170.5 57.5q-140 0 -228 -109t-88 -291z" />
<glyph unicode="h" horiz-adv-x="1215" d="M160 0v1556h193v-661h4q49 85 138 135q94 55 197 55q33 0 66 -5.5t70 -20.5t70 -37.5t63.5 -58.5t52.5 -81.5t35.5 -110t13.5 -140.5v-631h-193v609q0 67 -13 122t-41 99.5t-76.5 69t-114.5 24.5q-61 0 -114.5 -26.5t-90 -69.5t-54.5 -96q-13 -32 -13 -92v-640h-193z" />
<glyph unicode="i" horiz-adv-x="512" d="M136 1359q0 51 34 85.5t87 34.5t85 -34t32 -86v-6q0 -47 -32 -79q-34 -34 -89 -34q-50 0 -83.5 34.5t-33.5 84.5zM160 0v1060h193v-1060h-193z" />
<glyph unicode="j" horiz-adv-x="531" d="M-98 -311q145 10 209 81q41 45 57 129t16 270v891h193v-966q0 -159 -29.5 -262t-98.5 -173q-60 -60 -151.5 -90.5t-176.5 -30.5zM160 1359q0 51 34.5 85.5t87.5 34.5t85 -34.5t32 -85.5v-5q0 -46 -31 -79q-34 -35 -90 -35q-35 0 -62.5 16.5t-41.5 43.5t-14 59z" />
<glyph unicode="k" horiz-adv-x="1027" d="M160 0v1556h191v-981h4q32 45 94 119l312 366h232l-410 -435l467 -625h-235l-366 508l-98 -109v-399h-191z" />
<glyph unicode="l" horiz-adv-x="516" d="M160 0v1556h193v-1556h-193z" />
<glyph unicode="m" horiz-adv-x="1827" d="M151 1060h169l8 -171h7q114 196 334 196q106 0 185 -58.5t114 -154.5h5q47 84 118 138q99 75 235 75q27 0 55 -5t58.5 -15t58.5 -28.5t54.5 -43.5t48.5 -61t38.5 -80t26 -102t9.5 -125v-625h-189v600q0 156 -58 241.5t-172 85.5q-52 0 -99.5 -24.5t-79.5 -64t-49 -87.5 q-16 -50 -16 -96v-655h-188v636q0 85 -24.5 150t-75 103t-122.5 38q-85 0 -149 -57t-89 -136q-15 -40 -15 -94v-640h-189v774q0 155 -9 286z" />
<glyph unicode="n" horiz-adv-x="1215" d="M151 1060h171l11 -175h4q44 83 136 141.5t215 58.5q48 0 95.5 -11.5t99.5 -43t90.5 -80.5t64 -130.5t25.5 -186.5v-633h-193v611q0 67 -13 121.5t-41 99t-76.5 68.5t-114.5 24q-92 0 -162.5 -56.5t-96.5 -139.5q-13 -37 -13 -90v-638h-193v774q0 155 -9 286z" />
<glyph unicode="o" horiz-adv-x="1202" d="M83 521q0 105 26.5 195t74.5 157.5t113 115t144.5 72t167.5 24.5q151 0 267 -68.5t180 -192.5t64 -285q0 -114 -30.5 -209t-81.5 -159.5t-119.5 -109.5t-143 -65.5t-153.5 -20.5q-107 0 -200.5 39t-161.5 108.5t-107.5 172.5t-39.5 226zM278 529q0 -86 24 -161.5 t66.5 -130t102.5 -85.5t129 -31q91 0 165 53t115.5 147t41.5 212q0 46 -7.5 92.5t-23.5 93t-42.5 86t-60.5 70t-81 48.5t-102 18q-67 0 -122 -24t-92 -63.5t-63 -93t-38 -112t-12 -119.5z" />
<glyph unicode="p" horiz-adv-x="1246" d="M151 1060h173l9 -182h4q126 207 378 207q95 0 178 -39.5t142.5 -109t93.5 -171t34 -219.5q0 -111 -26 -205.5t-71.5 -160.5t-106.5 -113t-131.5 -69.5t-145.5 -22.5q-106 0 -193 44.5t-134 122.5h-4v-576h-191v1149q0 119 -9 345zM351 431q0 -29 9 -78q17 -66 59 -117.5 t101.5 -80t127.5 -28.5q100 0 173.5 52t111 144.5t37.5 213.5q0 81 -21 152t-60 125t-99.5 85.5t-134.5 31.5q-100 0 -181.5 -66t-109.5 -173q-13 -49 -13 -79v-182z" />
<glyph unicode="q" horiz-adv-x="1233" d="M83 513q0 96 20 179.5t55 145t81 109.5t100 78t110.5 45t113.5 15q117 0 200.5 -51t125.5 -133h6l6 159h182q-7 -134 -7 -291v-1203h-193v599h-5q-45 -84 -134 -137t-211 -53q-92 0 -174.5 39.5t-143 108.5t-96.5 170t-36 220zM278 523q0 -80 19.5 -150.5t57 -125 t98.5 -86.5t139 -32q95 0 169 55.5t107 154.5q15 47 15 92v200q0 49 -9 82q-22 93 -97 155.5t-179 62.5q-147 0 -233.5 -113t-86.5 -295z" />
<glyph unicode="r" horiz-adv-x="715" d="M151 1060h169l6 -207h9q36 106 116.5 169t177.5 63q29 0 55 -6v-182q-29 6 -66 6q-99 0 -168.5 -68.5t-89.5 -179.5q-9 -54 -9 -90v-565h-191v730q0 183 -9 330z" />
<glyph unicode="s" horiz-adv-x="867" d="M86 50l48 147q47 -31 116.5 -53.5t136.5 -22.5q101 0 154 44t53 113q0 68 -44.5 111.5t-152.5 83.5q-94 33 -157 79.5t-93 101.5t-30 119.5t25.5 121t71.5 99t115.5 67t153.5 24.5q51 0 101.5 -9.5t89 -24t69.5 -32.5l-49 -141q-96 63 -217 63q-82 0 -129 -42t-47 -104 q0 -63 45 -100.5t156 -79.5q142 -54 210 -129.5t68 -190.5q0 -142 -105.5 -231t-291.5 -89q-170 0 -297 75z" />
<glyph unicode="t" horiz-adv-x="724" d="M40 914v146h163v196l190 59v-255h276v-146h-276v-573q0 -102 33.5 -153.5t110.5 -51.5q68 0 111 13l9 -145q-72 -29 -170 -29q-136 0 -209 84q-75 78 -75 276v579h-163z" />
<glyph unicode="u" horiz-adv-x="1206" d="M153 441v619h194v-587q0 -337 236 -337q90 0 157 51.5t97 123.5q18 49 18 99v650h193v-771q0 -178 8 -289h-171l-11 173h-4q-21 -35 -50.5 -67t-72.5 -63t-102 -49.5t-126 -18.5q-54 0 -102.5 12.5t-98 45t-85 83t-58 134t-22.5 191.5z" />
<glyph unicode="v" horiz-adv-x="1053" d="M29 1060h205l209 -596q58 -157 86 -271h6q32 113 90 271l205 596h203l-418 -1060h-184z" />
<glyph unicode="w" horiz-adv-x="1612" d="M40 1060h196l141 -539q60 -232 79 -337h6q25 108 94 337l174 539h162l164 -529q56 -179 94 -347h7q20 130 81 345l151 531h191l-342 -1060h-175l-162 506q-61 193 -94 349h-5q-32 -154 -97 -351l-170 -504h-175z" />
<glyph unicode="x" horiz-adv-x="1014" d="M17 0l378 541l-360 519h214l152 -228q28 -41 107 -173h7q29 53 106 176l148 225h208l-362 -512l374 -548h-220l-156 239q-32 46 -113 184h-5q-12 -23 -27 -49t-26 -43t-30 -47t-29 -45l-153 -239h-213z" />
<glyph unicode="y" horiz-adv-x="1031" d="M19 1060h211l232 -626q43 -123 69 -217h4q6 20 19 64.5t25 83.5t23 74l211 621h203l-288 -755q-108 -283 -188.5 -432.5t-175.5 -232.5q-44 -38 -92.5 -66.5t-82.5 -41t-62 -17.5l-48 163q90 28 168 94q44 35 88 91t75 124q7 17 11 28t4 18q0 14 -13 50z" />
<glyph unicode="z" horiz-adv-x="937" d="M40 0v111l479 625q40 50 138 165v4h-574v155h809l-3 -119l-473 -617q-62 -83 -136 -167v-4h621v-153h-861z" />
<glyph unicode="{" horiz-adv-x="621" d="M61 575v111q45 0 78 10t51.5 25t30 38t15 44t3.5 48q0 60 -18 182q-18 129 -18 184q0 145 85.5 215.5t232.5 70.5h46v-121h-38q-48 0 -82 -13t-54 -37.5t-29 -58t-9 -79.5q0 -65 15 -157t15 -167q3 -193 -157 -237v-4q160 -40 157 -238q0 -76 -15 -167q-15 -96 -15 -159 q0 -94 41.5 -141.5t132.5 -48.5h38v-120h-46q-71 0 -127 16t-99.5 50.5t-67.5 93.5t-24 140q0 54 18 179q18 118 18 178q0 163 -178 163z" />
<glyph unicode="|" horiz-adv-x="523" d="M188 -548v2192h147v-2192h-147z" />
<glyph unicode="}" horiz-adv-x="621" d="M55 -125h37q91 1 133.5 48.5t42.5 141.5q0 19 -2 41t-3.5 36.5t-5 42t-4.5 39.5q-19 111 -19 167q0 198 159 238v4q-159 44 -159 237q0 55 19 167q15 122 15 157q0 93 -40.5 140t-133.5 48h-39v121h43q72 0 129.5 -16.5t100.5 -50.5t66.5 -90t23.5 -129q0 -62 -17 -184 q-18 -130 -18 -182q0 -27 3.5 -48t14.5 -44t30 -38t52 -25t78 -10v-111q-178 0 -178 -163q0 -53 18 -178q17 -117 17 -179q0 -81 -24 -140t-68 -93.5t-99.5 -50.5t-125.5 -16h-46v120z" />
<glyph unicode="~" horiz-adv-x="1305" d="M107 460q-6 158 68 244.5t193 86.5q46 0 90.5 -11t92 -30t126.5 -58q58 -27 81.5 -37.5t64 -26.5t70 -22t58.5 -6q115 0 118 184h132q3 -88 -16 -154t-55.5 -103.5t-81.5 -55t-99 -17.5q-44 0 -89 9.5t-98 30t-131 56.5q-12 6 -41.5 21t-42 20.5t-37 17t-38.5 16t-34 11 t-36.5 8.5t-33.5 2q-125 0 -132 -186h-129z" />
<glyph unicode="&#xa1;" horiz-adv-x="503" d="M123 933q0 59 37 97.5t95 38.5h2q56 0 90 -38t34 -98q0 -59 -35 -97.5t-93 -38.5t-94 39t-36 97zM147 -427l31 1045h148l34 -1045h-213z" />
<glyph unicode="&#xa2;" horiz-adv-x="1123" d="M147 715q0 212 120 360t320 181v218h136v-214q69 0 132.5 -16t106.5 -39l-44 -147q-89 55 -228 55q-106 0 -186.5 -53t-122.5 -141t-42 -196q0 -89 26.5 -162.5t72.5 -122t108.5 -75t135.5 -26.5q130 0 249 56l35 -138q-25 -14 -58.5 -27t-84 -24.5t-100.5 -13.5v-221 h-136v221q-197 25 -317 155q-39 42 -66 96.5t-42 124.5t-15 149z" />
<glyph unicode="&#xa3;" horiz-adv-x="1123" d="M123 0v109q112 58 180.5 160.5t68.5 223.5q0 82 -10 153h-226v138h203q-23 144 -23 237q0 95 31.5 175.5t87 135.5t133.5 86t168 31q152 0 239 -55l-44 -145q-81 44 -195 44q-42 0 -77 -9.5t-61.5 -27.5t-46 -42.5t-32 -55t-18.5 -65.5t-6 -74q0 -93 26 -235h316v-138 h-298q13 -159 -8 -245q-37 -139 -152 -236v-5h654v-160h-910z" />
<glyph unicode="&#xa4;" horiz-adv-x="1123" d="M63 1146l97 101l151 -166q47 41 113 65.5t137 24.5h2q49 0 96 -11.5t86 -31t70 -45.5l155 164l97 -101l-170 -155q21 -31 38 -69.5t27.5 -87.5t10.5 -100q0 -85 -21.5 -154.5t-54.5 -115.5l163 -161l-98 -96l-149 167q-47 -45 -117 -69.5t-140 -24.5q-68 0 -136.5 24 t-112.5 64l-147 -161l-95 96l159 155q-35 45 -58.5 116t-23.5 147q0 54 12.5 106.5t31 92t42.5 71.5zM299 723q0 -76 24 -136.5t63 -96t83 -54t87 -18.5q49 0 93.5 18t83 54t61.5 98.5t23 143.5q0 57 -17 110.5t-48.5 96t-81.5 68.5t-111 26h-3q-117 0 -187 -88.5 t-70 -221.5z" />
<glyph unicode="&#xa5;" horiz-adv-x="1123" d="M35 1424h206l228 -451q47 -101 87 -199h7q33 93 88 203l236 447h202l-392 -663h285v-110h-342v-158h342v-110h-342v-383h-182v383h-339v110h339v158h-339v110h284z" />
<glyph unicode="&#xa6;" horiz-adv-x="523" d="M188 381h147v-766h-147v766zM188 710v767h147v-767h-147z" />
<glyph unicode="&#xa7;" horiz-adv-x="1136" d="M129 745q0 68 39 136t121 121q-34 26 -56.5 77t-23.5 107q0 93 54 165t145.5 109t204.5 37q172 0 303 -73l-46 -125q-114 71 -263 71q-99 0 -163.5 -45t-64.5 -118q0 -28 8 -51t27 -42t39.5 -33.5t56 -30t65 -26.5t78.5 -27q54 -17 96.5 -34.5t85 -40t73 -49.5 t54.5 -59.5t36 -73.5t12 -89q0 -156 -142 -266q32 -27 57.5 -79t25.5 -113q0 -67 -23.5 -122.5t-64 -93t-94.5 -63.5t-112.5 -38t-121.5 -12q-67 0 -130 10t-118 30.5t-97 49.5l53 127q49 -35 125.5 -62.5t164.5 -27.5q108 0 176.5 47.5t68.5 132.5q0 77 -57.5 126 t-210.5 102q-74 26 -126.5 48t-103.5 52.5t-82 64.5t-50 80t-19 101zM285 767q0 -60 53.5 -110.5t178.5 -95.5q69 -25 106 -39t78.5 -32.5t65.5 -33.5q41 29 62.5 73.5t21.5 95.5q0 134 -196 203q-18 7 -67 25t-76.5 28.5t-64.5 27t-62 32.5q-100 -72 -100 -172v-2z" />
<glyph unicode="&#xa8;" d="M15 1361q0 46 33 78.5t79 32.5t76.5 -32t30.5 -79q0 -45 -30.5 -78.5t-76.5 -33.5h-2q-46 0 -78 33.5t-32 78.5zM423 1361q0 30 14.5 55.5t40 40.5t55.5 15q46 0 76.5 -32t30.5 -79q0 -45 -30.5 -78.5t-76.5 -33.5h-2q-23 0 -43.5 9t-34.5 24.5t-22 36t-8 42.5z" />
<glyph unicode="&#xa9;" horiz-adv-x="1483" d="M79 745q0 137 52 262t140.5 215.5t212.5 144t261 53.5h2q135 0 257.5 -53.5t210 -144t139 -215.5t51.5 -262q0 -139 -51.5 -265t-139.5 -217t-210.5 -144.5t-258.5 -53.5q-137 0 -260.5 53.5t-212.5 144.5t-141 217t-52 265zM188 738q0 -120 43 -228t117 -185.5t177 -123 t220 -46.5q114 -1 216 44.5t175 124.5t116 188.5t43 232.5q0 120 -43 228.5t-116 186.5t-175 124t-216 46h-2q-116 0 -219 -46t-176.5 -125t-116.5 -188.5t-43 -232.5zM379 732q0 91 34 168.5t92 129t133.5 81t158.5 29.5q80 0 149 -18.5t93 -40.5l-27 -86q-97 50 -212 50 q-100 0 -170.5 -40.5t-103.5 -108.5t-33 -158q0 -87 35 -156t106 -111t168 -42q64 0 123 16t98 42l27 -84q-105 -68 -270 -68q-93 0 -169.5 31t-127 84.5t-77.5 126t-27 155.5z" />
<glyph unicode="&#xaa;" horiz-adv-x="757" d="M73 780q0 120 116 187.5t324 62.5v22q0 10 -2.5 22t-8.5 28.5t-18 31t-29 27t-44 20t-60 7.5q-114 0 -188 -59l-36 94q47 34 113 53t137 19q63 0 112.5 -17t80 -45.5t50.5 -68.5t27.5 -82.5t7.5 -92.5v-235q0 -86 14 -171h-132l-14 92h-4q-35 -44 -92 -73.5t-128 -29.5 q-105 0 -165.5 59.5t-60.5 148.5zM217 789q0 -35 18 -61t46.5 -38.5t63.5 -12.5q46 0 85.5 23t62.5 56q22 36 22 59v120q-37 1 -70.5 -1t-68 -7.5t-62.5 -16.5t-50 -27t-34.5 -40t-12.5 -54z" />
<glyph unicode="&#xab;" horiz-adv-x="918" d="M63 552l290 404h155l-293 -404l293 -403h-155zM423 552l290 404h155l-293 -404l293 -403h-155z" />
<glyph unicode="&#xac;" horiz-adv-x="1305" d="M88 743v131h1131v-609h-140v478h-991z" />
<glyph unicode="&#xad;" horiz-adv-x="636" d="M65 521v143h542v-143h-542z" />
<glyph unicode="&#xae;" horiz-adv-x="918" d="M90 1137q0 98 49 181t134.5 131t186.5 48h2q102 0 186 -48t132 -130.5t48 -181.5q0 -100 -48 -183t-132.5 -130.5t-187.5 -47.5q-61 0 -117.5 18t-102 51t-79.5 77t-52.5 99.5t-18.5 115.5zM182 1137q0 -79 36 -144.5t100 -103.5t144 -38q58 -1 109 21t87 60.5t57 92 t21 112.5q0 120 -78.5 203.5t-197.5 83.5h-2q-117 0 -196.5 -84t-79.5 -203zM320 951v358q66 12 138 12q80 0 125 -28q35 -28 35 -76q0 -31 -20.5 -53.5t-53.5 -32.5v-4q49 -15 65 -88q14 -72 27 -88h-90q-10 12 -29 86q-5 30 -22.5 43.5t-51.5 13.5h-40v-143h-83zM406 1152 h39q24 0 42.5 5.5t30 17.5t11.5 30q0 26 -19.5 40.5t-57.5 14.5q-29 0 -46 -4v-104z" />
<glyph unicode="&#xaf;" d="M83 1284v125h494v-125h-494z" />
<glyph unicode="&#xb0;" horiz-adv-x="696" d="M63 1205q-1 126 84 212t208 86h2q86 0 152.5 -40t100.5 -104.5t34 -139.5q0 -86 -42 -154.5t-108.5 -104.5t-142.5 -36q-83 0 -149.5 39t-102.5 102.5t-36 139.5zM182 1207q0 -75 49.5 -127t121.5 -52q74 0 123.5 53t49.5 133q0 33 -9.5 65t-29.5 59.5t-54.5 45 t-79.5 17.5h-2q-53 0 -92.5 -30t-58 -73t-18.5 -91z" />
<glyph unicode="&#xb1;" horiz-adv-x="1305" d="M88 0v132h1131v-132h-1131zM88 694v132h495v427h140v-427h496v-132h-496v-437h-140v437h-495z" />
<glyph unicode="&#xb2;" horiz-adv-x="680" d="M27 970v82l138 129q74 68 120.5 114.5t84.5 94t54.5 88.5t16.5 82q0 67 -43 110.5t-124 43.5q-85 0 -184 -68l-46 98q47 40 118 66t149 26q75 0 132.5 -21.5t91 -57.5t50.5 -79t17 -89q0 -48 -15 -95t-38 -85.5t-64 -84.5t-78 -81t-96 -86l-68 -61v-5h375v-121h-591z" />
<glyph unicode="&#xb3;" horiz-adv-x="667" d="M19 1021l40 110q30 -21 88 -39t116 -18q93 0 142.5 45t48.5 102q0 39 -20 69.5t-53 48t-73.5 26.5t-86.5 9h-58v100h61q32 0 65 8t63.5 23.5t50 44t20.5 65.5q0 44 -35 76t-103 32q-54 0 -104 -18t-83 -40l-37 104q16 10 35.5 19.5t44.5 18t52 15t58 10.5t63 4 q68 0 120.5 -17t84 -46.5t47 -65.5t15.5 -76q0 -66 -45 -119t-124 -79v-5q91 -12 147 -70t56 -141q0 -52 -23 -98t-65.5 -81.5t-109 -56.5t-147.5 -21q-76 0 -144.5 17.5t-106.5 43.5z" />
<glyph unicode="&#xb4;" d="M221 1205l193 313h213l-267 -313h-139z" />
<glyph unicode="&#xb5;" horiz-adv-x="1211" d="M160 -44v1104h191v-626q0 -63 14 -116.5t41.5 -95t74.5 -65t109 -23.5q60 0 113.5 27t87 66t52.5 84q18 49 18 99v650h191v-769q0 -45 4.5 -74.5t16.5 -50t31 -30t48 -11.5l-15 -140q-32 -10 -66 -10q-75 0 -125.5 46.5t-62.5 143.5h-7q-17 -34 -44 -64.5t-64.5 -58.5 t-88 -44.5t-107.5 -16.5q-76 0 -138 28.5t-95 86.5v-131q0 -299 25 -399h-174q-30 91 -30 390z" />
<glyph unicode="&#xb6;" horiz-adv-x="1121" d="M75 995q-1 51 6.5 99t27 97t49.5 91t78 79.5t109.5 63.5t146.5 41t185 15q174 0 256 -19v-1569h-136v1455h-155v-1455h-138v686h-15q-44 0 -90.5 11.5t-93 33.5t-87.5 58t-72.5 80.5t-50.5 104.5t-20 128z" />
<glyph unicode="&#xb7;" horiz-adv-x="452" d="M96 577q0 59 37 98.5t95 39.5q57 0 92.5 -38.5t36.5 -99.5q0 -30 -9.5 -55.5t-26.5 -43.5t-41.5 -28.5t-53.5 -10.5h-2q-57 0 -93 39t-35 99z" />
<glyph unicode="&#xb8;" d="M121 -401l32 94q53 -32 119 -32q40 0 67 16.5t27 52.5q-3 78 -171 92l104 182h117l-71 -113q63 -9 108 -50.5t45 -101.5q0 -38 -12.5 -68t-33.5 -50.5t-50 -34t-62 -19.5t-70 -6q-84 0 -149 38z" />
<glyph unicode="&#xb9;" horiz-adv-x="533" d="M48 1729l207 96h132v-855h-153v722h-4l-157 -77z" />
<glyph unicode="&#xba;" horiz-adv-x="777" d="M40 927q0 83 28.5 153t77 116.5t112.5 72.5t135 26h2q78 0 142.5 -27t108.5 -74t68 -113t24 -143q0 -73 -20.5 -134.5t-55 -103.5t-79.5 -71.5t-94.5 -43t-101.5 -13.5q-97 0 -176 43.5t-125 125t-46 186.5zM186 931q0 -70 28.5 -128t75 -89.5t101.5 -31.5q57 0 103 31 t72 88.5t26 131.5q0 43 -12 86t-35.5 81t-64.5 62t-93 24h-2q-49 0 -88.5 -23.5t-63 -61t-35.5 -81.5t-12 -89z" />
<glyph unicode="&#xbb;" horiz-adv-x="918" d="M50 956h157l291 -404l-291 -403h-155l293 403zM408 956h155l292 -404l-292 -403h-153l291 403z" />
<glyph unicode="&#xbc;" horiz-adv-x="1662" d="M94 1341l207 96h133v-854h-154v721h-4l-157 -77zM303 -25l832 1474h123l-831 -1474h-124zM870 226v85l423 555h162v-533h132v-107h-132v-226h-146v226h-439zM1028 333h281v259q0 13 6 138h-4q-12 -19 -35.5 -60.5t-37.5 -60.5l-210 -274v-2z" />
<glyph unicode="&#xbd;" horiz-adv-x="1662" d="M63 1341l205 96h135v-854h-154v721h-4l-157 -77zM261 -25l830 1474h123l-831 -1474h-122zM964 0v81l138 130q59 53 99 92t76 79.5t57 73.5t32.5 67t11.5 67q0 66 -42.5 109.5t-123.5 43.5q-86 0 -184 -68l-46 99q47 40 118 66t149 26q75 0 133 -22t91.5 -58t50.5 -78.5 t17 -89.5q0 -34 -8.5 -68t-20.5 -62.5t-35 -62t-43.5 -58t-55.5 -60t-60.5 -59t-68.5 -62.5l-68 -61v-4h375v-121h-592z" />
<glyph unicode="&#xbe;" horiz-adv-x="1662" d="M65 633l40 110q14 -10 35.5 -19.5t48 -18t58.5 -14t62 -5.5q49 0 87.5 13t60.5 35t33.5 47t11.5 51q-1 40 -21 70.5t-53.5 48.5t-73.5 27t-84 9h-61v100h61q33 1 65.5 9t63.5 23.5t50.5 43.5t19.5 64q0 44 -35 75.5t-106 31.5q-90 0 -184 -56l-37 100q42 30 108.5 50.5 t141.5 20.5q69 0 122.5 -17.5t84.5 -47t47 -65.5t16 -77q0 -65 -44.5 -117.5t-122.5 -79.5v-4q59 -8 104.5 -37.5t71 -75t25.5 -100.5q0 -51 -22.5 -97t-64.5 -81.5t-108.5 -56.5t-147.5 -21q-77 0 -145 17.5t-108 43.5zM383 -25l834 1474h122l-831 -1474h-125zM895 226v85 l422 555h160v-533h133v-107h-133v-226h-145v226h-437zM1050 335l2 -2h280v259q0 13 7 138h-5q-7 -13 -32 -57t-39 -64z" />
<glyph unicode="&#xbf;" horiz-adv-x="889" d="M121 -134q0 53 13.5 102.5t42.5 98t58.5 86.5t75.5 92q71 87 99.5 163.5t23.5 160.5l-3 58h171l7 -58q20 -188 -138 -379q-79 -95 -115 -163t-36 -136q0 -43 13 -77.5t38.5 -60t65.5 -39.5t92 -15q58 0 118 19t102 52l53 -140q-37 -25 -88 -45t-110.5 -31.5t-116.5 -11.5 q-91 0 -162 26.5t-115 72.5t-66.5 103t-22.5 122zM391 931q0 61 35 99.5t93 38.5h2q38 0 67 -17.5t44.5 -49t15.5 -71.5q0 -39 -15.5 -69.5t-45 -48.5t-68.5 -18q-58 0 -93 38.5t-35 97.5z" />
<glyph unicode="&#xc0;" horiz-adv-x="1340" d="M55 0l501 1477h230l504 -1477h-203l-158 464h-523l-153 -464h-198zM353 1813h232l204 -255h-158zM445 613h444l-144 426q-31 91 -76 270h-5q-34 -143 -74 -268z" />
<glyph unicode="&#xc1;" horiz-adv-x="1340" d="M55 0l501 1477h230l504 -1477h-203l-158 464h-523l-153 -464h-198zM445 613h444l-144 426q-31 91 -76 270h-5q-34 -143 -74 -268zM559 1556l204 257h232l-278 -257h-158z" />
<glyph unicode="&#xc2;" horiz-adv-x="1340" d="M55 0l501 1477h230l504 -1477h-203l-158 464h-523l-153 -464h-198zM381 1556l226 250h147l228 -250h-160l-140 151h-5l-140 -151h-156zM445 613h444l-144 426q-31 91 -76 270h-5q-34 -143 -74 -268z" />
<glyph unicode="&#xc3;" horiz-adv-x="1340" d="M55 0l501 1477h230l504 -1477h-203l-158 464h-523l-153 -464h-198zM408 1566q-4 102 36.5 163t111.5 61q23 0 46.5 -6.5t38.5 -14t45 -23.5l8 -4q16 -9 25 -13.5t22.5 -10.5t25.5 -8.5t24 -2.5q27 0 41 17.5t19 67.5h100q4 -212 -146 -212q-52 0 -134 42q-5 2 -23 12 t-23.5 12.5t-18.5 7.5t-21.5 7t-17.5 2q-50 0 -57 -97h-102zM445 613h444l-144 426q-31 91 -76 270h-5q-34 -143 -74 -268z" />
<glyph unicode="&#xc4;" horiz-adv-x="1340" d="M55 0l501 1477h230l504 -1477h-203l-158 464h-523l-153 -464h-198zM370 1687q0 30 14 55t38.5 40t54.5 15q46 0 76 -32t30 -78q0 -30 -13 -55.5t-37.5 -40.5t-55.5 -15h-2q-46 0 -75.5 32.5t-29.5 78.5zM445 613h444l-144 426q-31 91 -76 270h-5q-34 -143 -74 -268z M776 1687q0 45 31 77.5t78 32.5q45 0 75.5 -32t30.5 -78q0 -30 -13.5 -55.5t-38 -40.5t-56.5 -15h-2q-46 0 -75.5 32.5t-29.5 78.5z" />
<glyph unicode="&#xc5;" horiz-adv-x="1340" d="M55 0l501 1477h230l504 -1477h-203l-158 464h-523l-153 -464h-198zM445 613h444l-144 426q-31 91 -76 270h-5q-34 -143 -74 -268zM456 1727q0 84 61 141.5t160 57.5h2q65 0 114.5 -26.5t75.5 -71.5t26 -101q0 -83 -61.5 -138t-156.5 -55q-98 0 -159.5 55.5t-61.5 137.5z M569 1727q0 -44 30 -78t74 -34q24 0 44 9t34 24.5t21.5 36.5t7.5 44q0 49 -29.5 82.5t-77.5 33.5h-2q-31 0 -54.5 -16.5t-35.5 -43t-12 -58.5z" />
<glyph unicode="&#xc6;" horiz-adv-x="1725" d="M-2 0l675 1477h925v-160h-630l57 -471h551v-158h-526l65 -528h541l-2 -160h-703l-66 521h-454l-236 -521h-197zM495 675h368l-48 425q-1 12 -8.5 69.5t-11.5 96.5t-6 73h-9q-29 -78 -94 -233z" />
<glyph unicode="&#xc7;" horiz-adv-x="1281" d="M79 725q0 172 56.5 316.5t157.5 245.5t244.5 157.5t313.5 56.5q85 0 160.5 -11.5t117.5 -25t72 -29.5l-46 -155q-126 61 -298 61q-130 0 -236.5 -41t-182 -118t-117 -192t-41.5 -258q0 -181 66.5 -314.5t195.5 -206.5t307 -73q86 0 169 16.5t141 44.5l39 -151 q-55 -29 -155 -48.5t-230 -20.5l-52 -88q64 -12 108.5 -56t44.5 -109q0 -46 -19 -81t-51.5 -55.5t-72 -31t-83.5 -10.5q-42 0 -84 10.5t-71 27.5l30 98q56 -29 121 -29q26 0 46.5 7t34 23t13.5 39q0 40 -44.5 61.5t-126.5 30.5l92 169q-136 16 -249 71.5t-196 147t-129 225 t-46 296.5z" />
<glyph unicode="&#xc8;" horiz-adv-x="1077" d="M167 0v1477h797v-160h-607v-466h574v-159h-574v-532h640v-160h-830zM261 1813h232l204 -255h-158z" />
<glyph unicode="&#xc9;" horiz-adv-x="1077" d="M167 0v1477h797v-160h-607v-466h574v-159h-574v-532h640v-160h-830zM458 1556l203 257h234l-280 -257h-157z" />
<glyph unicode="&#xca;" horiz-adv-x="1077" d="M167 0v1477h797v-160h-607v-466h574v-159h-574v-532h640v-160h-830zM265 1556l226 250h147l228 -250h-161l-140 151h-4l-140 -151h-156z" />
<glyph unicode="&#xcb;" horiz-adv-x="1077" d="M167 0v1477h797v-160h-607v-466h574v-159h-574v-532h640v-160h-830zM249 1692q0 44 31.5 76.5t77 32.5t75 -31.5t29.5 -77.5q0 -47 -29 -79.5t-76 -32.5h-2q-31 0 -55 15.5t-37.5 40.5t-13.5 56zM655 1692q0 44 31.5 76.5t78.5 32.5q45 0 75 -31.5t30 -77.5 q0 -47 -29.5 -79.5t-77.5 -32.5h-2q-45 0 -75.5 32.5t-30.5 79.5z" />
<glyph unicode="&#xcc;" horiz-adv-x="523" d="M-55 1813h233l203 -255h-157zM167 0v1477h190v-1477h-190z" />
<glyph unicode="&#xcd;" horiz-adv-x="523" d="M147 1556l204 257h232l-278 -257h-158zM167 0v1477h190v-1477h-190z" />
<glyph unicode="&#xce;" horiz-adv-x="523" d="M-37 1556l225 250h147l228 -250h-160l-140 151h-4l-140 -151h-156zM167 0v1477h190v-1477h-190z" />
<glyph unicode="&#xcf;" horiz-adv-x="523" d="M-46 1692q0 21 8 41.5t22.5 35t34.5 23.5t42 9q45 0 75.5 -31.5t30.5 -77.5q0 -47 -30 -79.5t-76 -32.5h-2q-47 0 -76 32.5t-29 79.5zM167 0v1477h190v-1477h-190zM360 1692q0 45 31 77t78 32q45 0 75.5 -31.5t30.5 -77.5q0 -47 -30.5 -79.5t-77.5 -32.5h-3 q-45 0 -74.5 32.5t-29.5 79.5z" />
<glyph unicode="&#xd0;" horiz-adv-x="1470" d="M-4 673v153h182v636q200 33 405 33q401 0 598 -184q208 -191 208 -537q0 -365 -212 -577q-103 -103 -271.5 -157.5t-382.5 -54.5q-211 0 -345 15v673h-182zM368 147q64 -9 191 -9q307 0 469 163.5t162 469.5q1 271 -150 420.5t-448 149.5q-133 0 -224 -20v-495h395v-153 h-395v-526z" />
<glyph unicode="&#xd1;" horiz-adv-x="1441" d="M167 0v1477h207l475 -747q153 -244 264 -481l4 4q-21 246 -21 606v618h179v-1477h-192l-470 749q-182 293 -276 493l-6 -2q16 -279 16 -609v-631h-180zM460 1566q-3 102 37 163t112 61q23 0 46.5 -6.5t38 -14t44.5 -23.5q2 -1 10.5 -5.5t11 -5.5t10.5 -5.5t10.5 -5.5 t10 -4.5t11 -4.5t10 -3t11 -3t10 -1.5t10.5 -0.5q27 0 41.5 17.5t18.5 67.5h101q3 -212 -147 -212q-52 0 -134 42q-6 4 -22.5 12.5t-23 11.5t-18.5 8t-20.5 7t-17.5 2q-51 0 -58 -97h-103z" />
<glyph unicode="&#xd2;" horiz-adv-x="1509" d="M79 725q0 173 52 319t143 246t217.5 155.5t273.5 55.5q149 0 273.5 -55t210 -153.5t132.5 -236.5t47 -302q0 -149 -35 -275.5t-97.5 -218.5t-148.5 -156.5t-188.5 -96.5t-215.5 -32q-145 0 -268.5 55t-210.5 152.5t-136 237.5t-49 305zM282 730q0 -95 20 -183.5t60 -164 t96 -131.5t132 -87.5t164 -31.5q75 0 140.5 22t117 62t92.5 96.5t68 124.5t41 146t14 162q0 63 -9 125t-28.5 121.5t-47.5 112.5t-67 97t-86 76t-106.5 50t-126.5 18q-92 0 -170 -33t-133 -90.5t-94 -135.5t-58 -168t-19 -188zM437 1819h232l203 -255h-157z" />
<glyph unicode="&#xd3;" horiz-adv-x="1509" d="M79 725q0 173 52 319t143 246t217.5 155.5t273.5 55.5q149 0 273.5 -55t210 -153.5t132.5 -236.5t47 -302q0 -149 -35 -275.5t-97.5 -218.5t-148.5 -156.5t-188.5 -96.5t-215.5 -32q-145 0 -268.5 55t-210.5 152.5t-136 237.5t-49 305zM282 730q0 -95 20 -183.5t60 -164 t96 -131.5t132 -87.5t164 -31.5q75 0 140.5 22t117 62t92.5 96.5t68 124.5t41 146t14 162q0 63 -9 125t-28.5 121.5t-47.5 112.5t-67 97t-86 76t-106.5 50t-126.5 18q-92 0 -170 -33t-133 -90.5t-94 -135.5t-58 -168t-19 -188zM638 1562l203 257h233l-279 -257h-157z" />
<glyph unicode="&#xd4;" horiz-adv-x="1509" d="M79 725q0 173 52 319t143 246t217.5 155.5t273.5 55.5q149 0 273.5 -55t210 -153.5t132.5 -236.5t47 -302q0 -149 -35 -275.5t-97.5 -218.5t-148.5 -156.5t-188.5 -96.5t-215.5 -32q-145 0 -268.5 55t-210.5 152.5t-136 237.5t-49 305zM282 730q0 -95 20 -183.5t60 -164 t96 -131.5t132 -87.5t164 -31.5q75 0 140.5 22t117 62t92.5 96.5t68 124.5t41 146t14 162q0 63 -9 125t-28.5 121.5t-47.5 112.5t-67 97t-86 76t-106.5 50t-126.5 18q-92 0 -170 -33t-133 -90.5t-94 -135.5t-58 -168t-19 -188zM454 1562l225 251h147l228 -251h-159l-141 152 h-5l-140 -152h-155z" />
<glyph unicode="&#xd5;" horiz-adv-x="1509" d="M79 725q0 173 52 319t143 246t217.5 155.5t273.5 55.5q149 0 273.5 -55t210 -153.5t132.5 -236.5t47 -302q0 -149 -35 -275.5t-97.5 -218.5t-148.5 -156.5t-188.5 -96.5t-215.5 -32q-145 0 -268.5 55t-210.5 152.5t-136 237.5t-49 305zM282 730q0 -95 20 -183.5t60 -164 t96 -131.5t132 -87.5t164 -31.5q75 0 140.5 22t117 62t92.5 96.5t68 124.5t41 146t14 162q0 63 -9 125t-28.5 121.5t-47.5 112.5t-67 97t-86 76t-106.5 50t-126.5 18q-92 0 -170 -33t-133 -90.5t-94 -135.5t-58 -168t-19 -188zM483 1571q-4 101 36.5 162t111.5 61 q23 0 46.5 -6.5t38.5 -13.5t45 -23q1 -1 10 -6t11 -6t10 -5.5t11 -5.5t10 -4.5t11 -4.5t10 -3t10.5 -3t10 -1.5t11.5 -0.5q26 0 40 17.5t18 68.5h101q3 -212 -147 -212q-52 0 -133 41q-7 4 -28 15t-29 15t-21.5 8t-24.5 4q-50 0 -57 -97h-102z" />
<glyph unicode="&#xd6;" horiz-adv-x="1509" d="M79 725q0 173 52 319t143 246t217.5 155.5t273.5 55.5q149 0 273.5 -55t210 -153.5t132.5 -236.5t47 -302q0 -149 -35 -275.5t-97.5 -218.5t-148.5 -156.5t-188.5 -96.5t-215.5 -32q-145 0 -268.5 55t-210.5 152.5t-136 237.5t-49 305zM282 730q0 -95 20 -183.5t60 -164 t96 -131.5t132 -87.5t164 -31.5q75 0 140.5 22t117 62t92.5 96.5t68 124.5t41 146t14 162q0 63 -9 125t-28.5 121.5t-47.5 112.5t-67 97t-86 76t-106.5 50t-126.5 18q-92 0 -170 -33t-133 -90.5t-94 -135.5t-58 -168t-19 -188zM445 1692q0 14 4 28t10.5 26t16.5 22 t21.5 17.5t25.5 11.5t29 4q45 0 75 -31.5t30 -77.5q0 -47 -29.5 -79.5t-75.5 -32.5h-2q-46 0 -75.5 32.5t-29.5 79.5zM851 1692q0 45 31 77t78 32q45 0 75 -31.5t30 -77.5q0 -47 -30 -79.5t-77 -32.5h-2q-46 0 -75.5 32.5t-29.5 79.5z" />
<glyph unicode="&#xd7;" horiz-adv-x="1305" d="M88 96l468 481l-468 479l96 96l469 -479l469 479l97 -96l-472 -479l472 -481l-97 -96l-469 480l-469 -480z" />
<glyph unicode="&#xd8;" horiz-adv-x="1509" d="M79 730q0 171 52.5 316.5t144 244.5t216.5 154.5t269 55.5q209 0 368 -116l129 177l116 -79l-136 -188q92 -101 141 -241t49 -303q0 -150 -35.5 -277.5t-98 -218t-147.5 -154.5t-183 -95t-205 -31q-214 0 -376 119l-138 -188l-107 85l136 193q-93 99 -144 240.5 t-51 305.5zM274 740q0 -116 28 -209t81 -186l2 2l650 897q-123 104 -276 104q-94 0 -174 -33.5t-136.5 -91.5t-96.5 -135.5t-59 -165.5t-19 -182zM477 234q113 -105 277 -105q91 0 168.5 32t134.5 89t97 134.5t60 169t20 191.5q0 217 -103 384h-6z" />
<glyph unicode="&#xd9;" horiz-adv-x="1417" d="M165 607v870h192v-875q0 -97 17 -175.5t47.5 -133t73.5 -91t94.5 -53.5t111.5 -17q170 0 264.5 116.5t94.5 353.5v875h193v-862q0 -133 -27.5 -240t-77 -181t-119.5 -123.5t-153.5 -72.5t-181.5 -23q-93 0 -171.5 21.5t-145.5 69.5t-113.5 120.5t-72.5 179t-26 241.5z M401 1813h232l204 -255h-158z" />
<glyph unicode="&#xda;" horiz-adv-x="1417" d="M165 607v870h192v-875q0 -97 17 -175.5t47.5 -133t73.5 -91t94.5 -53.5t111.5 -17q170 0 264.5 116.5t94.5 353.5v875h193v-862q0 -133 -27.5 -240t-77 -181t-119.5 -123.5t-153.5 -72.5t-181.5 -23q-93 0 -171.5 21.5t-145.5 69.5t-113.5 120.5t-72.5 179t-26 241.5z M600 1556l205 257h232l-278 -257h-159z" />
<glyph unicode="&#xdb;" horiz-adv-x="1417" d="M165 607v870h192v-875q0 -97 17 -175.5t47.5 -133t73.5 -91t94.5 -53.5t111.5 -17q170 0 264.5 116.5t94.5 353.5v875h193v-862q0 -133 -27.5 -240t-77 -181t-119.5 -123.5t-153.5 -72.5t-181.5 -23q-93 0 -171.5 21.5t-145.5 69.5t-113.5 120.5t-72.5 179t-26 241.5z M423 1556l225 250h147l228 -250h-160l-140 151h-4l-140 -151h-156z" />
<glyph unicode="&#xdc;" horiz-adv-x="1417" d="M165 607v870h192v-875q0 -97 17 -175.5t47.5 -133t73.5 -91t94.5 -53.5t111.5 -17q170 0 264.5 116.5t94.5 353.5v875h193v-862q0 -133 -27.5 -240t-77 -181t-119.5 -123.5t-153.5 -72.5t-181.5 -23q-93 0 -171.5 21.5t-145.5 69.5t-113.5 120.5t-72.5 179t-26 241.5z M406 1692q0 21 8 41.5t22 35t34 23.5t43 9q45 0 75 -31.5t30 -77.5q0 -47 -29.5 -79.5t-75.5 -32.5h-3q-46 0 -75 32.5t-29 79.5zM811 1692q0 45 31.5 77t77.5 32t75.5 -31.5t29.5 -77.5q0 -47 -29.5 -79.5t-77.5 -32.5h-2q-45 0 -75 32.5t-30 79.5z" />
<glyph unicode="&#xdd;" horiz-adv-x="1184" d="M29 1477h216l209 -408q86 -170 146 -304h5q14 34 34.5 76t32.5 66.5t43 84.5t39 77l212 408h217l-495 -848v-629h-193v627zM498 1545l203 256h232l-278 -256h-157z" />
<glyph unicode="&#xde;" horiz-adv-x="1163" d="M167 0v1477h188v-289q94 17 210 17q254 0 391 -120q58 -55 89 -129t31 -159q0 -114 -41.5 -203.5t-116 -146.5t-175.5 -86.5t-222 -29.5q-89 0 -166 10v-341h-188zM355 498q76 -13 164 -13q175 0 270.5 78t95.5 215q0 138 -90 207t-247 69q-122 0 -193 -17v-539z" />
<glyph unicode="&#xdf;" horiz-adv-x="1200" d="M160 0v991q0 179 40 293.5t116 183.5q125 112 322 112q63 0 120.5 -15.5t106.5 -46.5t85.5 -75t57 -104t20.5 -130q0 -53 -15 -100.5t-36 -78.5q-75 -32 -116 -77t-41 -100q0 -19 3 -35t11 -33t15.5 -29t23 -30.5t26 -30t32.5 -34.5q34 -34 53 -54t46.5 -56t42 -66.5 t25.5 -72.5t11 -88q0 -156 -106 -252.5t-286 -96.5q-145 0 -232 46l34 148q86 -44 184 -44q68 0 117.5 25.5t73.5 66.5t24 92q0 67 -28 118t-90 108q-42 41 -66.5 67t-52 63.5t-40 77t-12.5 83.5q0 56 22.5 106t66.5 91.5t106 72.5q19 48 19 94q0 111 -62 174.5t-166 63.5 q-131 0 -196.5 -100.5t-65.5 -328.5v-999h-193z" />
<glyph unicode="&#xe0;" horiz-adv-x="1056" d="M77 280q0 193 165 295t473 100v22q0 31 -4 59.5t-19 64t-40 61t-71 43.5t-108 18q-73 0 -146 -21.5t-130 -58.5l-44 128q67 43 159 68.5t190 25.5q94 0 166 -25t116 -66t72 -99t38.5 -117t10.5 -127v-396q0 -158 17 -255h-175l-15 134h-7q-48 -68 -132.5 -113.5 t-191.5 -45.5q-78 0 -141 26t-102 69.5t-60 97.5t-21 112zM209 1518h212l190 -313h-136zM270 303q0 -90 51.5 -137t130.5 -47q97 0 164 51t92 125q11 32 11 62v184q-449 10 -449 -238z" />
<glyph unicode="&#xe1;" horiz-adv-x="1056" d="M77 280q0 193 165 295t473 100v22q0 31 -4 59.5t-19 64t-40 61t-71 43.5t-108 18q-73 0 -146 -21.5t-130 -58.5l-44 128q67 43 159 68.5t190 25.5q94 0 166 -25t116 -66t72 -99t38.5 -117t10.5 -127v-396q0 -158 17 -255h-175l-15 134h-7q-48 -68 -132.5 -113.5 t-191.5 -45.5q-78 0 -141 26t-102 69.5t-60 97.5t-21 112zM270 303q0 -90 51.5 -137t130.5 -47q97 0 164 51t92 125q11 32 11 62v184q-449 10 -449 -238zM410 1205l192 313h213l-267 -313h-138z" />
<glyph unicode="&#xe2;" horiz-adv-x="1056" d="M77 280q0 193 165 295t473 100v22q0 31 -4 59.5t-19 64t-40 61t-71 43.5t-108 18q-73 0 -146 -21.5t-130 -58.5l-44 128q67 43 159 68.5t190 25.5q94 0 166 -25t116 -66t72 -99t38.5 -117t10.5 -127v-396q0 -158 17 -255h-175l-15 134h-7q-48 -68 -132.5 -113.5 t-191.5 -45.5q-78 0 -141 26t-102 69.5t-60 97.5t-21 112zM245 1205l207 313h133l210 -313h-149l-127 208h-4l-128 -208h-142zM270 303q0 -90 51.5 -137t130.5 -47q97 0 164 51t92 125q11 32 11 62v184q-449 10 -449 -238z" />
<glyph unicode="&#xe3;" horiz-adv-x="1056" d="M77 280q0 193 165 295t473 100v22q0 31 -4 59.5t-19 64t-40 61t-71 43.5t-108 18q-73 0 -146 -21.5t-130 -58.5l-44 128q67 43 159 68.5t190 25.5q94 0 166 -25t116 -66t72 -99t38.5 -117t10.5 -127v-396q0 -158 17 -255h-175l-15 134h-7q-48 -68 -132.5 -113.5 t-191.5 -45.5q-78 0 -141 26t-102 69.5t-60 97.5t-21 112zM253 1242q-2 53 8 96t29 72t47.5 44.5t63.5 15.5q33 0 62.5 -11.5t73.5 -36.5q4 -2 11 -6q20 -11 30.5 -16t25 -10t25.5 -5q28 0 43 20t18 74h103q3 -221 -151 -221q-52 0 -134 44q-35 22 -55 30.5t-39 8.5 q-50 0 -57 -99h-104zM270 303q0 -90 51.5 -137t130.5 -47q97 0 164 51t92 125q11 32 11 62v184q-449 10 -449 -238z" />
<glyph unicode="&#xe4;" horiz-adv-x="1056" d="M77 280q0 193 165 295t473 100v22q0 31 -4 59.5t-19 64t-40 61t-71 43.5t-108 18q-73 0 -146 -21.5t-130 -58.5l-44 128q67 43 159 68.5t190 25.5q94 0 166 -25t116 -66t72 -99t38.5 -117t10.5 -127v-396q0 -158 17 -255h-175l-15 134h-7q-48 -68 -132.5 -113.5 t-191.5 -45.5q-78 0 -141 26t-102 69.5t-60 97.5t-21 112zM215 1361q0 30 15 55.5t40.5 40.5t55.5 15t55 -14.5t39 -40t14 -56.5q0 -45 -30.5 -78.5t-77.5 -33.5h-2q-46 0 -77.5 33.5t-31.5 78.5zM270 303q0 -90 51.5 -137t130.5 -47q97 0 164 51t92 125q11 32 11 62v184 q-449 10 -449 -238zM623 1361q0 30 14.5 55.5t39.5 40.5t55 15q46 0 76.5 -32t30.5 -79q0 -45 -30.5 -78.5t-76.5 -33.5h-2q-46 0 -76.5 33.5t-30.5 78.5z" />
<glyph unicode="&#xe5;" horiz-adv-x="1056" d="M77 280q0 193 165 295t473 100v22q0 31 -4 59.5t-19 64t-40 61t-71 43.5t-108 18q-73 0 -146 -21.5t-130 -58.5l-44 128q67 43 159 68.5t190 25.5q94 0 166 -25t116 -66t72 -99t38.5 -117t10.5 -127v-396q0 -158 17 -255h-175l-15 134h-7q-48 -68 -132.5 -113.5 t-191.5 -45.5q-78 0 -141 26t-102 69.5t-60 97.5t-21 112zM270 303q0 -90 51.5 -137t130.5 -47q97 0 164 51t92 125q11 32 11 62v184q-449 10 -449 -238zM305 1376q0 90 61 149.5t163 59.5q38 0 72.5 -10.5t60.5 -29t44.5 -44t28.5 -57t10 -66.5q0 -57 -28.5 -103t-78.5 -72 t-112 -26q-64 0 -115 26.5t-78.5 72t-27.5 100.5zM416 1376q0 -45 31 -81.5t76 -36.5q34 0 60.5 17t40.5 44.5t14 60.5q0 51 -31.5 86t-83.5 35q-49 0 -78 -36t-29 -89z" />
<glyph unicode="&#xe6;" horiz-adv-x="1693" d="M79 278q0 185 166.5 285.5t473.5 97.5v44q0 20 -5 45.5t-21 60.5t-41.5 63.5t-72.5 48.5t-108 20q-73 0 -147.5 -23.5t-124.5 -58.5l-46 128q46 29 104 51t117 33.5t111 11.5q137 0 222 -59t119 -165h4q37 70 91 119.5t125.5 77t154.5 27.5q67 0 124.5 -18t99 -48t75 -71 t54.5 -85.5t35 -93t20 -91t6 -82.5q0 -57 -7 -86h-709q-5 -183 88.5 -284t248.5 -101q165 0 289 61l35 -136q-139 -75 -348 -75q-137 0 -247.5 63t-155.5 173h-4q-51 -111 -155 -173.5t-240 -62.5q-80 0 -144.5 26t-104.5 69t-61 96.5t-21 111.5zM270 293q0 -81 52.5 -127.5 t131.5 -46.5q98 0 164.5 52t91.5 130q11 30 11 76v156q-55 1 -104.5 -2t-102.5 -12t-95.5 -26.5t-77 -43.5t-53 -65.5t-18.5 -90.5zM897 648h531q2 35 -4 73t-24 78.5t-45.5 73t-72.5 53.5t-101 21q-54 0 -101.5 -19.5t-79.5 -50.5t-55 -71t-34.5 -80t-13.5 -78z" />
<glyph unicode="&#xe7;" horiz-adv-x="979" d="M83 519q0 121 41 225.5t114 179t180 117t235 42.5q79 0 151 -16t116 -39l-44 -150q-86 51 -223 51q-89 0 -161 -31.5t-118 -86t-71 -127t-25 -155.5q0 -181 103.5 -289t264.5 -108q125 0 237 52l35 -144q-42 -23 -115.5 -41.5t-162.5 -19.5l-55 -88q41 -8 75 -28t56 -55 t22 -78q0 -38 -12 -69t-33.5 -51.5t-51 -34.5t-62 -20.5t-69.5 -6.5q-89 0 -153 38l34 98q49 -29 119 -29q95 0 95 69q-2 42 -44.5 62.5t-126.5 29.5l92 169q-202 25 -322.5 169.5t-120.5 364.5z" />
<glyph unicode="&#xe8;" horiz-adv-x="1097" d="M83 513q0 119 35 223.5t98 182t157.5 122t207.5 44.5q72 0 133.5 -17.5t105.5 -47.5t79 -71t57 -85.5t36.5 -94.5t20.5 -95t6 -89q0 -32 -7 -90h-744q1 -94 30.5 -166.5t80.5 -115.5t114.5 -64.5t137.5 -21.5q166 0 293 55l34 -138q-149 -69 -353 -69q-161 0 -279.5 68 t-180.5 189t-62 281zM270 633h562q1 41 -5.5 81t-25 83t-47.5 75.5t-78 53.5t-111 21q-47 0 -88.5 -14t-71.5 -38t-54.5 -54.5t-41 -66.5t-26 -71t-13.5 -70zM295 1518h213l191 -313h-136z" />
<glyph unicode="&#xe9;" horiz-adv-x="1097" d="M83 513q0 119 35 223.5t98 182t157.5 122t207.5 44.5q72 0 133.5 -17.5t105.5 -47.5t79 -71t57 -85.5t36.5 -94.5t20.5 -95t6 -89q0 -32 -7 -90h-744q1 -94 30.5 -166.5t80.5 -115.5t114.5 -64.5t137.5 -21.5q166 0 293 55l34 -138q-149 -69 -353 -69q-161 0 -279.5 68 t-180.5 189t-62 281zM270 633h562q1 41 -5.5 81t-25 83t-47.5 75.5t-78 53.5t-111 21q-47 0 -88.5 -14t-71.5 -38t-54.5 -54.5t-41 -66.5t-26 -71t-13.5 -70zM473 1205l194 313h211l-267 -313h-138z" />
<glyph unicode="&#xea;" horiz-adv-x="1097" d="M83 513q0 119 35 223.5t98 182t157.5 122t207.5 44.5q72 0 133.5 -17.5t105.5 -47.5t79 -71t57 -85.5t36.5 -94.5t20.5 -95t6 -89q0 -32 -7 -90h-744q1 -94 30.5 -166.5t80.5 -115.5t114.5 -64.5t137.5 -21.5q166 0 293 55l34 -138q-149 -69 -353 -69q-161 0 -279.5 68 t-180.5 189t-62 281zM270 633h562q1 41 -5.5 81t-25 83t-47.5 75.5t-78 53.5t-111 21q-47 0 -88.5 -14t-71.5 -38t-54.5 -54.5t-41 -66.5t-26 -71t-13.5 -70zM303 1205l205 313h134l211 -313h-150l-126 208h-5l-127 -208h-142z" />
<glyph unicode="&#xeb;" horiz-adv-x="1097" d="M83 513q0 119 35 223.5t98 182t157.5 122t207.5 44.5q72 0 133.5 -17.5t105.5 -47.5t79 -71t57 -85.5t36.5 -94.5t20.5 -95t6 -89q0 -32 -7 -90h-744q1 -94 30.5 -166.5t80.5 -115.5t114.5 -64.5t137.5 -21.5q166 0 293 55l34 -138q-149 -69 -353 -69q-161 0 -279.5 68 t-180.5 189t-62 281zM270 633h562q1 41 -5.5 81t-25 83t-47.5 75.5t-78 53.5t-111 21q-47 0 -88.5 -14t-71.5 -38t-54.5 -54.5t-41 -66.5t-26 -71t-13.5 -70zM274 1361q0 46 32.5 78.5t78.5 32.5t77 -32t31 -79q0 -45 -31 -78.5t-77 -33.5h-2q-46 0 -77.5 33.5t-31.5 78.5z M682 1361q0 46 31.5 78.5t77.5 32.5q30 0 54.5 -14.5t39 -40t14.5 -56.5q0 -45 -31 -78.5t-77 -33.5h-2q-47 0 -77 33.5t-30 78.5z" />
<glyph unicode="&#xec;" horiz-adv-x="512" d="M-59 1518h212l192 -313h-136zM160 0v1060h193v-1060h-193z" />
<glyph unicode="&#xed;" horiz-adv-x="512" d="M147 1205l192 313h213l-267 -313h-138zM160 0v1060h193v-1060h-193z" />
<glyph unicode="&#xee;" horiz-adv-x="512" d="M-17 1205l205 313h134l211 -313h-150l-126 208h-4l-128 -208h-142zM160 0v1060h193v-1060h-193z" />
<glyph unicode="&#xef;" horiz-adv-x="512" d="M-57 1361q0 46 33 78.5t79 32.5q30 0 54.5 -14.5t39 -40t14.5 -56.5q0 -45 -31 -78.5t-77 -33.5h-3q-46 0 -77.5 33.5t-31.5 78.5zM160 0v1060h193v-1060h-193zM351 1361q0 46 32 78.5t77.5 32.5t76 -32t30.5 -79q0 -45 -30.5 -78.5t-76.5 -33.5h-2q-46 0 -76.5 33.5 t-30.5 78.5z" />
<glyph unicode="&#xf0;" horiz-adv-x="1184" d="M83 517q0 124 41 228t109.5 171.5t156 105.5t182.5 38q35 0 63.5 -3.5t60 -13.5t62.5 -29t62 -48l4 7q-98 163 -259 283l-310 -145l-42 94l254 121q-83 60 -228 131l83 121q171 -78 309 -177l281 133l46 -97l-233 -109q186 -151 281 -349q92 -192 92 -425 q0 -118 -28.5 -216t-77.5 -164t-115.5 -111.5t-139.5 -66.5t-152 -21q-107 0 -199 38.5t-159 108t-105.5 171.5t-38.5 224zM278 519q0 -111 39.5 -202t110 -143.5t157.5 -52.5h2q142 0 228 115t86 297q0 70 -7.5 122.5t-24 94.5t-43.5 76q-91 103 -232 103 q-48 0 -89.5 -13.5t-73 -37t-57.5 -55.5t-43.5 -69t-29.5 -77.5t-17.5 -79.5t-5.5 -78z" />
<glyph unicode="&#xf1;" horiz-adv-x="1215" d="M151 1060h171l11 -175h4q44 83 136 141.5t215 58.5q48 0 95.5 -11.5t99.5 -43t90.5 -80.5t64 -130.5t25.5 -186.5v-633h-193v611q0 67 -13 121.5t-41 99t-76.5 68.5t-114.5 24q-92 0 -162.5 -56.5t-96.5 -139.5q-13 -37 -13 -90v-638h-193v774q0 155 -9 286zM339 1242 q-3 106 38 167t112 61q33 0 62.5 -11.5t73.5 -36.5q4 -2 11 -6q20 -11 30 -16t25 -10t26 -5q28 0 43 20t18 74h103q3 -221 -151 -221q-52 0 -134 44q-35 22 -55 30.5t-39 8.5q-50 0 -57 -99h-106z" />
<glyph unicode="&#xf2;" horiz-adv-x="1202" d="M83 521q0 105 26.5 195t74.5 157.5t113 115t144.5 72t167.5 24.5q151 0 267 -68.5t180 -192.5t64 -285q0 -114 -30.5 -209t-81.5 -159.5t-119.5 -109.5t-143 -65.5t-153.5 -20.5q-107 0 -200.5 39t-161.5 108.5t-107.5 172.5t-39.5 226zM278 529q0 -86 24 -161.5 t66.5 -130t102.5 -85.5t129 -31q91 0 165 53t115.5 147t41.5 212q0 46 -7.5 92.5t-23.5 93t-42.5 86t-60.5 70t-81 48.5t-102 18q-67 0 -122 -24t-92 -63.5t-63 -93t-38 -112t-12 -119.5zM318 1518h213l190 -313h-136z" />
<glyph unicode="&#xf3;" horiz-adv-x="1202" d="M83 521q0 105 26.5 195t74.5 157.5t113 115t144.5 72t167.5 24.5q151 0 267 -68.5t180 -192.5t64 -285q0 -114 -30.5 -209t-81.5 -159.5t-119.5 -109.5t-143 -65.5t-153.5 -20.5q-107 0 -200.5 39t-161.5 108.5t-107.5 172.5t-39.5 226zM278 529q0 -86 24 -161.5 t66.5 -130t102.5 -85.5t129 -31q91 0 165 53t115.5 147t41.5 212q0 46 -7.5 92.5t-23.5 93t-42.5 86t-60.5 70t-81 48.5t-102 18q-67 0 -122 -24t-92 -63.5t-63 -93t-38 -112t-12 -119.5zM485 1205l192 313h212l-266 -313h-138z" />
<glyph unicode="&#xf4;" horiz-adv-x="1202" d="M83 521q0 105 26.5 195t74.5 157.5t113 115t144.5 72t167.5 24.5q151 0 267 -68.5t180 -192.5t64 -285q0 -114 -30.5 -209t-81.5 -159.5t-119.5 -109.5t-143 -65.5t-153.5 -20.5q-107 0 -200.5 39t-161.5 108.5t-107.5 172.5t-39.5 226zM278 529q0 -86 24 -161.5 t66.5 -130t102.5 -85.5t129 -31q91 0 165 53t115.5 147t41.5 212q0 46 -7.5 92.5t-23.5 93t-42.5 86t-60.5 70t-81 48.5t-102 18q-67 0 -122 -24t-92 -63.5t-63 -93t-38 -112t-12 -119.5zM326 1205l207 313h134l209 -313h-148l-128 208h-4l-127 -208h-143z" />
<glyph unicode="&#xf5;" horiz-adv-x="1202" d="M83 521q0 105 26.5 195t74.5 157.5t113 115t144.5 72t167.5 24.5q151 0 267 -68.5t180 -192.5t64 -285q0 -114 -30.5 -209t-81.5 -159.5t-119.5 -109.5t-143 -65.5t-153.5 -20.5q-107 0 -200.5 39t-161.5 108.5t-107.5 172.5t-39.5 226zM278 529q0 -86 24 -161.5 t66.5 -130t102.5 -85.5t129 -31q91 0 165 53t115.5 147t41.5 212q0 46 -7.5 92.5t-23.5 93t-42.5 86t-60.5 70t-81 48.5t-102 18q-67 0 -122 -24t-92 -63.5t-63 -93t-38 -112t-12 -119.5zM331 1242q-4 106 37 167t112 61q23 0 46.5 -6.5t41 -15.5t47.5 -26q3 -1 8 -4 q61 -33 85 -33q29 0 43.5 20t17.5 74h103q3 -221 -151 -221q-52 0 -134 44q-14 9 -24 14.5t-20 10.5t-18 8t-16 4.5t-16 1.5q-50 0 -56 -99h-106z" />
<glyph unicode="&#xf6;" horiz-adv-x="1202" d="M83 521q0 105 26.5 195t74.5 157.5t113 115t144.5 72t167.5 24.5q151 0 267 -68.5t180 -192.5t64 -285q0 -114 -30.5 -209t-81.5 -159.5t-119.5 -109.5t-143 -65.5t-153.5 -20.5q-107 0 -200.5 39t-161.5 108.5t-107.5 172.5t-39.5 226zM278 529q0 -86 24 -161.5 t66.5 -130t102.5 -85.5t129 -31q91 0 165 53t115.5 147t41.5 212q0 46 -7.5 92.5t-23.5 93t-42.5 86t-60.5 70t-81 48.5t-102 18q-67 0 -122 -24t-92 -63.5t-63 -93t-38 -112t-12 -119.5zM287 1361q0 30 15 55.5t41 40.5t56 15q46 0 76.5 -32t30.5 -79q0 -45 -30.5 -78.5 t-76.5 -33.5h-2q-31 0 -56.5 15.5t-39.5 41.5t-14 55zM694 1361q0 46 32.5 78.5t78 32.5t76.5 -32t31 -79q0 -45 -30.5 -78.5t-76.5 -33.5h-3q-30 0 -55 15.5t-39 41.5t-14 55z" />
<glyph unicode="&#xf7;" horiz-adv-x="1305" d="M88 519v132h1131v-132h-1131zM537 199q0 36 14.5 64t41.5 43.5t62 15.5q50 0 82 -34t32 -89q0 -34 -13.5 -61t-40.5 -43t-62 -16h-2q-50 0 -82 34.5t-32 85.5zM537 968q0 55 32.5 89t85.5 34q50 0 82 -34t32 -89q0 -52 -31.5 -85.5t-84.5 -33.5h-2q-50 0 -82 34t-32 85z " />
<glyph unicode="&#xf8;" horiz-adv-x="1202" d="M83 523q0 104 26.5 194t74 157t112.5 115t143.5 72t165.5 24h2q144 0 267 -75l92 130l86 -59l-92 -136q77 -74 118.5 -178.5t41.5 -227.5q0 -113 -30 -208t-80.5 -159.5t-118 -109.5t-140.5 -66t-149 -21q-157 0 -271 75l-95 -133l-81 66l92 130q-78 74 -121 178.5 t-43 231.5zM270 529q0 -154 79 -266l4 -2l433 615q-78 65 -186 65q-68 0 -124.5 -24.5t-94 -65t-63.5 -94.5t-37 -111.5t-11 -116.5zM418 182q70 -61 178 -61q99 0 175.5 53t118 146.5t41.5 212.5q0 63 -17.5 131.5t-56.5 126.5h-4z" />
<glyph unicode="&#xf9;" horiz-adv-x="1206" d="M153 441v619h194v-587q0 -337 236 -337q90 0 157 51.5t97 123.5q18 49 18 99v650h193v-771q0 -178 8 -289h-171l-11 173h-4q-21 -35 -50.5 -67t-72.5 -63t-102 -49.5t-126 -18.5q-54 0 -102.5 12.5t-98 45t-85 83t-58 134t-22.5 191.5zM307 1518h212l191 -313h-135z" />
<glyph unicode="&#xfa;" horiz-adv-x="1206" d="M153 441v619h194v-587q0 -337 236 -337q90 0 157 51.5t97 123.5q18 49 18 99v650h193v-771q0 -178 8 -289h-171l-11 173h-4q-21 -35 -50.5 -67t-72.5 -63t-102 -49.5t-126 -18.5q-54 0 -102.5 12.5t-98 45t-85 83t-58 134t-22.5 191.5zM510 1205l193 313h213l-268 -313 h-138z" />
<glyph unicode="&#xfb;" horiz-adv-x="1206" d="M153 441v619h194v-587q0 -337 236 -337q90 0 157 51.5t97 123.5q18 49 18 99v650h193v-771q0 -178 8 -289h-171l-11 173h-4q-21 -35 -50.5 -67t-72.5 -63t-102 -49.5t-126 -18.5q-54 0 -102.5 12.5t-98 45t-85 83t-58 134t-22.5 191.5zM328 1205l207 313h134l209 -313 h-148l-128 208h-4l-127 -208h-143z" />
<glyph unicode="&#xfc;" horiz-adv-x="1206" d="M153 441v619h194v-587q0 -337 236 -337q90 0 157 51.5t97 123.5q18 49 18 99v650h193v-771q0 -178 8 -289h-171l-11 173h-4q-21 -35 -50.5 -67t-72.5 -63t-102 -49.5t-126 -18.5q-54 0 -102.5 12.5t-98 45t-85 83t-58 134t-22.5 191.5zM295 1361q0 22 9 43t24.5 36 t36 23.5t43.5 8.5q45 0 76 -32t31 -79q0 -45 -30.5 -78.5t-76.5 -33.5h-2q-31 0 -56.5 15.5t-40 41.5t-14.5 55zM703 1361q0 30 14.5 55.5t40 40.5t55.5 15q46 0 76.5 -32t30.5 -79q0 -45 -30.5 -78.5t-76.5 -33.5h-2q-31 0 -56 15.5t-38.5 41.5t-13.5 55z" />
<glyph unicode="&#xfd;" horiz-adv-x="1031" d="M19 1060h211l232 -626q43 -123 69 -217h4q6 20 19 64.5t25 83.5t23 74l211 621h203l-288 -755q-108 -283 -188.5 -432.5t-175.5 -232.5q-44 -38 -92.5 -66.5t-82.5 -41t-62 -17.5l-48 163q90 28 168 94q44 35 88 91t75 124q7 17 11 28t4 18q0 14 -13 50zM431 1205 l194 313h212l-268 -313h-138z" />
<glyph unicode="&#xfe;" horiz-adv-x="1246" d="M160 -434v1900h191v-574h4q120 193 362 193q74 1 142 -23.5t123 -72t95.5 -112.5t63 -151t22.5 -182q0 -113 -27 -208t-73 -160.5t-108 -111.5t-131 -67.5t-142 -21.5q-105 0 -190.5 44t-136.5 123h-4v-576h-191zM351 418q0 -48 21 -96q31 -90 107.5 -142.5t173.5 -52.5 q143 0 230 112.5t87 301.5q0 107 -36.5 194.5t-109 141.5t-167.5 54q-94 0 -172.5 -57t-112.5 -153q-21 -62 -21 -108v-195z" />
<glyph unicode="&#xff;" horiz-adv-x="1031" d="M19 1060h211l232 -626q43 -123 69 -217h4q6 20 19 64.5t25 83.5t23 74l211 621h203l-288 -755q-108 -283 -188.5 -432.5t-175.5 -232.5q-44 -38 -92.5 -66.5t-82.5 -41t-62 -17.5l-48 163q90 28 168 94q44 35 88 91t75 124q7 17 11 28t4 18q0 14 -13 50zM228 1361 q0 46 32.5 78.5t78.5 32.5q30 0 55 -14.5t39 -40t14 -56.5q0 -45 -31 -78.5t-77 -33.5h-2q-46 0 -77.5 33.5t-31.5 78.5zM636 1361q0 30 14 55.5t39.5 40.5t55.5 15q46 0 77 -32t31 -79q0 -45 -31 -78.5t-77 -33.5h-2q-47 0 -77 33.5t-30 78.5z" />
<glyph unicode="&#x100;" horiz-adv-x="1340" d="M55 0l501 1477h230l504 -1477h-203l-158 464h-523l-153 -464h-198zM406 1606v121h523v-121h-523zM445 613h444l-144 426q-31 91 -76 270h-5q-34 -143 -74 -268z" />
<glyph unicode="&#x101;" horiz-adv-x="1056" d="M77 280q0 193 165 295t473 100v22q0 31 -4 59.5t-19 64t-40 61t-71 43.5t-108 18q-73 0 -146 -21.5t-130 -58.5l-44 128q67 43 159 68.5t190 25.5q94 0 166 -25t116 -66t72 -99t38.5 -117t10.5 -127v-396q0 -158 17 -255h-175l-15 134h-7q-48 -68 -132.5 -113.5 t-191.5 -45.5q-78 0 -141 26t-102 69.5t-60 97.5t-21 112zM270 303q0 -90 51.5 -137t130.5 -47q97 0 164 51t92 125q11 32 11 62v184q-449 10 -449 -238zM282 1284v125h494v-125h-494z" />
<glyph unicode="&#x102;" horiz-adv-x="1340" d="M55 0l501 1477h230l504 -1477h-203l-158 464h-523l-153 -464h-198zM397 1790h113q10 -45 48 -76t111 -31q139 0 159 107h113q-4 -104 -72 -168t-202 -64q-68 0 -120 17.5t-84 49.5t-48 73t-18 92zM445 613h444l-144 426q-31 91 -76 270h-5q-34 -143 -74 -268z" />
<glyph unicode="&#x103;" horiz-adv-x="1056" d="M77 280q0 193 165 295t473 100v22q0 31 -4 59.5t-19 64t-40 61t-71 43.5t-108 18q-73 0 -146 -21.5t-130 -58.5l-44 128q67 43 159 68.5t190 25.5q94 0 166 -25t116 -66t72 -99t38.5 -117t10.5 -127v-396q0 -158 17 -255h-175l-15 134h-7q-48 -68 -132.5 -113.5 t-191.5 -45.5q-78 0 -141 26t-102 69.5t-60 97.5t-21 112zM257 1495h113q10 -67 52 -109.5t107 -42.5q71 0 111 45t46 107h114q0 -123 -74 -197.5t-197 -74.5q-56 0 -102 15.5t-77.5 41t-52.5 61t-30.5 74t-9.5 80.5zM270 303q0 -90 51.5 -137t130.5 -47q97 0 164 51t92 125 q11 32 11 62v184q-449 10 -449 -238z" />
<glyph unicode="&#x104;" horiz-adv-x="1340" d="M55 0l501 1477h230l504 -1477l-78 -4q-24 -25 -46.5 -52t-46 -72t-23.5 -81q0 -52 30.5 -82.5t80.5 -30.5q55 0 99 21l30 -98q-32 -25 -82 -37.5t-95 -12.5q-46 0 -83.5 12t-64.5 35.5t-41 59t-14 81.5q0 124 129 270l-156 455h-523l-153 -464h-198zM445 613h444 l-144 426q-31 91 -76 270h-5q-34 -143 -74 -268z" />
<glyph unicode="&#x105;" horiz-adv-x="1056" d="M77 280q0 193 165 295t473 100v22q0 31 -4 59.5t-19 64t-40 61t-71 43.5t-108 18q-73 0 -146 -21.5t-130 -58.5l-44 128q67 43 159 68.5t190 25.5q94 0 166 -25t116 -66t72 -99t38.5 -117t10.5 -127v-396q0 -79 4 -141.5t13 -113.5h-54q-32 -42 -59 -100.5t-27 -110.5 q0 -53 29 -81t76 -28q54 0 102 21l30 -100q-24 -18 -56.5 -30t-63.5 -17.5t-62 -5.5q-87 0 -141 49t-54 138q0 38 10 77.5t29 78t32 61t34 54.5l-15 128h-7q-48 -68 -132.5 -113.5t-191.5 -45.5q-78 0 -141 26t-102 69.5t-60 97.5t-21 112zM270 303q0 -90 51.5 -137 t130.5 -47q97 0 164 51t92 125q11 32 11 62v184q-449 10 -449 -238z" />
<glyph unicode="&#x106;" horiz-adv-x="1270" d="M79 725q0 172 56.5 316.5t157.5 245.5t244.5 157.5t313.5 56.5q85 0 160.5 -11.5t117.5 -25t72 -29.5l-46 -155q-126 61 -298 61q-130 0 -236.5 -41t-182 -118t-117 -192t-41.5 -258q0 -181 66.5 -314.5t195.5 -206.5t307 -73q86 0 169 16.5t141 44.5l39 -151 q-60 -30 -162 -51.5t-227 -21.5q-157 0 -290 50t-231 143t-153.5 236.5t-55.5 320.5zM673 1560l203 257h233l-279 -257h-157z" />
<glyph unicode="&#x107;" horiz-adv-x="981" d="M83 519q0 121 41 225.5t114 179t180 117t235 42.5q79 0 151 -16t116 -39l-44 -150q-86 51 -223 51q-89 0 -161 -31.5t-118 -86t-71 -127t-25 -155.5q0 -181 103.5 -289t264.5 -108q120 0 237 52l33 -144q-29 -16 -69.5 -29.5t-105 -24.5t-130.5 -11q-158 0 -278 68 t-185 191.5t-65 284.5zM469 1205l192 313h213l-267 -313h-138z" />
<glyph unicode="&#x108;" horiz-adv-x="1270" d="M79 725q0 172 56.5 316.5t157.5 245.5t244.5 157.5t313.5 56.5q85 0 160.5 -11.5t117.5 -25t72 -29.5l-46 -155q-126 61 -298 61q-130 0 -236.5 -41t-182 -118t-117 -192t-41.5 -258q0 -181 66.5 -314.5t195.5 -206.5t307 -73q86 0 169 16.5t141 44.5l39 -151 q-60 -30 -162 -51.5t-227 -21.5q-157 0 -290 50t-231 143t-153.5 236.5t-55.5 320.5zM462 1564l226 251h147l228 -251h-160l-140 152h-4l-141 -152h-156z" />
<glyph unicode="&#x109;" horiz-adv-x="981" d="M83 519q0 121 41 225.5t114 179t180 117t235 42.5q79 0 151 -16t116 -39l-44 -150q-86 51 -223 51q-89 0 -161 -31.5t-118 -86t-71 -127t-25 -155.5q0 -181 103.5 -289t264.5 -108q120 0 237 52l33 -144q-29 -16 -69.5 -29.5t-105 -24.5t-130.5 -11q-158 0 -278 68 t-185 191.5t-65 284.5zM295 1205l207 313h134l210 -313h-149l-128 208h-4l-126 -208h-144z" />
<glyph unicode="&#x10a;" horiz-adv-x="1270" d="M79 725q0 172 56.5 316.5t157.5 245.5t244.5 157.5t313.5 56.5q85 0 160.5 -11.5t117.5 -25t72 -29.5l-46 -155q-126 61 -298 61q-130 0 -236.5 -41t-182 -118t-117 -192t-41.5 -258q0 -181 66.5 -314.5t195.5 -206.5t307 -73q86 0 169 16.5t141 44.5l39 -151 q-60 -30 -162 -51.5t-227 -21.5q-157 0 -290 50t-231 143t-153.5 236.5t-55.5 320.5zM653 1687q0 29 14.5 54t40.5 40.5t57 15.5q22 0 41.5 -9.5t33.5 -24.5t22 -35t8 -41q0 -28 -14 -53.5t-39 -41.5t-54 -16h-2q-44 0 -76 34t-32 77z" />
<glyph unicode="&#x10b;" horiz-adv-x="981" d="M83 519q0 121 41 225.5t114 179t180 117t235 42.5q79 0 151 -16t116 -39l-44 -150q-86 51 -223 51q-89 0 -161 -31.5t-118 -86t-71 -127t-25 -155.5q0 -181 103.5 -289t264.5 -108q120 0 237 52l33 -144q-29 -16 -69.5 -29.5t-105 -24.5t-130.5 -11q-158 0 -278 68 t-185 191.5t-65 284.5zM469 1361q0 47 32.5 80t79.5 33q46 0 76.5 -32.5t30.5 -80.5q0 -45 -30.5 -78.5t-76.5 -33.5h-2q-47 0 -78.5 33.5t-31.5 78.5z" />
<glyph unicode="&#x10c;" horiz-adv-x="1270" d="M79 725q0 172 56.5 316.5t157.5 245.5t244.5 157.5t313.5 56.5q85 0 160.5 -11.5t117.5 -25t72 -29.5l-46 -155q-126 61 -298 61q-130 0 -236.5 -41t-182 -118t-117 -192t-41.5 -258q0 -181 66.5 -314.5t195.5 -206.5t307 -73q86 0 169 16.5t141 44.5l39 -151 q-60 -30 -162 -51.5t-227 -21.5q-157 0 -290 50t-231 143t-153.5 236.5t-55.5 320.5zM469 1813h162l140 -152h5l138 152h157l-225 -251h-147z" />
<glyph unicode="&#x10d;" horiz-adv-x="981" d="M83 519q0 121 41 225.5t114 179t180 117t235 42.5q79 0 151 -16t116 -39l-44 -150q-86 51 -223 51q-89 0 -161 -31.5t-118 -86t-71 -127t-25 -155.5q0 -181 103.5 -289t264.5 -108q120 0 237 52l33 -144q-29 -16 -69.5 -29.5t-105 -24.5t-130.5 -11q-158 0 -278 68 t-185 191.5t-65 284.5zM293 1518h150l129 -207h5l128 207h146l-207 -313h-140z" />
<glyph unicode="&#x10e;" horiz-adv-x="1458" d="M167 4v1453q211 31 405 31q402 0 599 -184q207 -190 207 -530q0 -181 -54 -327t-158 -248q-103 -103 -270.5 -157.5t-382.5 -54.5q-192 0 -346 17zM357 151q61 -11 193 -11q152 0 270 42t197.5 122t120.5 197t41 266q1 132 -36 236.5t-110.5 179t-188 114t-263.5 39.5 q-133 0 -224 -19v-1166zM372 1810h163l140 -152h4l138 152h158l-226 -250h-147z" />
<glyph unicode="&#x10f;" horiz-adv-x="1257" d="M83 515q0 129 37.5 237.5t102.5 180.5t151.5 112t184.5 40q114 0 197 -46.5t122 -116.5h5v634h193v-1282q0 -177 9 -274h-173l-9 184h-4q-46 -93 -141 -151t-221 -58q-95 0 -179 39.5t-144.5 109.5t-95.5 171t-35 220zM278 523q0 -110 34 -197t106.5 -140.5t173.5 -53.5 q99 0 177.5 62t104.5 168q9 35 9 83v184q0 49 -9 81q-22 96 -97.5 159.5t-180.5 63.5q-97 0 -170 -53.5t-110.5 -146t-37.5 -210.5zM1173 1207q78 92 78 196q0 26 -9 53t-24 49.5t-35 39.5l138 31q32 -20 56 -64.5t24 -95.5q0 -44 -12 -85t-26 -67t-37.5 -52.5t-35.5 -37.5 t-31 -25l-2 -2t-2 -1.5t-2 -1.5z" />
<glyph unicode="&#x110;" horiz-adv-x="1470" d="M-4 673v153h182v636q200 33 405 33q401 0 598 -184q208 -191 208 -537q0 -365 -212 -577q-103 -103 -271.5 -157.5t-382.5 -54.5q-211 0 -345 15v673h-182zM368 147q64 -9 191 -9q307 0 469 163.5t162 469.5q1 271 -150 420.5t-448 149.5q-133 0 -224 -20v-495h395v-153 h-395v-526z" />
<glyph unicode="&#x111;" horiz-adv-x="1235" d="M83 515q0 129 37.5 237.5t102.5 180.5t151.5 112t184.5 40q114 0 197 -46.5t122 -116.5h5v287h-431v121h431v226h193v-226h168v-121h-168v-935q0 -177 9 -274h-173l-9 184h-4q-46 -93 -141 -151t-221 -58q-95 0 -179 39.5t-144.5 109.5t-95.5 171t-35 220zM278 523 q0 -110 34 -197t106.5 -140.5t173.5 -53.5q99 0 177.5 62t104.5 168q9 35 9 83v184q0 49 -9 81q-22 96 -97.5 159.5t-180.5 63.5q-97 0 -170 -53.5t-110.5 -146t-37.5 -210.5z" />
<glyph unicode="&#x112;" horiz-adv-x="1077" d="M167 0v1477h797v-160h-607v-466h574v-159h-574v-532h640v-160h-830zM307 1606v121h523v-121h-523z" />
<glyph unicode="&#x113;" horiz-adv-x="1097" d="M83 513q0 119 35 223.5t98 182t157.5 122t207.5 44.5q72 0 133.5 -17.5t105.5 -47.5t79 -71t57 -85.5t36.5 -94.5t20.5 -95t6 -89q0 -32 -7 -90h-744q1 -94 30.5 -166.5t80.5 -115.5t114.5 -64.5t137.5 -21.5q166 0 293 55l34 -138q-149 -69 -353 -69q-161 0 -279.5 68 t-180.5 189t-62 281zM270 633h562q1 41 -5.5 81t-25 83t-47.5 75.5t-78 53.5t-111 21q-47 0 -88.5 -14t-71.5 -38t-54.5 -54.5t-41 -66.5t-26 -71t-13.5 -70zM309 1284v125h493v-125h-493z" />
<glyph unicode="&#x114;" horiz-adv-x="1077" d="M167 0v1477h797v-160h-607v-466h574v-159h-574v-532h640v-160h-830zM285 1808h114q10 -45 47 -76.5t110 -31.5q75 0 113.5 30.5t47.5 77.5h111q-3 -104 -71 -168t-203 -64q-133 0 -199.5 63.5t-69.5 168.5z" />
<glyph unicode="&#x115;" horiz-adv-x="1097" d="M83 513q0 119 35 223.5t98 182t157.5 122t207.5 44.5q72 0 133.5 -17.5t105.5 -47.5t79 -71t57 -85.5t36.5 -94.5t20.5 -95t6 -89q0 -32 -7 -90h-744q1 -94 30.5 -166.5t80.5 -115.5t114.5 -64.5t137.5 -21.5q166 0 293 55l34 -138q-149 -69 -353 -69q-161 0 -279.5 68 t-180.5 189t-62 281zM270 633h562q1 41 -5.5 81t-25 83t-47.5 75.5t-78 53.5t-111 21q-47 0 -88.5 -14t-71.5 -38t-54.5 -54.5t-41 -66.5t-26 -71t-13.5 -70zM282 1495h115q10 -67 51 -109.5t106 -42.5q72 0 112.5 45t46.5 107h113q0 -123 -74.5 -197.5t-197.5 -74.5 q-69 0 -123 23t-85.5 62t-47.5 86.5t-16 100.5z" />
<glyph unicode="&#x116;" horiz-adv-x="1077" d="M167 0v1477h797v-160h-607v-466h574v-159h-574v-532h640v-160h-830zM441 1691.5q0 43.5 32.5 76.5t78.5 33q44 0 74.5 -33t30.5 -76q0 -44 -31 -78t-76 -34h-2q-44 0 -75.5 34t-31.5 77.5z" />
<glyph unicode="&#x117;" horiz-adv-x="1097" d="M83 513q0 119 35 223.5t98 182t157.5 122t207.5 44.5q72 0 133.5 -17.5t105.5 -47.5t79 -71t57 -85.5t36.5 -94.5t20.5 -95t6 -89q0 -32 -7 -90h-744q1 -94 30.5 -166.5t80.5 -115.5t114.5 -64.5t137.5 -21.5q166 0 293 55l34 -138q-149 -69 -353 -69q-161 0 -279.5 68 t-180.5 189t-62 281zM270 633h562q1 41 -5.5 81t-25 83t-47.5 75.5t-78 53.5t-111 21q-47 0 -88.5 -14t-71.5 -38t-54.5 -54.5t-41 -66.5t-26 -71t-13.5 -70zM447 1361q0 48 32 80.5t80 32.5q22 0 42 -8.5t34.5 -24t23 -36.5t8.5 -44q0 -45 -31 -78.5t-77 -33.5h-3 q-46 0 -77.5 33.5t-31.5 78.5z" />
<glyph unicode="&#x118;" horiz-adv-x="1077" d="M167 0v1477h797v-160h-607v-466h574v-159h-574v-532h640v-160q-3 0 -9 -0.5t-12.5 -1t-11.5 -0.5q-75 -47 -128.5 -110t-53.5 -120q0 -21 7.5 -37.5t21 -27.5t32 -17t40.5 -6q52 0 96 17l29 -103q-75 -46 -176 -46q-94 0 -147.5 47t-53.5 131q0 56 28.5 112t66 94.5 t81.5 67.5h-640z" />
<glyph unicode="&#x119;" horiz-adv-x="1097" d="M83 513q0 119 35 223.5t98 182t157.5 122t207.5 44.5q72 0 133.5 -17.5t105.5 -47.5t79 -71t57 -85.5t36.5 -94.5t20.5 -95t6 -89q0 -32 -7 -90h-744q1 -94 30.5 -166.5t80.5 -115.5t114.5 -64.5t137.5 -21.5q166 0 293 55l34 -138q-34 -15 -101 -38q-72 -31 -139 -101 t-67 -133q0 -45 26 -68.5t63 -23.5q51 0 103 21l31 -98q-71 -52 -177 -52q-90 0 -143.5 46t-53.5 127q0 73 48 141.5t111 113.5v2q-48 -6 -59 -6q-158 1 -276 69t-179.5 189t-61.5 280zM270 633h562q1 41 -5.5 81t-25 83t-47.5 75.5t-78 53.5t-111 21q-47 0 -88.5 -14 t-71.5 -38t-54.5 -54.5t-41 -66.5t-26 -71t-13.5 -70z" />
<glyph unicode="&#x11a;" horiz-adv-x="1077" d="M167 0v1477h797v-160h-607v-466h574v-159h-574v-532h640v-160h-830zM261 1806h162l140 -152h4l138 152h158l-225 -250h-147z" />
<glyph unicode="&#x11b;" horiz-adv-x="1097" d="M83 513q0 119 35 223.5t98 182t157.5 122t207.5 44.5q72 0 133.5 -17.5t105.5 -47.5t79 -71t57 -85.5t36.5 -94.5t20.5 -95t6 -89q0 -32 -7 -90h-744q1 -94 30.5 -166.5t80.5 -115.5t114.5 -64.5t137.5 -21.5q166 0 293 55l34 -138q-149 -69 -353 -69q-161 0 -279.5 68 t-180.5 189t-62 281zM270 633h562q1 41 -5.5 81t-25 83t-47.5 75.5t-78 53.5t-111 21q-47 0 -88.5 -14t-71.5 -38t-54.5 -54.5t-41 -66.5t-26 -71t-13.5 -70zM276 1518h149l129 -207h5l129 207h144l-205 -313h-140z" />
<glyph unicode="&#x11c;" horiz-adv-x="1415" d="M79 730q1 165 57 305t157.5 241.5t252 159t332.5 57.5q81 0 157.5 -11t126.5 -26t85 -32l-46 -155q-142 63 -327 63q-134 0 -244 -41t-187.5 -116.5t-120 -187.5t-42.5 -249q0 -138 41 -250.5t115.5 -188t180 -116.5t234.5 -41q172 0 253 40v441h-299v153h485v-711 q-221 -80 -453 -80q-349 0 -552 195q-97 93 -151.5 236t-54.5 314zM489 1562l226 251h146l228 -251h-160l-140 152h-5l-140 -152h-155z" />
<glyph unicode="&#x11d;" horiz-adv-x="1224" d="M83 521q0 105 26.5 196.5t72 158t106 114.5t130 71.5t143.5 23.5q66 0 122 -16t96 -43.5t67.5 -58.5t45.5 -66h5l8 159h169q-9 -173 -9 -291v-616q0 -181 -37 -297.5t-114 -186.5q-136 -127 -385 -127q-99 0 -195 23t-159 65l49 146q134 -83 311 -83q76 0 137 20.5 t107.5 63.5t71.5 115.5t25 170.5v119h-4q-31 -51 -76.5 -90t-113.5 -63.5t-147 -24.5q-129 0 -233 68t-161.5 186t-57.5 263zM278 533q0 -63 12.5 -120t38 -105t62.5 -83t88.5 -54.5t112.5 -19.5q59 0 112 23.5t94 68.5t61 106q15 46 15 103v190q0 54 -11 88 q-28 88 -98.5 145.5t-170.5 57.5q-140 0 -228 -109t-88 -291zM337 1212l207 313h133l210 -313h-149l-127 208h-4l-127 -208h-143z" />
<glyph unicode="&#x11e;" horiz-adv-x="1415" d="M79 730q1 165 57 305t157.5 241.5t252 159t332.5 57.5q81 0 157.5 -11t126.5 -26t85 -32l-46 -155q-142 63 -327 63q-134 0 -244 -41t-187.5 -116.5t-120 -187.5t-42.5 -249q0 -138 41 -250.5t115.5 -188t180 -116.5t234.5 -41q172 0 253 40v441h-299v153h485v-711 q-221 -80 -453 -80q-349 0 -552 195q-97 93 -151.5 236t-54.5 314zM504 1813h114q10 -46 47.5 -77t110.5 -31q74 0 112 30t47 78h113q-4 -104 -72 -168.5t-202 -64.5q-133 0 -200 63.5t-70 169.5z" />
<glyph unicode="&#x11f;" horiz-adv-x="1224" d="M83 521q0 105 26.5 196.5t72 158t106 114.5t130 71.5t143.5 23.5q66 0 122 -16t96 -43.5t67.5 -58.5t45.5 -66h5l8 159h169q-9 -173 -9 -291v-616q0 -181 -37 -297.5t-114 -186.5q-136 -127 -385 -127q-99 0 -195 23t-159 65l49 146q134 -83 311 -83q76 0 137 20.5 t107.5 63.5t71.5 115.5t25 170.5v119h-4q-31 -51 -76.5 -90t-113.5 -63.5t-147 -24.5q-129 0 -233 68t-161.5 186t-57.5 263zM278 533q0 -63 12.5 -120t38 -105t62.5 -83t88.5 -54.5t112.5 -19.5q59 0 112 23.5t94 68.5t61 106q15 46 15 103v190q0 54 -11 88 q-28 88 -98.5 145.5t-170.5 57.5q-140 0 -228 -109t-88 -291zM324 1495h115q6 -44 26 -77.5t53.5 -54t77.5 -20.5q72 0 112.5 45t45.5 107h114q0 -81 -33.5 -142.5t-95.5 -95.5t-143 -34q-70 0 -123.5 23t-85 62t-47.5 86.5t-16 100.5z" />
<glyph unicode="&#x120;" horiz-adv-x="1415" d="M79 730q1 165 57 305t157.5 241.5t252 159t332.5 57.5q81 0 157.5 -11t126.5 -26t85 -32l-46 -155q-142 63 -327 63q-134 0 -244 -41t-187.5 -116.5t-120 -187.5t-42.5 -249q0 -138 41 -250.5t115.5 -188t180 -116.5t234.5 -41q172 0 253 40v441h-299v153h485v-711 q-221 -80 -453 -80q-349 0 -552 195q-97 93 -151.5 236t-54.5 314zM684 1687.5q0 43.5 32.5 76.5t78.5 33q44 0 75 -33t31 -77q0 -43 -31.5 -77t-76.5 -34h-2q-44 0 -75.5 34t-31.5 77.5z" />
<glyph unicode="&#x121;" horiz-adv-x="1224" d="M83 521q0 105 26.5 196.5t72 158t106 114.5t130 71.5t143.5 23.5q66 0 122 -16t96 -43.5t67.5 -58.5t45.5 -66h5l8 159h169q-9 -173 -9 -291v-616q0 -181 -37 -297.5t-114 -186.5q-136 -127 -385 -127q-99 0 -195 23t-159 65l49 146q134 -83 311 -83q76 0 137 20.5 t107.5 63.5t71.5 115.5t25 170.5v119h-4q-31 -51 -76.5 -90t-113.5 -63.5t-147 -24.5q-129 0 -233 68t-161.5 186t-57.5 263zM278 533q0 -63 12.5 -120t38 -105t62.5 -83t88.5 -54.5t112.5 -19.5q59 0 112 23.5t94 68.5t61 106q15 46 15 103v190q0 54 -11 88 q-28 88 -98.5 145.5t-170.5 57.5q-140 0 -228 -109t-88 -291zM500 1367q0 24 8.5 45t23 36t35.5 24t44 9q22 0 42.5 -9t34.5 -24t22.5 -36t8.5 -45q0 -45 -31 -78t-77 -33h-2q-47 0 -78 33t-31 78z" />
<glyph unicode="&#x122;" horiz-adv-x="1415" d="M79 730q1 165 57 305t157.5 241.5t252 159t332.5 57.5q81 0 157.5 -11t126.5 -26t85 -32l-46 -155q-142 63 -327 63q-134 0 -244 -41t-187.5 -116.5t-120 -187.5t-42.5 -249q0 -138 41 -250.5t115.5 -188t180 -116.5t234.5 -41q172 0 253 40v441h-299v153h485v-711 q-221 -80 -453 -80q-349 0 -552 195q-97 93 -151.5 236t-54.5 314zM615 -397q46 8 81.5 24.5t59.5 47.5t24 72q0 36 -21.5 71.5t-53.5 60.5l144 31q36 -24 61 -66t25 -93q0 -59 -24.5 -104.5t-66 -73t-90 -42t-101.5 -18.5z" />
<glyph unicode="&#x123;" horiz-adv-x="1224" d="M83 521q0 105 26.5 196.5t72 158t106 114.5t130 71.5t143.5 23.5q66 0 122 -16t96 -43.5t67.5 -58.5t45.5 -66h5l8 159h169q-9 -173 -9 -291v-616q0 -181 -37 -297.5t-114 -186.5q-136 -127 -385 -127q-99 0 -195 23t-159 65l49 146q134 -83 311 -83q76 0 137 20.5 t107.5 63.5t71.5 115.5t25 170.5v119h-4q-31 -51 -76.5 -90t-113.5 -63.5t-147 -24.5q-129 0 -233 68t-161.5 186t-57.5 263zM278 533q0 -63 12.5 -120t38 -105t62.5 -83t88.5 -54.5t112.5 -19.5q59 0 112 23.5t94 68.5t61 106q15 46 15 103v190q0 54 -11 88 q-28 88 -98.5 145.5t-170.5 57.5q-140 0 -228 -109t-88 -291zM458 1328q0 56 25 99.5t66.5 69.5t90 40t100.5 17l38 -82q-75 -10 -123 -45.5t-48 -96.5q0 -65 77 -129l-138 -28q-36 24 -62 65.5t-26 89.5z" />
<glyph unicode="&#x124;" horiz-adv-x="1428" d="M167 0v1477h190v-618h714v618h194v-1477h-194v692h-714v-692h-190zM416 1556l226 250h147l227 -250h-159l-140 151h-4l-141 -151h-156z" />
<glyph unicode="&#x125;" horiz-adv-x="1215" d="M-35 1598l225 249h147l228 -249h-159l-141 150h-4l-140 -150h-156zM160 0v1556h193v-661h4q49 85 138 135q94 55 197 55q33 0 66 -5.5t70 -20.5t70 -37.5t63.5 -58.5t52.5 -81.5t35.5 -110t13.5 -140.5v-631h-193v609q0 67 -13 122t-41 99.5t-76.5 69t-114.5 24.5 q-61 0 -114.5 -26.5t-90 -69.5t-54.5 -96q-13 -32 -13 -92v-640h-193z" />
<glyph unicode="&#x126;" horiz-adv-x="1439" d="M46 1050v127h125v300h191v-300h714v300h193v-300h125v-127h-125v-1050h-193v661h-714v-661h-191v1050h-125zM362 826h714v224h-714v-224z" />
<glyph unicode="&#x127;" horiz-adv-x="1215" d="M-9 1209v121h169v226h193v-226h423v-121h-423v-314h4q49 85 138 135q94 55 197 55q33 0 66 -5.5t70 -20.5t70 -37.5t63.5 -58.5t52.5 -81.5t35.5 -110t13.5 -140.5v-631h-193v609q0 67 -13 122t-41 99.5t-76.5 69t-114.5 24.5q-61 0 -114.5 -26.5t-90 -69.5t-54.5 -96 q-13 -32 -13 -92v-640h-193v1209h-169z" />
<glyph unicode="&#x128;" horiz-adv-x="523" d="M-9 1566q-3 102 37 163t112 61q23 0 46.5 -6.5t38.5 -14t45 -23.5q1 -1 10 -5.5l11 -5.5t10 -5.5t11 -5.5t10 -4.5t10.5 -4.5t10 -3t11 -3t10 -1.5t10.5 -0.5q27 0 41.5 17.5t18.5 67.5h101q2 -104 -35.5 -158t-112.5 -54q-31 0 -60.5 10.5t-71.5 31.5q-5 2 -23 12 t-24 12.5t-18.5 7.5t-21 7t-17.5 2q-50 0 -57 -97h-103zM167 0v1477h190v-1477h-190z" />
<glyph unicode="&#x129;" horiz-adv-x="512" d="M-13 1242q-3 106 37.5 167t111.5 61q33 0 62.5 -11.5t73.5 -36.5q3 -2 12.5 -7t13 -7t11.5 -6l12 -6t11 -4.5t11.5 -4t10 -2t10.5 -0.5q19 0 31 7.5t20 28.5t10 58h104q3 -221 -152 -221q-52 0 -134 44q-35 22 -55 30.5t-39 8.5q-50 0 -57 -99h-105zM160 0v1060h193 v-1060h-193z" />
<glyph unicode="&#x12a;" horiz-adv-x="523" d="M2 1606v121h524v-121h-524zM167 0v1477h190v-1477h-190z" />
<glyph unicode="&#x12b;" horiz-adv-x="512" d="M11 1284v125h493v-125h-493zM160 0v1060h193v-1060h-193z" />
<glyph unicode="&#x12c;" horiz-adv-x="523" d="M-9 1804h114q9 -45 47 -76.5t111 -31.5q75 0 113 30t47 78h112q-3 -104 -71.5 -168.5t-202.5 -64.5q-46 0 -84.5 8t-67.5 23t-51 36t-36 47t-21.5 56t-9.5 63zM167 0v1477h190v-1477h-190z" />
<glyph unicode="&#x12d;" horiz-adv-x="512" d="M-9 1495h114q10 -67 51.5 -109.5t106.5 -42.5q49 0 84.5 23.5t52.5 56.5t21 72h114q0 -123 -74.5 -197.5t-197.5 -74.5q-69 0 -123 23t-85.5 62t-47.5 86.5t-16 100.5zM160 0v1060h193v-1060h-193z" />
<glyph unicode="&#x12e;" horiz-adv-x="523" d="M61 -270q0 113 106 270v1477h190v-1477h-66q-90 -125 -90 -215q0 -54 31.5 -83.5t81.5 -29.5q54 0 98 19l31 -99q-32 -24 -82 -37t-96 -13q-93 0 -148.5 49t-55.5 139z" />
<glyph unicode="&#x12f;" horiz-adv-x="512" d="M57 -270q0 116 103 270v1060h193v-1060h-66q-92 -128 -92 -215q0 -54 31.5 -83.5t80.5 -29.5q53 0 101 19l29 -99q-33 -25 -82 -37.5t-96 -12.5q-93 0 -147.5 49t-54.5 139zM134 1372q0 51 34.5 87t88.5 36q55 0 88.5 -35.5t33.5 -87.5q0 -51 -34 -87t-90 -36h-2 q-52 0 -85.5 36t-33.5 87z" />
<glyph unicode="&#x130;" horiz-adv-x="523" d="M155 1691.5q0 43.5 33 76.5t80 33q43 0 73.5 -33t30.5 -76q0 -44 -31 -78t-76 -34h-2q-43 0 -75.5 34t-32.5 77.5zM167 0v1477h190v-1477h-190z" />
<glyph unicode="&#x131;" horiz-adv-x="512" d="M160 0v1060h193v-1060h-193z" />
<glyph unicode="&#x132;" horiz-adv-x="1334" d="M167 0v1477h190v-1477h-190zM533 11l28 156q76 -29 160 -29q68 0 115.5 17t84 57.5t54.5 113t18 178.5v973h190v-988q0 -96 -15 -174t-44 -134t-68.5 -96t-90.5 -64t-107 -35t-122 -11q-51 0 -108.5 10.5t-94.5 25.5z" />
<glyph unicode="&#x133;" horiz-adv-x="1044" d="M136 1359q0 51 34 85.5t87 34.5t85 -34t32 -86q2 -50 -31.5 -84.5t-89.5 -34.5q-50 0 -83.5 34.5t-33.5 84.5zM160 0v1060h193v-1060h-193zM414 -311q146 10 211 81q40 45 56 128.5t16 270.5v891h192v-966q0 -159 -28.5 -262t-97.5 -173q-60 -60 -151.5 -90.5 t-177.5 -30.5zM673 1359q0 33 15 60.5t43 43.5t64 16q52 0 84.5 -34.5t32.5 -85.5q1 -49 -32 -84t-89 -35q-53 0 -85.5 35t-32.5 84z" />
<glyph unicode="&#x134;" horiz-adv-x="809" d="M9 11l28 156q77 -29 160 -29q67 0 115 17t84.5 57.5t54.5 113t18 178.5v973h190v-988q0 -115 -22 -204t-61 -147t-96 -95t-122.5 -52.5t-144.5 -15.5q-52 0 -109.5 10.5t-94.5 25.5zM257 1556l226 250h146l228 -250h-160l-141 151h-4l-140 -151h-155z" />
<glyph unicode="&#x135;" horiz-adv-x="531" d="M-98 -311q145 10 209 81q41 45 57 129t16 270v891h193v-966q0 -159 -29.5 -262t-98.5 -173q-60 -60 -151.5 -90.5t-176.5 -30.5zM-6 1190l205 313h134l211 -313h-149l-127 208h-5l-127 -208h-142z" />
<glyph unicode="&#x136;" horiz-adv-x="1187" d="M167 0v1477h190v-712h7q50 72 116 157l451 555h237l-535 -626l576 -851h-225l-486 725l-141 -162v-563h-190zM434 -393q72 13 118 49t46 97q0 35 -21.5 70t-53.5 60l144 31q36 -24 61.5 -66t25.5 -93q0 -58 -24.5 -104t-66.5 -73t-90 -42t-102 -19z" />
<glyph unicode="&#x137;" horiz-adv-x="1027" d="M160 0v1556h191v-981h4q32 45 94 119l312 366h232l-410 -435l467 -625h-235l-366 508l-98 -109v-399h-191zM351 -397q71 11 117.5 47t46.5 97q0 36 -21 71.5t-53 60.5l142 31q23 -15 42.5 -38t32.5 -55.5t13 -65.5q0 -59 -25 -104.5t-66.5 -73t-90 -42t-102.5 -18.5z" />
<glyph unicode="&#x138;" horiz-adv-x="1027" d="M160 0v1060h191v-485h4q32 45 94 119l312 366h232l-410 -435l467 -625h-235l-366 508l-98 -109v-399h-191z" />
<glyph unicode="&#x139;" horiz-adv-x="1033" d="M167 0v1477h190v-1317h632v-160h-822zM188 1556l205 257h232l-278 -257h-159z" />
<glyph unicode="&#x13a;" horiz-adv-x="516" d="M134 1619l203 257h232l-278 -257h-157zM160 0v1556h193v-1556h-193z" />
<glyph unicode="&#x13b;" horiz-adv-x="1033" d="M167 0v1477h190v-1317h632v-160h-822zM372 -397q46 8 81.5 24.5t59.5 47.5t24 72q0 36 -21.5 71.5t-53.5 60.5l143 31q36 -24 61.5 -66t25.5 -93q0 -47 -16.5 -86.5t-43.5 -65.5t-64 -45t-76.5 -28.5t-81.5 -12.5z" />
<glyph unicode="&#x13c;" horiz-adv-x="516" d="M77 -397q71 11 117.5 47t46.5 97q0 36 -21 71.5t-53 60.5l142 31q36 -24 62 -67t26 -92q0 -59 -24.5 -104.5t-66.5 -73t-90.5 -42t-102.5 -18.5zM160 0v1556h193v-1556h-193z" />
<glyph unicode="&#x13d;" horiz-adv-x="1033" d="M167 0v1477h190v-1317h632v-160h-822zM533 1194q72 13 118 48t46 97q0 35 -21.5 70.5t-52.5 60.5l142 31q36 -24 62 -66.5t26 -93.5q0 -40 -11.5 -73.5t-32 -58.5t-47.5 -44t-59 -31.5t-65.5 -20t-68.5 -9.5z" />
<glyph unicode="&#x13e;" horiz-adv-x="533" d="M160 0v1556h193v-1556h-193zM441 1207q35 43 56.5 89.5t21.5 106.5q0 39 -19 77.5t-48 64.5l138 31q30 -20 53.5 -65t23.5 -100q0 -23 -3.5 -45.5t-8 -40.5t-13 -36.5t-15.5 -32t-18.5 -28.5t-18.5 -23.5t-19 -20.5t-17 -16.5t-15.5 -13.5t-12.5 -10z" />
<glyph unicode="&#x13f;" horiz-adv-x="1033" d="M167 0v1477h190v-1317h632v-160h-822zM638 813q0 44 32.5 76.5t78.5 32.5q43 0 74.5 -33t31.5 -76t-31.5 -77.5t-76.5 -34.5h-2q-29 0 -54 16t-39 42t-14 54z" />
<glyph unicode="&#x140;" horiz-adv-x="595" d="M160 0v1556h193v-1556h-193zM449 857q0 46 30.5 77.5t74.5 31.5q43 0 72 -31t29 -78q0 -44 -29 -77t-72 -33h-2q-28 0 -52 15.5t-37.5 41t-13.5 53.5z" />
<glyph unicode="&#x141;" horiz-adv-x="1042" d="M-9 456v149l184 133v739h191v-607l293 213v-152l-293 -210v-561h631v-160h-822v592z" />
<glyph unicode="&#x142;" horiz-adv-x="529" d="M19 504v151l150 129v772h193v-625l155 134v-153l-155 -134v-778h-193v631z" />
<glyph unicode="&#x143;" horiz-adv-x="1441" d="M167 0v1477h207l475 -747q153 -244 264 -481l4 4q-21 246 -21 606v618h179v-1477h-192l-470 749q-182 293 -276 493l-6 -2q16 -279 16 -609v-631h-180zM609 1556l204 257h232l-278 -257h-158z" />
<glyph unicode="&#x144;" horiz-adv-x="1215" d="M151 1060h171l11 -175h4q44 83 136 141.5t215 58.5q48 0 95.5 -11.5t99.5 -43t90.5 -80.5t64 -130.5t25.5 -186.5v-633h-193v611q0 67 -13 121.5t-41 99t-76.5 68.5t-114.5 24q-92 0 -162.5 -56.5t-96.5 -139.5q-13 -37 -13 -90v-638h-193v774q0 155 -9 286zM504 1205 l193 313h213l-268 -313h-138z" />
<glyph unicode="&#x145;" horiz-adv-x="1441" d="M167 0v1477h207l475 -747q153 -244 264 -481l4 4q-21 246 -21 606v618h179v-1477h-192l-470 749q-182 293 -276 493l-6 -2q16 -279 16 -609v-631h-180zM554 -395q72 13 118.5 48.5t46.5 97.5q0 35 -21.5 70t-53.5 60l142 31q24 -15 43 -37.5t32 -55t13 -66.5 q0 -59 -24.5 -104.5t-66 -72.5t-90 -42t-101.5 -19z" />
<glyph unicode="&#x146;" horiz-adv-x="1215" d="M151 1060h171l11 -175h4q44 83 136 141.5t215 58.5q48 0 95.5 -11.5t99.5 -43t90.5 -80.5t64 -130.5t25.5 -186.5v-633h-193v611q0 67 -13 121.5t-41 99t-76.5 68.5t-114.5 24q-92 0 -162.5 -56.5t-96.5 -139.5q-13 -37 -13 -90v-638h-193v774q0 155 -9 286zM447 -395 q71 11 117.5 47.5t46.5 98.5q0 35 -21 70t-53 60l142 31q37 -24 62.5 -67t25.5 -92q0 -59 -24.5 -104.5t-66 -72.5t-90 -42t-101.5 -19z" />
<glyph unicode="&#x147;" horiz-adv-x="1441" d="M167 0v1477h207l475 -747q153 -244 264 -481l4 4q-21 246 -21 606v618h179v-1477h-192l-470 749q-182 293 -276 493l-6 -2q16 -279 16 -609v-631h-180zM421 1794h162l140 -150h5l138 150h157l-226 -249h-146z" />
<glyph unicode="&#x148;" horiz-adv-x="1215" d="M151 1060h171l11 -175h4q44 83 136 141.5t215 58.5q48 0 95.5 -11.5t99.5 -43t90.5 -80.5t64 -130.5t25.5 -186.5v-633h-193v611q0 67 -13 121.5t-41 99t-76.5 68.5t-114.5 24q-92 0 -162.5 -56.5t-96.5 -139.5q-13 -37 -13 -90v-638h-193v774q0 155 -9 286zM328 1518 h149l130 -207h4l129 207h145l-206 -313h-140z" />
<glyph unicode="&#x149;" horiz-adv-x="1215" d="M40 1238q17 19 28.5 34.5t25 38.5t20.5 50t7 57q0 36 -19.5 70t-49.5 59l141 38q19 -12 36 -33.5t29 -55t12 -70.5q0 -30 -7 -59t-15.5 -49.5t-25 -43.5t-26 -34.5t-29.5 -29t-24 -20.5l-20 -15zM151 1060h171l11 -175h4q44 83 136 141.5t215 58.5q48 0 95.5 -11.5 t99.5 -43t90.5 -80.5t64 -130.5t25.5 -186.5v-633h-193v611q0 67 -13 121.5t-41 99t-76.5 68.5t-114.5 24q-92 0 -162.5 -56.5t-96.5 -139.5q-13 -37 -13 -90v-638h-193v774q0 155 -9 286z" />
<glyph unicode="&#x14a;" horiz-adv-x="1441" d="M167 0v1477h207l475 -747q153 -244 264 -481l4 4q-21 246 -21 606v618h179v-1394q0 -233 -105 -360.5t-317 -159.5l-40 150q133 27 200 92.5t78 181.5l-478 762q-182 293 -276 493l-6 -2q16 -279 16 -609v-631h-180z" />
<glyph unicode="&#x14b;" horiz-adv-x="1215" d="M151 1060h171l11 -175h4q44 83 136 141.5t215 58.5q48 0 95.5 -11.5t99.5 -43t90.5 -80.5t64 -130.5t25.5 -186.5v-504q0 -122 -32 -218t-89.5 -157.5t-131 -97.5t-164.5 -49l-37 154q87 18 144.5 61.5t87 115.5t29.5 173v500q0 67 -13 121.5t-41 99t-76.5 68.5 t-114.5 24q-92 0 -162.5 -56.5t-96.5 -139.5q-13 -37 -13 -90v-638h-193v774q0 155 -9 286z" />
<glyph unicode="&#x14c;" horiz-adv-x="1509" d="M79 725q0 173 52 319t143 246t217.5 155.5t273.5 55.5q149 0 273.5 -55t210 -153.5t132.5 -236.5t47 -302q0 -149 -35 -275.5t-97.5 -218.5t-148.5 -156.5t-188.5 -96.5t-215.5 -32q-145 0 -268.5 55t-210.5 152.5t-136 237.5t-49 305zM282 730q0 -95 20 -183.5t60 -164 t96 -131.5t132 -87.5t164 -31.5q75 0 140.5 22t117 62t92.5 96.5t68 124.5t41 146t14 162q0 63 -9 125t-28.5 121.5t-47.5 112.5t-67 97t-86 76t-106.5 50t-126.5 18q-92 0 -170 -33t-133 -90.5t-94 -135.5t-58 -168t-19 -188zM493 1617v121h523v-121h-523z" />
<glyph unicode="&#x14d;" horiz-adv-x="1202" d="M83 521q0 105 26.5 195t74.5 157.5t113 115t144.5 72t167.5 24.5q151 0 267 -68.5t180 -192.5t64 -285q0 -114 -30.5 -209t-81.5 -159.5t-119.5 -109.5t-143 -65.5t-153.5 -20.5q-107 0 -200.5 39t-161.5 108.5t-107.5 172.5t-39.5 226zM278 529q0 -86 24 -161.5 t66.5 -130t102.5 -85.5t129 -31q91 0 165 53t115.5 147t41.5 212q0 46 -7.5 92.5t-23.5 93t-42.5 86t-60.5 70t-81 48.5t-102 18q-67 0 -122 -24t-92 -63.5t-63 -93t-38 -112t-12 -119.5zM355 1284v125h494v-125h-494z" />
<glyph unicode="&#x14e;" horiz-adv-x="1509" d="M79 725q0 173 52 319t143 246t217.5 155.5t273.5 55.5q149 0 273.5 -55t210 -153.5t132.5 -236.5t47 -302q0 -149 -35 -275.5t-97.5 -218.5t-148.5 -156.5t-188.5 -96.5t-215.5 -32q-145 0 -268.5 55t-210.5 152.5t-136 237.5t-49 305zM282 730q0 -95 20 -183.5t60 -164 t96 -131.5t132 -87.5t164 -31.5q75 0 140.5 22t117 62t92.5 96.5t68 124.5t41 146t14 162q0 63 -9 125t-28.5 121.5t-47.5 112.5t-67 97t-86 76t-106.5 50t-126.5 18q-92 0 -170 -33t-133 -90.5t-94 -135.5t-58 -168t-19 -188zM483 1819h113q4 -21 14.5 -38.5t28.5 -34 t47.5 -26t67.5 -9.5q75 0 113 30t47 78h111q-3 -104 -71.5 -168t-202.5 -64q-133 0 -199 63.5t-69 168.5z" />
<glyph unicode="&#x14f;" horiz-adv-x="1202" d="M83 521q0 105 26.5 195t74.5 157.5t113 115t144.5 72t167.5 24.5q151 0 267 -68.5t180 -192.5t64 -285q0 -114 -30.5 -209t-81.5 -159.5t-119.5 -109.5t-143 -65.5t-153.5 -20.5q-107 0 -200.5 39t-161.5 108.5t-107.5 172.5t-39.5 226zM278 529q0 -86 24 -161.5 t66.5 -130t102.5 -85.5t129 -31q91 0 165 53t115.5 147t41.5 212q0 46 -7.5 92.5t-23.5 93t-42.5 86t-60.5 70t-81 48.5t-102 18q-67 0 -122 -24t-92 -63.5t-63 -93t-38 -112t-12 -119.5zM328 1495h115q7 -44 26.5 -77.5t53.5 -54t77 -20.5q72 0 112.5 45t46.5 107h113 q0 -123 -74.5 -197.5t-197.5 -74.5q-69 0 -123 23t-85.5 62t-47.5 86.5t-16 100.5z" />
<glyph unicode="&#x150;" horiz-adv-x="1509" d="M79 725q0 173 52 319t143 246t217.5 155.5t273.5 55.5q149 0 273.5 -55t210 -153.5t132.5 -236.5t47 -302q0 -149 -35 -275.5t-97.5 -218.5t-148.5 -156.5t-188.5 -96.5t-215.5 -32q-145 0 -268.5 55t-210.5 152.5t-136 237.5t-49 305zM282 730q0 -95 20 -183.5t60 -164 t96 -131.5t132 -87.5t164 -31.5q75 0 140.5 22t117 62t92.5 96.5t68 124.5t41 146t14 162q0 63 -9 125t-28.5 121.5t-47.5 112.5t-67 97t-86 76t-106.5 50t-126.5 18q-92 0 -170 -33t-133 -90.5t-94 -135.5t-58 -168t-19 -188zM523 1573l176 246h208l-243 -246h-141z M846 1573l175 246h211l-245 -246h-141z" />
<glyph unicode="&#x151;" horiz-adv-x="1202" d="M83 521q0 105 26.5 195t74.5 157.5t113 115t144.5 72t167.5 24.5q151 0 267 -68.5t180 -192.5t64 -285q0 -114 -30.5 -209t-81.5 -159.5t-119.5 -109.5t-143 -65.5t-153.5 -20.5q-107 0 -200.5 39t-161.5 108.5t-107.5 172.5t-39.5 226zM278 529q0 -86 24 -161.5 t66.5 -130t102.5 -85.5t129 -31q91 0 165 53t115.5 147t41.5 212q0 46 -7.5 92.5t-23.5 93t-42.5 86t-60.5 70t-81 48.5t-102 18q-67 0 -122 -24t-92 -63.5t-63 -93t-38 -112t-12 -119.5zM349 1219l172 299h189l-241 -299h-120zM664 1219l173 299h188l-241 -299h-120z" />
<glyph unicode="&#x152;" horiz-adv-x="1958" d="M79 728q0 179 54 325.5t150.5 244t230.5 150.5t293 53q56 0 192 -10q119 -14 141 -14h705v-160h-607v-466h572v-161h-572v-530h640v-160h-756q-40 0 -145 -13q-10 -1 -50.5 -4.5t-70 -5.5t-61.5 -2q-135 0 -250 37.5t-200 106t-145.5 162t-90.5 207t-30 240.5zM282 736 q-1 -180 63.5 -316t189.5 -212t295 -76q134 0 215 28v1153q-94 32 -232 32q-163 0 -284 -76.5t-184.5 -214.5t-62.5 -318z" />
<glyph unicode="&#x153;" horiz-adv-x="1890" d="M83 523q0 127 39.5 233t108 177.5t161.5 111.5t200 40q137 0 245 -67t156 -188h4q59 125 159.5 190t225.5 65q62 0 116 -13.5t95 -38t74.5 -56.5t57 -70.5t41 -79t27.5 -83t15 -81.5t5 -76q0 -61 -7 -89h-721q1 -89 27.5 -159.5t74 -116.5t111 -70.5t139.5 -24.5 q90 0 155 15.5t131 43.5l34 -138q-41 -23 -100.5 -40t-121.5 -25t-122 -8q-142 0 -249.5 62t-168.5 189h-6q-39 -83 -105 -140.5t-143 -84t-162 -26.5q-105 0 -196 39t-157 109t-104.5 173.5t-38.5 226.5zM278 529q0 -86 23.5 -161t65 -129.5t100.5 -86t127 -31.5 q92 0 163 51.5t109.5 144.5t38.5 214q0 62 -11 120t-35.5 111t-60 92.5t-88 63t-116.5 23.5h-2q-67 0 -121 -26t-89 -67t-59 -96t-34.5 -110.5t-10.5 -112.5zM1085 636h541q1 38 -5 77.5t-24 82t-46 75t-75.5 53.5t-108.5 21q-54 0 -100.5 -19.5t-78 -51t-54 -72.5 t-34.5 -82.5t-15 -83.5z" />
<glyph unicode="&#x154;" horiz-adv-x="1178" d="M167 0v1457q155 31 366 31q152 0 255 -29t172 -92q56 -48 86 -121.5t30 -158.5q0 -71 -21.5 -133t-60 -109t-88 -80.5t-109.5 -54.5v-7q162 -56 217 -297q42 -178 67.5 -272.5t47.5 -133.5h-198q-31 55 -99 353q-33 153 -99 217.5t-196 69.5h-180v-640h-190zM357 784h195 q101 0 176.5 35t116 98.5t40.5 147.5q0 137 -91 205.5t-248 70.5q-127 0 -189 -17v-540zM458 1562l203 257h234l-280 -257h-157z" />
<glyph unicode="&#x155;" horiz-adv-x="715" d="M151 1060h169l6 -207h9q36 106 116.5 169t177.5 63q29 0 55 -6v-182q-29 6 -66 6q-99 0 -168.5 -68.5t-89.5 -179.5q-9 -54 -9 -90v-565h-191v730q0 183 -9 330zM280 1205l193 313h213l-268 -313h-138z" />
<glyph unicode="&#x156;" horiz-adv-x="1178" d="M167 0v1457q155 31 366 31q152 0 255 -29t172 -92q56 -48 86 -121.5t30 -158.5q0 -71 -21.5 -133t-60 -109t-88 -80.5t-109.5 -54.5v-7q162 -56 217 -297q42 -178 67.5 -272.5t47.5 -133.5h-198q-31 55 -99 353q-33 153 -99 217.5t-196 69.5h-180v-640h-190zM357 784h195 q101 0 176.5 35t116 98.5t40.5 147.5q0 137 -91 205.5t-248 70.5q-127 0 -189 -17v-540zM427 -381q72 13 118.5 48t46.5 97q0 24 -11 49t-27.5 45.5t-36.5 36.5l142 30q37 -24 62.5 -66t25.5 -93q0 -59 -24.5 -104.5t-66.5 -72.5t-90 -41.5t-102 -18.5z" />
<glyph unicode="&#x157;" horiz-adv-x="715" d="M94 -397q71 11 118 47t47 97q0 36 -21.5 71.5t-53.5 60.5l142 31q37 -24 62.5 -67t25.5 -92q0 -59 -24.5 -104.5t-66 -73t-90 -42t-101.5 -18.5zM151 1060h169l6 -207h9q36 106 116.5 169t177.5 63q29 0 55 -6v-182q-29 6 -66 6q-99 0 -168.5 -68.5t-89.5 -179.5 q-9 -54 -9 -90v-565h-191v730q0 183 -9 330z" />
<glyph unicode="&#x158;" horiz-adv-x="1178" d="M167 0v1457q155 31 366 31q152 0 255 -29t172 -92q56 -48 86 -121.5t30 -158.5q0 -71 -21.5 -133t-60 -109t-88 -80.5t-109.5 -54.5v-7q162 -56 217 -297q42 -178 67.5 -272.5t47.5 -133.5h-198q-31 55 -99 353q-33 153 -99 217.5t-196 69.5h-180v-640h-190zM274 1813 h163l140 -152h4l138 152h157l-225 -251h-147zM357 784h195q101 0 176.5 35t116 98.5t40.5 147.5q0 137 -91 205.5t-248 70.5q-127 0 -189 -17v-540z" />
<glyph unicode="&#x159;" horiz-adv-x="715" d="M119 1518h149l129 -207h4l130 207h144l-206 -313h-141zM151 1060h169l6 -207h9q36 106 116.5 169t177.5 63q29 0 55 -6v-182q-29 6 -66 6q-99 0 -168.5 -68.5t-89.5 -179.5q-9 -54 -9 -90v-565h-191v730q0 183 -9 330z" />
<glyph unicode="&#x15a;" horiz-adv-x="1079" d="M92 73l48 159q69 -42 159 -69t184 -27q143 0 225.5 69t82.5 182q0 103 -64 169.5t-214 125.5q-191 67 -290.5 167.5t-99.5 250.5q0 86 34.5 160t96 127t151.5 83.5t195 30.5q200 0 327 -73l-53 -155q-125 70 -280 70q-72 0 -128 -20t-87.5 -53t-47 -70.5t-15.5 -77.5 q0 -99 67 -161t226 -124q194 -75 286 -175.5t92 -258.5q0 -69 -20.5 -132t-62.5 -117t-102 -93.5t-145.5 -62.5t-187.5 -23q-104 0 -209.5 28.5t-167.5 69.5zM452 1562l203 257h232l-278 -257h-157z" />
<glyph unicode="&#x15b;" horiz-adv-x="867" d="M86 50l48 147q47 -31 116.5 -53.5t136.5 -22.5q101 0 154 44t53 113q0 68 -44.5 111.5t-152.5 83.5q-94 33 -157 79.5t-93 101.5t-30 119.5t25.5 121t71.5 99t115.5 67t153.5 24.5q51 0 101.5 -9.5t89 -24t69.5 -32.5l-49 -141q-96 63 -217 63q-82 0 -129 -42t-47 -104 q0 -63 45 -100.5t156 -79.5q142 -54 210 -129.5t68 -190.5q0 -142 -105.5 -231t-291.5 -89q-170 0 -297 75zM341 1205l194 313h212l-267 -313h-139z" />
<glyph unicode="&#x15c;" horiz-adv-x="1079" d="M92 73l48 159q69 -42 159 -69t184 -27q143 0 225.5 69t82.5 182q0 103 -64 169.5t-214 125.5q-191 67 -290.5 167.5t-99.5 250.5q0 86 34.5 160t96 127t151.5 83.5t195 30.5q200 0 327 -73l-53 -155q-125 70 -280 70q-72 0 -128 -20t-87.5 -53t-47 -70.5t-15.5 -77.5 q0 -99 67 -161t226 -124q194 -75 286 -175.5t92 -258.5q0 -69 -20.5 -132t-62.5 -117t-102 -93.5t-145.5 -62.5t-187.5 -23q-104 0 -209.5 28.5t-167.5 69.5zM243 1562l226 251h146l228 -251h-159l-140 152h-5l-140 -152h-156z" />
<glyph unicode="&#x15d;" horiz-adv-x="867" d="M86 50l48 147q47 -31 116.5 -53.5t136.5 -22.5q101 0 154 44t53 113q0 68 -44.5 111.5t-152.5 83.5q-94 33 -157 79.5t-93 101.5t-30 119.5t25.5 121t71.5 99t115.5 67t153.5 24.5q51 0 101.5 -9.5t89 -24t69.5 -32.5l-49 -141q-96 63 -217 63q-82 0 -129 -42t-47 -104 q0 -63 45 -100.5t156 -79.5q142 -54 210 -129.5t68 -190.5q0 -142 -105.5 -231t-291.5 -89q-170 0 -297 75zM165 1205l205 313h134l211 -313h-150l-126 208h-5l-127 -208h-142z" />
<glyph unicode="&#x15e;" horiz-adv-x="1079" d="M92 73l48 159q69 -42 159 -69t184 -27q143 0 225.5 69t82.5 182q0 103 -64 169.5t-214 125.5q-191 67 -290.5 167.5t-99.5 250.5q0 86 34.5 160t96 127t151.5 83.5t195 30.5q200 0 327 -73l-53 -155q-125 70 -280 70q-72 0 -128 -20t-87.5 -53t-47 -70.5t-15.5 -77.5 q0 -99 67 -161t226 -124q194 -75 286 -175.5t92 -258.5q0 -59 -15 -113t-46 -103t-76 -88t-108.5 -67.5t-139.5 -42.5l-61 -98q42 -5 77 -26t55.5 -55t20.5 -73q0 -46 -18 -80.5t-50 -55t-71.5 -30.5t-85.5 -10q-88 0 -153 38l33 94q59 -32 120 -32q39 0 65.5 17.5 t26.5 51.5q0 75 -170 92l86 153h-15q-95 0 -201 28.5t-169 69.5z" />
<glyph unicode="&#x15f;" horiz-adv-x="867" d="M86 50l48 147q47 -31 116.5 -53.5t136.5 -22.5q101 0 154 44t53 113q0 68 -44.5 111.5t-152.5 83.5q-94 33 -157 79.5t-93 101.5t-30 119.5t25.5 121t71.5 99t115.5 67t153.5 24.5q51 0 101.5 -9.5t89 -24t69.5 -32.5l-49 -141q-96 63 -217 63q-82 0 -129 -42t-47 -104 q0 -63 45 -100.5t156 -79.5q142 -54 210 -129.5t68 -190.5q0 -118 -74 -200t-208 -108l-61 -96q63 -9 108 -50.5t45 -101.5q0 -47 -18 -82t-50.5 -55.5t-72 -30.5t-87.5 -10q-39 0 -79.5 10.5t-69.5 27.5l32 94q53 -32 119 -32q40 0 67 16.5t27 52.5q-3 78 -171 92l87 157 h-8q-67 0 -143 18.5t-137 52.5z" />
<glyph unicode="&#x160;" horiz-adv-x="1079" d="M92 73l48 159q69 -42 159 -69t184 -27q143 0 225.5 69t82.5 182q0 103 -64 169.5t-214 125.5q-191 67 -290.5 167.5t-99.5 250.5q0 86 34.5 160t96 127t151.5 83.5t195 30.5q200 0 327 -73l-53 -155q-125 70 -280 70q-72 0 -128 -20t-87.5 -53t-47 -70.5t-15.5 -77.5 q0 -99 67 -161t226 -124q194 -75 286 -175.5t92 -258.5q0 -69 -20.5 -132t-62.5 -117t-102 -93.5t-145.5 -62.5t-187.5 -23q-104 0 -209.5 28.5t-167.5 69.5zM263 1813h162l140 -152h4l139 152h158l-226 -251h-147z" />
<glyph unicode="&#x161;" horiz-adv-x="867" d="M86 50l48 147q47 -31 116.5 -53.5t136.5 -22.5q101 0 154 44t53 113q0 68 -44.5 111.5t-152.5 83.5q-94 33 -157 79.5t-93 101.5t-30 119.5t25.5 121t71.5 99t115.5 67t153.5 24.5q51 0 101.5 -9.5t89 -24t69.5 -32.5l-49 -141q-96 63 -217 63q-82 0 -129 -42t-47 -104 q0 -63 45 -100.5t156 -79.5q142 -54 210 -129.5t68 -190.5q0 -142 -105.5 -231t-291.5 -89q-170 0 -297 75zM165 1518h149l129 -207h4l130 207h144l-206 -313h-141z" />
<glyph unicode="&#x162;" horiz-adv-x="1088" d="M-2 1315v162h1093v-162h-451v-1315h-193v1315h-449zM357 -397q46 8 81 24.5t59 47.5t24 72q0 36 -21 71.5t-53 60.5l143 31q23 -15 42 -37.5t32 -55t13 -66.5q0 -59 -24.5 -104.5t-66 -73t-89.5 -42t-102 -18.5z" />
<glyph unicode="&#x163;" horiz-adv-x="724" d="M40 914v146h163v196l190 59v-255h276v-146h-276v-573q0 -102 33.5 -153.5t110.5 -51.5q68 0 111 13l9 -145q-72 -29 -170 -29q-136 0 -209 84q-75 78 -75 276v579h-163zM230 -408q46 7 81.5 23.5t59.5 48t24 73.5q0 24 -11 49t-27.5 45.5t-36.5 36.5l142 31 q36 -23 62 -66.5t26 -93.5q0 -58 -24.5 -103.5t-66 -73t-90 -42t-101.5 -18.5z" />
<glyph unicode="&#x164;" horiz-adv-x="1088" d="M-2 1315v162h1093v-162h-451v-1315h-193v1315h-449zM241 1806h162l141 -152h4l138 152h157l-225 -250h-147z" />
<glyph unicode="&#x165;" horiz-adv-x="742" d="M40 914v146h163v196l190 59v-255h276v-146h-276v-573q0 -102 33.5 -153.5t110.5 -51.5q68 0 111 13l9 -145q-72 -29 -170 -29q-136 0 -209 84q-75 78 -75 276v579h-163zM550 1263q83 64 83 161q0 24 -9 49t-23.5 44.5t-33.5 36.5l138 29q31 -21 54 -62t23 -90 q0 -43 -13.5 -81t-33 -64t-45 -47.5t-45.5 -33.5t-38 -19z" />
<glyph unicode="&#x166;" horiz-adv-x="1088" d="M-2 1315v162h1093v-162h-451v-487h272v-127h-272v-701h-193v701h-272v127h272v487h-449z" />
<glyph unicode="&#x167;" horiz-adv-x="724" d="M40 914v146h163v196l190 59v-255h276v-146h-276v-253h214v-117h-214v-211q0 -65 14.5 -108t46.5 -66t83 -23q68 0 111 13l9 -145q-72 -29 -170 -29q-136 0 -209 84q-75 78 -75 276v209h-146v117h146v253h-163z" />
<glyph unicode="&#x168;" horiz-adv-x="1417" d="M165 607v870h192v-875q0 -97 17 -175.5t47.5 -133t73.5 -91t94.5 -53.5t111.5 -17q170 0 264.5 116.5t94.5 353.5v875h193v-862q0 -133 -27.5 -240t-77 -181t-119.5 -123.5t-153.5 -72.5t-181.5 -23q-93 0 -171.5 21.5t-145.5 69.5t-113.5 120.5t-72.5 179t-26 241.5z M437 1566q-4 102 36.5 163t111.5 61q23 0 46.5 -6.5t38.5 -14t45 -23.5q1 -1 10 -5.5l11 -5.5t10 -5.5t11 -5.5t10 -4.5t11 -4.5t10 -3t10.5 -3t10 -1.5t11.5 -0.5q17 0 28.5 6.5t19 25.5t10.5 53h101q3 -212 -147 -212q-52 0 -133 42q-7 4 -23.5 12.5t-23 11.5t-18 8 t-20.5 7t-18 2q-50 0 -57 -97h-102z" />
<glyph unicode="&#x169;" horiz-adv-x="1206" d="M153 441v619h194v-587q0 -337 236 -337q90 0 157 51.5t97 123.5q18 49 18 99v650h193v-771q0 -178 8 -289h-171l-11 173h-4q-21 -35 -50.5 -67t-72.5 -63t-102 -49.5t-126 -18.5q-54 0 -102.5 12.5t-98 45t-85 83t-58 134t-22.5 191.5zM333 1242q-3 106 37.5 167 t112.5 61q33 0 62 -11.5t73 -36.5q4 -2 13.5 -7t13 -7t11.5 -6l12 -6t11 -4.5t11.5 -4t10 -2t9.5 -0.5q29 0 43.5 20t17.5 74h103q3 -221 -151 -221q-51 0 -133 44q-36 22 -56 30.5t-39 8.5q-49 0 -56 -99h-106z" />
<glyph unicode="&#x16a;" horiz-adv-x="1417" d="M165 607v870h192v-875q0 -97 17 -175.5t47.5 -133t73.5 -91t94.5 -53.5t111.5 -17q170 0 264.5 116.5t94.5 353.5v875h193v-862q0 -133 -27.5 -240t-77 -181t-119.5 -123.5t-153.5 -72.5t-181.5 -23q-93 0 -171.5 21.5t-145.5 69.5t-113.5 120.5t-72.5 179t-26 241.5z M447 1606v121h523v-121h-523z" />
<glyph unicode="&#x16b;" horiz-adv-x="1206" d="M153 441v619h194v-587q0 -337 236 -337q90 0 157 51.5t97 123.5q18 49 18 99v650h193v-771q0 -178 8 -289h-171l-11 173h-4q-21 -35 -50.5 -67t-72.5 -63t-102 -49.5t-126 -18.5q-54 0 -102.5 12.5t-98 45t-85 83t-58 134t-22.5 191.5zM357 1284v125h494v-125h-494z" />
<glyph unicode="&#x16c;" horiz-adv-x="1417" d="M165 607v870h192v-875q0 -97 17 -175.5t47.5 -133t73.5 -91t94.5 -53.5t111.5 -17q170 0 264.5 116.5t94.5 353.5v875h193v-862q0 -133 -27.5 -240t-77 -181t-119.5 -123.5t-153.5 -72.5t-181.5 -23q-93 0 -171.5 21.5t-145.5 69.5t-113.5 120.5t-72.5 179t-26 241.5z M437 1813h113q10 -45 47.5 -76.5t110.5 -31.5q75 0 113 30t47 78h111q-3 -104 -71.5 -168.5t-202.5 -64.5q-133 0 -199 63.5t-69 169.5z" />
<glyph unicode="&#x16d;" horiz-adv-x="1206" d="M153 441v619h194v-587q0 -337 236 -337q90 0 157 51.5t97 123.5q18 49 18 99v650h193v-771q0 -178 8 -289h-171l-11 173h-4q-21 -35 -50.5 -67t-72.5 -63t-102 -49.5t-126 -18.5q-54 0 -102.5 12.5t-98 45t-85 83t-58 134t-22.5 191.5zM331 1495h114q7 -44 26.5 -77.5 t53.5 -54t77 -20.5q72 0 112.5 45t46.5 107h113q0 -123 -74 -197.5t-198 -74.5q-69 0 -123 23t-85.5 62t-47 86.5t-15.5 100.5z" />
<glyph unicode="&#x16e;" horiz-adv-x="1417" d="M165 607v870h192v-875q0 -97 17 -175.5t47.5 -133t73.5 -91t94.5 -53.5t111.5 -17q170 0 264.5 116.5t94.5 353.5v875h193v-862q0 -133 -27.5 -240t-77 -181t-119.5 -123.5t-153.5 -72.5t-181.5 -23q-93 0 -171.5 21.5t-145.5 69.5t-113.5 120.5t-72.5 179t-26 241.5z M491 1714q0 84 61 141.5t161 57.5h2q96 0 155 -56.5t59 -142.5q0 -83 -61 -138.5t-155 -55.5q-99 0 -160.5 56t-61.5 138zM605 1714q0 -44 29.5 -78t73.5 -34q48 0 77.5 33t29.5 81q0 32 -13 58t-37.5 42t-56.5 16h-3q-46 0 -73 -34.5t-27 -83.5z" />
<glyph unicode="&#x16f;" horiz-adv-x="1206" d="M153 441v619h194v-587q0 -337 236 -337q90 0 157 51.5t97 123.5q18 49 18 99v650h193v-771q0 -178 8 -289h-171l-11 173h-4q-21 -35 -50.5 -67t-72.5 -63t-102 -49.5t-126 -18.5q-54 0 -102.5 12.5t-98 45t-85 83t-58 134t-22.5 191.5zM383 1376q0 90 61 149.5t163 59.5 q64 0 114 -27.5t76.5 -74.5t26.5 -105q0 -57 -28.5 -103t-79 -72t-111.5 -26q-98 0 -160 57t-62 142zM495 1376q0 -29 13.5 -55.5t38.5 -44.5t55 -18q52 0 83.5 36t31.5 86.5t-31.5 85.5t-83.5 35q-48 0 -77.5 -36t-29.5 -89z" />
<glyph unicode="&#x170;" horiz-adv-x="1417" d="M165 607v870h192v-875q0 -97 17 -175.5t47.5 -133t73.5 -91t94.5 -53.5t111.5 -17q170 0 264.5 116.5t94.5 353.5v875h193v-862q0 -133 -27.5 -240t-77 -181t-119.5 -123.5t-153.5 -72.5t-181.5 -23q-93 0 -171.5 21.5t-145.5 69.5t-113.5 120.5t-72.5 179t-26 241.5z M445 1566l176 247h207l-243 -247h-140zM767 1566l176 247h209l-245 -247h-140z" />
<glyph unicode="&#x171;" horiz-adv-x="1206" d="M153 441v619h194v-587q0 -337 236 -337q90 0 157 51.5t97 123.5q18 49 18 99v650h193v-771q0 -178 8 -289h-171l-11 173h-4q-21 -35 -50.5 -67t-72.5 -63t-102 -49.5t-126 -18.5q-54 0 -102.5 12.5t-98 45t-85 83t-58 134t-22.5 191.5zM366 1219l173 299h189l-241 -299 h-121zM682 1219l173 299h188l-241 -299h-120z" />
<glyph unicode="&#x172;" horiz-adv-x="1417" d="M165 607v870h192v-875q0 -97 17 -175.5t47.5 -133t73.5 -91t94.5 -53.5t111.5 -17q170 0 264.5 116.5t94.5 353.5v875h193v-862q0 -138 -29.5 -248t-84.5 -184.5t-128 -120.5t-165 -64q-54 -51 -93.5 -109.5t-39.5 -112.5q0 -44 27.5 -69t70.5 -25q46 0 101 23l29 -100 q-23 -16 -54 -28t-63.5 -18t-62.5 -6q-93 0 -145.5 46.5t-52.5 128.5q0 116 125 251q-2 0 -6.5 -2t-6.5 -2q-90 4 -165 27t-140 71t-109.5 120t-70 177t-25.5 237z" />
<glyph unicode="&#x173;" horiz-adv-x="1206" d="M153 441v619h194v-587q0 -337 236 -337q90 0 157 51.5t97 123.5q18 49 18 99v650h193v-771q0 -181 8 -289l-44 6q-21 -27 -40 -58t-35.5 -75.5t-16.5 -81.5q0 -53 32 -83t81 -30q54 0 98 19l30 -98q-32 -25 -81 -38t-96 -13q-93 0 -148.5 49.5t-55.5 139.5q0 114 105 269 l-11 167h-4q-21 -35 -50.5 -67t-72.5 -63t-102 -49.5t-126 -18.5q-54 0 -102.5 12.5t-98 45t-85 83t-58 134t-22.5 191.5z" />
<glyph unicode="&#x174;" horiz-adv-x="1853" d="M33 1477h201l176 -747q62 -262 109 -511h4q25 150 121 513l197 745h200l180 -749q78 -330 103 -507h4q28 150 119 511l194 745h195l-418 -1477h-199l-186 769q-75 305 -98 482h-4q-43 -236 -114 -482l-210 -769h-199zM631 1556l226 250h147l228 -250h-161l-140 151h-4 l-141 -151h-155z" />
<glyph unicode="&#x175;" horiz-adv-x="1612" d="M40 1060h196l141 -539q60 -232 79 -337h6q25 108 94 337l174 539h162l164 -529q56 -179 94 -347h7q20 130 81 345l151 531h191l-342 -1060h-175l-162 506q-61 193 -94 349h-5q-32 -154 -97 -351l-170 -504h-175zM533 1205l205 313h134l211 -313h-150l-126 208h-5 l-127 -208h-142z" />
<glyph unicode="&#x176;" horiz-adv-x="1184" d="M29 1477h216l209 -408q86 -170 146 -304h5q14 34 34.5 76t32.5 66.5t43 84.5t39 77l212 408h217l-495 -848v-629h-193v627zM293 1556l226 250h148l228 -250h-161l-140 151h-4l-141 -151h-156z" />
<glyph unicode="&#x177;" horiz-adv-x="1031" d="M19 1060h211l232 -626q43 -123 69 -217h4q6 20 19 64.5t25 83.5t23 74l211 621h203l-288 -755q-108 -283 -188.5 -432.5t-175.5 -232.5q-44 -38 -92.5 -66.5t-82.5 -41t-62 -17.5l-48 163q90 28 168 94q44 35 88 91t75 124q7 17 11 28t4 18q0 14 -13 50zM247 1205 l207 313h133l210 -313h-149l-127 208h-4l-126 -208h-144z" />
<glyph unicode="&#x178;" horiz-adv-x="1184" d="M29 1477h216l209 -408q86 -170 146 -304h5q14 34 34.5 76t32.5 66.5t43 84.5t39 77l212 408h217l-495 -848v-629h-193v627zM303 1677q0 44 31 76.5t76 32.5t75 -31.5t30 -77.5q0 -47 -29.5 -80t-75.5 -33h-2q-47 0 -76 33t-29 80zM708 1677q0 29 14 54t39.5 40t55.5 15 q46 0 75.5 -31.5t29.5 -77.5q0 -47 -29.5 -80t-77.5 -33h-2q-45 0 -75 33t-30 80z" />
<glyph unicode="&#x179;" horiz-adv-x="1211" d="M65 0v111l820 1200v6h-749v160h997v-116l-815 -1194v-7h826v-160h-1079zM508 1556l205 257h232l-278 -257h-159z" />
<glyph unicode="&#x17a;" horiz-adv-x="937" d="M40 0v111l479 625q40 50 138 165v4h-574v155h809l-3 -119l-473 -617q-62 -83 -136 -167v-4h621v-153h-861zM377 1205l192 313h213l-267 -313h-138z" />
<glyph unicode="&#x17b;" horiz-adv-x="1211" d="M65 0v111l820 1200v6h-749v160h997v-116l-815 -1194v-7h826v-160h-1079zM506 1690q0 43 33 76t79 33q44 0 74.5 -33t30.5 -76q0 -29 -14 -54.5t-39 -41.5t-55 -16h-2q-28 0 -53 16t-39.5 41.5t-14.5 54.5z" />
<glyph unicode="&#x17c;" horiz-adv-x="937" d="M40 0v111l479 625q40 50 138 165v4h-574v155h809l-3 -119l-473 -617q-62 -83 -136 -167v-4h621v-153h-861zM364 1361q0 48 32 80.5t79 32.5q23 0 43 -8.5t34 -24t22.5 -36.5t8.5 -44q0 -45 -31 -78.5t-77 -33.5h-2q-46 0 -77.5 33.5t-31.5 78.5z" />
<glyph unicode="&#x17d;" horiz-adv-x="1211" d="M65 0v111l820 1200v6h-749v160h997v-116l-815 -1194v-7h826v-160h-1079zM324 1806h163l140 -152h4l138 152h158l-226 -250h-147z" />
<glyph unicode="&#x17e;" horiz-adv-x="937" d="M40 0v111l479 625q40 50 138 165v4h-574v155h809l-3 -119l-473 -617q-62 -83 -136 -167v-4h621v-153h-861zM217 1518h149l129 -207h5l129 207h145l-207 -313h-140z" />
<glyph unicode="&#x192;" horiz-adv-x="1123" d="M25 -149l34 138q54 -24 123 -24q97 0 144.5 83t68.5 261l50 431h-202v138h217l13 101q9 71 25.5 133t49 125.5t77 109t113.5 74t154 28.5q95 -3 149 -33l-35 -141q-55 22 -114 22q-54 0 -96.5 -24.5t-69.5 -67.5t-43.5 -95.5t-23.5 -116.5l-13 -115h264v-138h-281 l-52 -449q-9 -74 -23 -133.5t-35 -114.5t-50.5 -95.5t-68.5 -71t-90.5 -45.5t-114.5 -15q-102 0 -170 35z" />
<glyph unicode="&#x1a0;" horiz-adv-x="1509" d="M79 725q0 173 52 319t143 246t217.5 155.5t273.5 55.5q118 0 228 -37q22 -7 73 -29t95 -36t75 -14q53 0 75.5 23.5t22.5 72.5q0 69 -35 141l150 28q39 -89 39 -180q0 -96 -58.5 -150.5t-171.5 -44.5q78 -90 124 -222.5t46 -298.5q0 -149 -35 -275.5t-97.5 -218.5 t-148.5 -156.5t-188.5 -96.5t-215.5 -32q-145 0 -268.5 55t-210.5 152.5t-136 237.5t-49 305zM282 730q0 -78 14 -152.5t40.5 -141t67.5 -122.5t92.5 -96.5t117.5 -63t140 -22.5q75 0 140.5 22t117 62t92.5 96.5t68 124.5t41 146t14 162q0 63 -9 125t-28.5 121.5 t-47.5 112.5t-67 97t-86 76t-106.5 50t-126.5 18q-92 0 -170.5 -33.5t-134 -91t-94.5 -136t-57 -168t-18 -186.5z" />
<glyph unicode="&#x1a1;" horiz-adv-x="1211" d="M83 521q0 105 26.5 195t74.5 157.5t113 115t144.5 72t167.5 24.5q87 0 182 -31q17 -5 53 -20.5t69.5 -26t63.5 -10.5q42 0 65 22.5t23 65.5q0 63 -35 129l147 26q37 -80 37 -159q0 -92 -53 -144.5t-151 -47.5q110 -137 110 -350q0 -114 -30.5 -209t-81.5 -159.5 t-119.5 -109.5t-143 -65.5t-153.5 -20.5q-107 0 -200.5 39t-161.5 108.5t-107.5 172.5t-39.5 226zM278 529q0 -86 24 -161.5t66.5 -130t102.5 -85.5t129 -31q91 0 165 53t115.5 147t41.5 212q0 46 -7.5 92.5t-23.5 93t-42.5 86t-60.5 70t-81 48.5t-102 18q-67 0 -122 -24 t-92 -63.5t-63 -93t-38 -112t-12 -119.5z" />
<glyph unicode="&#x1af;" horiz-adv-x="1483" d="M165 607v870h192v-875q0 -97 17 -175.5t47.5 -133t73.5 -91t94.5 -53.5t111.5 -17q170 0 264.5 116.5t94.5 353.5v875h174q55 0 77.5 19.5t22.5 63.5q0 62 -35 127l148 27q36 -82 36 -165q0 -82 -50.5 -132.5t-146.5 -53.5l-33 -2v-746q0 -133 -27.5 -240t-77 -181 t-119.5 -123.5t-153.5 -72.5t-181.5 -23q-93 0 -171.5 21.5t-145.5 69.5t-113.5 120.5t-72.5 179t-26 241.5z" />
<glyph unicode="&#x1b0;" horiz-adv-x="1206" d="M153 441v619h194v-587q0 -337 236 -337q90 0 157 51.5t97 123.5q18 49 18 99v650h151q55 0 79 21.5t24 64.5q0 58 -38 127l148 24q39 -71 39 -157q0 -81 -52.5 -131t-134.5 -53l-23 -3v-664q0 -178 8 -289h-171l-11 173h-4q-21 -35 -50.5 -67t-72.5 -63t-102 -49.5 t-126 -18.5q-54 0 -102.5 12.5t-98 45t-85 83t-58 134t-22.5 191.5z" />
<glyph unicode="&#x1fa;" horiz-adv-x="1340" d="M55 0l501 1477h230l504 -1477h-203l-158 464h-523l-153 -464h-198zM445 613h444l-144 426q-31 91 -76 270h-5q-34 -143 -74 -268zM485 1685q0 48 23 87t69.5 63t108.5 24q90 0 142.5 -49.5t52.5 -124.5q0 -73 -54.5 -121t-142.5 -48q-90 0 -144.5 48.5t-54.5 120.5z M569 1898l233 188h250l-314 -188h-169zM587 1685q0 -37 26.5 -62t68.5 -25q44 0 70 24t26 65q0 39 -27 65.5t-72 26.5q-42 0 -67 -27t-25 -67z" />
<glyph unicode="&#x1fb;" horiz-adv-x="1056" d="M77 280q0 193 165 295t473 100v22q0 31 -4 59.5t-19 64t-40 61t-71 43.5t-108 18q-73 0 -146 -21.5t-130 -58.5l-44 128q67 43 159 68.5t190 25.5q94 0 166 -25t116 -66t72 -99t38.5 -117t10.5 -127v-396q0 -158 17 -255h-175l-15 134h-7q-48 -68 -132.5 -113.5 t-191.5 -45.5q-78 0 -141 26t-102 69.5t-60 97.5t-21 112zM270 303q0 -90 51.5 -137t130.5 -47q97 0 164 51t92 125q11 32 11 62v184q-449 10 -449 -238zM307 1339q0 58 27 105t78 75t119 28q97 0 156.5 -58.5t59.5 -147.5q0 -88 -62 -144.5t-156 -56.5q-65 0 -116 26.5 t-78.5 71.5t-27.5 101zM416 1595l235 233h215l-314 -233h-136zM418 1339q0 -45 31.5 -81.5t76.5 -36.5q52 0 83 35.5t31 86.5t-31 86t-83 35q-49 0 -78.5 -36.5t-29.5 -88.5z" />
<glyph unicode="&#x1fc;" horiz-adv-x="1725" d="M-2 0l675 1477h925v-160h-630l57 -471h551v-158h-526l65 -528h541l-2 -160h-703l-66 521h-454l-236 -521h-197zM495 675h368l-48 425q-1 12 -8.5 69.5t-11.5 96.5t-6 73h-9q-29 -78 -94 -233zM866 1556l203 257h233l-279 -257h-157z" />
<glyph unicode="&#x1fd;" horiz-adv-x="1693" d="M79 278q0 185 166.5 285.5t473.5 97.5v44q0 20 -5 45.5t-21 60.5t-41.5 63.5t-72.5 48.5t-108 20q-73 0 -147.5 -23.5t-124.5 -58.5l-46 128q46 29 104 51t117 33.5t111 11.5q137 0 222 -59t119 -165h4q37 70 91 119.5t125.5 77t154.5 27.5q67 0 124.5 -18t99 -48t75 -71 t54.5 -85.5t35 -93t20 -91t6 -82.5q0 -57 -7 -86h-709q-5 -183 88.5 -284t248.5 -101q165 0 289 61l35 -136q-139 -75 -348 -75q-137 0 -247.5 63t-155.5 173h-4q-51 -111 -155 -173.5t-240 -62.5q-80 0 -144.5 26t-104.5 69t-61 96.5t-21 111.5zM270 293q0 -81 52.5 -127.5 t131.5 -46.5q98 0 164.5 52t91.5 130q11 30 11 76v156q-55 1 -104.5 -2t-102.5 -12t-95.5 -26.5t-77 -43.5t-53 -65.5t-18.5 -90.5zM747 1205l194 313h211l-267 -313h-138zM897 648h531q2 35 -4 73t-24 78.5t-45.5 73t-72.5 53.5t-101 21q-54 0 -101.5 -19.5t-79.5 -50.5 t-55 -71t-34.5 -80t-13.5 -78z" />
<glyph unicode="&#x1fe;" horiz-adv-x="1509" d="M79 730q0 171 52.5 316.5t144 244.5t216.5 154.5t269 55.5q209 0 368 -116l129 177l116 -79l-136 -188q92 -101 141 -241t49 -303q0 -150 -35.5 -277.5t-98 -218t-147.5 -154.5t-183 -95t-205 -31q-214 0 -376 119l-138 -188l-107 85l136 193q-93 99 -144 240.5 t-51 305.5zM274 740q0 -116 28 -209t81 -186l2 2l650 897q-123 104 -276 104q-94 0 -174 -33.5t-136.5 -91.5t-96.5 -135.5t-59 -165.5t-19 -182zM477 234q113 -105 277 -105q91 0 168.5 32t134.5 89t97 134.5t60 169t20 191.5q0 217 -103 384h-6zM655 1573l204 257h232 l-278 -257h-158z" />
<glyph unicode="&#x1ff;" horiz-adv-x="1202" d="M83 523q0 104 26.5 194t74 157t112.5 115t143.5 72t165.5 24h2q144 0 267 -75l92 130l86 -59l-92 -136q77 -74 118.5 -178.5t41.5 -227.5q0 -113 -30 -208t-80.5 -159.5t-118 -109.5t-140.5 -66t-149 -21q-157 0 -271 75l-95 -133l-81 66l92 130q-78 74 -121 178.5 t-43 231.5zM270 529q0 -154 79 -266l4 -2l433 615q-78 65 -186 65q-68 0 -124.5 -24.5t-94 -65t-63.5 -94.5t-37 -111.5t-11 -116.5zM418 182q70 -61 178 -61q99 0 175.5 53t118 146.5t41.5 212.5q0 63 -17.5 131.5t-56.5 126.5h-4zM498 1205l192 313h213l-267 -313h-138z " />
<glyph unicode="&#x218;" horiz-adv-x="1079" d="M92 73l48 159q69 -42 159 -69t184 -27q143 0 225.5 69t82.5 182q0 103 -64 169.5t-214 125.5q-191 67 -290.5 167.5t-99.5 250.5q0 86 34.5 160t96 127t151.5 83.5t195 30.5q200 0 327 -73l-53 -155q-125 70 -280 70q-72 0 -128 -20t-87.5 -53t-47 -70.5t-15.5 -77.5 q0 -99 67 -161t226 -124q194 -75 286 -175.5t92 -258.5q0 -69 -20.5 -132t-62.5 -117t-102 -93.5t-145.5 -62.5t-187.5 -23q-104 0 -209.5 28.5t-167.5 69.5zM368 -397q72 13 118.5 48t46.5 96q0 36 -21.5 71.5t-53.5 60.5l142 31q37 -24 62.5 -66t25.5 -93 q0 -59 -24.5 -104.5t-66 -73t-90 -42t-101.5 -18.5z" />
<glyph unicode="&#x219;" horiz-adv-x="867" d="M86 50l48 147q47 -31 116.5 -53.5t136.5 -22.5q101 0 154 44t53 113q0 68 -44.5 111.5t-152.5 83.5q-94 33 -157 79.5t-93 101.5t-30 119.5t25.5 121t71.5 99t115.5 67t153.5 24.5q51 0 101.5 -9.5t89 -24t69.5 -32.5l-49 -141q-96 63 -217 63q-82 0 -129 -42t-47 -104 q0 -63 45 -100.5t156 -79.5q142 -54 210 -129.5t68 -190.5q0 -142 -105.5 -231t-291.5 -89q-170 0 -297 75zM261 -397q71 11 117.5 47t46.5 97q0 25 -10.5 50t-27 45.5t-36.5 36.5l142 31q36 -24 62 -67t26 -92q0 -59 -24.5 -104.5t-66 -73t-90 -42t-101.5 -18.5z" />
<glyph unicode="&#x21a;" horiz-adv-x="1088" d="M-2 1315v162h1093v-162h-451v-1315h-193v1315h-449zM357 -397q46 8 81 24.5t59 47.5t24 72q0 36 -21 71.5t-53 60.5l143 31q23 -15 42 -37.5t32 -55t13 -66.5q0 -59 -24.5 -104.5t-66 -73t-89.5 -42t-102 -18.5z" />
<glyph unicode="&#x21b;" horiz-adv-x="724" d="M40 914v146h163v196l190 59v-255h276v-146h-276v-573q0 -102 33.5 -153.5t110.5 -51.5q68 0 111 13l9 -145q-72 -29 -170 -29q-136 0 -209 84q-75 78 -75 276v579h-163zM230 -408q46 7 81.5 23.5t59.5 48t24 73.5q0 24 -11 49t-27.5 45.5t-36.5 36.5l142 31 q36 -23 62 -66.5t26 -93.5q0 -58 -24.5 -103.5t-66 -73t-90 -42t-101.5 -18.5z" />
<glyph unicode="&#x21c;" horiz-adv-x="1051" d="M67 1398q39 24 95.5 46.5t133.5 39.5t147 17q179 0 289.5 -89.5t110.5 -232.5q0 -118 -75 -212t-193 -147v-7q112 -11 199.5 -60.5t139.5 -138t52 -202.5q0 -125 -59 -237.5t-165.5 -199.5t-262 -146.5t-341.5 -81.5l-25 152q133 20 250.5 64.5t207 108t142 148.5 t52.5 179q0 127 -86 209t-236 80q-36 0 -94 -11t-113 -29l-25 136q126 29 224 80.5t157 125.5t59 158q0 44 -18.5 81.5t-50 63.5t-77 40.5t-97.5 14.5q-80 0 -163.5 -25t-137.5 -54z" />
<glyph unicode="&#x21d;" horiz-adv-x="935" d="M44 977q70 45 164.5 76.5t192.5 31.5q167 0 267.5 -82.5t100.5 -220.5q0 -105 -62.5 -185t-169.5 -122v-6q101 -11 177.5 -55.5t119 -119t42.5 -169.5q0 -107 -51 -205t-147 -177t-246 -132.5t-336 -68.5l-19 149q25 2 60 7t95.5 18.5t117.5 32.5t118.5 51.5t106.5 73 t74.5 100t29.5 129.5q0 49 -16.5 91.5t-50 76t-88 52t-125.5 18.5q-82 0 -192 -32l-29 138q92 22 162.5 48.5t127 62.5t86 84t29.5 107q0 85 -61.5 134.5t-166.5 49.5q-122 0 -272 -82z" />
<glyph unicode="&#x232;" horiz-adv-x="1184" d="M29 1477h216l209 -408q86 -170 146 -304h5q14 34 34.5 76t32.5 66.5t43 84.5t39 77l212 408h217l-495 -848v-629h-193v627zM331 1606v121h524v-121h-524z" />
<glyph unicode="&#x233;" horiz-adv-x="1031" d="M19 1060h211l232 -626q43 -123 69 -217h4q6 20 19 64.5t25 83.5t23 74l211 621h203l-288 -755q-108 -283 -188.5 -432.5t-175.5 -232.5q-44 -38 -92.5 -66.5t-82.5 -41t-62 -17.5l-48 163q90 28 168 94q44 35 88 91t75 124q7 17 11 28t4 18q0 14 -13 50zM272 1284v125 h493v-125h-493z" />
<glyph unicode="&#x2c6;" d="M55 1205l206 313h134l210 -313h-149l-128 208h-4l-127 -208h-142z" />
<glyph unicode="&#x2c7;" d="M50 1518h149l129 -207h5l129 207h145l-206 -313h-140z" />
<glyph unicode="&#x2c9;" d="M83 1284v125h494v-125h-494z" />
<glyph unicode="&#x2d8;" d="M57 1495h114q10 -67 51.5 -109.5t105.5 -42.5q72 0 112.5 45t46.5 107h113q0 -81 -33 -142.5t-95 -95.5t-144 -34q-69 0 -123 23t-85.5 62t-47 86.5t-15.5 100.5z" />
<glyph unicode="&#x2d9;" d="M195 1361q0 47 32.5 80t79.5 33q46 0 76.5 -32.5t30.5 -80.5q0 -45 -30.5 -78.5t-76.5 -33.5h-2q-46 0 -78 33.5t-32 78.5z" />
<glyph unicode="&#x2da;" d="M90 1376q0 90 61 149.5t163 59.5q97 0 157 -59t60 -148q0 -87 -62.5 -144t-157.5 -57q-64 0 -115 26.5t-78.5 72t-27.5 100.5zM201 1376q0 -29 13.5 -55.5t39 -44.5t55.5 -18q52 0 83 35.5t31 86.5t-31 86t-83 35q-49 0 -78.5 -36t-29.5 -89z" />
<glyph unicode="&#x2db;" d="M138 -261q0 71 40 142t92 128h125q0 -1 -16.5 -21t-22 -27.5t-21 -28.5t-22.5 -35l-17 -34t-14 -38.5t-4 -35.5q0 -33 14 -58t39 -38t56 -13q54 0 102 19l30 -98q-31 -25 -80 -37.5t-94 -12.5q-95 0 -151 49t-56 139z" />
<glyph unicode="&#x2dc;" d="M59 1242q-3 106 37.5 167t112.5 61q33 0 62 -11.5t74 -36.5q3 -2 12.5 -7t13 -7t11.5 -6l12 -6t11 -4.5t11.5 -4t10 -2t10.5 -0.5q28 0 42.5 20t18.5 74h102q3 -221 -151 -221q-51 0 -133 44q-36 22 -55.5 30.5t-39.5 8.5q-49 0 -56 -99h-106z" />
<glyph unicode="&#x2dd;" d="M96 1219l174 299h188l-241 -299h-121zM412 1219l173 299h189l-241 -299h-121z" />
<glyph unicode="&#x37e;" horiz-adv-x="475" d="M65 -270q31 106 61 257.5t39 261.5l214 12q-29 -124 -84 -280.5t-96 -237.5zM125 851q0 42 17.5 75.5t48.5 52t70 18.5q62 0 99 -40.5t37 -105.5q0 -61 -37.5 -102t-98.5 -41h-2q-23 0 -44 7.5t-37.5 20.5t-28 30.5t-18 39t-6.5 45.5z" />
<glyph unicode="&#x384;" horiz-adv-x="659" d="M184 1207l117 313h194l-184 -313h-127z" />
<glyph unicode="&#x385;" horiz-adv-x="757" d="M9 1361q0 43 30 73t74 30q42 0 71 -29.5t29 -73.5q0 -43 -29 -74t-73 -31h-2q-29 0 -52 14.5t-35.5 38.5t-12.5 52zM287 1212l48 344h165l-107 -344h-106zM539 1361q0 43 30 73t73 30q44 0 72.5 -29.5t28.5 -73.5t-28 -74.5t-73 -30.5h-2q-44 0 -72.5 31t-28.5 74z" />
<glyph unicode="&#x386;" horiz-adv-x="1347" d="M61 0l502 1477h230l504 -1477h-203l-159 464h-523l-153 -464h-198zM136 1137l17 340h173l-77 -340h-113zM452 613h445l-146 426q-31 91 -76 270h-4q-35 -143 -75 -268z" />
<glyph unicode="&#x387;" horiz-adv-x="475" d="M98 699q0 66 39 108t102 42q30 0 56 -11.5t44 -31t28 -47.5t10 -60q0 -64 -39 -106.5t-102 -42.5h-2q-59 0 -98 43t-38 106z" />
<glyph unicode="&#x388;" horiz-adv-x="1228" d="M0 1137l15 340h175l-77 -340h-113zM318 0v1477h799v-160h-607v-466h573v-159h-573v-532h640v-160h-832z" />
<glyph unicode="&#x389;" horiz-adv-x="1581" d="M0 1137l15 340h175l-77 -340h-113zM318 0v1477h192v-618h713v618h193v-1477h-193v692h-713v-692h-192z" />
<glyph unicode="&#x38a;" horiz-adv-x="676" d="M0 1137l15 340h175l-77 -340h-113zM318 0v1477h192v-1477h-192z" />
<glyph unicode="&#x38c;" horiz-adv-x="1594" d="M0 1137l15 340h175l-77 -340h-113zM167 725q0 173 51.5 319t142 246t217 155.5t273.5 55.5q149 0 273.5 -55t210.5 -153.5t133.5 -237t47.5 -301.5q0 -149 -35 -275.5t-97.5 -218.5t-148.5 -156.5t-188 -96.5t-215 -32h-2q-145 0 -268.5 55t-210.5 152.5t-135.5 237.5 t-48.5 305zM368 730q0 -78 14 -152.5t41 -141t68 -122.5t92 -96.5t116.5 -63t139.5 -22.5h2q111 0 201.5 48.5t149.5 132.5t91 194.5t32 237.5q0 89 -18 174.5t-56.5 163t-93.5 135.5t-133 92.5t-171 34.5t-171 -33.5t-133.5 -91t-94.5 -136t-57.5 -168t-18.5 -186.5z" />
<glyph unicode="&#x38e;" horiz-adv-x="1548" d="M0 1137l15 340h175l-77 -340h-113zM280 1334l36 157q81 -6 184 -60.5t175 -140.5q87 -98 147 -235.5t81 -305.5h9q26 164 96 300.5t160 236.5q76 81 169 137t166 68l36 -157q-43 -16 -88.5 -43.5t-94.5 -67.5t-96 -95.5t-89.5 -121t-79 -149t-61.5 -175.5 q-39 -163 -39 -303v-379h-191v381q0 136 -31 298q-32 145 -86.5 263.5t-120 197.5t-137 128t-145.5 66z" />
<glyph unicode="&#x38f;" horiz-adv-x="1625" d="M0 1137l15 340h175l-77 -340h-113zM144 0v151h320v9q-58 48 -108 109.5t-91.5 139.5t-65.5 174t-24 199q0 155 53 289.5t144 228.5t218.5 147.5t272.5 53.5q150 0 276 -54.5t211 -149t132.5 -223t47.5 -274.5q0 -110 -24 -210.5t-66.5 -180t-92.5 -141t-109 -108.5v-9 h320v-151h-554v121q68 46 126 109.5t104 144.5t72 182.5t26 211.5q-1 83 -19.5 164t-57.5 155.5t-94 131.5t-133 91t-169 34t-169.5 -32.5t-135.5 -88t-98 -129t-61.5 -157.5t-20.5 -171q0 -206 94.5 -384t232.5 -262v-121h-557z" />
<glyph unicode="&#x390;" horiz-adv-x="516" d="M-90 1330q0 42 30 71.5t73 29.5q41 0 68.5 -29t27.5 -72q0 -42 -27.5 -71.5t-70.5 -29.5h-2q-42 0 -70.5 29.5t-28.5 71.5zM160 236v824h193v-803q0 -74 21 -103.5t82 -26.5l-11 -140q-39 -12 -88 -12q-44 0 -77.5 12t-61.5 39.5t-43 80.5t-15 129zM186 1183l48 342h165 l-110 -342h-103zM441 1330q0 43 29 72t71 29q43 0 71 -29t28 -72q0 -42 -27.5 -71.5t-71.5 -29.5h-2q-42 0 -70 29.5t-28 71.5z" />
<glyph unicode="&#x391;" horiz-adv-x="1340" d="M55 0l501 1477h230l504 -1477h-203l-158 464h-523l-153 -464h-198zM445 613h444l-144 426q-31 91 -76 270h-5q-34 -143 -74 -268z" />
<glyph unicode="&#x392;" horiz-adv-x="1187" d="M167 4v1453q151 31 348 31q142 0 239 -25.5t166 -82.5q123 -90 123 -260q0 -107 -67 -195t-183 -130v-4q44 -11 85.5 -31t82 -52t70.5 -72.5t48.5 -96t18.5 -118.5q0 -174 -125 -296q-151 -138 -511 -138q-169 0 -295 17zM357 144q50 -8 160 -8q51 0 96.5 6.5t89 20 t78 36.5t61 54t41 74t14.5 96q0 73 -30 129t-83.5 89.5t-121 50t-147.5 16.5h-158v-564zM357 853h174q148 0 234 69t86 178q0 125 -86 183t-239 58q-107 0 -169 -13v-475z" />
<glyph unicode="&#x393;" horiz-adv-x="987" d="M167 0v1477h791v-160h-601v-1317h-190z" />
<glyph unicode="&#x394;" horiz-adv-x="1357" d="M55 0v107l514 1370h217l509 -1368v-109h-1240zM259 160h824l-301 813q-70 192 -109 329h-6q-37 -128 -100 -300z" />
<glyph unicode="&#x395;" horiz-adv-x="1077" d="M167 0v1477h797v-160h-607v-466h574v-159h-574v-532h640v-160h-830z" />
<glyph unicode="&#x396;" horiz-adv-x="1211" d="M65 0v111l820 1200v6h-749v160h997v-116l-815 -1194v-7h826v-160h-1079z" />
<glyph unicode="&#x397;" horiz-adv-x="1428" d="M167 0v1477h190v-618h714v618h194v-1477h-194v692h-714v-692h-190z" />
<glyph unicode="&#x398;" horiz-adv-x="1509" d="M79 725q0 173 52 319t143 246t217.5 155.5t273.5 55.5q149 0 274 -55t210.5 -153.5t133.5 -237t48 -301.5q0 -149 -35.5 -275.5t-98 -218.5t-148 -156.5t-187.5 -96.5t-215 -32h-2q-146 0 -269.5 55t-211 152.5t-136.5 237.5t-49 305zM280 730q0 -94 20 -182t60 -163.5 t96 -132t133 -88.5t165 -32h2q89 0 165.5 31.5t132.5 87.5t96 133t59.5 168.5t19.5 192.5q0 63 -9 125t-28.5 121.5t-47.5 112.5t-67 97t-86 76t-106.5 50t-125.5 18q-68 0 -127.5 -17.5t-107.5 -48.5t-88 -75t-68.5 -97.5t-48 -115t-29.5 -127t-10 -134.5zM458 682v157h594 v-157h-594z" />
<glyph unicode="&#x399;" horiz-adv-x="523" d="M167 0v1477h190v-1477h-190z" />
<glyph unicode="&#x39a;" horiz-adv-x="1187" d="M167 0v1477h190v-712h7q50 72 116 157l451 555h237l-535 -626l576 -851h-225l-486 725l-141 -162v-563h-190z" />
<glyph unicode="&#x39b;" horiz-adv-x="1334" d="M55 0l501 1477h228l509 -1477h-206l-342 1016q-35 109 -76 281h-8q-40 -175 -71 -278l-335 -1019h-200z" />
<glyph unicode="&#x39c;" horiz-adv-x="1761" d="M127 0l103 1477h243l252 -714q100 -298 149 -498h7q46 185 156 498l262 714h244l92 -1477h-186l-38 648q-24 471 -22 638h-7q-79 -275 -186 -561l-261 -716h-144l-239 704q-117 345 -171 573h-4q-7 -288 -28 -653l-40 -633h-182z" />
<glyph unicode="&#x39d;" horiz-adv-x="1441" d="M167 0v1477h207l475 -747q153 -244 264 -481l4 4q-21 246 -21 606v618h179v-1477h-192l-470 749q-182 293 -276 493l-6 -2q16 -279 16 -609v-631h-180z" />
<glyph unicode="&#x39e;" horiz-adv-x="1182" d="M94 0v160h1012v-160h-1012zM119 1319v158h966v-158h-966zM190 686v157h820v-157h-820z" />
<glyph unicode="&#x39f;" horiz-adv-x="1509" d="M79 725q0 173 52 319t143 246t217.5 155.5t273.5 55.5q149 0 273.5 -55t210 -153.5t132.5 -236.5t47 -302q0 -124 -24.5 -233.5t-69 -194.5t-107 -151.5t-139 -110t-163 -66.5t-180.5 -23h-2q-145 0 -268.5 55t-210.5 152.5t-136 237.5t-49 305zM282 730q0 -78 14 -152.5 t40.5 -141t67 -122.5t91.5 -96.5t117 -63t139 -22.5h3q75 0 140.5 22t117 62t92.5 96.5t68 124.5t41 146t14 162q0 63 -9 125t-28.5 121.5t-47.5 112.5t-67 97t-86 76t-106.5 50t-126.5 18q-92 0 -170.5 -33.5t-134 -91t-94.5 -136t-57 -168t-18 -186.5z" />
<glyph unicode="&#x3a0;" horiz-adv-x="1388" d="M167 0v1477h1056v-1477h-193v1315h-673v-1315h-190z" />
<glyph unicode="&#x3a1;" horiz-adv-x="1165" d="M167 0v1459q177 29 366 29q278 0 414 -123q41 -35 69.5 -81.5t44 -104.5t15.5 -123q0 -198 -114 -316q-50 -52 -120.5 -88.5t-154 -54.5t-177.5 -18q-100 0 -153 13v-592h-190zM357 747q59 -15 158 -15q174 0 272 82t98 234q0 95 -43.5 160.5t-120.5 96.5t-184 31 q-122 0 -180 -15v-574z" />
<glyph unicode="&#x3a3;" horiz-adv-x="1209" d="M57 0v113l512 621l-483 614v129h993v-158h-748v-8l451 -571l-475 -573v-7h841v-160h-1091z" />
<glyph unicode="&#x3a4;" horiz-adv-x="1088" d="M-2 1315v162h1093v-162h-451v-1315h-193v1315h-449z" />
<glyph unicode="&#x3a5;" horiz-adv-x="1288" d="M21 1334l36 157q81 -6 184 -60.5t175 -140.5q88 -99 148.5 -236.5t79.5 -304.5h9q17 112 60 218t91 180.5t106 138.5q50 54 110 98t119 71.5t108 35.5l33 -157q-42 -16 -87.5 -43.5t-94 -67.5t-95.5 -95.5t-89.5 -121t-79 -149t-60.5 -175.5q-42 -172 -42 -303v-379h-191 v381q0 154 -31 298q-32 145 -85.5 263.5t-119 197.5t-137.5 128t-147 66z" />
<glyph unicode="&#x3a6;" horiz-adv-x="1572" d="M79 730q0 131 37.5 243.5t99 191t142.5 136t166.5 87.5t172.5 36v110h184v-110q78 -6 152 -29t143 -62t127 -96.5t101 -129.5t67 -166t24 -201q0 -127 -34.5 -236t-93.5 -186.5t-138.5 -134.5t-168 -87.5t-184.5 -38.5v-114h-184v114q-93 8 -179.5 37t-166 84.5 t-138.5 131t-94 184t-35 236.5zM276 734q0 -118 35 -217t94 -165t133 -106.5t156 -50.5v1091q-48 -3 -97 -21t-96 -48.5t-87.5 -78t-71.5 -106t-48.5 -135.5t-17.5 -163zM878 195q65 6 125 31t113.5 71t93.5 108t63.5 147.5t23.5 183.5q0 102 -23.5 190t-63.5 150.5 t-94 108.5t-114 70.5t-124 30.5v-1091z" />
<glyph unicode="&#x3a7;" horiz-adv-x="1250" d="M55 0l451 747l-433 730h220l196 -346q91 -161 136 -250h6q52 109 134 250l201 346h220l-450 -718l460 -759h-221l-189 326q-112 183 -171 292h-4q-71 -145 -159 -294l-178 -324h-219z" />
<glyph unicode="&#x3a8;" horiz-adv-x="1500" d="M103 995v482h186v-449q0 -407 372 -426v875h180v-877q50 3 95 15.5t87.5 36t76.5 61t59.5 87.5t39 118.5t13.5 150.5v408h189v-427q0 -141 -41.5 -252.5t-116.5 -184.5t-176.5 -114t-225.5 -47v-452h-182v452q-88 3 -167 23t-151.5 62t-124.5 103t-82.5 152t-30.5 203z " />
<glyph unicode="&#x3a9;" horiz-adv-x="1544" d="M65 0v151h318v9q-58 48 -107.5 110t-91.5 140t-66 175t-24 199q0 155 52.5 289t144 228t219 147t272.5 53q151 0 277 -54t211 -148.5t132 -222.5t47 -274q0 -109 -24.5 -209.5t-67.5 -180t-92.5 -141.5t-107.5 -111v-9h322v-151h-555v121q68 46 126 111.5t103.5 147.5 t71.5 183t26 208q0 83 -19 164t-58 155t-94 130.5t-133 90.5t-169 34q-76 0 -144 -22.5t-120.5 -62.5t-94.5 -94.5t-69.5 -118.5t-42 -134.5t-14.5 -143.5q0 -200 96.5 -381.5t233.5 -266.5v-121h-558z" />
<glyph unicode="&#x3aa;" horiz-adv-x="523" d="M-48 1668q0 46 31.5 78.5t77.5 32.5q44 0 75 -32t31 -79q0 -44 -30.5 -77t-75.5 -33h-2q-46 0 -76.5 33t-30.5 77zM167 0v1477h190v-1477h-190zM355 1668q0 46 31.5 78.5t77.5 32.5q29 0 53.5 -14.5t38 -40t13.5 -56.5q0 -44 -30.5 -77t-76.5 -33h-2q-44 0 -74.5 33 t-30.5 77z" />
<glyph unicode="&#x3ab;" horiz-adv-x="1288" d="M21 1334l36 157q81 -6 184 -60.5t175 -140.5q88 -99 148.5 -236.5t79.5 -304.5h9q17 112 60 218t91 180.5t106 138.5q50 54 110 98t119 71.5t108 35.5l33 -157q-42 -16 -87.5 -43.5t-94 -67.5t-95.5 -95.5t-89.5 -121t-79 -149t-60.5 -175.5q-42 -172 -42 -303v-379h-191 v381q0 154 -31 298q-32 145 -85.5 263.5t-119 197.5t-137.5 128t-147 66zM345 1637q0 46 31.5 77.5t77.5 31.5q44 0 73 -31.5t29 -77.5q0 -45 -29 -77.5t-75 -32.5h-3q-44 0 -74 32.5t-30 77.5zM747 1637q0 46 31 77.5t77 31.5q45 0 75 -31.5t30 -77.5q0 -45 -29.5 -77.5 t-75.5 -32.5h-2q-45 0 -75.5 32.5t-30.5 77.5z" />
<glyph unicode="&#x3ac;" horiz-adv-x="1206" d="M83 508q0 127 39.5 236t105.5 183t151.5 116t176.5 42q114 0 199 -56t128 -157h9q6 103 20 188h159q-4 -42 -9 -126t-9 -187t-7 -223t-3 -221q0 -38 4 -67t11.5 -50t20 -34.5t29.5 -20.5t40 -8l-15 -138q-19 -10 -66 -10q-76 0 -125.5 54t-56.5 170h-7 q-56 -102 -148 -163t-213 -61q-126 0 -224 65.5t-154 187.5t-56 280zM278 513q0 -102 32.5 -188t99 -141t155.5 -55q97 0 177.5 80.5t106.5 189.5q12 58 12 149q0 76 -8 113q-14 73 -50.5 134t-95 99.5t-126.5 38.5q-66 0 -123 -31.5t-96 -87t-61.5 -133t-22.5 -166.5v-2z M508 1190l119 313h193l-182 -313h-130z" />
<glyph unicode="&#x3ad;" horiz-adv-x="964" d="M86 299q0 98 73 171.5t190 92.5v12q-52 11 -92 32.5t-66 50.5t-39.5 64.5t-13.5 74.5q0 54 27 104.5t78 92t133.5 66.5t184.5 25q202 0 322 -81l-42 -128q-37 25 -113.5 46t-150.5 21q-111 0 -178.5 -43.5t-67.5 -115.5q0 -50 40 -85t105 -50.5t151 -15.5h127v-138h-133 q-99 0 -172 -17.5t-117.5 -59t-44.5 -102.5t40 -105.5t104 -66t144 -21.5q28 0 58.5 3.5t59.5 9t57 13.5t52.5 17t45.5 18.5t37 18.5l35 -130q-62 -42 -170 -70t-217 -28q-67 0 -129 10.5t-120.5 35t-102 61t-69.5 92t-26 125.5zM445 1190l116 313h195l-184 -313h-127z" />
<glyph unicode="&#x3ae;" horiz-adv-x="1215" d="M129 1060h174q30 -65 30 -175h4q44 83 136 141.5t215 58.5q48 0 95.5 -11.5t99.5 -43t90.5 -80.5t64 -130.5t25.5 -186.5v-673q0 -302 22 -394h-182q-33 81 -33 388v657q0 67 -13 121.5t-41 99t-76.5 68.5t-114.5 24q-92 0 -162.5 -56.5t-96.5 -139.5q-13 -37 -13 -90 v-638h-193v774q0 195 -31 286zM544 1190l115 313h196l-184 -313h-127z" />
<glyph unicode="&#x3af;" horiz-adv-x="516" d="M160 236v824h193v-803q0 -74 21 -103.5t82 -26.5l-11 -140q-39 -12 -88 -12q-44 0 -77.5 12t-61.5 39.5t-43 80.5t-15 129zM175 1192l116 313h196l-182 -313h-130z" />
<glyph unicode="&#x3b0;" horiz-adv-x="1148" d="M123 1060h184q30 -38 30 -199v-432q0 -76 21 -135t56.5 -92t77 -49.5t87.5 -16.5q136 0 208 130.5t72 362.5q0 133 -23.5 256t-46.5 175h179q31 -58 55.5 -174t24.5 -240q0 -70 -7 -135.5t-23 -133.5t-40.5 -126t-63 -109.5t-87.5 -88t-116.5 -57.5t-147.5 -21 q-89 0 -163.5 27t-131.5 78.5t-89 134.5t-32 188v300q0 285 -24 357zM207 1330q0 41 30 71t72 30q41 0 69 -29t28 -72q0 -42 -27.5 -72.5t-69.5 -30.5h-2q-43 0 -71.5 30.5t-28.5 72.5zM485 1181l46 344h163l-107 -344h-102zM738 1330q0 27 13.5 50t36.5 37t51 14 q42 0 70.5 -29t28.5 -72q0 -42 -28.5 -72.5t-72.5 -30.5h-2q-41 0 -69 30.5t-28 72.5z" />
<glyph unicode="&#x3b1;" horiz-adv-x="1206" d="M83 508q0 127 39.5 236t105.5 183t151.5 116t176.5 42q114 0 199 -56t128 -157h9q6 103 20 188h159q-4 -42 -9 -126t-9 -187t-7 -223t-3 -221q0 -38 4 -67t11.5 -50t20 -34.5t29.5 -20.5t40 -8l-15 -138q-19 -10 -66 -10q-76 0 -125.5 54t-56.5 170h-7 q-56 -102 -148 -163t-213 -61q-126 0 -224 65.5t-154 187.5t-56 280zM278 513q0 -102 32.5 -188t99 -141t155.5 -55q97 0 177.5 80.5t106.5 189.5q12 58 12 149q0 76 -8 113q-14 73 -50.5 134t-95 99.5t-126.5 38.5q-66 0 -123 -31.5t-96 -87t-61.5 -133t-22.5 -166.5v-2z " />
<glyph unicode="&#x3b2;" horiz-adv-x="1226" d="M155 -61v1010q0 109 13.5 196t38.5 147t51.5 99.5t61.5 72.5q124 116 311 116q81 0 151.5 -27.5t122 -77t80.5 -121.5t29 -156q0 -118 -56.5 -209t-137.5 -132v-8q64 -14 121 -47.5t103 -84.5t73 -125.5t27 -162.5q0 -106 -38.5 -194t-103 -143.5t-146 -86t-170.5 -30.5 q-210 0 -337 134h-4v-146q0 -299 23 -397h-180q-33 87 -33 373zM341 301q44 -71 125 -123.5t185 -52.5q131 0 215.5 86t84.5 218q0 77 -26 138.5t-73 101t-108.5 61.5t-134.5 24q-7 1 -15 1h-14.5t-15 -0.5t-14.5 -0.5v131q12 0 37 4q81 5 138.5 46.5t84.5 102t27 133.5 q0 115 -63 185t-161 70q-134 0 -203 -114.5t-69 -341.5v-669z" />
<glyph unicode="&#x3b3;" horiz-adv-x="1016" d="M-13 1060h216q83 -123 180.5 -361.5t142.5 -464.5h9q249 460 249 753q0 18 -1 41.5t-1 31.5h182q6 -29 6 -71q0 -130 -52.5 -294.5t-133 -319t-188.5 -318.5q-13 -17 -13 -53q7 -125 7 -438h-189q3 107 4 203.5t-9.5 208.5t-33.5 210q-37 163 -109 344.5t-138 307.5 t-128 220z" />
<glyph unicode="&#x3b4;" horiz-adv-x="1196" d="M83 508q0 99 32 186.5t89.5 155.5t127.5 120t155 93v11l-50 39q-134 111 -134 219q0 46 23.5 89.5t67.5 79.5t116 57.5t161 21.5q106 0 201.5 -31.5t148.5 -74.5l-57 -126q-42 31 -124.5 59t-164.5 28q-86 0 -133 -28.5t-47 -70.5q0 -18 8 -35.5t29 -39t39 -36.5t57 -47 q16 -12 25 -19l179 -145q139 -105 210 -225t71 -272q0 -121 -40.5 -223t-110 -171.5t-164 -108.5t-200.5 -39q-103 0 -196 36.5t-164 102.5t-113 168.5t-42 225.5zM278 510q0 -89 28 -164t75 -123.5t106 -75t122 -26.5t119.5 26.5t99 74.5t67.5 121t25 161q0 218 -205 377 l-117 92q-320 -169 -320 -463z" />
<glyph unicode="&#x3b5;" horiz-adv-x="964" d="M86 299q0 98 73 172t190 94v10q-52 11 -92 32.5t-66 50.5t-39.5 64.5t-13.5 74.5q0 54 27 104.5t78 92t133.5 66.5t184.5 25q202 0 322 -81l-42 -128q-37 25 -113.5 46t-150.5 21q-111 0 -178.5 -43.5t-67.5 -115.5q0 -50 40 -85t105 -50.5t151 -15.5h127v-138h-133 q-99 0 -172 -17.5t-117.5 -59t-44.5 -102.5t40 -105.5t104 -66t144 -21.5q28 0 58.5 3.5t59.5 9t57 13.5t52.5 17t45.5 18.5t37 18.5l35 -130q-62 -42 -170 -70t-217 -28q-67 0 -129 10.5t-120.5 35t-102 61t-69.5 92t-26 125.5z" />
<glyph unicode="&#x3b6;" horiz-adv-x="895" d="M86 510q0 152 62.5 313t185 313t287.5 265v8h-157q-181 0 -253 22l19 129q71 -8 268 -8h365l29 -136q-173 -88 -313 -232t-219.5 -312t-79.5 -326q0 -86 19.5 -151t57.5 -109.5t84.5 -73.5t110.5 -52q120 -44 307 -64q8 -1 13.5 -8.5t5.5 -16.5q0 -91 -41.5 -206.5 t-89.5 -178.5l-126 38q22 36 45 116t26 125q-131 18 -258 60q-60 19 -110.5 47t-95 70t-75.5 94t-49 122t-18 152z" />
<glyph unicode="&#x3b7;" horiz-adv-x="1215" d="M129 1060h174q30 -65 30 -175h4q44 83 136 141.5t215 58.5q48 0 95.5 -11.5t99.5 -43t90.5 -80.5t64 -130.5t25.5 -186.5v-673q0 -302 22 -394h-182q-33 81 -33 388v657q0 67 -13 121.5t-41 99t-76.5 68.5t-114.5 24q-92 0 -162.5 -56.5t-96.5 -139.5q-13 -37 -13 -90 v-638h-193v774q0 195 -31 286z" />
<glyph unicode="&#x3b8;" horiz-adv-x="1169" d="M83 791q0 168 34.5 312t98 250.5t161.5 166.5t219 60q124 0 219 -56.5t154.5 -161.5t89.5 -248.5t30 -322.5q0 -149 -19 -274.5t-59 -226t-99 -170.5t-140.5 -107.5t-181.5 -37.5h-3q-237 0 -370.5 208t-133.5 608zM274 730q0 -288 88 -449.5t232 -161.5q100 0 170 79 t102.5 214.5t32.5 317.5h-625zM274 874h625q-1 119 -20.5 219.5t-57 178t-98 121.5t-138.5 44q-94 0 -166 -79t-108.5 -206t-36.5 -278z" />
<glyph unicode="&#x3b9;" horiz-adv-x="516" d="M160 236v824h193v-803q0 -74 21 -103.5t82 -26.5l-11 -140q-39 -12 -88 -12q-44 0 -77.5 12t-61.5 39.5t-43 80.5t-15 129z" />
<glyph unicode="&#x3ba;" horiz-adv-x="1079" d="M136 1060h186q7 -9 12.5 -26t9.5 -39.5t6.5 -52t2.5 -61.5v-291h9q85 80 168 164t171.5 176.5t124.5 129.5h226v-8q-84 -78 -259 -244.5t-245 -232.5v-8q30 -7 64 -27.5t65 -47.5t67 -66t65 -75t65 -83l193 -268h-224l-166 226q-58 77 -105 126.5t-100.5 83.5t-101.5 35 h-17v-471h-193v830q0 173 -24 230z" />
<glyph unicode="&#x3bb;" horiz-adv-x="1033" d="M15 0l384 982q13 37 13 51q0 24 -13 56q-27 76 -54 132t-61 103.5t-75 72.5t-88 25q-25 0 -38 -2l20 149q38 9 72 9q45 0 84 -12.5t71 -33.5t63 -56.5t55.5 -73.5t51 -93.5t48 -107t48.5 -122.5l406 -1079h-205l-214 607q-50 148 -70 230h-11q-14 -66 -68 -224l-217 -613 h-202z" />
<glyph unicode="&#x3bc;" horiz-adv-x="1211" d="M160 -44v1104h191v-626q0 -63 14 -116.5t41.5 -95t74.5 -65t109 -23.5q60 0 113.5 27t87 66t52.5 84q18 49 18 99v650h191v-769q0 -45 4.5 -74.5t16.5 -50t31 -30t48 -11.5l-15 -140q-32 -10 -66 -10q-75 0 -125.5 46.5t-62.5 143.5h-7q-17 -34 -44 -64.5t-64.5 -58.5 t-88 -44.5t-107.5 -16.5q-76 0 -138 28.5t-95 86.5v-131q0 -299 25 -399h-174q-30 91 -30 390z" />
<glyph unicode="&#x3bd;" horiz-adv-x="1027" d="M9 1060h204l203 -596q21 -55 53.5 -156.5t38.5 -119.5h7l43 86t48 98t54 117t47.5 117.5t43.5 126.5t26.5 116t11.5 113q0 67 -3 98h182q7 -64 7 -78q0 -62 -12.5 -132.5t-32 -136.5t-51.5 -143t-63 -142t-75 -146t-79 -141t-83 -141h-182z" />
<glyph unicode="&#x3be;" horiz-adv-x="948" d="M83 464q0 155 98 271.5t246 156.5v11q-80 25 -135 70.5t-81.5 105.5t-26.5 133q0 70 29 135t84 117.5t144.5 84t200.5 31.5q168 0 268 -60l-40 -133q-24 13 -55.5 24t-75 18.5t-86.5 7.5q-67 0 -120.5 -20t-87 -53.5t-51 -76t-17.5 -89.5q0 -74 41.5 -129t110.5 -83.5 t157 -32.5h105v-140h-59q-111 0 -198 -26t-140.5 -71.5t-81 -104.5t-27.5 -128q0 -130 84.5 -210t253.5 -124q21 -6 42.5 -11.5t46 -10t40.5 -8t44 -8t38.5 -6l42 -6t37.5 -5.5q19 0 19 -23q0 -84 -41 -205t-87 -180l-128 38q22 37 45 118t25 123q-72 10 -129.5 21t-129 31 t-126 45t-109 63.5t-90 85t-58 111.5t-22.5 142z" />
<glyph unicode="&#x3bf;" horiz-adv-x="1202" d="M83 521q0 105 26.5 195t74.5 157.5t113 115t144.5 72t167.5 24.5q151 0 267 -68.5t180 -192.5t64 -285q0 -114 -30 -209t-81.5 -159.5t-119.5 -109.5t-142.5 -65.5t-152.5 -20.5h-2q-107 0 -200.5 39t-161.5 108.5t-107.5 172.5t-39.5 226zM278 529q0 -86 24 -161.5 t66 -130t101.5 -85.5t128.5 -31h2q91 0 165 53t115.5 147t41.5 212q0 46 -7.5 92.5t-23.5 93t-42.5 86t-60.5 70t-81 48.5t-102 18q-67 0 -122 -24t-92 -63.5t-63 -93t-38 -112t-12 -119.5z" />
<glyph unicode="&#x3c0;" horiz-adv-x="1215" d="M29 1004q82 56 304 56h828l-21 -150h-147v-594q0 -207 30 -316h-186q-32 62 -32 295v615h-349q-7 -224 -50.5 -504.5t-98.5 -405.5h-184q57 150 99.5 419.5t49.5 490.5q-143 0 -217 -21z" />
<glyph unicode="&#x3c1;" horiz-adv-x="1233" d="M149 -48v491q0 80 8 147t21.5 116t34 91.5t41.5 71.5t49 58q66 71 158 114.5t206 43.5q109 0 199.5 -39.5t153 -110.5t96.5 -171t34 -218q0 -110 -26 -203t-72 -160t-107.5 -114.5t-132 -70.5t-145.5 -23q-104 0 -189.5 41.5t-130.5 115.5h-8v-172q0 -288 18 -394h-184 q-24 83 -24 386zM339 416q0 -40 10 -77q27 -92 106.5 -152t180.5 -60q99 0 173 54.5t111.5 148t37.5 211.5q0 106 -35 192t-106 138.5t-166 52.5q-59 0 -113 -24.5t-99.5 -73.5t-72.5 -131.5t-27 -188.5v-90z" />
<glyph unicode="&#x3c2;" horiz-adv-x="913" d="M83 513q0 86 24 168.5t72 155.5t115 128.5t160.5 87.5t200.5 32q155 0 240 -48l-44 -140q-95 38 -196 38q-111 0 -198 -56t-133 -147.5t-46 -200.5q0 -152 76.5 -243t224.5 -135q116 -32 282 -57q12 -3 17 -10t5 -23q0 -58 -20 -134.5t-49 -142t-58 -102.5l-129 40 q15 24 31 71.5t27.5 94t13.5 73.5q-125 22 -216 46q-69 19 -127.5 48.5t-109 73.5t-86.5 99t-56.5 127t-20.5 156z" />
<glyph unicode="&#x3c3;" horiz-adv-x="1213" d="M83 519q0 105 26 195t74.5 158t115.5 116t151 72.5t179 24.5h203h117q24 0 81.5 -0.5t98.5 -0.5t59 1l-7 -147q-71 0 -278 9v-9q93 -63 145 -171t52 -230q0 -113 -30 -207.5t-79.5 -159t-116 -109.5t-137.5 -65.5t-145 -20.5q-107 0 -200.5 38.5t-161.5 107.5t-107.5 172 t-39.5 226zM278 529q0 -115 41 -208.5t113.5 -146.5t163.5 -53h2q86 0 157 53.5t113 149t42 213.5q0 56 -11.5 111.5t-36 108.5t-60 93.5t-88.5 65.5t-116 25q-64 0 -118 -24t-90.5 -63.5t-62 -93t-37.5 -112t-12 -119.5z" />
<glyph unicode="&#x3c4;" horiz-adv-x="904" d="M-13 1004q80 56 289 56h611l-24 -150h-328v-601q0 -52 9.5 -88.5t27.5 -55.5t38.5 -27.5t46.5 -8.5q33 0 46 3l-9 -138q-36 -19 -104 -19q-128 0 -186.5 80.5t-58.5 249.5v605h-117q-123 0 -215 -18z" />
<glyph unicode="&#x3c5;" horiz-adv-x="1148" d="M123 1060h184q30 -38 30 -199v-432q0 -76 21 -135t56.5 -92t77 -49.5t87.5 -16.5q136 0 208 130.5t72 362.5q0 133 -23.5 256t-46.5 175h179q31 -58 55.5 -174t24.5 -240q0 -70 -7 -135.5t-23 -133.5t-40.5 -126t-63 -109.5t-87.5 -88t-116.5 -57.5t-147.5 -21 q-89 0 -163.5 27t-131.5 78.5t-89 134.5t-32 188v300q0 285 -24 357z" />
<glyph unicode="&#x3c6;" horiz-adv-x="1405" d="M83 537q0 88 24.5 169.5t62.5 141.5t87.5 110t96.5 82t93 51l74 -107q-46 -29 -86.5 -68t-78 -93t-60 -127t-22.5 -155q0 -108 37.5 -195.5t116 -148t190.5 -78.5v644q0 82 22 144.5t60 100t85.5 56t103.5 17.5q52 -1 104.5 -17.5t100.5 -47.5t89.5 -77t72 -102.5 t48 -129t17.5 -151.5q0 -106 -29 -196.5t-79 -156t-117.5 -114t-143 -75.5t-157.5 -35v-413h-177v413q-81 6 -156.5 29t-145 68t-120.5 108t-82 153.5t-31 199.5zM795 119q158 22 250 137t92 298q0 78 -21.5 150.5t-57 123.5t-80.5 82t-91 31q-42 0 -67 -38.5t-25 -111.5 v-672z" />
<glyph unicode="&#x3c7;" horiz-adv-x="1000" d="M25 -416l378 757l-363 719h205l270 -571h8q56 121 113 234l157 337h189l-375 -715l386 -763l-180 -49l-315 649h-9q-11 -25 -45.5 -101.5t-56.5 -124.5l-199 -423z" />
<glyph unicode="&#x3c8;" horiz-adv-x="1434" d="M129 1060h178q26 -37 26 -199v-317q0 -91 17 -163t45.5 -119.5t69.5 -79.5t86 -47t97 -18v1222h176v-1222q145 6 235.5 145t90.5 365q0 148 -26 269t-53 164h178q36 -58 60.5 -168.5t24.5 -249.5q0 -98 -16.5 -189t-55 -176.5t-96 -149.5t-145.5 -105t-197 -47v-409h-178 v409q-85 6 -155.5 24.5t-136 59.5t-110 101t-71 153.5t-26.5 212.5v287q0 185 -18 247z" />
<glyph unicode="&#x3c9;" horiz-adv-x="1520" d="M83 541q0 169 55 313.5t132 219.5h177v-5q-77 -85 -126 -223t-49 -300q0 -86 14 -156t36.5 -116.5t52.5 -78t60.5 -45.5t62.5 -14q73 0 124 70t51 171l-4 418h182l-5 -416q0 -104 52 -173.5t130 -69.5q42 0 81 27.5t70.5 78.5t50.5 134.5t19 186.5q0 154 -49 292.5 t-126 213.5v5h182q76 -63 128.5 -202.5t52.5 -312.5q0 -115 -22.5 -212t-60.5 -164.5t-89.5 -115t-109 -70t-118.5 -22.5q-97 0 -170 51t-106 139h-10q-38 -89 -111 -139.5t-169 -50.5q-57 0 -111 20t-105 64t-88.5 108.5t-60.5 161t-23 212.5z" />
<glyph unicode="&#x3ca;" horiz-adv-x="516" d="M-46 1330q0 46 31 79t78 33q29 0 53.5 -14.5t38.5 -40.5t14 -57q0 -45 -30.5 -77t-77.5 -32h-2q-45 0 -75 32t-30 77zM160 239v821h193v-803q0 -74 21 -103.5t82 -26.5l-11 -140q-39 -12 -88 -12q-44 0 -77.5 12t-61.5 40t-43 81t-15 131zM357 1330q0 30 14 56t39 41 t54 15q23 0 43 -8.5t34.5 -23.5t22.5 -36t8 -44q0 -45 -30.5 -77t-77.5 -32h-2q-46 0 -75.5 32t-29.5 77z" />
<glyph unicode="&#x3cb;" horiz-adv-x="1148" d="M123 1060h184q30 -38 30 -199v-432q0 -76 21 -135t56.5 -92t77 -49.5t87.5 -16.5q136 0 208 130.5t72 362.5q0 133 -23.5 256t-46.5 175h179q31 -58 55.5 -174t24.5 -240q0 -70 -7 -135.5t-23 -133.5t-40.5 -126t-63 -109.5t-87.5 -88t-116.5 -57.5t-147.5 -21 q-89 0 -163.5 27t-131.5 78.5t-89 134.5t-32 188v300q0 285 -24 357zM255 1330q0 46 31 79t78 33q44 0 73.5 -32t29.5 -80q0 -45 -29.5 -77t-75.5 -32h-2q-45 0 -75 32t-30 77zM657 1330q0 46 31.5 79t76.5 33q46 0 76.5 -32t30.5 -80q0 -45 -30.5 -77t-76.5 -32h-2 q-46 0 -76 32t-30 77z" />
<glyph unicode="&#x3cc;" horiz-adv-x="1202" d="M83 521q0 105 26.5 195t74.5 157.5t113 115t144.5 72t167.5 24.5q151 0 267 -68.5t180 -192.5t64 -285q0 -114 -30 -209t-81.5 -159.5t-119.5 -109.5t-142.5 -65.5t-152.5 -20.5h-2q-107 0 -200.5 39t-161.5 108.5t-107.5 172.5t-39.5 226zM278 529q0 -86 24 -161.5 t66 -130t101.5 -85.5t128.5 -31h2q91 0 165 53t115.5 147t41.5 212q0 46 -7.5 92.5t-23.5 93t-42.5 86t-60.5 70t-81 48.5t-102 18q-67 0 -122 -24t-92 -63.5t-63 -93t-38 -112t-12 -119.5zM517 1190l116 313h195l-184 -313h-127z" />
<glyph unicode="&#x3cd;" horiz-adv-x="1148" d="M123 1060h184q30 -38 30 -199v-432q0 -76 21 -135t56.5 -92t77 -49.5t87.5 -16.5q136 0 208 130.5t72 362.5q0 133 -23.5 256t-46.5 175h179q31 -58 55.5 -174t24.5 -240q0 -70 -7 -135.5t-23 -133.5t-40.5 -126t-63 -109.5t-87.5 -88t-116.5 -57.5t-147.5 -21 q-89 0 -163.5 27t-131.5 78.5t-89 134.5t-32 188v300q0 285 -24 357zM480 1192l116 313h195l-182 -313h-129z" />
<glyph unicode="&#x3ce;" horiz-adv-x="1520" d="M83 541q0 169 55 313.5t132 219.5h177v-5q-77 -85 -126 -223t-49 -300q0 -86 14 -156t36.5 -116.5t52.5 -78t60.5 -45.5t62.5 -14q73 0 124 70t51 171l-4 418h182l-5 -416q0 -104 52 -173.5t130 -69.5q42 0 81 27.5t70.5 78.5t50.5 134.5t19 186.5q0 155 -48.5 293 t-126.5 213v5h182q76 -63 128.5 -202.5t52.5 -312.5q0 -115 -22.5 -212t-60.5 -164.5t-89 -115t-108 -70t-118 -22.5q-98 0 -171.5 51t-106.5 139h-10q-38 -89 -111 -139.5t-169 -50.5q-57 0 -111 20t-105 64t-88.5 108.5t-60.5 161t-23 212.5zM673 1190l116 313h195 l-182 -313h-129z" />
<glyph unicode="&#x401;" horiz-adv-x="1077" d="M167 0v1477h797v-160h-607v-466h574v-159h-574v-532h640v-160h-830zM249 1692q0 44 31.5 76.5t77 32.5t75 -31.5t29.5 -77.5q0 -47 -29 -79.5t-76 -32.5h-2q-31 0 -55 15.5t-37.5 40.5t-13.5 56zM655 1692q0 44 31.5 76.5t78.5 32.5q45 0 75 -31.5t30 -77.5 q0 -47 -29.5 -79.5t-77.5 -32.5h-2q-45 0 -75.5 32.5t-30.5 79.5z" />
<glyph unicode="&#x402;" horiz-adv-x="1456" d="M-2 1317v160h1135v-160h-535v-420h7q60 37 138.5 63.5t157.5 26.5q225 0 357 -185q112 -155 112 -411q0 -170 -53.5 -308.5t-150.5 -220.5q-64 -72 -144.5 -113.5t-160.5 -53.5l-35 150q157 39 241 153q104 137 104 374q0 202 -75 320q-89 134 -247 134q-135 0 -251 -86 v-740h-190v1317h-410z" />
<glyph unicode="&#x403;" horiz-adv-x="948" d="M167 0v1477h784v-160h-594v-1317h-190zM416 1556l205 257h232l-278 -257h-159z" />
<glyph unicode="&#x404;" horiz-adv-x="1261" d="M79 736q0 125 33.5 239.5t99.5 210t157.5 166t215 110t264.5 39.5q205 0 343 -70l-46 -149q-126 61 -291 61q-82 0 -156 -18.5t-134 -51.5t-109 -79.5t-84 -103.5t-57.5 -122.5t-29.5 -137.5h758v-153h-756q2 -89 28.5 -170.5t76 -149t116 -117t154 -77t187.5 -27.5 q171 0 306 59l35 -147q-150 -73 -377 -73q-157 0 -291 52.5t-232.5 148.5t-154.5 240.5t-56 319.5z" />
<glyph unicode="&#x405;" horiz-adv-x="1079" d="M92 73l48 159q69 -42 159 -69t184 -27q143 0 225.5 69t82.5 182q0 103 -64 169.5t-214 125.5q-191 67 -290.5 167.5t-99.5 250.5q0 86 34.5 160t96 127t151.5 83.5t195 30.5q200 0 327 -73l-53 -155q-125 70 -280 70q-72 0 -128 -20t-87.5 -53t-47 -70.5t-15.5 -77.5 q0 -99 67 -161t226 -124q194 -75 286 -175.5t92 -258.5q0 -69 -20.5 -132t-62.5 -117t-102 -93.5t-145.5 -62.5t-187.5 -23q-104 0 -209.5 28.5t-167.5 69.5z" />
<glyph unicode="&#x406;" horiz-adv-x="523" d="M167 0v1477h190v-1477h-190z" />
<glyph unicode="&#x407;" horiz-adv-x="523" d="M-46 1692q0 21 8 41.5t22.5 35t34.5 23.5t42 9q45 0 75.5 -31.5t30.5 -77.5q0 -47 -30 -79.5t-76 -32.5h-2q-47 0 -76 32.5t-29 79.5zM167 0v1477h190v-1477h-190zM360 1692q0 45 31 77t78 32q45 0 75.5 -31.5t30.5 -77.5q0 -47 -30.5 -79.5t-77.5 -32.5h-3 q-45 0 -74.5 32.5t-29.5 79.5z" />
<glyph unicode="&#x408;" horiz-adv-x="809" d="M9 11l28 156q77 -29 160 -29q67 0 115 17t84.5 57.5t54.5 113t18 178.5v973h190v-988q0 -115 -22 -204t-61 -147t-96 -95t-122.5 -52.5t-144.5 -15.5q-52 0 -109.5 10.5t-94.5 25.5z" />
<glyph unicode="&#x409;" horiz-adv-x="1930" d="M-13 136q44 8 87 30.5t70 50.5q35 33 59.5 89t38 115.5t21 140.5t9.5 145t2 148v622h824v-557q77 11 180 11q90 0 172 -16.5t154.5 -52t125.5 -88.5t84 -130.5t31 -172.5q0 -195 -122 -320q-170 -164 -520 -164q-169 0 -296 17v1313h-449v-447q0 -80 -1.5 -140t-6.5 -137 t-14 -136t-25.5 -124t-39.5 -114t-57 -93t-78 -74q-42 -28 -103.5 -48.5t-117.5 -20.5zM1098 144q61 -8 153 -8q81 0 151.5 20.5t125.5 60.5t86.5 104t31.5 146q0 67 -21.5 120.5t-58 89.5t-87.5 60t-107.5 34.5t-120.5 10.5q-57 0 -153 -8v-630z" />
<glyph unicode="&#x40a;" horiz-adv-x="1965" d="M167 0v1477h190v-590h586v590h190v-576q77 11 201 11q74 0 141.5 -11.5t129 -34.5t111.5 -59.5t87 -84.5t57 -112.5t20 -140.5q0 -199 -125 -320q-162 -162 -515 -162q-171 0 -297 17v721h-586v-725h-190zM1133 147q55 -11 155 -11q81 0 150 19.5t124.5 58t87 102.5 t31.5 146q0 64 -21 115t-56.5 85t-85 57t-105.5 33.5t-118 10.5q-78 0 -162 -9v-607z" />
<glyph unicode="&#x40b;" horiz-adv-x="1478" d="M-2 1317v160h1111v-160h-515v-422h4q71 42 159.5 71t175.5 29q173 0 274 -100q117 -120 117 -345v-550h-193v523q0 165 -71 242q-70 74 -188 74q-68 0 -145 -27.5t-133 -66.5v-745h-193v1317h-403z" />
<glyph unicode="&#x40c;" horiz-adv-x="1187" d="M167 0v1477h188v-655h59l506 655h230l-558 -677q71 -9 129 -33.5t99 -57t76.5 -81t60 -96.5t49.5 -114q11 -29 26.5 -73t25.5 -73.5t24.5 -69t27 -70t28 -65.5t30.5 -67h-206q-13 24 -26.5 54.5t-22.5 52.5t-23.5 63.5t-20 56.5t-22 64.5t-19.5 57.5q-22 62 -45 109 t-57 90t-76.5 70t-101.5 43t-132 16h-61v-677h-188zM493 1545l204 256h232l-278 -256h-158z" />
<glyph unicode="&#x40e;" horiz-adv-x="1141" d="M4 1477h217l294 -631q11 -26 108 -261h4q10 30 26 76t33 95.5t33 94.5l230 626h201l-309 -760q-43 -105 -65.5 -158.5t-62 -141t-76 -151t-72.5 -111.5q-145 -182 -335 -182q-67 0 -107 14l19 155q23 -6 71 -6q44 0 84.5 16.5t70 42t56.5 61t44.5 67.5t33.5 68 q10 26 8.5 42t-15.5 44zM291 1790h148q3 -30 10 -52t21 -43t40 -32t62 -11q37 0 62.5 11t39.5 31.5t21 42.5t10 53h148q-8 -113 -79 -174.5t-207 -61.5q-131 0 -199.5 62t-76.5 174z" />
<glyph unicode="&#x40f;" horiz-adv-x="1391" d="M167 0v1477h190v-1317h682v1317h190v-1477h-436l-17 -381h-158l-16 381h-435z" />
<glyph unicode="&#x410;" horiz-adv-x="1340" d="M55 0l501 1477h230l504 -1477h-203l-158 464h-523l-153 -464h-198zM445 613h444l-144 426q-31 91 -76 270h-5q-34 -143 -74 -268z" />
<glyph unicode="&#x411;" horiz-adv-x="1196" d="M167 4v1473h828v-160h-638v-397q77 11 182 11q231 0 381 -99q189 -123 189 -361q0 -198 -122 -320q-87 -85 -224 -124.5t-299 -39.5q-171 0 -297 17zM357 147q55 -11 160 -11q60 0 117 12t108 38t86 63q82 85 82 218q0 158 -121 241q-109 74 -281 74q-54 0 -151 -8v-627z " />
<glyph unicode="&#x412;" horiz-adv-x="1187" d="M167 4v1453q151 31 348 31q142 0 239 -25.5t166 -82.5q123 -90 123 -260q0 -107 -67 -195t-183 -130v-4q44 -11 85.5 -31t82 -52t70.5 -72.5t48.5 -96t18.5 -118.5q0 -174 -125 -296q-151 -138 -511 -138q-169 0 -295 17zM357 144q50 -8 160 -8q51 0 96.5 6.5t89 20 t78 36.5t61 54t41 74t14.5 96q0 73 -30 129t-83.5 89.5t-121 50t-147.5 16.5h-158v-564zM357 853h174q148 0 234 69t86 178q0 125 -86 183t-239 58q-107 0 -169 -13v-475z" />
<glyph unicode="&#x413;" horiz-adv-x="948" d="M167 0v1477h784v-160h-594v-1317h-190z" />
<glyph unicode="&#x414;" horiz-adv-x="1380" d="M25 151l111 4q104 192 144 325q71 241 71 622v375h826v-1322l129 -4l-13 -506h-149l-13 355h-932l-13 -355h-149zM333 157h654v1162h-458v-278q0 -364 -75 -602q-42 -139 -121 -282z" />
<glyph unicode="&#x415;" horiz-adv-x="1077" d="M167 0v1477h797v-160h-607v-466h574v-159h-574v-532h640v-160h-830z" />
<glyph unicode="&#x416;" horiz-adv-x="1754" d="M25 0q28 61 52.5 130t51.5 155.5t42 130.5q17 48 33.5 86t38 76t44.5 67t52.5 55.5t63.5 45t76 32t90 19.5l-523 680h224l458 -655h56v655h186v-655h60l456 655h223l-523 -680q68 -7 123.5 -29t96 -53.5t74.5 -79t57.5 -98.5t47.5 -119q9 -26 59.5 -182t86.5 -236h-194 q-23 44 -44.5 104t-44 134t-35.5 109q-18 55 -35 94.5t-40 79.5t-50.5 66.5t-64 48t-83.5 31.5t-105 10h-65v-677h-186v677h-65q-58 0 -105 -10t-83.5 -31.5t-64.5 -47.5t-51.5 -66.5t-41 -80t-36.5 -94.5q-11 -33 -33 -108t-42.5 -135t-42.5 -104h-194z" />
<glyph unicode="&#x417;" horiz-adv-x="1077" d="M67 73l52 148q64 -37 154.5 -63t175.5 -26q161 0 250.5 77.5t89.5 202.5q0 64 -24 114.5t-63 81.5t-92.5 51.5t-108 29t-114.5 8.5h-86v144h86q96 0 176 36.5t125.5 98.5t45.5 137q0 110 -71.5 171t-193.5 61q-53 0 -111 -14t-106 -35t-89 -47l-54 140q173 112 391 112 q195 0 314 -96.5t119 -264.5q0 -134 -85.5 -232t-218.5 -128v-4q161 -17 260.5 -115.5t99.5 -254.5q0 -90 -30 -163t-81 -122t-120 -82.5t-145 -48.5t-159 -15q-226 0 -387 98z" />
<glyph unicode="&#x418;" horiz-adv-x="1441" d="M167 0v1477h180v-622q0 -346 -19 -625l5 -2q98 202 274 489l478 760h190v-1477h-179v629q0 388 17 600l-7 3q-81 -183 -274 -498l-462 -734h-203z" />
<glyph unicode="&#x419;" horiz-adv-x="1441" d="M167 0v1477h180v-622q0 -346 -19 -625l5 -2q98 202 274 489l478 760h190v-1477h-179v629q0 388 17 600l-7 3q-81 -183 -274 -498l-462 -734h-203zM441 1788h146q4 -30 11 -52t21 -43t39.5 -32t62.5 -11q36 0 62 11t40 31.5t21 43t11 52.5h147q-9 -113 -79 -174.5 t-206 -61.5q-131 0 -199.5 62t-76.5 174z" />
<glyph unicode="&#x41a;" horiz-adv-x="1187" d="M167 0v1477h188v-655h59l506 655h230l-558 -677q71 -9 129 -33.5t99 -57t76.5 -81t60 -96.5t49.5 -114q11 -29 26.5 -73t25.5 -73.5t24.5 -69t27 -70t28 -65.5t30.5 -67h-206q-13 24 -26.5 54.5t-22.5 52.5t-23.5 63.5t-20 56.5t-22 64.5t-19.5 57.5q-22 62 -45 109 t-57 90t-76.5 70t-101.5 43t-132 16h-61v-677h-188z" />
<glyph unicode="&#x41b;" horiz-adv-x="1301" d="M-15 136q43 8 85.5 30t69.5 49q29 28 51 70.5t35.5 96t22.5 107.5t13.5 122t6 121.5t1.5 122.5v622h867v-1477h-192v1317h-489v-447q0 -62 -1 -108.5t-3.5 -107t-7 -108t-12.5 -102.5t-19.5 -98.5t-28 -89.5t-38 -81.5t-50 -67.5t-62.5 -55q-45 -29 -105.5 -49 t-119.5 -20z" />
<glyph unicode="&#x41c;" horiz-adv-x="1761" d="M127 0l103 1477h243l252 -714q100 -298 149 -498h7q46 185 156 498l262 714h244l92 -1477h-186l-38 648q-24 471 -22 638h-7q-79 -275 -186 -561l-261 -716h-144l-239 704q-117 345 -171 573h-4q-7 -288 -28 -653l-40 -633h-182z" />
<glyph unicode="&#x41d;" horiz-adv-x="1428" d="M167 0v1477h190v-618h714v618h194v-1477h-194v692h-714v-692h-190z" />
<glyph unicode="&#x41e;" horiz-adv-x="1509" d="M79 725q0 173 52 319t143 246t217.5 155.5t273.5 55.5q149 0 273.5 -55t210 -153.5t132.5 -236.5t47 -302q0 -149 -35 -275.5t-97.5 -218.5t-148.5 -156.5t-188.5 -96.5t-215.5 -32q-145 0 -268.5 55t-210.5 152.5t-136 237.5t-49 305zM282 730q0 -95 20 -183.5t60 -164 t96 -131.5t132 -87.5t164 -31.5q75 0 140.5 22t117 62t92.5 96.5t68 124.5t41 146t14 162q0 63 -9 125t-28.5 121.5t-47.5 112.5t-67 97t-86 76t-106.5 50t-126.5 18q-92 0 -170 -33t-133 -90.5t-94 -135.5t-58 -168t-19 -188z" />
<glyph unicode="&#x41f;" horiz-adv-x="1399" d="M167 0v1477h1067v-1477h-191v1317h-686v-1317h-190z" />
<glyph unicode="&#x420;" horiz-adv-x="1165" d="M167 0v1459q177 29 366 29q278 0 414 -123q41 -35 69.5 -81.5t44 -104.5t15.5 -123q0 -198 -114 -316q-50 -52 -120.5 -88.5t-154 -54.5t-177.5 -18q-100 0 -153 13v-592h-190zM357 747q59 -15 158 -15q174 0 272 82t98 234q0 95 -43.5 160.5t-120.5 96.5t-184 31 q-122 0 -180 -15v-574z" />
<glyph unicode="&#x421;" horiz-adv-x="1270" d="M79 725q0 172 56.5 316.5t157.5 245.5t244.5 157.5t313.5 56.5q85 0 160.5 -11.5t117.5 -25t72 -29.5l-46 -155q-126 61 -298 61q-130 0 -236.5 -41t-182 -118t-117 -192t-41.5 -258q0 -181 66.5 -314.5t195.5 -206.5t307 -73q86 0 169 16.5t141 44.5l39 -151 q-60 -30 -162 -51.5t-227 -21.5q-157 0 -290 50t-231 143t-153.5 236.5t-55.5 320.5z" />
<glyph unicode="&#x422;" horiz-adv-x="1088" d="M-2 1315v162h1093v-162h-451v-1315h-193v1315h-449z" />
<glyph unicode="&#x423;" horiz-adv-x="1141" d="M4 1477h217l294 -631q11 -26 108 -261h4q10 30 26 76t33 95.5t33 94.5l230 626h201l-309 -760q-43 -105 -65.5 -158.5t-62 -141t-76 -151t-72.5 -111.5q-145 -182 -335 -182q-67 0 -107 14l19 155q23 -6 71 -6q44 0 84.5 16.5t70 42t56.5 61t44.5 67.5t33.5 68 q10 26 8.5 42t-15.5 44z" />
<glyph unicode="&#x424;" horiz-adv-x="1587" d="M79 730q0 101 20 189t54.5 154t82.5 120.5t103 91.5t117.5 63t124 39.5t124.5 17.5v132h182v-132q96 -4 184.5 -29.5t169 -78t140 -127.5t94.5 -186t35 -246t-35.5 -244.5t-94.5 -183t-140 -125t-169 -76t-186 -30.5v-138h-184v138q-97 6 -184 30t-168.5 73.5t-140 121.5 t-94 181t-35.5 245zM276 738q0 -102 24 -187t64 -143.5t95 -100.5t116 -63.5t128 -28.5v1052q-43 -2 -84.5 -12.5t-84.5 -30.5t-80 -49t-70 -71.5t-57 -94.5t-37.5 -121.5t-13.5 -149.5zM885 215q55 4 106 19.5t99.5 43t88.5 70t70 97.5t47 130.5t17 164.5q0 80 -12.5 148.5 t-35 120.5t-54 94t-68.5 71.5t-80 49.5t-87 30.5t-91 12.5v-1052z" />
<glyph unicode="&#x425;" horiz-adv-x="1250" d="M55 0l451 747l-433 730h220l196 -346q91 -161 136 -250h6q52 109 134 250l201 346h220l-450 -718l460 -759h-221l-189 326q-112 183 -171 292h-4q-71 -145 -159 -294l-178 -324h-219z" />
<glyph unicode="&#x426;" horiz-adv-x="1428" d="M167 0v1477h190v-1317h678v1317h192v-1322l130 -4l-14 -506h-151l-13 355h-1012z" />
<glyph unicode="&#x427;" horiz-adv-x="1307" d="M155 975v502h192v-473q0 -102 34 -172.5t104.5 -108t173.5 -37.5q74 0 153 24t139 61v706h193v-1486h-193v632h-4q-161 -92 -355 -92q-64 0 -121 11t-116.5 41.5t-102 78.5t-70 128.5t-27.5 184.5z" />
<glyph unicode="&#x428;" horiz-adv-x="1855" d="M167 0v1477h188v-1317h480v1317h188v-1317h478v1317h191v-1477h-1525z" />
<glyph unicode="&#x429;" horiz-adv-x="1892" d="M167 0v1477h188v-1317h480v1317h188v-1317h478v1317h191v-1322l129 -4l-13 -506h-152l-10 355h-1479z" />
<glyph unicode="&#x42a;" horiz-adv-x="1382" d="M-4 1319v158h569v-553q73 11 178 11q87 0 166.5 -16.5t151 -53t123.5 -89t82.5 -130t30.5 -171.5q0 -194 -114 -315q-164 -173 -514 -173q-168 0 -295 17v1315h-378zM565 147q52 -11 152 -11q81 0 149 20.5t120 60.5t81 104t29 146q0 66 -21 120.5t-56.5 90.5t-84 60.5 t-102 35t-113.5 10.5q-77 0 -154 -10v-627z" />
<glyph unicode="&#x42b;" horiz-adv-x="1633" d="M167 4v1473h190v-553q73 11 176 11q77 0 148 -11.5t135 -35t116 -61.5t90 -88t59 -118t21 -148q0 -189 -113 -313q-86 -89 -225 -131t-302 -42q-169 0 -295 17zM357 147q50 -11 153 -11q81 0 151 20.5t124.5 60.5t86 104t31.5 146q0 66 -22.5 120.5t-60 90.5t-88.5 60.5 t-107 35t-117 10.5q-89 0 -151 -10v-627zM1267 0v1477h192v-1477h-192z" />
<glyph unicode="&#x42c;" horiz-adv-x="1194" d="M167 4v1473h190v-553q73 11 182 11q93 0 176 -16t155.5 -52t125 -88.5t83 -130.5t30.5 -173q0 -191 -114 -315q-85 -90 -225 -131.5t-306 -41.5q-171 0 -297 17zM357 147q55 -11 158 -11q81 0 151.5 20t125.5 59t86.5 103t31.5 146q0 68 -21.5 122.5t-58 91t-87.5 61 t-108 35t-122 10.5q-75 0 -156 -10v-627z" />
<glyph unicode="&#x42d;" horiz-adv-x="1244" d="M65 52l42 151q65 -30 151 -48.5t167 -18.5q119 0 218.5 41.5t166.5 115t106 172.5t44 214h-690v153h688q-10 108 -47.5 200.5t-100 162t-155 109t-203.5 39.5q-150 0 -316 -74l-46 147q195 85 372 85q137 0 251 -38.5t196.5 -107.5t140 -164.5t85.5 -210t28 -244.5 q0 -142 -36 -264.5t-101 -213t-154 -154.5t-196 -96.5t-224 -32.5q-219 0 -387 77z" />
<glyph unicode="&#x42e;" horiz-adv-x="1899" d="M167 0v1477h190v-638h220q29 308 197.5 485t430.5 177q141 0 257.5 -55t195 -153.5t121 -236.5t42.5 -302q0 -150 -32.5 -277t-90 -218.5t-137.5 -156t-175 -96t-200 -31.5q-178 0 -314 86t-214 245.5t-86 372.5h-215v-679h-190zM761 730q0 -94 18 -182t54.5 -164 t87.5 -133t120.5 -89.5t150.5 -32.5h2q82 0 152 32t121 88.5t87 133.5t54 169t18 193q0 89 -16.5 175t-51.5 164t-84.5 136.5t-121 93t-156.5 34.5t-157 -33.5t-123 -92t-86.5 -137t-52 -168.5t-16.5 -187z" />
<glyph unicode="&#x42f;" horiz-adv-x="1189" d="M33 0q33 61 59 134q15 41 43.5 128t47.5 140.5t54.5 119t78.5 107.5q53 54 123 74v7q-69 12 -128.5 42.5t-104 76t-70 109t-25.5 136.5q0 95 36 171.5t100 128.5q141 114 424 114q197 0 352 -31v-1457h-191v640h-140q-139 0 -212 -73q-35 -36 -66 -97.5t-49 -116 t-42.5 -132t-37.5 -114.5q-28 -69 -49 -107h-203zM305 1065q0 -87 48 -151.5t130.5 -97t187.5 -32.5q124 0 161 2v535q-74 20 -179 20q-74 0 -134.5 -15t-109.5 -46.5t-76.5 -86.5t-27.5 -128z" />
<glyph unicode="&#x430;" horiz-adv-x="1056" d="M77 280q0 193 165 295t473 100v22q0 31 -4 59.5t-19 64t-40 61t-71 43.5t-108 18q-73 0 -146 -21.5t-130 -58.5l-44 128q67 43 159 68.5t190 25.5q94 0 166 -25t116 -66t72 -99t38.5 -117t10.5 -127v-396q0 -158 17 -255h-175l-15 134h-7q-48 -68 -132.5 -113.5 t-191.5 -45.5q-78 0 -141 26t-102 69.5t-60 97.5t-21 112zM270 303q0 -90 51.5 -137t130.5 -47q97 0 164 51t92 125q11 32 11 62v184q-449 10 -449 -238z" />
<glyph unicode="&#x431;" horiz-adv-x="1156" d="M88 686q0 371 165 587q74 106 184 164t271 86q178 26 262 57l-8 -160q-73 -26 -222 -48q-133 -21 -225 -68t-151 -131q-48 -69 -79 -166t-38 -185h8q49 112 150 175t218 63q98 0 180.5 -34.5t143 -100t94 -165t33.5 -223.5q0 -262 -129.5 -412t-361.5 -150 q-78 0 -144.5 21t-116.5 58t-90 90t-66.5 114t-44.5 132.5t-25.5 144.5t-7.5 151zM291 548q0 -55 10.5 -112.5t33.5 -114.5t56.5 -101.5t84.5 -72.5t111 -28q62 0 112 23t83 62t55 91.5t31.5 108.5t9.5 117v2q0 54 -8.5 106.5t-30 105.5t-54 93t-84.5 65t-118 25 q-82 0 -143 -39t-95 -105q-54 -96 -54 -226z" />
<glyph unicode="&#x432;" horiz-adv-x="1095" d="M155 0v1048q137 23 338 23q44 0 83 -2t88 -9t89.5 -18.5t81 -31.5t68 -47t44.5 -67t17 -89q0 -64 -30.5 -114.5t-79.5 -81t-111 -44.5v-4q121 -17 195 -84.5t74 -177.5q0 -58 -20.5 -105t-53.5 -79t-80.5 -56.5t-96 -38t-106.5 -22t-104.5 -11t-96.5 -2.5q-129 0 -299 13 zM337 127q73 -8 156 -8q43 0 83.5 4t85.5 16.5t77.5 32t54 53.5t21.5 78q0 37 -12 66.5t-35 49.5t-52.5 34t-69 21.5t-80 11t-89.5 3.5h-140v-362zM339 615h146q56 0 105.5 9t91.5 27.5t67 52t25 78.5q0 79 -70.5 117.5t-214.5 38.5q-46 0 -150 -9v-314z" />
<glyph unicode="&#x433;" horiz-adv-x="843" d="M155 0v1060h652v-155h-460v-905h-192z" />
<glyph unicode="&#x434;" horiz-adv-x="1160" d="M17 142l90 2q69 101 106 218q61 192 61 422v276h708v-916l109 -2l-10 -479h-152l-9 337h-734l-8 -337h-151zM305 147h488v767h-348v-176q0 -210 -54 -393q-29 -97 -86 -198z" />
<glyph unicode="&#x435;" horiz-adv-x="1097" d="M83 513q0 119 35 223.5t98 182t157.5 122t207.5 44.5q72 0 133.5 -17.5t105.5 -47.5t79 -71t57 -85.5t36.5 -94.5t20.5 -95t6 -89q0 -32 -7 -90h-744q1 -94 30.5 -166.5t80.5 -115.5t114.5 -64.5t137.5 -21.5q166 0 293 55l34 -138q-149 -69 -353 -69q-161 0 -279.5 68 t-180.5 189t-62 281zM270 633h562q1 41 -5.5 81t-25 83t-47.5 75.5t-78 53.5t-111 21q-47 0 -88.5 -14t-71.5 -38t-54.5 -54.5t-41 -66.5t-26 -71t-13.5 -70z" />
<glyph unicode="&#x436;" horiz-adv-x="1461" d="M13 0q20 39 38.5 85.5t43.5 116t34 93.5q51 132 127 201.5t193 82.5l-420 481h220l351 -462h40v462h184v-462h37l351 462h221l-419 -481q118 -13 194 -81.5t124 -198.5q9 -23 27.5 -76.5t29.5 -83t27.5 -70t32.5 -69.5h-193q-39 70 -97 243q-47 124 -120 175t-182 51h-33 v-469h-184v469h-35q-115 0 -186 -51t-118 -177q-6 -15 -20 -52.5t-21 -55t-18.5 -45.5t-21.5 -48.5t-21 -39.5h-186z" />
<glyph unicode="&#x437;" horiz-adv-x="943" d="M61 63l50 130q60 -33 134.5 -52.5t147.5 -19.5q118 0 189 51t71 131q0 51 -25 88t-70 56.5t-97 28.5t-116 9h-98v130h92q121 0 196.5 49.5t75.5 124.5q0 70 -57 112t-148 42q-64 0 -132.5 -20t-124.5 -55l-48 119q157 96 353 96q51 0 100 -9t96.5 -30t83 -52t57.5 -79.5 t22 -107.5q0 -63 -35.5 -115.5t-88 -83t-114.5 -43.5v-4q123 -11 205.5 -82t82.5 -184q0 -67 -26 -121t-70 -89.5t-104 -59.5t-124 -34t-133 -10q-93 0 -183.5 22t-161.5 62z" />
<glyph unicode="&#x438;" horiz-adv-x="1213" d="M155 0v1060h182v-447q0 -236 -11 -425h7q94 191 171 325l331 547h225v-1060h-184v449q0 177 13 434h-6q-86 -174 -175 -329q-49 -81 -161.5 -270.5t-169.5 -283.5h-222z" />
<glyph unicode="&#x439;" horiz-adv-x="1213" d="M155 0v1060h182v-447q0 -236 -11 -425h7q94 191 171 325l331 547h225v-1060h-184v449q0 177 13 434h-6q-86 -174 -175 -329q-49 -81 -161.5 -270.5t-169.5 -283.5h-222zM322 1493h140q4 -75 40 -121t100 -46q46 0 78 22t48.5 58.5t20.5 86.5h140q-8 -133 -85 -202.5 t-206 -69.5q-70 0 -122.5 21t-84.5 58.5t-49 85.5t-20 107z" />
<glyph unicode="&#x43a;" horiz-adv-x="1048" d="M160 0v1060h191v-460h46l398 460h235l-463 -479q84 -8 150.5 -49.5t115 -107.5t91.5 -165q5 -11 23 -56t28.5 -70t28.5 -64t35 -69h-202q-41 65 -99 217q-55 131 -136.5 190.5t-214.5 59.5h-36v-467h-191z" />
<glyph unicode="&#x43b;" horiz-adv-x="1110" d="M4 138q59 7 105 44q36 26 58.5 66t33.5 101.5t14.5 125t3.5 163.5v422h737v-1060h-191v907h-364v-269q0 -95 -4 -167.5t-15 -141t-29.5 -118.5t-48 -91t-70.5 -68q-41 -34 -89.5 -50.5t-119.5 -16.5z" />
<glyph unicode="&#x43c;" horiz-adv-x="1399" d="M92 0l79 1060h237l192 -534q80 -236 97 -292h4q33 106 125 364l171 462h239l75 -1060h-184l-25 506q-16 286 -19 379h-7q-37 -124 -116 -344l-204 -535h-141l-188 525q-52 158 -105 352h-8q-5 -133 -19 -381l-25 -502h-178z" />
<glyph unicode="&#x43d;" horiz-adv-x="1196" d="M155 0v1060h192v-427h504v427h190v-1060h-190v480h-504v-480h-192z" />
<glyph unicode="&#x43e;" horiz-adv-x="1202" d="M83 521q0 105 26.5 195t74.5 157.5t113 115t144.5 72t167.5 24.5q151 0 267 -68.5t180 -192.5t64 -285q0 -114 -30.5 -209t-81.5 -159.5t-119.5 -109.5t-143 -65.5t-153.5 -20.5q-107 0 -200.5 39t-161.5 108.5t-107.5 172.5t-39.5 226zM278 529q0 -86 24 -161.5 t66.5 -130t102.5 -85.5t129 -31q91 0 165 53t115.5 147t41.5 212q0 46 -7.5 92.5t-23.5 93t-42.5 86t-60.5 70t-81 48.5t-102 18q-67 0 -122 -24t-92 -63.5t-63 -93t-38 -112t-12 -119.5z" />
<glyph unicode="&#x43f;" horiz-adv-x="1184" d="M155 0v1060h878v-1060h-194v907h-492v-907h-192z" />
<glyph unicode="&#x440;" horiz-adv-x="1246" d="M151 1060h173l9 -182h4q126 207 378 207q95 0 178 -39.5t142.5 -109t93.5 -171t34 -219.5q0 -111 -26 -205.5t-71.5 -160.5t-106.5 -113t-131.5 -69.5t-145.5 -22.5q-106 0 -193 44.5t-134 122.5h-4v-576h-191v1149q0 119 -9 345zM351 431q0 -29 9 -78q17 -66 59 -117.5 t101.5 -80t127.5 -28.5q100 0 173.5 52t111 144.5t37.5 213.5q0 81 -21 152t-60 125t-99.5 85.5t-134.5 31.5q-100 0 -181.5 -66t-109.5 -173q-13 -49 -13 -79v-182z" />
<glyph unicode="&#x441;" horiz-adv-x="981" d="M83 519q0 121 41 225.5t114 179t180 117t235 42.5q79 0 151 -16t116 -39l-44 -150q-86 51 -223 51q-89 0 -161 -31.5t-118 -86t-71 -127t-25 -155.5q0 -181 103.5 -289t264.5 -108q120 0 237 52l33 -144q-29 -16 -69.5 -29.5t-105 -24.5t-130.5 -11q-158 0 -278 68 t-185 191.5t-65 284.5z" />
<glyph unicode="&#x442;" horiz-adv-x="899" d="M25 907v153h851v-153h-330v-907h-191v907h-330z" />
<glyph unicode="&#x443;" horiz-adv-x="1031" d="M19 1060h211l232 -626q43 -123 69 -217h4q6 20 19 64.5t25 83.5t23 74l211 621h203l-288 -755q-108 -283 -188.5 -432.5t-175.5 -232.5q-44 -38 -92.5 -66.5t-82.5 -41t-62 -17.5l-48 163q90 28 168 94q44 35 88 91t75 124q7 17 11 28t4 18q0 14 -13 50z" />
<glyph unicode="&#x444;" horiz-adv-x="1403" d="M83 521q0 128 41 231.5t113.5 171.5t168 107.5t209.5 49.5l-2 471h180l-2 -471q116 -8 213.5 -48.5t168.5 -109t111 -169t40 -221.5q0 -127 -41.5 -230t-114.5 -170.5t-169 -106t-208 -45.5l2 -415h-180l2 413q-77 4 -146 23.5t-128 52t-106.5 79t-81 104t-52 130 t-18.5 153.5zM274 529q0 -167 92.5 -282.5t248.5 -135.5v838q-158 -21 -249.5 -137.5t-91.5 -282.5zM791 111q157 22 249.5 139t92.5 283t-92 279.5t-250 136.5v-838z" />
<glyph unicode="&#x445;" horiz-adv-x="1014" d="M17 0l378 541l-360 519h214l152 -228q28 -41 107 -173h7q29 53 106 176l148 225h208l-362 -512l374 -548h-220l-156 239q-32 46 -113 184h-5q-12 -23 -27 -49t-26 -43t-30 -47t-29 -45l-153 -239h-213z" />
<glyph unicode="&#x446;" horiz-adv-x="1204" d="M155 0v1060h192v-909h488v909h190v-916l110 -2l-10 -479h-150l-9 337h-811z" />
<glyph unicode="&#x447;" horiz-adv-x="1127" d="M142 679v381h193v-357q0 -109 49.5 -167.5t169.5 -58.5q41 0 83 9.5t78.5 26t66.5 37.5v510h191v-1073h-191v429h-4q-55 -36 -133.5 -58.5t-153.5 -22.5q-77 0 -139.5 20.5t-110 61t-73.5 107.5t-26 155z" />
<glyph unicode="&#x448;" horiz-adv-x="1616" d="M155 0v1060h190v-909h370v909h188v-909h370v909h191v-1060h-1309z" />
<glyph unicode="&#x449;" horiz-adv-x="1640" d="M155 0v1060h190v-909h370v909h188v-909h370v909h191v-916l107 -2l-11 -479h-149l-8 337h-1248z" />
<glyph unicode="&#x44a;" horiz-adv-x="1267" d="M31 910v150h506v-357q76 10 182 10q57 0 111 -8t108 -24t99 -44.5t79.5 -66.5t54 -93t19.5 -122q0 -152 -111 -246q-142 -120 -450 -120q-142 0 -284 15v906h-314zM535 136q66 -11 144 -11q64 0 118.5 11.5t100.5 36.5t72.5 70t26.5 106q0 52 -19.5 93t-51 65.5t-75 40 t-87.5 21.5t-93 6q-52 0 -136 -12v-427z" />
<glyph unicode="&#x44b;" horiz-adv-x="1456" d="M155 4v1056h192v-361q67 14 172 14q71 0 135.5 -12t124 -38.5t103 -67t69.5 -101.5t26 -137q0 -154 -109 -246q-145 -122 -427 -122q-147 0 -286 15zM347 134q75 -9 133 -9t110.5 12.5t97.5 38t71.5 71t26.5 104.5q0 50 -17 89t-45.5 64t-67.5 41t-80 23t-87 7 q-70 0 -142 -12v-429zM1111 0v1060h191v-1060h-191z" />
<glyph unicode="&#x44c;" horiz-adv-x="1090" d="M155 4v1056h192v-359q63 12 174 12q63 0 119.5 -7.5t113.5 -23t102.5 -43t81 -66t55 -94t19.5 -124.5q0 -150 -111 -244q-145 -122 -460 -122q-147 0 -286 15zM347 134q75 -9 142 -9q32 0 63.5 3t65 11t62.5 19.5t55 29.5t44.5 40.5t29.5 54t11 68.5q0 53 -22 93.5 t-55 64.5t-79 39.5t-89 21t-90 5.5q-58 0 -138 -12v-429z" />
<glyph unicode="&#x44d;" horiz-adv-x="1016" d="M61 48l37 138q134 -57 266 -57q105 0 186.5 42t129.5 119.5t56 182.5h-533v132h535q-6 70 -31 128.5t-69 104.5t-112 71.5t-154 25.5q-128 0 -253 -59l-42 126q69 39 156 61t170 22q116 0 215.5 -39t170.5 -113q69 -72 106.5 -175.5t37.5 -231.5q0 -116 -38 -216 t-108 -175t-177.5 -117.5t-239.5 -42.5q-167 0 -309 73z" />
<glyph unicode="&#x44e;" horiz-adv-x="1544" d="M155 0v1060h190v-447h181q26 212 154 342t317 130q137 0 242.5 -68t164 -192t58.5 -286q0 -126 -37 -232.5t-101.5 -178.5t-152 -112.5t-187.5 -40.5q-192 0 -319.5 133t-143.5 359h-176v-467h-190zM705 523q0 -79 18 -150.5t52.5 -128.5t89 -91t122.5 -34h2q69 0 124 36 t88.5 96.5t50.5 133t17 150.5q0 77 -17.5 148t-50.5 129t-87.5 93.5t-122.5 35.5t-123 -35t-90 -93.5t-54 -133t-19 -156.5z" />
<glyph unicode="&#x44f;" horiz-adv-x="1086" d="M25 0q36 53 65 121q11 25 25.5 64.5t26.5 71t28 66.5t38 65t49 53q57 50 120 61v6q-54 6 -102.5 25t-89.5 51t-65 80.5t-24 106.5q0 151 140 231q127 72 356 72q148 0 341 -22v-1052h-190v445h-143q-111 0 -177 -60q-28 -22 -51.5 -60.5t-36.5 -71t-32 -86.5t-29 -79 q-12 -31 -44 -88h-205zM295 761q0 -49 28 -86t72 -57.5t91 -30.5t93 -10h164v356q-89 12 -160 12q-42 0 -80.5 -5t-77.5 -18t-67 -33t-45.5 -53t-17.5 -75z" />
<glyph unicode="&#x451;" horiz-adv-x="1097" d="M83 513q0 119 35 223.5t98 182t157.5 122t207.5 44.5q72 0 133.5 -17.5t105.5 -47.5t79 -71t57 -85.5t36.5 -94.5t20.5 -95t6 -89q0 -32 -7 -90h-744q1 -94 30.5 -166.5t80.5 -115.5t114.5 -64.5t137.5 -21.5q166 0 293 55l34 -138q-149 -69 -353 -69q-161 0 -279.5 68 t-180.5 189t-62 281zM270 633h562q1 41 -5.5 81t-25 83t-47.5 75.5t-78 53.5t-111 21q-47 0 -88.5 -14t-71.5 -38t-54.5 -54.5t-41 -66.5t-26 -71t-13.5 -70zM274 1361q0 46 32.5 78.5t78.5 32.5t77 -32t31 -79q0 -45 -31 -78.5t-77 -33.5h-2q-46 0 -77.5 33.5t-31.5 78.5z M682 1361q0 46 31.5 78.5t77.5 32.5q30 0 54.5 -14.5t39 -40t14.5 -56.5q0 -45 -31 -78.5t-77 -33.5h-2q-47 0 -77 33.5t-30 78.5z" />
<glyph unicode="&#x452;" horiz-adv-x="1219" d="M15 1232v138h180v186h192v-186h496v-138h-496v-312h6q61 68 145 109.5t177 41.5q97 0 173.5 -44t127.5 -126q117 -168 117 -464q0 -219 -57 -381t-160 -249q-127 -107 -274 -123l-37 151q66 14 115 39t91 71q60 69 95 191t35 289q0 233 -84 372q-22 36 -52 62.5 t-68.5 41.5t-81.5 15q-63 0 -125 -35t-109 -92q-34 -49 -34 -120v-669h-192v1232h-180z" />
<glyph unicode="&#x453;" horiz-adv-x="843" d="M155 0v1060h652v-155h-460v-905h-192zM355 1205l193 313h213l-268 -313h-138z" />
<glyph unicode="&#x454;" horiz-adv-x="1007" d="M83 519q0 167 74 296.5t205.5 199.5t298.5 70q86 0 162.5 -22t123.5 -49l-46 -138q-120 59 -242 59q-85 0 -154 -26t-115 -71.5t-73.5 -104.5t-36.5 -128h537v-132h-535q12 -158 113.5 -252t259.5 -94q124 0 252 55l40 -136q-49 -27 -134.5 -49t-187.5 -22 q-125 0 -228 42t-171 115t-105.5 172.5t-37.5 214.5z" />
<glyph unicode="&#x455;" horiz-adv-x="867" d="M86 50l48 147q47 -31 116.5 -53.5t136.5 -22.5q101 0 154 44t53 113q0 68 -44.5 111.5t-152.5 83.5q-94 33 -157 79.5t-93 101.5t-30 119.5t25.5 121t71.5 99t115.5 67t153.5 24.5q51 0 101.5 -9.5t89 -24t69.5 -32.5l-49 -141q-96 63 -217 63q-82 0 -129 -42t-47 -104 q0 -63 45 -100.5t156 -79.5q142 -54 210 -129.5t68 -190.5q0 -142 -105.5 -231t-291.5 -89q-170 0 -297 75z" />
<glyph unicode="&#x456;" horiz-adv-x="512" d="M136 1359q0 51 34 85.5t87 34.5t85 -34t32 -86q2 -50 -31.5 -84.5t-89.5 -34.5q-50 0 -83.5 34.5t-33.5 84.5zM160 0v1060h193v-1060h-193z" />
<glyph unicode="&#x457;" horiz-adv-x="512" d="M-57 1361q0 46 33 78.5t79 32.5q30 0 54.5 -14.5t39 -40t14.5 -56.5q0 -45 -31 -78.5t-77 -33.5h-3q-46 0 -77.5 33.5t-31.5 78.5zM160 0v1060h193v-1060h-193zM351 1361q0 46 32 78.5t77.5 32.5t76 -32t30.5 -79q0 -45 -30.5 -78.5t-76.5 -33.5h-2q-46 0 -76.5 33.5 t-30.5 78.5z" />
<glyph unicode="&#x458;" horiz-adv-x="531" d="M-98 -311q145 10 209 81q41 45 57 129t16 270v891h193v-966q0 -159 -29.5 -262t-98.5 -173q-60 -60 -151.5 -90.5t-176.5 -30.5zM160 1359q0 51 34.5 85.5t87.5 34.5t85 -34.5t32 -85.5q2 -49 -31.5 -84t-89.5 -35q-35 0 -62.5 16.5t-41.5 43.5t-14 59z" />
<glyph unicode="&#x459;" horiz-adv-x="1698" d="M4 138q28 3 57 15t48 27q71 49 96 158t25 300v422h728v-359q69 9 173 9q53 0 102 -5t98 -17t91 -31t79 -47.5t62.5 -64.5t40.5 -85t15 -107q0 -149 -107 -242q-141 -122 -460 -122q-145 0 -287 15v903h-355v-269q0 -238 -39.5 -380t-138.5 -208q-41 -32 -89.5 -48.5 t-117.5 -16.5zM956 134q79 -9 142 -9q46 0 89 6.5t87.5 22.5t77.5 40.5t53.5 64t20.5 90.5q0 44 -13.5 79.5t-38.5 59.5t-55.5 41.5t-67.5 27t-71.5 14t-70.5 4.5q-54 0 -153 -14v-427z" />
<glyph unicode="&#x45a;" horiz-adv-x="1713" d="M155 0v1060h192v-393h446v393h194v-370q87 13 179 13q69 0 133 -11t126 -37t108 -65t74 -100.5t28 -138.5q0 -150 -108 -244q-136 -118 -446 -118q-130 0 -288 13v515h-446v-517h-192zM984 134q75 -9 145 -9q44 0 86 6.5t84.5 22t74 39.5t51 63t19.5 89q0 51 -19 90.5 t-49.5 63.5t-73.5 39.5t-84.5 21t-88.5 5.5q-71 0 -145 -11v-420z" />
<glyph unicode="&#x45b;" horiz-adv-x="1250" d="M15 1232v138h180v186h192v-186h443v-138h-443v-343h6q52 78 130 130q88 52 205 52q170 0 270 -117t100 -333v-621h-193v598q0 67 -13 122t-41 99.5t-77 69.5t-115 25q-91 0 -160 -56.5t-98 -136.5q-14 -43 -14 -100v-621h-192v1232h-180z" />
<glyph unicode="&#x45c;" horiz-adv-x="1048" d="M160 0v1060h191v-460h46l398 460h235l-463 -479q84 -8 150.5 -49.5t115 -107.5t91.5 -165q5 -11 23 -56t28.5 -70t28.5 -64t35 -69h-202q-41 65 -99 217q-55 131 -136.5 190.5t-214.5 59.5h-36v-467h-191zM421 1205l192 313h213l-267 -313h-138z" />
<glyph unicode="&#x45e;" horiz-adv-x="1031" d="M19 1060h211l232 -626q43 -123 69 -217h4q6 20 19 64.5t25 83.5t23 74l211 621h203l-288 -755q-108 -283 -188.5 -432.5t-175.5 -232.5q-44 -38 -92.5 -66.5t-82.5 -41t-62 -17.5l-48 163q90 28 168 94q44 35 88 91t75 124q7 17 11 28t4 18q0 14 -13 50zM232 1493h140 q4 -75 40 -121t101 -46q67 0 103 45t43 122h141q-8 -133 -85 -202.5t-207 -69.5q-70 0 -122.5 21t-84.5 58.5t-48.5 85.5t-20.5 107z" />
<glyph unicode="&#x45f;" horiz-adv-x="1178" d="M155 0v1060h192v-909h485v909h193v-1060h-343l-13 -345h-154l-15 345h-345z" />
<glyph unicode="&#x490;" horiz-adv-x="979" d="M167 0v1477h640l34 267h141l-24 -427h-601v-1317h-190z" />
<glyph unicode="&#x491;" horiz-adv-x="858" d="M155 0v1060h502l27 239h138l-13 -392h-462v-907h-192z" />
<glyph unicode="&#x4d9;" horiz-adv-x="717" d="M79 473q0 61 7 90h742q-1 96 -29.5 168.5t-78 115.5t-112.5 64.5t-139 21.5q-97 0 -165 -14.5t-133 -42.5l-33 136q148 73 355 73q160 0 278 -68t179.5 -189t61.5 -280q0 -120 -34.5 -224.5t-97.5 -182t-157.5 -122t-207.5 -44.5q-72 0 -133.5 17.5t-105 47t-78.5 70.5 t-57 85.5t-36 94t-20 94.5t-6 89zM263 425q0 -40 6.5 -79t25.5 -81.5t48 -74.5t77.5 -52.5t110.5 -20.5q57 0 105 19t80.5 50t56.5 72.5t36 82.5t17 84h-563z" />
<glyph unicode="&#x1e80;" horiz-adv-x="1853" d="M33 1477h201l176 -747q62 -262 109 -511h4q25 150 121 513l197 745h200l180 -749q78 -330 103 -507h4q28 150 119 511l194 745h195l-418 -1477h-199l-186 769q-75 305 -98 482h-4q-43 -236 -114 -482l-210 -769h-199zM598 1813h232l205 -255h-159z" />
<glyph unicode="&#x1e81;" horiz-adv-x="1612" d="M40 1060h196l141 -539q60 -232 79 -337h6q25 108 94 337l174 539h162l164 -529q56 -179 94 -347h7q20 130 81 345l151 531h191l-342 -1060h-175l-162 506q-61 193 -94 349h-5q-32 -154 -97 -351l-170 -504h-175zM519 1518h213l190 -313h-136z" />
<glyph unicode="&#x1e82;" horiz-adv-x="1853" d="M33 1477h201l176 -747q62 -262 109 -511h4q25 150 121 513l197 745h200l180 -749q78 -330 103 -507h4q28 150 119 511l194 745h195l-418 -1477h-199l-186 769q-75 305 -98 482h-4q-43 -236 -114 -482l-210 -769h-199zM841 1556l204 257h233l-279 -257h-158z" />
<glyph unicode="&#x1e83;" horiz-adv-x="1612" d="M40 1060h196l141 -539q60 -232 79 -337h6q25 108 94 337l174 539h162l164 -529q56 -179 94 -347h7q20 130 81 345l151 531h191l-342 -1060h-175l-162 506q-61 193 -94 349h-5q-32 -154 -97 -351l-170 -504h-175zM708 1205l193 313h212l-267 -313h-138z" />
<glyph unicode="&#x1e84;" horiz-adv-x="1853" d="M33 1477h201l176 -747q62 -262 109 -511h4q25 150 121 513l197 745h200l180 -749q78 -330 103 -507h4q28 150 119 511l194 745h195l-418 -1477h-199l-186 769q-75 305 -98 482h-4q-43 -236 -114 -482l-210 -769h-199zM625 1692q0 14 3.5 28t10.5 26t16.5 22t21.5 17.5 t26 11.5t29 4q30 0 54 -14.5t37.5 -39.5t13.5 -55q0 -47 -29.5 -79.5t-75.5 -32.5h-2q-47 0 -76 32.5t-29 79.5zM1030 1692q0 45 31.5 77t78.5 32q45 0 74.5 -31.5t29.5 -77.5q0 -47 -29.5 -79.5t-77.5 -32.5h-2q-45 0 -75 32.5t-30 79.5z" />
<glyph unicode="&#x1e85;" horiz-adv-x="1612" d="M40 1060h196l141 -539q60 -232 79 -337h6q25 108 94 337l174 539h162l164 -529q56 -179 94 -347h7q20 130 81 345l151 531h191l-342 -1060h-175l-162 506q-61 193 -94 349h-5q-32 -154 -97 -351l-170 -504h-175zM493 1361q0 46 33 78.5t78.5 32.5t77 -32t31.5 -79 q0 -45 -31 -78.5t-77 -33.5h-3q-30 0 -55.5 15.5t-39.5 41.5t-14 55zM901 1361q0 30 14.5 55.5t39.5 40.5t55 15q46 0 76.5 -32t30.5 -79q0 -45 -30.5 -78.5t-76.5 -33.5h-2q-46 0 -76.5 33.5t-30.5 78.5z" />
<glyph unicode="&#x1ea0;" horiz-adv-x="1340" d="M55 0l501 1477h230l504 -1477h-203l-158 464h-523l-153 -464h-198zM445 613h444l-144 426q-31 91 -76 270h-5q-34 -143 -74 -268zM552 -287q0 23 9 43.5t24.5 35.5t36.5 24t45 9q44 0 75.5 -33t31.5 -79t-32.5 -80t-80.5 -34q-45 0 -77 34t-32 80z" />
<glyph unicode="&#x1ea1;" horiz-adv-x="1056" d="M77 280q0 193 165 295t473 100v22q0 31 -4 59.5t-19 64t-40 61t-71 43.5t-108 18q-73 0 -146 -21.5t-130 -58.5l-44 128q67 43 159 68.5t190 25.5q94 0 166 -25t116 -66t72 -99t38.5 -117t10.5 -127v-396q0 -158 17 -255h-175l-15 134h-7q-48 -68 -132.5 -113.5 t-191.5 -45.5q-78 0 -141 26t-102 69.5t-60 97.5t-21 112zM270 303q0 -90 51.5 -137t130.5 -47q97 0 164 51t92 125q11 32 11 62v184q-449 10 -449 -238zM414 -287q0 46 33.5 79t81.5 33q44 0 75.5 -33t31.5 -79q0 -30 -14.5 -56t-40.5 -42t-58 -16q-30 0 -55 15.5t-39.5 42 t-14.5 56.5z" />
<glyph unicode="&#x1ea2;" horiz-adv-x="1340" d="M55 0l501 1477h230l504 -1477h-203l-158 464h-523l-153 -464h-198zM445 613h444l-144 426q-31 91 -76 270h-5q-34 -143 -74 -268zM483 1801q73 147 216 147q76 0 129 -45.5t53 -112.5q0 -38 -17 -70t-39 -51.5t-52 -51.5t-48 -63l-102 29q11 30 32 57.5t38 42.5t30 37 t13 47q0 31 -19.5 49t-52.5 18q-57 0 -108 -77z" />
<glyph unicode="&#x1ea3;" horiz-adv-x="1056" d="M77 280q0 193 165 295t473 100v22q0 31 -4 59.5t-19 64t-40 61t-71 43.5t-108 18q-73 0 -146 -21.5t-130 -58.5l-44 128q67 43 159 68.5t190 25.5q94 0 166 -25t116 -66t72 -99t38.5 -117t10.5 -127v-396q0 -158 17 -255h-175l-15 134h-7q-48 -68 -132.5 -113.5 t-191.5 -45.5q-78 0 -141 26t-102 69.5t-60 97.5t-21 112zM270 303q0 -90 51.5 -137t130.5 -47q97 0 164 51t92 125q11 32 11 62v184q-449 10 -449 -238zM324 1435q74 148 215 148q78 0 131 -47t53 -118q0 -25 -6 -47.5t-17.5 -40t-25 -33.5t-30 -31.5t-31.5 -31 t-29.5 -34.5t-24.5 -39l-103 27q9 31 30.5 60.5t41.5 48t35.5 44.5t15.5 53q0 34 -21 54t-52 20q-33 0 -58 -20.5t-49 -56.5z" />
<glyph unicode="&#x1ea4;" horiz-adv-x="1340" d="M55 0l501 1477h230l504 -1477h-203l-158 464h-523l-153 -464h-198zM412 1556l201 250h138l209 -250h-153l-121 153h-4l-123 -153h-147zM445 613h444l-144 426q-31 91 -76 270h-5q-34 -143 -74 -268zM855 1742l184 230h195l-266 -230h-113z" />
<glyph unicode="&#x1ea5;" horiz-adv-x="1056" d="M77 280q0 193 165 295t473 100v22q0 31 -4 59.5t-19 64t-40 61t-71 43.5t-108 18q-73 0 -146 -21.5t-130 -58.5l-44 128q67 43 159 68.5t190 25.5q94 0 166 -25t116 -66t72 -99t38.5 -117t10.5 -127v-396q0 -158 17 -255h-175l-15 134h-7q-48 -68 -132.5 -113.5 t-191.5 -45.5q-78 0 -141 26t-102 69.5t-60 97.5t-21 112zM257 1205l184 313h142l188 -313h-146l-112 206h-5l-111 -206h-140zM270 303q0 -90 51.5 -137t130.5 -47q97 0 164 51t92 125q11 32 11 62v184q-449 10 -449 -238zM710 1409l151 289h178l-217 -289h-112z" />
<glyph unicode="&#x1ea6;" horiz-adv-x="1340" d="M55 0l501 1477h230l504 -1477h-203l-158 464h-523l-153 -464h-198zM397 1556l201 250h140l207 -250h-154l-120 153h-4l-121 -153h-149zM445 613h444l-144 426q-31 91 -76 270h-5q-34 -143 -74 -268zM736 1930h199l159 -230h-119z" />
<glyph unicode="&#x1ea7;" horiz-adv-x="1056" d="M77 280q0 193 165 295t473 100v22q0 31 -4 59.5t-19 64t-40 61t-71 43.5t-108 18q-73 0 -146 -21.5t-130 -58.5l-44 128q67 43 159 68.5t190 25.5q94 0 166 -25t116 -66t72 -99t38.5 -117t10.5 -127v-396q0 -158 17 -255h-175l-15 134h-7q-48 -68 -132.5 -113.5 t-191.5 -45.5q-78 0 -141 26t-102 69.5t-60 97.5t-21 112zM255 1205l184 313h142l188 -313h-146l-113 206h-4l-111 -206h-140zM270 303q0 -90 51.5 -137t130.5 -47q97 0 164 51t92 125q11 32 11 62v184q-449 10 -449 -238zM596 1698h175l141 -289h-112z" />
<glyph unicode="&#x1ea8;" horiz-adv-x="1340" d="M55 0l501 1477h230l504 -1477h-203l-158 464h-523l-153 -464h-198zM403 1556l204 250h138l208 -250h-153l-123 153h-4l-121 -153h-149zM445 613h444l-144 426q-31 91 -76 270h-5q-34 -143 -74 -268zM776 1893q68 141 208 141q37 0 69 -12t54.5 -32t36 -49t13.5 -61 q0 -30 -10 -54t-27.5 -43t-36 -36.5t-40.5 -42.5t-37 -52l-92 27q11 29 32 56t38.5 42.5t30.5 37.5t13 46q0 31 -21.5 51t-53.5 20q-54 0 -107 -80z" />
<glyph unicode="&#x1ea9;" horiz-adv-x="1056" d="M77 280q0 193 165 295t473 100v22q0 31 -4 59.5t-19 64t-40 61t-71 43.5t-108 18q-73 0 -146 -21.5t-130 -58.5l-44 128q67 43 159 68.5t190 25.5q94 0 166 -25t116 -66t72 -99t38.5 -117t10.5 -127v-396q0 -158 17 -255h-175l-15 134h-7q-48 -68 -132.5 -113.5 t-191.5 -45.5q-78 0 -141 26t-102 69.5t-60 97.5t-21 112zM249 1205l185 313h143l188 -313h-147l-112 206h-4l-111 -206h-142zM270 303q0 -90 51.5 -137t130.5 -47q97 0 164 51t92 125q11 32 11 62v184q-449 10 -449 -238zM596 1633q70 140 209 140q73 0 123.5 -46 t50.5 -110q0 -37 -16 -67t-37.5 -48.5t-50.5 -49t-47 -61.5l-96 25q11 30 31.5 57t37.5 42t29.5 36.5t12.5 43.5q0 32 -20 52.5t-52 20.5q-52 0 -104 -79z" />
<glyph unicode="&#x1eaa;" horiz-adv-x="1340" d="M55 0l501 1477h230l504 -1477h-203l-158 464h-523l-153 -464h-198zM374 1556l226 250h147l228 -250h-160l-140 151h-4l-138 -151h-159zM410 1834q-2 94 39 151.5t110 57.5q23 0 46 -7t41.5 -16t47.5 -26q7 -3 17.5 -8t16.5 -8t15.5 -7t16 -6.5t14.5 -4t15 -1.5 q26 0 41 20t19 70h102q4 -211 -149 -211q-22 0 -47 7.5t-40.5 15t-45.5 23.5q-38 22 -57.5 30t-39.5 8q-24 0 -39 -24t-16 -64h-107zM445 613h444l-144 426q-31 91 -76 270h-5q-34 -143 -74 -268z" />
<glyph unicode="&#x1eab;" horiz-adv-x="1056" d="M77 280q0 193 165 295t473 100v22q0 31 -4 59.5t-19 64t-40 61t-71 43.5t-108 18q-73 0 -146 -21.5t-130 -58.5l-44 128q67 43 159 68.5t190 25.5q94 0 166 -25t116 -66t72 -99t38.5 -117t10.5 -127v-396q0 -158 17 -255h-175l-15 134h-7q-48 -68 -132.5 -113.5 t-191.5 -45.5q-78 0 -141 26t-102 69.5t-60 97.5t-21 112zM261 1205l195 259h140l201 -259h-151l-117 160h-6l-115 -160h-147zM263 1491q-1 62 17 109t52 72.5t80 25.5q23 0 48 -8t38.5 -14.5t49.5 -25.5q65 -35 94 -35q18 0 29.5 7t19.5 26.5t10 53.5h104q3 -209 -150 -209 q-23 0 -47.5 7t-40.5 14.5t-46 24.5q-38 21 -57 29t-39 8q-16 0 -28.5 -11t-19 -30t-7.5 -44h-107zM270 303q0 -90 51.5 -137t130.5 -47q97 0 164 51t92 125q11 32 11 62v184q-449 10 -449 -238z" />
<glyph unicode="&#x1eac;" horiz-adv-x="1340" d="M55 0l501 1477h230l504 -1477h-203l-158 464h-523l-153 -464h-198zM377 1556l225 250h147l228 -250h-160l-140 151h-4l-140 -151h-156zM445 613h444l-144 426q-31 91 -76 270h-5q-34 -143 -74 -268zM552 -284.5q0 43.5 33 76.5t79 33q44 0 74.5 -33t30.5 -77 q0 -43 -31.5 -77.5t-76.5 -34.5h-2q-43 0 -75 34.5t-32 78z" />
<glyph unicode="&#x1ead;" horiz-adv-x="1056" d="M77 280q0 193 165 295t473 100v22q0 31 -4 59.5t-19 64t-40 61t-71 43.5t-108 18q-73 0 -146 -21.5t-130 -58.5l-44 128q67 43 159 68.5t190 25.5q94 0 166 -25t116 -66t72 -99t38.5 -117t10.5 -127v-396q0 -158 17 -255h-175l-15 134h-7q-48 -68 -132.5 -113.5 t-191.5 -45.5q-78 0 -141 26t-102 69.5t-60 97.5t-21 112zM255 1205l205 313h134l211 -313h-150l-126 208h-6l-126 -208h-142zM270 303q0 -90 51.5 -137t130.5 -47q97 0 164 51t92 125q11 32 11 62v184q-449 10 -449 -238zM414 -287q0 46 33.5 79t81.5 33q44 0 75.5 -33 t31.5 -79q0 -30 -14.5 -56t-40.5 -42t-58 -16q-30 0 -55 15.5t-39.5 42t-14.5 56.5z" />
<glyph unicode="&#x1eae;" horiz-adv-x="1340" d="M55 0l501 1477h230l504 -1477h-203l-158 464h-523l-153 -464h-198zM406 1757h104q7 -29 25 -51.5t55 -39t87 -16.5q143 0 174 107h100q-5 -45 -24.5 -84.5t-52.5 -71.5t-84.5 -50.5t-114.5 -18.5q-62 0 -111.5 18t-82 49.5t-51.5 71t-24 86.5zM445 613h444l-144 426 q-31 91 -76 270h-5q-34 -143 -74 -268zM598 1733l163 230h201l-245 -230h-119z" />
<glyph unicode="&#x1eaf;" horiz-adv-x="1056" d="M77 280q0 193 165 295t473 100v22q0 31 -4 59.5t-19 64t-40 61t-71 43.5t-108 18q-73 0 -146 -21.5t-130 -58.5l-44 128q67 43 159 68.5t190 25.5q94 0 166 -25t116 -66t72 -99t38.5 -117t10.5 -127v-396q0 -158 17 -255h-175l-15 134h-7q-48 -68 -132.5 -113.5 t-191.5 -45.5q-78 0 -141 26t-102 69.5t-60 97.5t-21 112zM236 1440h111q10 -66 56 -109t116 -43q40 0 73 13t53.5 35t32.5 48.5t14 55.5h110q-1 -123 -80 -197.5t-203 -74.5q-70 0 -125 23t-88.5 62t-51 86.5t-18.5 100.5zM270 303q0 -90 51.5 -137t130.5 -47q97 0 164 51 t92 125q11 32 11 62v184q-449 10 -449 -238zM439 1407l172 287h186l-243 -287h-115z" />
<glyph unicode="&#x1eb0;" horiz-adv-x="1340" d="M55 0l501 1477h230l504 -1477h-203l-158 464h-523l-153 -464h-198zM406 1963h201l162 -230h-118zM408 1757h105q11 -45 51.5 -76t114.5 -31q143 0 174 107h100q-5 -45 -24.5 -84.5t-52.5 -71.5t-84.5 -50.5t-114.5 -18.5q-121 0 -189 63.5t-80 161.5zM445 613h444 l-144 426q-31 91 -76 270h-5q-34 -143 -74 -268z" />
<glyph unicode="&#x1eb1;" horiz-adv-x="1056" d="M77 280q0 193 165 295t473 100v22q0 31 -4 59.5t-19 64t-40 61t-71 43.5t-108 18q-73 0 -146 -21.5t-130 -58.5l-44 128q67 43 159 68.5t190 25.5q94 0 166 -25t116 -66t72 -99t38.5 -117t10.5 -127v-396q0 -158 17 -255h-175l-15 134h-7q-48 -68 -132.5 -113.5 t-191.5 -45.5q-78 0 -141 26t-102 69.5t-60 97.5t-21 112zM236 1440h111q10 -66 56 -109t116 -43q78 0 124 45t51 107h108q-1 -123 -79 -197.5t-204 -74.5q-70 0 -125 23t-88.5 62t-51 86.5t-18.5 100.5zM247 1694h184l176 -287h-118zM270 303q0 -90 51.5 -137t130.5 -47 q97 0 164 51t92 125q11 32 11 62v184q-449 10 -449 -238z" />
<glyph unicode="&#x1eb2;" horiz-adv-x="1340" d="M55 0l501 1477h230l504 -1477h-203l-158 464h-523l-153 -464h-198zM408 1757h105q11 -45 52 -76t117 -31q140 0 171 107h103q-6 -45 -26 -84.5t-53.5 -71.5t-85 -50.5t-114.5 -18.5q-120 0 -188.5 63.5t-80.5 161.5zM445 613h444l-144 426q-31 91 -76 270h-5 q-34 -143 -74 -268zM480 1946q69 140 208 140q73 0 123 -44.5t50 -109.5q0 -30 -9.5 -54.5t-26.5 -44t-35.5 -36.5t-41 -42t-38.5 -50l-95 26q12 30 32.5 56.5t37.5 42t30 37t13 44.5q0 21 -9.5 36.5t-26 24.5t-37.5 9q-55 0 -105 -76z" />
<glyph unicode="&#x1eb3;" horiz-adv-x="1056" d="M77 280q0 193 165 295t473 100v22q0 31 -4 59.5t-19 64t-40 61t-71 43.5t-108 18q-73 0 -146 -21.5t-130 -58.5l-44 128q67 43 159 68.5t190 25.5q94 0 166 -25t116 -66t72 -99t38.5 -117t10.5 -127v-396q0 -158 17 -255h-175l-15 134h-7q-48 -68 -132.5 -113.5 t-191.5 -45.5q-78 0 -141 26t-102 69.5t-60 97.5t-21 112zM234 1440h111q10 -66 56 -109t116 -43q78 0 123 45t50 107h110q-1 -81 -37 -143t-100 -95.5t-146 -33.5q-70 0 -125 23t-88.5 62t-51 86.5t-18.5 100.5zM270 303q0 -90 51.5 -137t130.5 -47q97 0 164 51t92 125 q11 32 11 62v184q-449 10 -449 -238zM314 1631q70 140 207 140q48 0 88.5 -21t64 -57t23.5 -78q0 -37 -16.5 -67.5t-37.5 -49t-50 -48.5t-47 -61l-97 24q12 31 32.5 57.5t37 42t29.5 36.5t13 44q0 32 -20.5 52t-53.5 20q-53 0 -104 -78z" />
<glyph unicode="&#x1eb4;" horiz-adv-x="1340" d="M55 0l501 1477h230l504 -1477h-203l-158 464h-523l-153 -464h-198zM395 1757h103q13 -46 54 -76.5t115 -30.5q77 0 116 28.5t54 78.5h104q-5 -45 -25 -84.5t-53 -71.5t-84.5 -50.5t-114.5 -18.5q-121 0 -190 63.5t-79 161.5zM401 1832q4 85 42.5 136.5t106.5 51.5 q17 0 32.5 -2.5t35.5 -11t29.5 -13t38.5 -19.5q65 -35 92 -35q28 0 42 18.5t19 69.5h102q3 -210 -150 -210q-31 0 -61 11.5t-73 34.5q-26 15 -39 21.5t-27.5 11t-27.5 4.5q-41 0 -55 -68h-107zM445 613h444l-144 426q-31 91 -76 270h-5q-34 -143 -74 -268z" />
<glyph unicode="&#x1eb5;" horiz-adv-x="1056" d="M77 280q0 193 165 295t473 100v22q0 31 -4 59.5t-19 64t-40 61t-71 43.5t-108 18q-73 0 -146 -21.5t-130 -58.5l-44 128q67 43 159 68.5t190 25.5q94 0 166 -25t116 -66t72 -99t38.5 -117t10.5 -127v-396q0 -158 17 -255h-175l-15 134h-7q-48 -68 -132.5 -113.5 t-191.5 -45.5q-78 0 -141 26t-102 69.5t-60 97.5t-21 112zM247 1440h108q10 -66 56.5 -110t114.5 -44q77 0 121 46t50 108h108q-2 -123 -78.5 -197.5t-200.5 -74.5q-69 0 -123.5 23t-87.5 62t-50 86.5t-18 100.5zM259 1530q3 84 41.5 136t107.5 52q22 0 47.5 -7.5t39 -14.5 t49.5 -26q6 -3 19.5 -10t20.5 -10t17 -7.5t18.5 -6t16.5 -1.5q28 0 43 19.5t18 70.5h103q2 -104 -36.5 -157.5t-115.5 -53.5q-56 0 -131 46l-14 7l-13 6.5t-11.5 5.5t-11.5 5t-9.5 3.5t-10 3.5t-9 2.5t-9.5 1.5h-8q-23 0 -36 -19t-17 -46h-109zM270 303q0 -90 51.5 -137 t130.5 -47q97 0 164 51t92 125q11 32 11 62v184q-449 10 -449 -238z" />
<glyph unicode="&#x1eb6;" horiz-adv-x="1340" d="M55 0l501 1477h230l504 -1477h-203l-158 464h-523l-153 -464h-198zM399 1823h114q9 -44 47 -75.5t111 -31.5q139 0 159 107h113q-4 -104 -72 -168t-202 -64q-133 0 -199.5 63.5t-70.5 168.5zM445 613h444l-144 426q-31 91 -76 270h-5q-34 -143 -74 -268zM559 -284.5 q0 43.5 32.5 76.5t79.5 33q43 0 74 -33t31 -77q0 -43 -31.5 -77.5t-75.5 -34.5h-2q-44 0 -76 34.5t-32 78z" />
<glyph unicode="&#x1eb7;" horiz-adv-x="1056" d="M77 280q0 193 165 295t473 100v22q0 31 -4 59.5t-19 64t-40 61t-71 43.5t-108 18q-73 0 -146 -21.5t-130 -58.5l-44 128q67 43 159 68.5t190 25.5q94 0 166 -25t116 -66t72 -99t38.5 -117t10.5 -127v-396q0 -158 17 -255h-175l-15 134h-7q-48 -68 -132.5 -113.5 t-191.5 -45.5q-78 0 -141 26t-102 69.5t-60 97.5t-21 112zM257 1495h113q10 -67 52 -109.5t107 -42.5q71 0 111 45t46 107h114q0 -123 -74 -197.5t-197 -74.5q-56 0 -102 15.5t-77.5 41t-52.5 61t-30.5 74t-9.5 80.5zM270 303q0 -90 51.5 -137t130.5 -47q97 0 164 51t92 125 q11 32 11 62v184q-449 10 -449 -238zM414 -287q0 46 33.5 79t81.5 33q44 0 75.5 -33t31.5 -79q0 -30 -14.5 -56t-40.5 -42t-58 -16q-30 0 -55 15.5t-39.5 42t-14.5 56.5z" />
<glyph unicode="&#x1eb8;" horiz-adv-x="1077" d="M167 0v1477h797v-160h-607v-466h574v-159h-574v-532h640v-160h-830zM429 -284.5q0 43.5 33 76.5t79 33q44 0 74.5 -33t30.5 -77q0 -43 -31 -77.5t-76 -34.5h-2q-43 0 -75.5 34.5t-32.5 78z" />
<glyph unicode="&#x1eb9;" horiz-adv-x="1097" d="M83 513q0 119 35 223.5t98 182t157.5 122t207.5 44.5q72 0 133.5 -17.5t105.5 -47.5t79 -71t57 -85.5t36.5 -94.5t20.5 -95t6 -89q0 -32 -7 -90h-744q1 -94 30.5 -166.5t80.5 -115.5t114.5 -64.5t137.5 -21.5q166 0 293 55l34 -138q-149 -69 -353 -69q-161 0 -279.5 68 t-180.5 189t-62 281zM270 633h562q1 41 -5.5 81t-25 83t-47.5 75.5t-78 53.5t-111 21q-47 0 -88.5 -14t-71.5 -38t-54.5 -54.5t-41 -66.5t-26 -71t-13.5 -70zM437 -287q0 46 33 79t80 33q44 0 75.5 -33t31.5 -79q0 -30 -14 -56t-40 -42t-57 -16q-30 0 -55.5 15.5t-39.5 42 t-14 56.5z" />
<glyph unicode="&#x1eba;" horiz-adv-x="1077" d="M167 0v1477h797v-160h-607v-466h574v-159h-574v-532h640v-160h-830zM395 1801q74 147 216 147q76 0 129 -45.5t53 -112.5q0 -38 -17 -70t-39 -51.5t-51.5 -51.5t-47.5 -63l-103 29q12 30 32.5 57.5t37.5 42.5t30 37t13 47q0 20 -8.5 35.5t-24.5 23.5t-38 8 q-58 0 -108 -77z" />
<glyph unicode="&#x1ebb;" horiz-adv-x="1097" d="M83 513q0 119 35 223.5t98 182t157.5 122t207.5 44.5q72 0 133.5 -17.5t105.5 -47.5t79 -71t57 -85.5t36.5 -94.5t20.5 -95t6 -89q0 -32 -7 -90h-744q1 -94 30.5 -166.5t80.5 -115.5t114.5 -64.5t137.5 -21.5q166 0 293 55l34 -138q-149 -69 -353 -69q-161 0 -279.5 68 t-180.5 189t-62 281zM270 633h562q1 41 -5.5 81t-25 83t-47.5 75.5t-78 53.5t-111 21q-47 0 -88.5 -14t-71.5 -38t-54.5 -54.5t-41 -66.5t-26 -71t-13.5 -70zM345 1435q73 148 214 148q77 0 130.5 -47t53.5 -118q0 -29 -9 -55t-22.5 -44t-32 -38t-36 -36t-35.5 -38.5 t-29 -45.5l-104 27q9 31 30.5 60.5t41.5 48t35.5 44.5t15.5 53q0 34 -20.5 54t-51.5 20q-56 0 -108 -77z" />
<glyph unicode="&#x1ebc;" horiz-adv-x="1077" d="M167 0v1477h797v-160h-607v-466h574v-159h-574v-532h640v-160h-830zM311 1566q-3 102 37 163t112 61q14 0 28 -2.5t24.5 -5.5t26 -10t24 -11.5t27.5 -14.5q1 -1 10 -5.5l11 -5.5t10 -5.5t11 -5.5t10 -4.5t10.5 -4.5t10 -3t11 -3t10 -1.5t10.5 -0.5q27 0 41.5 17.5 t18.5 67.5h101q3 -212 -147 -212q-52 0 -133 42q-5 2 -23 12t-24 12.5t-18.5 7.5t-21 7t-17.5 2q-50 0 -57 -97h-103z" />
<glyph unicode="&#x1ebd;" horiz-adv-x="1097" d="M83 513q0 119 35 223.5t98 182t157.5 122t207.5 44.5q72 0 133.5 -17.5t105.5 -47.5t79 -71t57 -85.5t36.5 -94.5t20.5 -95t6 -89q0 -32 -7 -90h-744q1 -94 30.5 -166.5t80.5 -115.5t114.5 -64.5t137.5 -21.5q166 0 293 55l34 -138q-149 -69 -353 -69q-161 0 -279.5 68 t-180.5 189t-62 281zM270 633h562q1 41 -5.5 81t-25 83t-47.5 75.5t-78 53.5t-111 21q-47 0 -88.5 -14t-71.5 -38t-54.5 -54.5t-41 -66.5t-26 -71t-13.5 -70zM278 1242q-3 106 37.5 167t111.5 61q33 0 62.5 -11.5t73.5 -36.5q3 -2 12.5 -7t13 -7t11.5 -6l12 -6t11 -4.5 t11.5 -4t10 -2t10.5 -0.5q28 0 43.5 20.5t18.5 73.5h103q3 -221 -151 -221q-52 0 -134 44q-35 22 -55 30.5t-39 8.5q-51 0 -58 -99h-105z" />
<glyph unicode="&#x1ebe;" horiz-adv-x="1077" d="M167 0v1477h797v-160h-607v-466h574v-159h-574v-532h640v-160h-830zM303 1556l201 250h138l209 -250h-154l-120 153h-5l-123 -153h-146zM745 1742l184 230h196l-266 -230h-114z" />
<glyph unicode="&#x1ebf;" horiz-adv-x="1097" d="M83 513q0 119 35 223.5t98 182t157.5 122t207.5 44.5q72 0 133.5 -17.5t105.5 -47.5t79 -71t57 -85.5t36.5 -94.5t20.5 -95t6 -89q0 -32 -7 -90h-744q1 -94 30.5 -166.5t80.5 -115.5t114.5 -64.5t137.5 -21.5q166 0 293 55l34 -138q-149 -69 -353 -69q-161 0 -279.5 68 t-180.5 189t-62 281zM270 633h562q1 41 -5.5 81t-25 83t-47.5 75.5t-78 53.5t-111 21q-47 0 -88.5 -14t-71.5 -38t-54.5 -54.5t-41 -66.5t-26 -71t-13.5 -70zM328 1205l185 313h142l188 -313h-146l-112 206h-4l-112 -206h-141zM782 1409l151 289h178l-216 -289h-113z" />
<glyph unicode="&#x1ec0;" horiz-adv-x="1077" d="M167 0v1477h797v-160h-607v-466h574v-159h-574v-532h640v-160h-830zM293 1556l202 250h141l205 -250h-153l-121 153h-4l-120 -153h-150zM633 1930h199l159 -230h-119z" />
<glyph unicode="&#x1ec1;" horiz-adv-x="1097" d="M83 513q0 119 35 223.5t98 182t157.5 122t207.5 44.5q72 0 133.5 -17.5t105.5 -47.5t79 -71t57 -85.5t36.5 -94.5t20.5 -95t6 -89q0 -32 -7 -90h-744q1 -94 30.5 -166.5t80.5 -115.5t114.5 -64.5t137.5 -21.5q166 0 293 55l34 -138q-149 -69 -353 -69q-161 0 -279.5 68 t-180.5 189t-62 281zM270 633h562q1 41 -5.5 81t-25 83t-47.5 75.5t-78 53.5t-111 21q-47 0 -88.5 -14t-71.5 -38t-54.5 -54.5t-41 -66.5t-26 -71t-13.5 -70zM322 1205l184 313h142l189 -313h-147l-111 206h-4l-113 -206h-140zM664 1698h175l140 -289h-111z" />
<glyph unicode="&#x1ec2;" horiz-adv-x="1077" d="M167 0v1477h797v-160h-607v-466h574v-159h-574v-532h640v-160h-830zM291 1556l204 250h138l208 -250h-153l-123 153h-4l-120 -153h-150zM664 1893q69 141 208 141q74 0 123.5 -44t49.5 -110q0 -36 -16 -66t-37.5 -49t-50.5 -50t-46 -63l-93 27q12 29 33 56t38 42.5 t30 37.5t13 46q0 31 -21.5 51t-53.5 20q-54 0 -107 -80z" />
<glyph unicode="&#x1ec3;" horiz-adv-x="1097" d="M83 513q0 119 35 223.5t98 182t157.5 122t207.5 44.5q72 0 133.5 -17.5t105.5 -47.5t79 -71t57 -85.5t36.5 -94.5t20.5 -95t6 -89q0 -32 -7 -90h-744q1 -94 30.5 -166.5t80.5 -115.5t114.5 -64.5t137.5 -21.5q166 0 293 55l34 -138q-149 -69 -353 -69q-161 0 -279.5 68 t-180.5 189t-62 281zM270 633h562q1 41 -5.5 81t-25 83t-47.5 75.5t-78 53.5t-111 21q-47 0 -88.5 -14t-71.5 -38t-54.5 -54.5t-41 -66.5t-26 -71t-13.5 -70zM311 1205l184 313h143l188 -313h-147l-112 206h-4l-111 -206h-141zM657 1633q70 140 209 140q73 0 124 -46 t51 -110q0 -37 -16.5 -67t-38 -48.5t-50.5 -49t-47 -61.5l-96 25q11 30 32 57t37.5 42t29.5 36.5t13 43.5q0 32 -20.5 52.5t-52.5 20.5q-52 0 -104 -79z" />
<glyph unicode="&#x1ec4;" horiz-adv-x="1077" d="M167 0v1477h797v-160h-607v-466h574v-159h-574v-532h640v-160h-830zM289 1556l226 250h146l228 -250h-159l-140 151h-5l-138 -151h-158zM324 1834q-1 94 39.5 151.5t109.5 57.5q33 0 62.5 -11.5t73.5 -37.5q6 -2 20 -9.5t20.5 -10.5t17.5 -7t19.5 -6t16.5 -2q27 0 42 20 t18 70h103q3 -211 -149 -211q-23 0 -47.5 7.5t-40 15t-46.5 23.5q-38 22 -57 30t-39 8q-25 0 -39.5 -24t-16.5 -64h-107z" />
<glyph unicode="&#x1ec5;" horiz-adv-x="1097" d="M83 513q0 119 35 223.5t98 182t157.5 122t207.5 44.5q72 0 133.5 -17.5t105.5 -47.5t79 -71t57 -85.5t36.5 -94.5t20.5 -95t6 -89q0 -32 -7 -90h-744q1 -94 30.5 -166.5t80.5 -115.5t114.5 -64.5t137.5 -21.5q166 0 293 55l34 -138q-149 -69 -353 -69q-161 0 -279.5 68 t-180.5 189t-62 281zM270 633h562q1 41 -5.5 81t-25 83t-47.5 75.5t-78 53.5t-111 21q-47 0 -88.5 -14t-71.5 -38t-54.5 -54.5t-41 -66.5t-26 -71t-13.5 -70zM305 1205l195 259h140l201 -259h-151l-118 160h-5l-115 -160h-147zM307 1491q-2 93 39 150t110 57q22 0 47.5 -8 t39 -14.5t49.5 -25.5q64 -35 94 -35q18 0 29.5 7t19.5 26.5t10 53.5h104q3 -209 -150 -209q-23 0 -47.5 7t-40.5 14.5t-46 24.5q-38 21 -57 29t-39 8q-25 0 -39 -23.5t-16 -61.5h-107z" />
<glyph unicode="&#x1ec6;" horiz-adv-x="1077" d="M167 0v1477h797v-160h-607v-466h574v-159h-574v-532h640v-160h-830zM274 1556l226 250h146l228 -250h-159l-140 151h-6l-140 -151h-155zM462 -284.5q0 43.5 33 76.5t80 33q43 0 73.5 -33t30.5 -77q0 -43 -31 -77.5t-76 -34.5h-3q-43 0 -75 34.5t-32 78z" />
<glyph unicode="&#x1ec7;" horiz-adv-x="1097" d="M83 513q0 119 35 223.5t98 182t157.5 122t207.5 44.5q72 0 133.5 -17.5t105.5 -47.5t79 -71t57 -85.5t36.5 -94.5t20.5 -95t6 -89q0 -32 -7 -90h-744q1 -94 30.5 -166.5t80.5 -115.5t114.5 -64.5t137.5 -21.5q166 0 293 55l34 -138q-149 -69 -353 -69q-161 0 -279.5 68 t-180.5 189t-62 281zM270 633h562q1 41 -5.5 81t-25 83t-47.5 75.5t-78 53.5t-111 21q-47 0 -88.5 -14t-71.5 -38t-54.5 -54.5t-41 -66.5t-26 -71t-13.5 -70zM274 1205l206 313h133l211 -313h-149l-127 208h-4l-128 -208h-142zM437 -287q0 46 33 79t80 33q44 0 75.5 -33 t31.5 -79q0 -30 -14 -56t-40 -42t-57 -16q-30 0 -55.5 15.5t-39.5 42t-14 56.5z" />
<glyph unicode="&#x1ec8;" horiz-adv-x="523" d="M73 1801q74 147 216 147q76 0 129 -45.5t53 -112.5q0 -38 -17 -70t-39 -51.5t-51.5 -51.5t-47.5 -63l-103 29q7 18 17.5 35t20.5 29.5t21 24t20.5 22t17.5 21t12 24t4 28.5q0 31 -19 49t-52 18q-58 0 -108 -77zM167 0v1477h190v-1477h-190z" />
<glyph unicode="&#x1ec9;" horiz-adv-x="512" d="M52 1435q74 148 216 148q77 0 130.5 -47t53.5 -118q0 -35 -12 -64t-32 -51.5t-41 -42.5t-44 -46t-36 -53l-103 27q9 31 30.5 60.5t41.5 48t35.5 44.5t15.5 53q0 34 -21 54t-52 20q-32 0 -57 -20.5t-50 -56.5zM160 0v1060h193v-1060h-193z" />
<glyph unicode="&#x1eca;" horiz-adv-x="523" d="M153 -285q0 44 33 77t79 33q22 0 41.5 -9.5t33.5 -24.5t22 -35t8 -41q0 -43 -31 -77.5t-76 -34.5h-2q-29 0 -54 16t-39.5 42t-14.5 54zM167 0v1477h190v-1477h-190z" />
<glyph unicode="&#x1ecb;" horiz-adv-x="512" d="M136 1359q0 51 34 85.5t87 34.5t85 -34t32 -86q2 -50 -31.5 -84.5t-89.5 -34.5q-50 0 -83.5 34.5t-33.5 84.5zM142 -287q0 46 34 79t81 33q44 0 75.5 -33t31.5 -79q0 -47 -32 -80.5t-79 -33.5q-46 0 -78.5 34t-32.5 80zM160 0v1060h193v-1060h-193z" />
<glyph unicode="&#x1ecc;" horiz-adv-x="1509" d="M79 725q0 173 52 319t143 246t217.5 155.5t273.5 55.5q149 0 273.5 -55t210 -153.5t132.5 -236.5t47 -302q0 -149 -35 -275.5t-97.5 -218.5t-148.5 -156.5t-188.5 -96.5t-215.5 -32q-145 0 -268.5 55t-210.5 152.5t-136 237.5t-49 305zM282 730q0 -95 20 -183.5t60 -164 t96 -131.5t132 -87.5t164 -31.5q75 0 140.5 22t117 62t92.5 96.5t68 124.5t41 146t14 162q0 63 -9 125t-28.5 121.5t-47.5 112.5t-67 97t-86 76t-106.5 50t-126.5 18q-92 0 -170 -33t-133 -90.5t-94 -135.5t-58 -168t-19 -188zM646 -284.5q0 43.5 33 76.5t80 33 q43 0 73.5 -33t30.5 -77q0 -43 -31 -77.5t-76 -34.5h-2q-43 0 -75.5 34.5t-32.5 78z" />
</font>
</defs>
</svg>
